<svg xmlns="http://www.w3.org/2000/svg" xmlns:xlink="http://www.w3.org/1999/xlink" width="600" height="400" viewBox="0 0 2400 1600">
<defs>
  <clipPath id="clip810">
    <rect x="0" y="0" width="2400" height="1600"></rect>
  </clipPath>
</defs>
<path clip-path="url(#clip810)" d="M0 1600 L2400 1600 L2400 0 L0 0  Z" fill="#ffffff" fill-rule="evenodd" fill-opacity="1"></path>
<defs>
  <clipPath id="clip811">
    <rect x="480" y="0" width="1681" height="1600"></rect>
  </clipPath>
</defs>
<defs>
  <clipPath id="clip812">
    <rect x="156" y="123" width="2198" height="1364"></rect>
  </clipPath>
</defs>
<path clip-path="url(#clip810)" d="M305.232 1486.45 L2352.76 1486.45 L2352.76 123.472 L305.232 123.472  Z" fill="#ffffff" fill-rule="evenodd" fill-opacity="1"></path>
<defs>
  <clipPath id="clip813">
    <rect x="305" y="123" width="2049" height="1364"></rect>
  </clipPath>
</defs>
<polyline clip-path="url(#clip813)" style="stroke:#000000; stroke-linecap:round; stroke-linejoin:round; stroke-width:2; stroke-opacity:0.1; fill:none" points="363.18,1486.45 363.18,123.472 "></polyline>
<polyline clip-path="url(#clip813)" style="stroke:#000000; stroke-linecap:round; stroke-linejoin:round; stroke-width:2; stroke-opacity:0.1; fill:none" points="846.087,1486.45 846.087,123.472 "></polyline>
<polyline clip-path="url(#clip813)" style="stroke:#000000; stroke-linecap:round; stroke-linejoin:round; stroke-width:2; stroke-opacity:0.1; fill:none" points="1328.99,1486.45 1328.99,123.472 "></polyline>
<polyline clip-path="url(#clip813)" style="stroke:#000000; stroke-linecap:round; stroke-linejoin:round; stroke-width:2; stroke-opacity:0.1; fill:none" points="1811.9,1486.45 1811.9,123.472 "></polyline>
<polyline clip-path="url(#clip813)" style="stroke:#000000; stroke-linecap:round; stroke-linejoin:round; stroke-width:2; stroke-opacity:0.1; fill:none" points="2294.81,1486.45 2294.81,123.472 "></polyline>
<polyline clip-path="url(#clip810)" style="stroke:#000000; stroke-linecap:round; stroke-linejoin:round; stroke-width:4; stroke-opacity:1; fill:none" points="305.232,1486.45 2352.76,1486.45 "></polyline>
<polyline clip-path="url(#clip810)" style="stroke:#000000; stroke-linecap:round; stroke-linejoin:round; stroke-width:4; stroke-opacity:1; fill:none" points="363.18,1486.45 363.18,1467.55 "></polyline>
<polyline clip-path="url(#clip810)" style="stroke:#000000; stroke-linecap:round; stroke-linejoin:round; stroke-width:4; stroke-opacity:1; fill:none" points="846.087,1486.45 846.087,1467.55 "></polyline>
<polyline clip-path="url(#clip810)" style="stroke:#000000; stroke-linecap:round; stroke-linejoin:round; stroke-width:4; stroke-opacity:1; fill:none" points="1328.99,1486.45 1328.99,1467.55 "></polyline>
<polyline clip-path="url(#clip810)" style="stroke:#000000; stroke-linecap:round; stroke-linejoin:round; stroke-width:4; stroke-opacity:1; fill:none" points="1811.9,1486.45 1811.9,1467.55 "></polyline>
<polyline clip-path="url(#clip810)" style="stroke:#000000; stroke-linecap:round; stroke-linejoin:round; stroke-width:4; stroke-opacity:1; fill:none" points="2294.81,1486.45 2294.81,1467.55 "></polyline>
<path clip-path="url(#clip810)" d="M315.253 1544.91 L322.891 1544.91 L322.891 1518.55 L314.581 1520.21 L314.581 1515.95 L322.845 1514.29 L327.521 1514.29 L327.521 1544.91 L335.16 1544.91 L335.16 1548.85 L315.253 1548.85 L315.253 1544.91 Z" fill="#000000" fill-rule="nonzero" fill-opacity="1"></path><path clip-path="url(#clip810)" d="M344.604 1542.97 L349.488 1542.97 L349.488 1548.85 L344.604 1548.85 L344.604 1542.97 Z" fill="#000000" fill-rule="nonzero" fill-opacity="1"></path><path clip-path="url(#clip810)" d="M369.674 1517.37 Q366.062 1517.37 364.234 1520.93 Q362.428 1524.47 362.428 1531.6 Q362.428 1538.71 364.234 1542.27 Q366.062 1545.82 369.674 1545.82 Q373.308 1545.82 375.113 1542.27 Q376.942 1538.71 376.942 1531.6 Q376.942 1524.47 375.113 1520.93 Q373.308 1517.37 369.674 1517.37 M369.674 1513.66 Q375.484 1513.66 378.539 1518.27 Q381.618 1522.85 381.618 1531.6 Q381.618 1540.33 378.539 1544.94 Q375.484 1549.52 369.674 1549.52 Q363.863 1549.52 360.785 1544.94 Q357.729 1540.33 357.729 1531.6 Q357.729 1522.85 360.785 1518.27 Q363.863 1513.66 369.674 1513.66 Z" fill="#000000" fill-rule="nonzero" fill-opacity="1"></path><path clip-path="url(#clip810)" d="M399.835 1517.37 Q396.224 1517.37 394.396 1520.93 Q392.59 1524.47 392.59 1531.6 Q392.59 1538.71 394.396 1542.27 Q396.224 1545.82 399.835 1545.82 Q403.47 1545.82 405.275 1542.27 Q407.104 1538.71 407.104 1531.6 Q407.104 1524.47 405.275 1520.93 Q403.47 1517.37 399.835 1517.37 M399.835 1513.66 Q405.646 1513.66 408.701 1518.27 Q411.78 1522.85 411.78 1531.6 Q411.78 1540.33 408.701 1544.94 Q405.646 1549.52 399.835 1549.52 Q394.025 1549.52 390.947 1544.94 Q387.891 1540.33 387.891 1531.6 Q387.891 1522.85 390.947 1518.27 Q394.025 1513.66 399.835 1513.66 Z" fill="#000000" fill-rule="nonzero" fill-opacity="1"></path><path clip-path="url(#clip810)" d="M798.657 1544.91 L806.296 1544.91 L806.296 1518.55 L797.986 1520.21 L797.986 1515.95 L806.249 1514.29 L810.925 1514.29 L810.925 1544.91 L818.564 1544.91 L818.564 1548.85 L798.657 1548.85 L798.657 1544.91 Z" fill="#000000" fill-rule="nonzero" fill-opacity="1"></path><path clip-path="url(#clip810)" d="M828.009 1542.97 L832.893 1542.97 L832.893 1548.85 L828.009 1548.85 L828.009 1542.97 Z" fill="#000000" fill-rule="nonzero" fill-opacity="1"></path><path clip-path="url(#clip810)" d="M847.106 1544.91 L863.425 1544.91 L863.425 1548.85 L841.481 1548.85 L841.481 1544.91 Q844.143 1542.16 848.726 1537.53 Q853.332 1532.88 854.513 1531.53 Q856.758 1529.01 857.638 1527.27 Q858.541 1525.51 858.541 1523.82 Q858.541 1521.07 856.596 1519.33 Q854.675 1517.6 851.573 1517.6 Q849.374 1517.6 846.92 1518.36 Q844.49 1519.13 841.712 1520.68 L841.712 1515.95 Q844.536 1514.82 846.99 1514.24 Q849.444 1513.66 851.481 1513.66 Q856.851 1513.66 860.045 1516.35 Q863.24 1519.03 863.24 1523.52 Q863.24 1525.65 862.43 1527.57 Q861.643 1529.47 859.536 1532.07 Q858.957 1532.74 855.856 1535.95 Q852.754 1539.15 847.106 1544.91 Z" fill="#000000" fill-rule="nonzero" fill-opacity="1"></path><path clip-path="url(#clip810)" d="M873.286 1514.29 L891.642 1514.29 L891.642 1518.22 L877.568 1518.22 L877.568 1526.7 Q878.587 1526.35 879.605 1526.19 Q880.624 1526 881.643 1526 Q887.43 1526 890.809 1529.17 Q894.189 1532.34 894.189 1537.76 Q894.189 1543.34 890.717 1546.44 Q887.244 1549.52 880.925 1549.52 Q878.749 1549.52 876.481 1549.15 Q874.235 1548.78 871.828 1548.04 L871.828 1543.34 Q873.911 1544.47 876.133 1545.03 Q878.355 1545.58 880.832 1545.58 Q884.837 1545.58 887.175 1543.48 Q889.513 1541.37 889.513 1537.76 Q889.513 1534.15 887.175 1532.04 Q884.837 1529.94 880.832 1529.94 Q878.957 1529.94 877.082 1530.35 Q875.231 1530.77 873.286 1531.65 L873.286 1514.29 Z" fill="#000000" fill-rule="nonzero" fill-opacity="1"></path><path clip-path="url(#clip810)" d="M1281.07 1544.91 L1288.7 1544.91 L1288.7 1518.55 L1280.39 1520.21 L1280.39 1515.95 L1288.66 1514.29 L1293.33 1514.29 L1293.33 1544.91 L1300.97 1544.91 L1300.97 1548.85 L1281.07 1548.85 L1281.07 1544.91 Z" fill="#000000" fill-rule="nonzero" fill-opacity="1"></path><path clip-path="url(#clip810)" d="M1310.42 1542.97 L1315.3 1542.97 L1315.3 1548.85 L1310.42 1548.85 L1310.42 1542.97 Z" fill="#000000" fill-rule="nonzero" fill-opacity="1"></path><path clip-path="url(#clip810)" d="M1325.53 1514.29 L1343.89 1514.29 L1343.89 1518.22 L1329.82 1518.22 L1329.82 1526.7 Q1330.83 1526.35 1331.85 1526.19 Q1332.87 1526 1333.89 1526 Q1339.68 1526 1343.06 1529.17 Q1346.44 1532.34 1346.44 1537.76 Q1346.44 1543.34 1342.96 1546.44 Q1339.49 1549.52 1333.17 1549.52 Q1331 1549.52 1328.73 1549.15 Q1326.48 1548.78 1324.07 1548.04 L1324.07 1543.34 Q1326.16 1544.47 1328.38 1545.03 Q1330.6 1545.58 1333.08 1545.58 Q1337.08 1545.58 1339.42 1543.48 Q1341.76 1541.37 1341.76 1537.76 Q1341.76 1534.15 1339.42 1532.04 Q1337.08 1529.94 1333.08 1529.94 Q1331.2 1529.94 1329.33 1530.35 Q1327.48 1530.77 1325.53 1531.65 L1325.53 1514.29 Z" fill="#000000" fill-rule="nonzero" fill-opacity="1"></path><path clip-path="url(#clip810)" d="M1365.65 1517.37 Q1362.04 1517.37 1360.21 1520.93 Q1358.4 1524.47 1358.4 1531.6 Q1358.4 1538.71 1360.21 1542.27 Q1362.04 1545.82 1365.65 1545.82 Q1369.28 1545.82 1371.09 1542.27 Q1372.92 1538.71 1372.92 1531.6 Q1372.92 1524.47 1371.09 1520.93 Q1369.28 1517.37 1365.65 1517.37 M1365.65 1513.66 Q1371.46 1513.66 1374.51 1518.27 Q1377.59 1522.85 1377.59 1531.6 Q1377.59 1540.33 1374.51 1544.94 Q1371.46 1549.52 1365.65 1549.52 Q1359.84 1549.52 1356.76 1544.94 Q1353.7 1540.33 1353.7 1531.6 Q1353.7 1522.85 1356.76 1518.27 Q1359.84 1513.66 1365.65 1513.66 Z" fill="#000000" fill-rule="nonzero" fill-opacity="1"></path><path clip-path="url(#clip810)" d="M1764.47 1544.91 L1772.11 1544.91 L1772.11 1518.55 L1763.8 1520.21 L1763.8 1515.95 L1772.06 1514.29 L1776.74 1514.29 L1776.74 1544.91 L1784.38 1544.91 L1784.38 1548.85 L1764.47 1548.85 L1764.47 1544.91 Z" fill="#000000" fill-rule="nonzero" fill-opacity="1"></path><path clip-path="url(#clip810)" d="M1793.82 1542.97 L1798.71 1542.97 L1798.71 1548.85 L1793.82 1548.85 L1793.82 1542.97 Z" fill="#000000" fill-rule="nonzero" fill-opacity="1"></path><path clip-path="url(#clip810)" d="M1807.71 1514.29 L1829.93 1514.29 L1829.93 1516.28 L1817.39 1548.85 L1812.5 1548.85 L1824.31 1518.22 L1807.71 1518.22 L1807.71 1514.29 Z" fill="#000000" fill-rule="nonzero" fill-opacity="1"></path><path clip-path="url(#clip810)" d="M1839.1 1514.29 L1857.46 1514.29 L1857.46 1518.22 L1843.38 1518.22 L1843.38 1526.7 Q1844.4 1526.35 1845.42 1526.19 Q1846.44 1526 1847.46 1526 Q1853.24 1526 1856.62 1529.17 Q1860 1532.34 1860 1537.76 Q1860 1543.34 1856.53 1546.44 Q1853.06 1549.52 1846.74 1549.52 Q1844.56 1549.52 1842.29 1549.15 Q1840.05 1548.78 1837.64 1548.04 L1837.64 1543.34 Q1839.72 1544.47 1841.95 1545.03 Q1844.17 1545.58 1846.65 1545.58 Q1850.65 1545.58 1852.99 1543.48 Q1855.33 1541.37 1855.33 1537.76 Q1855.33 1534.15 1852.99 1532.04 Q1850.65 1529.94 1846.65 1529.94 Q1844.77 1529.94 1842.9 1530.35 Q1841.04 1530.77 1839.1 1531.65 L1839.1 1514.29 Z" fill="#000000" fill-rule="nonzero" fill-opacity="1"></path><path clip-path="url(#clip810)" d="M2250.96 1544.91 L2267.28 1544.91 L2267.28 1548.85 L2245.34 1548.85 L2245.34 1544.91 Q2248 1542.16 2252.59 1537.53 Q2257.19 1532.88 2258.37 1531.53 Q2260.62 1529.01 2261.5 1527.27 Q2262.4 1525.51 2262.4 1523.82 Q2262.4 1521.07 2260.46 1519.33 Q2258.53 1517.6 2255.43 1517.6 Q2253.23 1517.6 2250.78 1518.36 Q2248.35 1519.13 2245.57 1520.68 L2245.57 1515.95 Q2248.4 1514.82 2250.85 1514.24 Q2253.3 1513.66 2255.34 1513.66 Q2260.71 1513.66 2263.9 1516.35 Q2267.1 1519.03 2267.1 1523.52 Q2267.1 1525.65 2266.29 1527.57 Q2265.5 1529.47 2263.4 1532.07 Q2262.82 1532.74 2259.71 1535.95 Q2256.61 1539.15 2250.96 1544.91 Z" fill="#000000" fill-rule="nonzero" fill-opacity="1"></path><path clip-path="url(#clip810)" d="M2277.1 1542.97 L2281.98 1542.97 L2281.98 1548.85 L2277.1 1548.85 L2277.1 1542.97 Z" fill="#000000" fill-rule="nonzero" fill-opacity="1"></path><path clip-path="url(#clip810)" d="M2302.17 1517.37 Q2298.56 1517.37 2296.73 1520.93 Q2294.92 1524.47 2294.92 1531.6 Q2294.92 1538.71 2296.73 1542.27 Q2298.56 1545.82 2302.17 1545.82 Q2305.8 1545.82 2307.61 1542.27 Q2309.44 1538.71 2309.44 1531.6 Q2309.44 1524.47 2307.61 1520.93 Q2305.8 1517.37 2302.17 1517.37 M2302.17 1513.66 Q2307.98 1513.66 2311.03 1518.27 Q2314.11 1522.85 2314.11 1531.6 Q2314.11 1540.33 2311.03 1544.94 Q2307.98 1549.52 2302.17 1549.52 Q2296.36 1549.52 2293.28 1544.94 Q2290.22 1540.33 2290.22 1531.6 Q2290.22 1522.85 2293.28 1518.27 Q2296.36 1513.66 2302.17 1513.66 Z" fill="#000000" fill-rule="nonzero" fill-opacity="1"></path><path clip-path="url(#clip810)" d="M2332.33 1517.37 Q2328.72 1517.37 2326.89 1520.93 Q2325.08 1524.47 2325.08 1531.6 Q2325.08 1538.71 2326.89 1542.27 Q2328.72 1545.82 2332.33 1545.82 Q2335.96 1545.82 2337.77 1542.27 Q2339.6 1538.71 2339.6 1531.6 Q2339.6 1524.47 2337.77 1520.93 Q2335.96 1517.37 2332.33 1517.37 M2332.33 1513.66 Q2338.14 1513.66 2341.2 1518.27 Q2344.27 1522.85 2344.27 1531.6 Q2344.27 1540.33 2341.2 1544.94 Q2338.14 1549.52 2332.33 1549.52 Q2326.52 1549.52 2323.44 1544.94 Q2320.39 1540.33 2320.39 1531.6 Q2320.39 1522.85 2323.44 1518.27 Q2326.52 1513.66 2332.33 1513.66 Z" fill="#000000" fill-rule="nonzero" fill-opacity="1"></path><polyline clip-path="url(#clip813)" style="stroke:#000000; stroke-linecap:round; stroke-linejoin:round; stroke-width:2; stroke-opacity:0.1; fill:none" points="305.232,1328.33 2352.76,1328.33 "></polyline>
<polyline clip-path="url(#clip813)" style="stroke:#000000; stroke-linecap:round; stroke-linejoin:round; stroke-width:2; stroke-opacity:0.1; fill:none" points="305.232,968.483 2352.76,968.483 "></polyline>
<polyline clip-path="url(#clip813)" style="stroke:#000000; stroke-linecap:round; stroke-linejoin:round; stroke-width:2; stroke-opacity:0.1; fill:none" points="305.232,608.635 2352.76,608.635 "></polyline>
<polyline clip-path="url(#clip813)" style="stroke:#000000; stroke-linecap:round; stroke-linejoin:round; stroke-width:2; stroke-opacity:0.1; fill:none" points="305.232,248.786 2352.76,248.786 "></polyline>
<polyline clip-path="url(#clip810)" style="stroke:#000000; stroke-linecap:round; stroke-linejoin:round; stroke-width:4; stroke-opacity:1; fill:none" points="305.232,1486.45 305.232,123.472 "></polyline>
<polyline clip-path="url(#clip810)" style="stroke:#000000; stroke-linecap:round; stroke-linejoin:round; stroke-width:4; stroke-opacity:1; fill:none" points="305.232,1328.33 324.129,1328.33 "></polyline>
<polyline clip-path="url(#clip810)" style="stroke:#000000; stroke-linecap:round; stroke-linejoin:round; stroke-width:4; stroke-opacity:1; fill:none" points="305.232,968.483 324.129,968.483 "></polyline>
<polyline clip-path="url(#clip810)" style="stroke:#000000; stroke-linecap:round; stroke-linejoin:round; stroke-width:4; stroke-opacity:1; fill:none" points="305.232,608.635 324.129,608.635 "></polyline>
<polyline clip-path="url(#clip810)" style="stroke:#000000; stroke-linecap:round; stroke-linejoin:round; stroke-width:4; stroke-opacity:1; fill:none" points="305.232,248.786 324.129,248.786 "></polyline>
<path clip-path="url(#clip810)" d="M53.8393 1317.5 L72.1957 1317.5 L72.1957 1321.43 L58.1217 1321.43 L58.1217 1329.91 Q59.1402 1329.56 60.1587 1329.4 Q61.1773 1329.21 62.1958 1329.21 Q67.9828 1329.21 71.3624 1332.38 Q74.742 1335.55 74.742 1340.97 Q74.742 1346.55 71.2698 1349.65 Q67.7976 1352.73 61.4782 1352.73 Q59.3023 1352.73 57.0338 1352.36 Q54.7884 1351.99 52.381 1351.25 L52.381 1346.55 Q54.4643 1347.68 56.6865 1348.24 Q58.9088 1348.8 61.3856 1348.8 Q65.3902 1348.8 67.7281 1346.69 Q70.0661 1344.58 70.0661 1340.97 Q70.0661 1337.36 67.7281 1335.25 Q65.3902 1333.15 61.3856 1333.15 Q59.5106 1333.15 57.6356 1333.56 Q55.7838 1333.98 53.8393 1334.86 L53.8393 1317.5 Z" fill="#000000" fill-rule="nonzero" fill-opacity="1"></path><path clip-path="url(#clip810)" d="M83.9549 1346.18 L88.8391 1346.18 L88.8391 1352.06 L83.9549 1352.06 L83.9549 1346.18 Z" fill="#000000" fill-rule="nonzero" fill-opacity="1"></path><path clip-path="url(#clip810)" d="M109.024 1320.58 Q105.413 1320.58 103.584 1324.14 Q101.779 1327.68 101.779 1334.81 Q101.779 1341.92 103.584 1345.49 Q105.413 1349.03 109.024 1349.03 Q112.658 1349.03 114.464 1345.49 Q116.293 1341.92 116.293 1334.81 Q116.293 1327.68 114.464 1324.14 Q112.658 1320.58 109.024 1320.58 M109.024 1316.87 Q114.834 1316.87 117.89 1321.48 Q120.969 1326.06 120.969 1334.81 Q120.969 1343.54 117.89 1348.15 Q114.834 1352.73 109.024 1352.73 Q103.214 1352.73 100.135 1348.15 Q97.0798 1343.54 97.0798 1334.81 Q97.0798 1326.06 100.135 1321.48 Q103.214 1316.87 109.024 1316.87 Z" fill="#000000" fill-rule="nonzero" fill-opacity="1"></path><path clip-path="url(#clip810)" d="M139.186 1320.58 Q135.575 1320.58 133.746 1324.14 Q131.941 1327.68 131.941 1334.81 Q131.941 1341.92 133.746 1345.49 Q135.575 1349.03 139.186 1349.03 Q142.82 1349.03 144.626 1345.49 Q146.455 1341.92 146.455 1334.81 Q146.455 1327.68 144.626 1324.14 Q142.82 1320.58 139.186 1320.58 M139.186 1316.87 Q144.996 1316.87 148.052 1321.48 Q151.13 1326.06 151.13 1334.81 Q151.13 1343.54 148.052 1348.15 Q144.996 1352.73 139.186 1352.73 Q133.376 1352.73 130.297 1348.15 Q127.242 1343.54 127.242 1334.81 Q127.242 1326.06 130.297 1321.48 Q133.376 1316.87 139.186 1316.87 Z" fill="#000000" fill-rule="nonzero" fill-opacity="1"></path><path clip-path="url(#clip810)" d="M187.519 1326.6 L176.941 1337.22 L187.519 1347.8 L184.765 1350.6 L174.14 1339.98 L163.515 1350.6 L160.783 1347.8 L171.339 1337.22 L160.783 1326.6 L163.515 1323.8 L174.14 1334.42 L184.765 1323.8 L187.519 1326.6 Z" fill="#000000" fill-rule="nonzero" fill-opacity="1"></path><path clip-path="url(#clip810)" d="M199.88 1348.12 L207.519 1348.12 L207.519 1321.76 L199.209 1323.43 L199.209 1319.17 L207.473 1317.5 L212.149 1317.5 L212.149 1348.12 L219.788 1348.12 L219.788 1352.06 L199.88 1352.06 L199.88 1348.12 Z" fill="#000000" fill-rule="nonzero" fill-opacity="1"></path><path clip-path="url(#clip810)" d="M239.232 1320.58 Q235.621 1320.58 233.792 1324.14 Q231.987 1327.68 231.987 1334.81 Q231.987 1341.92 233.792 1345.49 Q235.621 1349.03 239.232 1349.03 Q242.866 1349.03 244.672 1345.49 Q246.5 1341.92 246.5 1334.81 Q246.5 1327.68 244.672 1324.14 Q242.866 1320.58 239.232 1320.58 M239.232 1316.87 Q245.042 1316.87 248.098 1321.48 Q251.176 1326.06 251.176 1334.81 Q251.176 1343.54 248.098 1348.15 Q245.042 1352.73 239.232 1352.73 Q233.422 1352.73 230.343 1348.15 Q227.287 1343.54 227.287 1334.81 Q227.287 1326.06 230.343 1321.48 Q233.422 1316.87 239.232 1316.87 Z" fill="#000000" fill-rule="nonzero" fill-opacity="1"></path><path clip-path="url(#clip810)" d="M251.176 1296.57 L269.232 1296.57 L269.232 1298.19 L259.038 1324.65 L255.069 1324.65 L264.661 1299.77 L251.176 1299.77 L251.176 1296.57 Z" fill="#000000" fill-rule="nonzero" fill-opacity="1"></path><path clip-path="url(#clip810)" d="M53.3995 988.276 L61.0384 988.276 L61.0384 961.91 L52.7282 963.577 L52.7282 959.317 L60.9921 957.651 L65.668 957.651 L65.668 988.276 L73.3068 988.276 L73.3068 992.211 L53.3995 992.211 L53.3995 988.276 Z" fill="#000000" fill-rule="nonzero" fill-opacity="1"></path><path clip-path="url(#clip810)" d="M82.7512 986.331 L87.6354 986.331 L87.6354 992.211 L82.7512 992.211 L82.7512 986.331 Z" fill="#000000" fill-rule="nonzero" fill-opacity="1"></path><path clip-path="url(#clip810)" d="M107.821 960.729 Q104.209 960.729 102.381 964.294 Q100.575 967.836 100.575 974.966 Q100.575 982.072 102.381 985.637 Q104.209 989.178 107.821 989.178 Q111.455 989.178 113.26 985.637 Q115.089 982.072 115.089 974.966 Q115.089 967.836 113.26 964.294 Q111.455 960.729 107.821 960.729 M107.821 957.026 Q113.631 957.026 116.686 961.632 Q119.765 966.216 119.765 974.966 Q119.765 983.692 116.686 988.299 Q113.631 992.882 107.821 992.882 Q102.01 992.882 98.9317 988.299 Q95.8761 983.692 95.8761 974.966 Q95.8761 966.216 98.9317 961.632 Q102.01 957.026 107.821 957.026 Z" fill="#000000" fill-rule="nonzero" fill-opacity="1"></path><path clip-path="url(#clip810)" d="M137.982 960.729 Q134.371 960.729 132.543 964.294 Q130.737 967.836 130.737 974.966 Q130.737 982.072 132.543 985.637 Q134.371 989.178 137.982 989.178 Q141.617 989.178 143.422 985.637 Q145.251 982.072 145.251 974.966 Q145.251 967.836 143.422 964.294 Q141.617 960.729 137.982 960.729 M137.982 957.026 Q143.793 957.026 146.848 961.632 Q149.927 966.216 149.927 974.966 Q149.927 983.692 146.848 988.299 Q143.793 992.882 137.982 992.882 Q132.172 992.882 129.094 988.299 Q126.038 983.692 126.038 974.966 Q126.038 966.216 129.094 961.632 Q132.172 957.026 137.982 957.026 Z" fill="#000000" fill-rule="nonzero" fill-opacity="1"></path><path clip-path="url(#clip810)" d="M186.315 966.748 L175.737 977.373 L186.315 987.952 L183.561 990.752 L172.936 980.128 L162.311 990.752 L159.58 987.952 L170.135 977.373 L159.58 966.748 L162.311 963.947 L172.936 974.572 L183.561 963.947 L186.315 966.748 Z" fill="#000000" fill-rule="nonzero" fill-opacity="1"></path><path clip-path="url(#clip810)" d="M198.677 988.276 L206.315 988.276 L206.315 961.91 L198.005 963.577 L198.005 959.317 L206.269 957.651 L210.945 957.651 L210.945 988.276 L218.584 988.276 L218.584 992.211 L198.677 992.211 L198.677 988.276 Z" fill="#000000" fill-rule="nonzero" fill-opacity="1"></path><path clip-path="url(#clip810)" d="M238.028 960.729 Q234.417 960.729 232.588 964.294 Q230.783 967.836 230.783 974.966 Q230.783 982.072 232.588 985.637 Q234.417 989.178 238.028 989.178 Q241.662 989.178 243.468 985.637 Q245.297 982.072 245.297 974.966 Q245.297 967.836 243.468 964.294 Q241.662 960.729 238.028 960.729 M238.028 957.026 Q243.838 957.026 246.894 961.632 Q249.973 966.216 249.973 974.966 Q249.973 983.692 246.894 988.299 Q243.838 992.882 238.028 992.882 Q232.218 992.882 229.139 988.299 Q226.084 983.692 226.084 974.966 Q226.084 966.216 229.139 961.632 Q232.218 957.026 238.028 957.026 Z" fill="#000000" fill-rule="nonzero" fill-opacity="1"></path><path clip-path="url(#clip810)" d="M259.602 951.466 Q256.894 951.466 255.333 952.914 Q253.791 954.362 253.791 956.901 Q253.791 959.44 255.333 960.888 Q256.894 962.337 259.602 962.337 Q262.31 962.337 263.871 960.888 Q265.433 959.421 265.433 956.901 Q265.433 954.362 263.871 952.914 Q262.329 951.466 259.602 951.466 M255.803 949.848 Q253.358 949.246 251.985 947.572 Q250.631 945.899 250.631 943.491 Q250.631 940.125 253.019 938.169 Q255.427 936.213 259.602 936.213 Q263.796 936.213 266.185 938.169 Q268.573 940.125 268.573 943.491 Q268.573 945.899 267.2 947.572 Q265.846 949.246 263.42 949.848 Q266.166 950.488 267.689 952.35 Q269.232 954.212 269.232 956.901 Q269.232 960.982 266.73 963.164 Q264.248 965.346 259.602 965.346 Q254.957 965.346 252.455 963.164 Q249.973 960.982 249.973 956.901 Q249.973 954.212 251.515 952.35 Q253.057 950.488 255.803 949.848 M254.411 943.849 Q254.411 946.03 255.765 947.253 Q257.138 948.475 259.602 948.475 Q262.047 948.475 263.42 947.253 Q264.812 946.03 264.812 943.849 Q264.812 941.667 263.42 940.444 Q262.047 939.222 259.602 939.222 Q257.138 939.222 255.765 940.444 Q254.411 941.667 254.411 943.849 Z" fill="#000000" fill-rule="nonzero" fill-opacity="1"></path><path clip-path="url(#clip810)" d="M53.3995 628.427 L61.0384 628.427 L61.0384 602.061 L52.7282 603.728 L52.7282 599.469 L60.9921 597.802 L65.668 597.802 L65.668 628.427 L73.3068 628.427 L73.3068 632.362 L53.3995 632.362 L53.3995 628.427 Z" fill="#000000" fill-rule="nonzero" fill-opacity="1"></path><path clip-path="url(#clip810)" d="M82.7512 626.483 L87.6354 626.483 L87.6354 632.362 L82.7512 632.362 L82.7512 626.483 Z" fill="#000000" fill-rule="nonzero" fill-opacity="1"></path><path clip-path="url(#clip810)" d="M97.8669 597.802 L116.223 597.802 L116.223 601.737 L102.149 601.737 L102.149 610.209 Q103.168 609.862 104.186 609.7 Q105.205 609.515 106.223 609.515 Q112.01 609.515 115.39 612.686 Q118.77 615.858 118.77 621.274 Q118.77 626.853 115.297 629.955 Q111.825 633.033 105.506 633.033 Q103.33 633.033 101.061 632.663 Q98.8159 632.293 96.4085 631.552 L96.4085 626.853 Q98.4919 627.987 100.714 628.543 Q102.936 629.098 105.413 629.098 Q109.418 629.098 111.756 626.992 Q114.094 624.885 114.094 621.274 Q114.094 617.663 111.756 615.557 Q109.418 613.45 105.413 613.45 Q103.538 613.45 101.663 613.867 Q99.8113 614.284 97.8669 615.163 L97.8669 597.802 Z" fill="#000000" fill-rule="nonzero" fill-opacity="1"></path><path clip-path="url(#clip810)" d="M137.982 600.881 Q134.371 600.881 132.543 604.446 Q130.737 607.987 130.737 615.117 Q130.737 622.223 132.543 625.788 Q134.371 629.33 137.982 629.33 Q141.617 629.33 143.422 625.788 Q145.251 622.223 145.251 615.117 Q145.251 607.987 143.422 604.446 Q141.617 600.881 137.982 600.881 M137.982 597.177 Q143.793 597.177 146.848 601.784 Q149.927 606.367 149.927 615.117 Q149.927 623.844 146.848 628.45 Q143.793 633.033 137.982 633.033 Q132.172 633.033 129.094 628.45 Q126.038 623.844 126.038 615.117 Q126.038 606.367 129.094 601.784 Q132.172 597.177 137.982 597.177 Z" fill="#000000" fill-rule="nonzero" fill-opacity="1"></path><path clip-path="url(#clip810)" d="M186.315 606.899 L175.737 617.524 L186.315 628.103 L183.561 630.904 L172.936 620.279 L162.311 630.904 L159.58 628.103 L170.135 617.524 L159.58 606.899 L162.311 604.098 L172.936 614.723 L183.561 604.098 L186.315 606.899 Z" fill="#000000" fill-rule="nonzero" fill-opacity="1"></path><path clip-path="url(#clip810)" d="M198.677 628.427 L206.315 628.427 L206.315 602.061 L198.005 603.728 L198.005 599.469 L206.269 597.802 L210.945 597.802 L210.945 628.427 L218.584 628.427 L218.584 632.362 L198.677 632.362 L198.677 628.427 Z" fill="#000000" fill-rule="nonzero" fill-opacity="1"></path><path clip-path="url(#clip810)" d="M238.028 600.881 Q234.417 600.881 232.588 604.446 Q230.783 607.987 230.783 615.117 Q230.783 622.223 232.588 625.788 Q234.417 629.33 238.028 629.33 Q241.662 629.33 243.468 625.788 Q245.297 622.223 245.297 615.117 Q245.297 607.987 243.468 604.446 Q241.662 600.881 238.028 600.881 M238.028 597.177 Q243.838 597.177 246.894 601.784 Q249.973 606.367 249.973 615.117 Q249.973 623.844 246.894 628.45 Q243.838 633.033 238.028 633.033 Q232.218 633.033 229.139 628.45 Q226.084 623.844 226.084 615.117 Q226.084 606.367 229.139 601.784 Q232.218 597.177 238.028 597.177 Z" fill="#000000" fill-rule="nonzero" fill-opacity="1"></path><path clip-path="url(#clip810)" d="M259.602 591.617 Q256.894 591.617 255.333 593.065 Q253.791 594.513 253.791 597.052 Q253.791 599.592 255.333 601.04 Q256.894 602.488 259.602 602.488 Q262.31 602.488 263.871 601.04 Q265.433 599.573 265.433 597.052 Q265.433 594.513 263.871 593.065 Q262.329 591.617 259.602 591.617 M255.803 590 Q253.358 589.398 251.985 587.724 Q250.631 586.05 250.631 583.643 Q250.631 580.276 253.019 578.32 Q255.427 576.364 259.602 576.364 Q263.796 576.364 266.185 578.32 Q268.573 580.276 268.573 583.643 Q268.573 586.05 267.2 587.724 Q265.846 589.398 263.42 590 Q266.166 590.639 267.689 592.501 Q269.232 594.363 269.232 597.052 Q269.232 601.134 266.73 603.315 Q264.248 605.497 259.602 605.497 Q254.957 605.497 252.455 603.315 Q249.973 601.134 249.973 597.052 Q249.973 594.363 251.515 592.501 Q253.057 590.639 255.803 590 M254.411 584 Q254.411 586.182 255.765 587.404 Q257.138 588.627 259.602 588.627 Q262.047 588.627 263.42 587.404 Q264.812 586.182 264.812 584 Q264.812 581.818 263.42 580.596 Q262.047 579.373 259.602 579.373 Q257.138 579.373 255.765 580.596 Q254.411 581.818 254.411 584 Z" fill="#000000" fill-rule="nonzero" fill-opacity="1"></path><path clip-path="url(#clip810)" d="M56.6171 268.578 L72.9365 268.578 L72.9365 272.513 L50.9921 272.513 L50.9921 268.578 Q53.6541 265.824 58.2375 261.194 Q62.8439 256.541 64.0245 255.199 Q66.2698 252.676 67.1494 250.939 Q68.0522 249.18 68.0522 247.49 Q68.0522 244.736 66.1078 243 Q64.1865 241.264 61.0847 241.264 Q58.8856 241.264 56.4319 242.027 Q54.0014 242.791 51.2236 244.342 L51.2236 239.62 Q54.0477 238.486 56.5014 237.907 Q58.955 237.328 60.9921 237.328 Q66.3624 237.328 69.5568 240.014 Q72.7513 242.699 72.7513 247.189 Q72.7513 249.319 71.9411 251.24 Q71.1541 253.139 69.0476 255.731 Q68.4689 256.402 65.367 259.62 Q62.2652 262.814 56.6171 268.578 Z" fill="#000000" fill-rule="nonzero" fill-opacity="1"></path><path clip-path="url(#clip810)" d="M82.7512 266.634 L87.6354 266.634 L87.6354 272.513 L82.7512 272.513 L82.7512 266.634 Z" fill="#000000" fill-rule="nonzero" fill-opacity="1"></path><path clip-path="url(#clip810)" d="M107.821 241.032 Q104.209 241.032 102.381 244.597 Q100.575 248.139 100.575 255.268 Q100.575 262.375 102.381 265.939 Q104.209 269.481 107.821 269.481 Q111.455 269.481 113.26 265.939 Q115.089 262.375 115.089 255.268 Q115.089 248.139 113.26 244.597 Q111.455 241.032 107.821 241.032 M107.821 237.328 Q113.631 237.328 116.686 241.935 Q119.765 246.518 119.765 255.268 Q119.765 263.995 116.686 268.601 Q113.631 273.185 107.821 273.185 Q102.01 273.185 98.9317 268.601 Q95.8761 263.995 95.8761 255.268 Q95.8761 246.518 98.9317 241.935 Q102.01 237.328 107.821 237.328 Z" fill="#000000" fill-rule="nonzero" fill-opacity="1"></path><path clip-path="url(#clip810)" d="M137.982 241.032 Q134.371 241.032 132.543 244.597 Q130.737 248.139 130.737 255.268 Q130.737 262.375 132.543 265.939 Q134.371 269.481 137.982 269.481 Q141.617 269.481 143.422 265.939 Q145.251 262.375 145.251 255.268 Q145.251 248.139 143.422 244.597 Q141.617 241.032 137.982 241.032 M137.982 237.328 Q143.793 237.328 146.848 241.935 Q149.927 246.518 149.927 255.268 Q149.927 263.995 146.848 268.601 Q143.793 273.185 137.982 273.185 Q132.172 273.185 129.094 268.601 Q126.038 263.995 126.038 255.268 Q126.038 246.518 129.094 241.935 Q132.172 237.328 137.982 237.328 Z" fill="#000000" fill-rule="nonzero" fill-opacity="1"></path><path clip-path="url(#clip810)" d="M186.315 247.051 L175.737 257.676 L186.315 268.254 L183.561 271.055 L172.936 260.43 L162.311 271.055 L159.58 268.254 L170.135 257.676 L159.58 247.051 L162.311 244.25 L172.936 254.875 L183.561 244.25 L186.315 247.051 Z" fill="#000000" fill-rule="nonzero" fill-opacity="1"></path><path clip-path="url(#clip810)" d="M198.677 268.578 L206.315 268.578 L206.315 242.213 L198.005 243.879 L198.005 239.62 L206.269 237.953 L210.945 237.953 L210.945 268.578 L218.584 268.578 L218.584 272.513 L198.677 272.513 L198.677 268.578 Z" fill="#000000" fill-rule="nonzero" fill-opacity="1"></path><path clip-path="url(#clip810)" d="M238.028 241.032 Q234.417 241.032 232.588 244.597 Q230.783 248.139 230.783 255.268 Q230.783 262.375 232.588 265.939 Q234.417 269.481 238.028 269.481 Q241.662 269.481 243.468 265.939 Q245.297 262.375 245.297 255.268 Q245.297 248.139 243.468 244.597 Q241.662 241.032 238.028 241.032 M238.028 237.328 Q243.838 237.328 246.894 241.935 Q249.973 246.518 249.973 255.268 Q249.973 263.995 246.894 268.601 Q243.838 273.185 238.028 273.185 Q232.218 273.185 229.139 268.601 Q226.084 263.995 226.084 255.268 Q226.084 246.518 229.139 241.935 Q232.218 237.328 238.028 237.328 Z" fill="#000000" fill-rule="nonzero" fill-opacity="1"></path><path clip-path="url(#clip810)" d="M259.602 231.768 Q256.894 231.768 255.333 233.217 Q253.791 234.665 253.791 237.204 Q253.791 239.743 255.333 241.191 Q256.894 242.639 259.602 242.639 Q262.31 242.639 263.871 241.191 Q265.433 239.724 265.433 237.204 Q265.433 234.665 263.871 233.217 Q262.329 231.768 259.602 231.768 M255.803 230.151 Q253.358 229.549 251.985 227.875 Q250.631 226.201 250.631 223.794 Q250.631 220.427 253.019 218.471 Q255.427 216.515 259.602 216.515 Q263.796 216.515 266.185 218.471 Q268.573 220.427 268.573 223.794 Q268.573 226.201 267.2 227.875 Q265.846 229.549 263.42 230.151 Q266.166 230.79 267.689 232.652 Q269.232 234.514 269.232 237.204 Q269.232 241.285 266.73 243.467 Q264.248 245.648 259.602 245.648 Q254.957 245.648 252.455 243.467 Q249.973 241.285 249.973 237.204 Q249.973 234.514 251.515 232.652 Q253.057 230.79 255.803 230.151 M254.411 224.151 Q254.411 226.333 255.765 227.555 Q257.138 228.778 259.602 228.778 Q262.047 228.778 263.42 227.555 Q264.812 226.333 264.812 224.151 Q264.812 221.969 263.42 220.747 Q262.047 219.524 259.602 219.524 Q257.138 219.524 255.765 220.747 Q254.411 221.969 254.411 224.151 Z" fill="#000000" fill-rule="nonzero" fill-opacity="1"></path><path clip-path="url(#clip810)" d="M826.208 10.0818 L834.391 10.0818 L834.391 63.6753 L863.841 63.6753 L863.841 70.5618 L826.208 70.5618 L826.208 10.0818 Z" fill="#000000" fill-rule="nonzero" fill-opacity="1"></path><path clip-path="url(#clip810)" d="M892.724 47.7553 Q883.69 47.7553 880.207 49.8212 Q876.723 51.8872 876.723 56.8698 Q876.723 60.8397 879.315 63.1892 Q881.948 65.4982 886.445 65.4982 Q892.643 65.4982 896.37 61.1232 Q900.137 56.7078 900.137 49.4161 L900.137 47.7553 L892.724 47.7553 M907.591 44.6766 L907.591 70.5618 L900.137 70.5618 L900.137 63.6753 Q897.585 67.8072 893.777 69.7922 Q889.969 71.7366 884.46 71.7366 Q877.492 71.7366 873.361 67.8477 Q869.269 63.9184 869.269 57.3559 Q869.269 49.6997 874.373 45.8108 Q879.518 41.922 889.686 41.922 L900.137 41.922 L900.137 41.1928 Q900.137 36.0481 896.734 33.253 Q893.372 30.4174 887.255 30.4174 Q883.366 30.4174 879.68 31.3491 Q875.994 32.2808 872.591 34.1442 L872.591 27.2577 Q876.682 25.6778 880.531 24.9082 Q884.379 24.098 888.025 24.098 Q897.869 24.098 902.73 29.2021 Q907.591 34.3063 907.591 44.6766 Z" fill="#000000" fill-rule="nonzero" fill-opacity="1"></path><path clip-path="url(#clip810)" d="M951.867 26.5285 L951.867 33.5771 Q948.707 31.9567 945.305 31.1465 Q941.902 30.3364 938.256 30.3364 Q932.706 30.3364 929.911 32.0377 Q927.157 33.7391 927.157 37.1419 Q927.157 39.7345 929.142 41.2333 Q931.126 42.6916 937.122 44.0284 L939.674 44.5955 Q947.614 46.2969 950.935 49.4161 Q954.298 52.4948 954.298 58.0445 Q954.298 64.364 949.275 68.0503 Q944.292 71.7366 935.542 71.7366 Q931.896 71.7366 927.926 71.0074 Q923.997 70.3188 919.622 68.901 L919.622 61.2043 Q923.754 63.3512 927.764 64.445 Q931.775 65.4982 935.704 65.4982 Q940.97 65.4982 943.806 63.7158 Q946.641 61.8929 946.641 58.6117 Q946.641 55.5735 944.575 53.9531 Q942.55 52.3328 935.623 50.8339 L933.03 50.2263 Q926.103 48.768 923.025 45.7703 Q919.946 42.7321 919.946 37.466 Q919.946 31.0655 924.483 27.5817 Q929.02 24.098 937.365 24.098 Q941.497 24.098 945.143 24.7056 Q948.788 25.3132 951.867 26.5285 Z" fill="#000000" fill-rule="nonzero" fill-opacity="1"></path><path clip-path="url(#clip810)" d="M973.539 12.3098 L973.539 25.1917 L988.892 25.1917 L988.892 30.9845 L973.539 30.9845 L973.539 55.614 Q973.539 61.1637 975.038 62.7436 Q976.578 64.3235 981.236 64.3235 L988.892 64.3235 L988.892 70.5618 L981.236 70.5618 Q972.608 70.5618 969.326 67.3616 Q966.045 64.1209 966.045 55.614 L966.045 30.9845 L960.577 30.9845 L960.577 25.1917 L966.045 25.1917 L966.045 12.3098 L973.539 12.3098 Z" fill="#000000" fill-rule="nonzero" fill-opacity="1"></path><path clip-path="url(#clip810)" d="M1033.17 63.6753 L1061.73 63.6753 L1061.73 70.5618 L1023.33 70.5618 L1023.33 63.6753 Q1027.98 58.8547 1036 50.7529 Q1044.07 42.6106 1046.13 40.2611 Q1050.06 35.8456 1051.6 32.8074 Q1053.18 29.7287 1053.18 26.7716 Q1053.18 21.951 1049.78 18.9128 Q1046.42 15.8746 1040.99 15.8746 Q1037.14 15.8746 1032.84 17.2114 Q1028.59 18.5482 1023.73 21.2623 L1023.73 12.9985 Q1028.67 11.0136 1032.97 10.0008 Q1037.26 8.9881 1040.82 8.9881 Q1050.22 8.9881 1055.81 13.6871 Q1061.4 18.3862 1061.4 26.245 Q1061.4 29.9718 1059.99 33.334 Q1058.61 36.6558 1054.92 41.1928 Q1053.91 42.3676 1048.48 47.9983 Q1043.05 53.5886 1033.17 63.6753 Z" fill="#000000" fill-rule="nonzero" fill-opacity="1"></path><path clip-path="url(#clip810)" d="M1104.55 10.0818 L1142.79 10.0818 L1142.79 16.9684 L1112.73 16.9684 L1112.73 34.8734 L1141.53 34.8734 L1141.53 41.7599 L1112.73 41.7599 L1112.73 63.6753 L1143.52 63.6753 L1143.52 70.5618 L1104.55 70.5618 L1104.55 10.0818 Z" fill="#000000" fill-rule="nonzero" fill-opacity="1"></path><path clip-path="url(#clip810)" d="M1156.64 25.1917 L1164.09 25.1917 L1164.09 70.5618 L1156.64 70.5618 L1156.64 25.1917 M1156.64 7.52977 L1164.09 7.52977 L1164.09 16.9684 L1156.64 16.9684 L1156.64 7.52977 Z" fill="#000000" fill-rule="nonzero" fill-opacity="1"></path><path clip-path="url(#clip810)" d="M1209.55 47.3502 Q1209.55 39.2484 1206.18 34.7924 Q1202.86 30.3364 1196.83 30.3364 Q1190.83 30.3364 1187.47 34.7924 Q1184.15 39.2484 1184.15 47.3502 Q1184.15 55.4115 1187.47 59.8675 Q1190.83 64.3235 1196.83 64.3235 Q1202.86 64.3235 1206.18 59.8675 Q1209.55 55.4115 1209.55 47.3502 M1217 64.9311 Q1217 76.5167 1211.85 82.1474 Q1206.71 87.8187 1196.1 87.8187 Q1192.17 87.8187 1188.68 87.2111 Q1185.2 86.6439 1181.92 85.4287 L1181.92 78.1775 Q1185.2 79.9599 1188.4 80.8106 Q1191.6 81.6613 1194.92 81.6613 Q1202.25 81.6613 1205.9 77.813 Q1209.55 74.0051 1209.55 66.2679 L1209.55 62.5816 Q1207.24 66.592 1203.63 68.5769 Q1200.03 70.5618 1195 70.5618 Q1186.66 70.5618 1181.55 64.2019 Q1176.45 57.842 1176.45 47.3502 Q1176.45 36.8178 1181.55 30.4579 Q1186.66 24.098 1195 24.098 Q1200.03 24.098 1203.63 26.0829 Q1207.24 28.0679 1209.55 32.0783 L1209.55 25.1917 L1217 25.1917 L1217 64.9311 Z" fill="#000000" fill-rule="nonzero" fill-opacity="1"></path><path clip-path="url(#clip810)" d="M1271.16 46.0134 L1271.16 49.6592 L1236.89 49.6592 Q1237.37 57.3559 1241.51 61.4068 Q1245.68 65.4172 1253.09 65.4172 Q1257.39 65.4172 1261.4 64.364 Q1265.45 63.3107 1269.42 61.2043 L1269.42 68.2528 Q1265.41 69.9542 1261.19 70.8454 Q1256.98 71.7366 1252.65 71.7366 Q1241.79 71.7366 1235.43 65.4172 Q1229.11 59.0978 1229.11 48.3224 Q1229.11 37.1824 1235.11 30.6604 Q1241.14 24.098 1251.35 24.098 Q1260.51 24.098 1265.81 30.0123 Q1271.16 35.8861 1271.16 46.0134 M1263.71 43.8259 Q1263.62 37.709 1260.26 34.0632 Q1256.94 30.4174 1251.43 30.4174 Q1245.19 30.4174 1241.43 33.9417 Q1237.7 37.466 1237.13 43.8664 L1263.71 43.8259 Z" fill="#000000" fill-rule="nonzero" fill-opacity="1"></path><path clip-path="url(#clip810)" d="M1321.11 43.1777 L1321.11 70.5618 L1313.65 70.5618 L1313.65 43.4208 Q1313.65 36.9798 1311.14 33.7796 Q1308.63 30.5794 1303.61 30.5794 Q1297.57 30.5794 1294.09 34.4278 Q1290.6 38.2761 1290.6 44.9196 L1290.6 70.5618 L1283.11 70.5618 L1283.11 25.1917 L1290.6 25.1917 L1290.6 32.2403 Q1293.28 28.1489 1296.88 26.1234 Q1300.53 24.098 1305.27 24.098 Q1313.09 24.098 1317.1 28.9591 Q1321.11 33.7796 1321.11 43.1777 Z" fill="#000000" fill-rule="nonzero" fill-opacity="1"></path><path clip-path="url(#clip810)" d="M1330.63 25.1917 L1338.53 25.1917 L1352.7 63.2702 L1366.88 25.1917 L1374.78 25.1917 L1357.77 70.5618 L1347.64 70.5618 L1330.63 25.1917 Z" fill="#000000" fill-rule="nonzero" fill-opacity="1"></path><path clip-path="url(#clip810)" d="M1405.69 47.7553 Q1396.66 47.7553 1393.17 49.8212 Q1389.69 51.8872 1389.69 56.8698 Q1389.69 60.8397 1392.28 63.1892 Q1394.91 65.4982 1399.41 65.4982 Q1405.61 65.4982 1409.34 61.1232 Q1413.1 56.7078 1413.1 49.4161 L1413.1 47.7553 L1405.69 47.7553 M1420.56 44.6766 L1420.56 70.5618 L1413.1 70.5618 L1413.1 63.6753 Q1410.55 67.8072 1406.74 69.7922 Q1402.94 71.7366 1397.43 71.7366 Q1390.46 71.7366 1386.33 67.8477 Q1382.24 63.9184 1382.24 57.3559 Q1382.24 49.6997 1387.34 45.8108 Q1392.48 41.922 1402.65 41.922 L1413.1 41.922 L1413.1 41.1928 Q1413.1 36.0481 1409.7 33.253 Q1406.34 30.4174 1400.22 30.4174 Q1396.33 30.4174 1392.65 31.3491 Q1388.96 32.2808 1385.56 34.1442 L1385.56 27.2577 Q1389.65 25.6778 1393.5 24.9082 Q1397.35 24.098 1400.99 24.098 Q1410.83 24.098 1415.7 29.2021 Q1420.56 34.3063 1420.56 44.6766 Z" fill="#000000" fill-rule="nonzero" fill-opacity="1"></path><path clip-path="url(#clip810)" d="M1435.91 7.52977 L1443.36 7.52977 L1443.36 70.5618 L1435.91 70.5618 L1435.91 7.52977 Z" fill="#000000" fill-rule="nonzero" fill-opacity="1"></path><path clip-path="url(#clip810)" d="M1458.19 52.6568 L1458.19 25.1917 L1465.64 25.1917 L1465.64 52.3733 Q1465.64 58.8142 1468.15 62.0549 Q1470.67 65.2552 1475.69 65.2552 Q1481.73 65.2552 1485.21 61.4068 Q1488.73 57.5584 1488.73 50.915 L1488.73 25.1917 L1496.19 25.1917 L1496.19 70.5618 L1488.73 70.5618 L1488.73 63.5943 Q1486.02 67.7262 1482.41 69.7517 Q1478.85 71.7366 1474.11 71.7366 Q1466.29 71.7366 1462.24 66.8755 Q1458.19 62.0144 1458.19 52.6568 M1476.95 24.098 L1476.95 24.098 Z" fill="#000000" fill-rule="nonzero" fill-opacity="1"></path><path clip-path="url(#clip810)" d="M1550.35 46.0134 L1550.35 49.6592 L1516.08 49.6592 Q1516.56 57.3559 1520.7 61.4068 Q1524.87 65.4172 1532.28 65.4172 Q1536.57 65.4172 1540.59 64.364 Q1544.64 63.3107 1548.61 61.2043 L1548.61 68.2528 Q1544.6 69.9542 1540.38 70.8454 Q1536.17 71.7366 1531.84 71.7366 Q1520.98 71.7366 1514.62 65.4172 Q1508.3 59.0978 1508.3 48.3224 Q1508.3 37.1824 1514.29 30.6604 Q1520.33 24.098 1530.54 24.098 Q1539.69 24.098 1545 30.0123 Q1550.35 35.8861 1550.35 46.0134 M1542.89 43.8259 Q1542.81 37.709 1539.45 34.0632 Q1536.13 30.4174 1530.62 30.4174 Q1524.38 30.4174 1520.61 33.9417 Q1516.89 37.466 1516.32 43.8664 L1542.89 43.8259 Z" fill="#000000" fill-rule="nonzero" fill-opacity="1"></path><path clip-path="url(#clip810)" d="M1591.5 26.5285 L1591.5 33.5771 Q1588.35 31.9567 1584.94 31.1465 Q1581.54 30.3364 1577.89 30.3364 Q1572.34 30.3364 1569.55 32.0377 Q1566.79 33.7391 1566.79 37.1419 Q1566.79 39.7345 1568.78 41.2333 Q1570.76 42.6916 1576.76 44.0284 L1579.31 44.5955 Q1587.25 46.2969 1590.57 49.4161 Q1593.94 52.4948 1593.94 58.0445 Q1593.94 64.364 1588.91 68.0503 Q1583.93 71.7366 1575.18 71.7366 Q1571.53 71.7366 1567.56 71.0074 Q1563.63 70.3188 1559.26 68.901 L1559.26 61.2043 Q1563.39 63.3512 1567.4 64.445 Q1571.41 65.4982 1575.34 65.4982 Q1580.61 65.4982 1583.44 63.7158 Q1586.28 61.8929 1586.28 58.6117 Q1586.28 55.5735 1584.21 53.9531 Q1582.19 52.3328 1575.26 50.8339 L1572.67 50.2263 Q1565.74 48.768 1562.66 45.7703 Q1559.58 42.7321 1559.58 37.466 Q1559.58 31.0655 1564.12 27.5817 Q1568.66 24.098 1577 24.098 Q1581.13 24.098 1584.78 24.7056 Q1588.43 25.3132 1591.5 26.5285 Z" fill="#000000" fill-rule="nonzero" fill-opacity="1"></path><path clip-path="url(#clip810)" d="M1649.76 30.4174 Q1643.76 30.4174 1640.28 35.1164 Q1636.79 39.775 1636.79 47.9173 Q1636.79 56.0596 1640.24 60.7587 Q1643.72 65.4172 1649.76 65.4172 Q1655.71 65.4172 1659.2 60.7181 Q1662.68 56.0191 1662.68 47.9173 Q1662.68 39.856 1659.2 35.1569 Q1655.71 30.4174 1649.76 30.4174 M1649.76 24.098 Q1659.48 24.098 1665.03 30.4174 Q1670.58 36.7368 1670.58 47.9173 Q1670.58 59.0573 1665.03 65.4172 Q1659.48 71.7366 1649.76 71.7366 Q1639.99 71.7366 1634.44 65.4172 Q1628.94 59.0573 1628.94 47.9173 Q1628.94 36.7368 1634.44 30.4174 Q1639.99 24.098 1649.76 24.098 Z" fill="#000000" fill-rule="nonzero" fill-opacity="1"></path><path clip-path="url(#clip810)" d="M1705.9 7.52977 L1705.9 13.7277 L1698.77 13.7277 Q1694.76 13.7277 1693.18 15.348 Q1691.64 16.9684 1691.64 21.1813 L1691.64 25.1917 L1703.92 25.1917 L1703.92 30.9845 L1691.64 30.9845 L1691.64 70.5618 L1684.15 70.5618 L1684.15 30.9845 L1677.02 30.9845 L1677.02 25.1917 L1684.15 25.1917 L1684.15 22.032 Q1684.15 14.4568 1687.67 11.0136 Q1691.2 7.52977 1698.85 7.52977 L1705.9 7.52977 Z" fill="#000000" fill-rule="nonzero" fill-opacity="1"></path><path clip-path="url(#clip810)" d="M1790.29 12.2341 L1785 33.6305 Q1784.64 34.9832 1784.39 35.1471 Q1784.18 35.3111 1783.53 35.3111 Q1782.26 35.3111 1782.26 34.4503 Q1782.26 34.3683 1782.38 33.3026 Q1782.5 32.1959 1782.5 30.1874 Q1782.5 22.7683 1778.9 18.3825 Q1775.33 13.9966 1768.98 13.9966 Q1763.03 13.9966 1757.34 17.1118 Q1751.64 20.227 1747.99 24.8178 Q1744.92 28.5888 1742.79 33.1796 Q1740.7 37.7704 1739.83 41.7874 Q1738.97 45.7633 1738.65 48.1817 Q1738.36 50.6001 1738.36 52.1577 Q1738.36 56.7485 1739.83 60.3145 Q1741.31 63.8396 1743.77 65.8481 Q1746.27 67.8566 1749.14 68.8403 Q1752.05 69.824 1755.21 69.824 Q1756.39 69.824 1757.83 69.6601 Q1759.26 69.4961 1761.48 68.8813 Q1763.73 68.2664 1765.58 67.2417 Q1767.46 66.217 1769.1 64.2495 Q1770.78 62.282 1771.44 59.6587 Q1773.2 52.9774 1773.2 51.9937 Q1773.2 51.1739 1772.71 50.887 Q1772.22 50.6001 1770.58 50.3951 L1766.15 50.2312 Q1766.07 50.2312 1765.94 50.2312 Q1765.17 50.2312 1764.84 50.2312 Q1764.51 50.1902 1764.14 50.1082 Q1763.81 50.0262 1763.69 49.8623 Q1763.61 49.6573 1763.61 49.3294 Q1763.61 48.5506 1763.94 48.1817 Q1764.26 47.7718 1764.55 47.7308 Q1764.84 47.6488 1765.37 47.6488 L1777.13 47.8948 Q1778.08 47.8948 1781.52 47.7718 Q1784.96 47.6488 1785.95 47.6488 Q1787.05 47.6488 1787.05 48.5506 Q1787.05 50.2312 1785.7 50.2312 Q1784.35 50.2722 1783.65 50.3131 Q1782.96 50.3131 1782.26 50.5181 Q1781.6 50.723 1781.36 50.887 Q1781.11 51.01 1780.78 51.6248 Q1780.45 52.1986 1780.33 52.6905 Q1780.21 53.1414 1779.92 54.2891 Q1779.76 55.0269 1779.35 56.4205 Q1778.98 57.8142 1778.82 58.552 L1777.22 65.0283 Q1776.11 69.824 1775.78 70.152 Q1775.62 70.4799 1775.21 70.4799 Q1774.59 70.4799 1773.28 68.6763 Q1772.01 66.8728 1771.44 65.2742 Q1770.41 66.3809 1769.76 67.0368 Q1769.1 67.6516 1767.58 68.6353 Q1766.11 69.6191 1764.14 70.3979 Q1759.35 72.4064 1753.65 72.4064 Q1743.48 72.4064 1737.09 65.971 Q1730.69 59.4947 1730.69 49.4114 Q1730.69 42.2792 1733.97 35.2701 Q1737.25 28.2609 1742.46 23.0553 Q1747.66 17.8496 1754.55 14.6115 Q1761.44 11.3733 1768.32 11.3733 Q1770.95 11.3733 1773.28 12.0701 Q1775.62 12.767 1777.01 13.6277 Q1778.45 14.4885 1779.72 15.7592 Q1780.99 16.9889 1781.4 17.5627 Q1781.85 18.1366 1782.26 18.8334 L1788.12 12.3981 Q1789.14 11.3733 1789.39 11.3733 Q1789.88 11.3733 1790.09 11.6603 Q1790.29 11.9472 1790.29 12.2341 Z" fill="#000000" fill-rule="nonzero" fill-opacity="1"></path><path clip-path="url(#clip810)" d="M1798.67 87.7283 Q1798.67 85.9781 1799.67 85.146 Q1800.68 84.3139 1801.97 84.3139 Q1803.32 84.3139 1804.26 85.2034 Q1805.24 86.0642 1805.24 87.5849 Q1805.24 89.2203 1804.09 90.1385 Q1802.97 91.0567 1801.37 90.8271 Q1802.77 93.1799 1805.35 94.2415 Q1807.97 95.3032 1810.38 95.3032 Q1812.9 95.3032 1814.94 93.1225 Q1817 90.9419 1817 85.6051 Q1817 81.0717 1815.23 78.4607 Q1813.47 75.8496 1810 75.8496 L1807.42 75.8496 Q1806.53 75.8496 1806.27 75.7636 Q1806.01 75.6775 1806.01 75.1897 Q1806.01 74.6159 1806.9 74.5011 Q1807.79 74.5011 1809.2 74.3289 Q1812.61 74.2142 1814.42 71.2588 Q1816.06 68.5044 1816.06 64.5735 Q1816.06 60.9869 1814.34 59.4949 Q1812.64 57.9742 1810.43 57.9742 Q1808.37 57.9742 1806.1 58.835 Q1803.83 59.6958 1802.6 61.6182 Q1806.24 61.6182 1806.24 64.5735 Q1806.24 65.8647 1805.41 66.7254 Q1804.61 67.5575 1803.26 67.5575 Q1801.97 67.5575 1801.11 66.7541 Q1800.25 65.922 1800.25 64.5161 Q1800.25 61.1591 1803.23 58.835 Q1806.24 56.5109 1810.66 56.5109 Q1815.02 56.5109 1818.24 58.8063 Q1821.48 61.1017 1821.48 64.6309 Q1821.48 68.1027 1819.18 70.9432 Q1816.89 73.7838 1813.25 74.9602 Q1817.72 75.8496 1820.39 78.8911 Q1823.06 81.9038 1823.06 85.6051 Q1823.06 90.1959 1819.44 93.5816 Q1815.83 96.9386 1810.55 96.9386 Q1805.67 96.9386 1802.17 94.2989 Q1798.67 91.6592 1798.67 87.7283 Z" fill="#000000" fill-rule="nonzero" fill-opacity="1"></path><circle clip-path="url(#clip813)" cx="363.18" cy="1447.87" r="7.2" fill="#009af9" fill-rule="evenodd" fill-opacity="1" stroke="#000000" stroke-opacity="1" stroke-width="3.2"></circle>
<circle clip-path="url(#clip813)" cx="2294.81" cy="162.047" r="7.2" fill="#009af9" fill-rule="evenodd" fill-opacity="1" stroke="#000000" stroke-opacity="1" stroke-width="3.2"></circle>
</svg>