<svg xmlns="http://www.w3.org/2000/svg" xmlns:xlink="http://www.w3.org/1999/xlink" width="600" height="400" viewBox="0 0 2400 1600">
<defs>
  <clipPath id="clip650">
    <rect x="0" y="0" width="2400" height="1600"></rect>
  </clipPath>
</defs>
<path clip-path="url(#clip650)" d="M0 1600 L2400 1600 L2400 0 L0 0  Z" fill="#ffffff" fill-rule="evenodd" fill-opacity="1"></path>
<defs>
  <clipPath id="clip651">
    <rect x="480" y="0" width="1681" height="1600"></rect>
  </clipPath>
</defs>
<defs>
  <clipPath id="clip652">
    <rect x="112" y="123" width="2242" height="1364"></rect>
  </clipPath>
</defs>
<path clip-path="url(#clip650)" d="M334.19 1486.45 L2352.76 1486.45 L2352.76 123.472 L334.19 123.472  Z" fill="#ffffff" fill-rule="evenodd" fill-opacity="1"></path>
<defs>
  <clipPath id="clip653">
    <rect x="334" y="123" width="2020" height="1364"></rect>
  </clipPath>
</defs>
<polyline clip-path="url(#clip653)" style="stroke:#000000; stroke-linecap:round; stroke-linejoin:round; stroke-width:2; stroke-opacity:0.1; fill:none" points="391.319,1486.45 391.319,123.472 "></polyline>
<polyline clip-path="url(#clip653)" style="stroke:#000000; stroke-linecap:round; stroke-linejoin:round; stroke-width:2; stroke-opacity:0.1; fill:none" points="867.396,1486.45 867.396,123.472 "></polyline>
<polyline clip-path="url(#clip653)" style="stroke:#000000; stroke-linecap:round; stroke-linejoin:round; stroke-width:2; stroke-opacity:0.1; fill:none" points="1343.47,1486.45 1343.47,123.472 "></polyline>
<polyline clip-path="url(#clip653)" style="stroke:#000000; stroke-linecap:round; stroke-linejoin:round; stroke-width:2; stroke-opacity:0.1; fill:none" points="1819.55,1486.45 1819.55,123.472 "></polyline>
<polyline clip-path="url(#clip653)" style="stroke:#000000; stroke-linecap:round; stroke-linejoin:round; stroke-width:2; stroke-opacity:0.1; fill:none" points="2295.63,1486.45 2295.63,123.472 "></polyline>
<polyline clip-path="url(#clip650)" style="stroke:#000000; stroke-linecap:round; stroke-linejoin:round; stroke-width:4; stroke-opacity:1; fill:none" points="334.19,1486.45 2352.76,1486.45 "></polyline>
<polyline clip-path="url(#clip650)" style="stroke:#000000; stroke-linecap:round; stroke-linejoin:round; stroke-width:4; stroke-opacity:1; fill:none" points="391.319,1486.45 391.319,1467.55 "></polyline>
<polyline clip-path="url(#clip650)" style="stroke:#000000; stroke-linecap:round; stroke-linejoin:round; stroke-width:4; stroke-opacity:1; fill:none" points="867.396,1486.45 867.396,1467.55 "></polyline>
<polyline clip-path="url(#clip650)" style="stroke:#000000; stroke-linecap:round; stroke-linejoin:round; stroke-width:4; stroke-opacity:1; fill:none" points="1343.47,1486.45 1343.47,1467.55 "></polyline>
<polyline clip-path="url(#clip650)" style="stroke:#000000; stroke-linecap:round; stroke-linejoin:round; stroke-width:4; stroke-opacity:1; fill:none" points="1819.55,1486.45 1819.55,1467.55 "></polyline>
<polyline clip-path="url(#clip650)" style="stroke:#000000; stroke-linecap:round; stroke-linejoin:round; stroke-width:4; stroke-opacity:1; fill:none" points="2295.63,1486.45 2295.63,1467.55 "></polyline>
<path clip-path="url(#clip650)" d="M343.391 1544.91 L351.03 1544.91 L351.03 1518.55 L342.72 1520.21 L342.72 1515.95 L350.984 1514.29 L355.66 1514.29 L355.66 1544.91 L363.298 1544.91 L363.298 1548.85 L343.391 1548.85 L343.391 1544.91 Z" fill="#000000" fill-rule="nonzero" fill-opacity="1"></path><path clip-path="url(#clip650)" d="M372.743 1542.97 L377.627 1542.97 L377.627 1548.85 L372.743 1548.85 L372.743 1542.97 Z" fill="#000000" fill-rule="nonzero" fill-opacity="1"></path><path clip-path="url(#clip650)" d="M397.812 1517.37 Q394.201 1517.37 392.372 1520.93 Q390.567 1524.47 390.567 1531.6 Q390.567 1538.71 392.372 1542.27 Q394.201 1545.82 397.812 1545.82 Q401.446 1545.82 403.252 1542.27 Q405.081 1538.71 405.081 1531.6 Q405.081 1524.47 403.252 1520.93 Q401.446 1517.37 397.812 1517.37 M397.812 1513.66 Q403.622 1513.66 406.678 1518.27 Q409.757 1522.85 409.757 1531.6 Q409.757 1540.33 406.678 1544.94 Q403.622 1549.52 397.812 1549.52 Q392.002 1549.52 388.923 1544.94 Q385.868 1540.33 385.868 1531.6 Q385.868 1522.85 388.923 1518.27 Q392.002 1513.66 397.812 1513.66 Z" fill="#000000" fill-rule="nonzero" fill-opacity="1"></path><path clip-path="url(#clip650)" d="M427.974 1517.37 Q424.363 1517.37 422.534 1520.93 Q420.729 1524.47 420.729 1531.6 Q420.729 1538.71 422.534 1542.27 Q424.363 1545.82 427.974 1545.82 Q431.608 1545.82 433.414 1542.27 Q435.242 1538.71 435.242 1531.6 Q435.242 1524.47 433.414 1520.93 Q431.608 1517.37 427.974 1517.37 M427.974 1513.66 Q433.784 1513.66 436.84 1518.27 Q439.918 1522.85 439.918 1531.6 Q439.918 1540.33 436.84 1544.94 Q433.784 1549.52 427.974 1549.52 Q422.164 1549.52 419.085 1544.94 Q416.03 1540.33 416.03 1531.6 Q416.03 1522.85 419.085 1518.27 Q422.164 1513.66 427.974 1513.66 Z" fill="#000000" fill-rule="nonzero" fill-opacity="1"></path><path clip-path="url(#clip650)" d="M819.966 1544.91 L827.605 1544.91 L827.605 1518.55 L819.294 1520.21 L819.294 1515.95 L827.558 1514.29 L832.234 1514.29 L832.234 1544.91 L839.873 1544.91 L839.873 1548.85 L819.966 1548.85 L819.966 1544.91 Z" fill="#000000" fill-rule="nonzero" fill-opacity="1"></path><path clip-path="url(#clip650)" d="M849.317 1542.97 L854.202 1542.97 L854.202 1548.85 L849.317 1548.85 L849.317 1542.97 Z" fill="#000000" fill-rule="nonzero" fill-opacity="1"></path><path clip-path="url(#clip650)" d="M868.415 1544.91 L884.734 1544.91 L884.734 1548.85 L862.79 1548.85 L862.79 1544.91 Q865.452 1542.16 870.035 1537.53 Q874.641 1532.88 875.822 1531.53 Q878.067 1529.01 878.947 1527.27 Q879.85 1525.51 879.85 1523.82 Q879.85 1521.07 877.905 1519.33 Q875.984 1517.6 872.882 1517.6 Q870.683 1517.6 868.229 1518.36 Q865.799 1519.13 863.021 1520.68 L863.021 1515.95 Q865.845 1514.82 868.299 1514.24 Q870.752 1513.66 872.789 1513.66 Q878.16 1513.66 881.354 1516.35 Q884.549 1519.03 884.549 1523.52 Q884.549 1525.65 883.739 1527.57 Q882.951 1529.47 880.845 1532.07 Q880.266 1532.74 877.164 1535.95 Q874.063 1539.15 868.415 1544.91 Z" fill="#000000" fill-rule="nonzero" fill-opacity="1"></path><path clip-path="url(#clip650)" d="M894.595 1514.29 L912.951 1514.29 L912.951 1518.22 L898.877 1518.22 L898.877 1526.7 Q899.896 1526.35 900.914 1526.19 Q901.933 1526 902.951 1526 Q908.738 1526 912.118 1529.17 Q915.498 1532.34 915.498 1537.76 Q915.498 1543.34 912.025 1546.44 Q908.553 1549.52 902.234 1549.52 Q900.058 1549.52 897.789 1549.15 Q895.544 1548.78 893.137 1548.04 L893.137 1543.34 Q895.22 1544.47 897.442 1545.03 Q899.664 1545.58 902.141 1545.58 Q906.146 1545.58 908.484 1543.48 Q910.822 1541.37 910.822 1537.76 Q910.822 1534.15 908.484 1532.04 Q906.146 1529.94 902.141 1529.94 Q900.266 1529.94 898.391 1530.35 Q896.539 1530.77 894.595 1531.65 L894.595 1514.29 Z" fill="#000000" fill-rule="nonzero" fill-opacity="1"></path><path clip-path="url(#clip650)" d="M1295.54 1544.91 L1303.18 1544.91 L1303.18 1518.55 L1294.87 1520.21 L1294.87 1515.95 L1303.14 1514.29 L1307.81 1514.29 L1307.81 1544.91 L1315.45 1544.91 L1315.45 1548.85 L1295.54 1548.85 L1295.54 1544.91 Z" fill="#000000" fill-rule="nonzero" fill-opacity="1"></path><path clip-path="url(#clip650)" d="M1324.9 1542.97 L1329.78 1542.97 L1329.78 1548.85 L1324.9 1548.85 L1324.9 1542.97 Z" fill="#000000" fill-rule="nonzero" fill-opacity="1"></path><path clip-path="url(#clip650)" d="M1340.01 1514.29 L1358.37 1514.29 L1358.37 1518.22 L1344.29 1518.22 L1344.29 1526.7 Q1345.31 1526.35 1346.33 1526.19 Q1347.35 1526 1348.37 1526 Q1354.16 1526 1357.54 1529.17 Q1360.91 1532.34 1360.91 1537.76 Q1360.91 1543.34 1357.44 1546.44 Q1353.97 1549.52 1347.65 1549.52 Q1345.48 1549.52 1343.21 1549.15 Q1340.96 1548.78 1338.55 1548.04 L1338.55 1543.34 Q1340.64 1544.47 1342.86 1545.03 Q1345.08 1545.58 1347.56 1545.58 Q1351.56 1545.58 1353.9 1543.48 Q1356.24 1541.37 1356.24 1537.76 Q1356.24 1534.15 1353.9 1532.04 Q1351.56 1529.94 1347.56 1529.94 Q1345.68 1529.94 1343.81 1530.35 Q1341.96 1530.77 1340.01 1531.65 L1340.01 1514.29 Z" fill="#000000" fill-rule="nonzero" fill-opacity="1"></path><path clip-path="url(#clip650)" d="M1380.13 1517.37 Q1376.52 1517.37 1374.69 1520.93 Q1372.88 1524.47 1372.88 1531.6 Q1372.88 1538.71 1374.69 1542.27 Q1376.52 1545.82 1380.13 1545.82 Q1383.76 1545.82 1385.57 1542.27 Q1387.4 1538.71 1387.4 1531.6 Q1387.4 1524.47 1385.57 1520.93 Q1383.76 1517.37 1380.13 1517.37 M1380.13 1513.66 Q1385.94 1513.66 1388.99 1518.27 Q1392.07 1522.85 1392.07 1531.6 Q1392.07 1540.33 1388.99 1544.94 Q1385.94 1549.52 1380.13 1549.52 Q1374.32 1549.52 1371.24 1544.94 Q1368.18 1540.33 1368.18 1531.6 Q1368.18 1522.85 1371.24 1518.27 Q1374.32 1513.66 1380.13 1513.66 Z" fill="#000000" fill-rule="nonzero" fill-opacity="1"></path><path clip-path="url(#clip650)" d="M1772.12 1544.91 L1779.76 1544.91 L1779.76 1518.55 L1771.45 1520.21 L1771.45 1515.95 L1779.71 1514.29 L1784.39 1514.29 L1784.39 1544.91 L1792.03 1544.91 L1792.03 1548.85 L1772.12 1548.85 L1772.12 1544.91 Z" fill="#000000" fill-rule="nonzero" fill-opacity="1"></path><path clip-path="url(#clip650)" d="M1801.47 1542.97 L1806.36 1542.97 L1806.36 1548.85 L1801.47 1548.85 L1801.47 1542.97 Z" fill="#000000" fill-rule="nonzero" fill-opacity="1"></path><path clip-path="url(#clip650)" d="M1815.36 1514.29 L1837.58 1514.29 L1837.58 1516.28 L1825.04 1548.85 L1820.15 1548.85 L1831.96 1518.22 L1815.36 1518.22 L1815.36 1514.29 Z" fill="#000000" fill-rule="nonzero" fill-opacity="1"></path><path clip-path="url(#clip650)" d="M1846.75 1514.29 L1865.11 1514.29 L1865.11 1518.22 L1851.03 1518.22 L1851.03 1526.7 Q1852.05 1526.35 1853.07 1526.19 Q1854.09 1526 1855.11 1526 Q1860.89 1526 1864.27 1529.17 Q1867.65 1532.34 1867.65 1537.76 Q1867.65 1543.34 1864.18 1546.44 Q1860.71 1549.52 1854.39 1549.52 Q1852.21 1549.52 1849.94 1549.15 Q1847.7 1548.78 1845.29 1548.04 L1845.29 1543.34 Q1847.37 1544.47 1849.6 1545.03 Q1851.82 1545.58 1854.29 1545.58 Q1858.3 1545.58 1860.64 1543.48 Q1862.98 1541.37 1862.98 1537.76 Q1862.98 1534.15 1860.64 1532.04 Q1858.3 1529.94 1854.29 1529.94 Q1852.42 1529.94 1850.54 1530.35 Q1848.69 1530.77 1846.75 1531.65 L1846.75 1514.29 Z" fill="#000000" fill-rule="nonzero" fill-opacity="1"></path><path clip-path="url(#clip650)" d="M2251.78 1544.91 L2268.1 1544.91 L2268.1 1548.85 L2246.16 1548.85 L2246.16 1544.91 Q2248.82 1542.16 2253.4 1537.53 Q2258.01 1532.88 2259.19 1531.53 Q2261.44 1529.01 2262.32 1527.27 Q2263.22 1525.51 2263.22 1523.82 Q2263.22 1521.07 2261.28 1519.33 Q2259.35 1517.6 2256.25 1517.6 Q2254.05 1517.6 2251.6 1518.36 Q2249.17 1519.13 2246.39 1520.68 L2246.39 1515.95 Q2249.21 1514.82 2251.67 1514.24 Q2254.12 1513.66 2256.16 1513.66 Q2261.53 1513.66 2264.72 1516.35 Q2267.92 1519.03 2267.92 1523.52 Q2267.92 1525.65 2267.11 1527.57 Q2266.32 1529.47 2264.21 1532.07 Q2263.64 1532.74 2260.53 1535.95 Q2257.43 1539.15 2251.78 1544.91 Z" fill="#000000" fill-rule="nonzero" fill-opacity="1"></path><path clip-path="url(#clip650)" d="M2277.92 1542.97 L2282.8 1542.97 L2282.8 1548.85 L2277.92 1548.85 L2277.92 1542.97 Z" fill="#000000" fill-rule="nonzero" fill-opacity="1"></path><path clip-path="url(#clip650)" d="M2302.99 1517.37 Q2299.38 1517.37 2297.55 1520.93 Q2295.74 1524.47 2295.74 1531.6 Q2295.74 1538.71 2297.55 1542.27 Q2299.38 1545.82 2302.99 1545.82 Q2306.62 1545.82 2308.43 1542.27 Q2310.26 1538.71 2310.26 1531.6 Q2310.26 1524.47 2308.43 1520.93 Q2306.62 1517.37 2302.99 1517.37 M2302.99 1513.66 Q2308.8 1513.66 2311.85 1518.27 Q2314.93 1522.85 2314.93 1531.6 Q2314.93 1540.33 2311.85 1544.94 Q2308.8 1549.52 2302.99 1549.52 Q2297.18 1549.52 2294.1 1544.94 Q2291.04 1540.33 2291.04 1531.6 Q2291.04 1522.85 2294.1 1518.27 Q2297.18 1513.66 2302.99 1513.66 Z" fill="#000000" fill-rule="nonzero" fill-opacity="1"></path><path clip-path="url(#clip650)" d="M2333.15 1517.37 Q2329.54 1517.37 2327.71 1520.93 Q2325.9 1524.47 2325.9 1531.6 Q2325.9 1538.71 2327.71 1542.27 Q2329.54 1545.82 2333.15 1545.82 Q2336.78 1545.82 2338.59 1542.27 Q2340.42 1538.71 2340.42 1531.6 Q2340.42 1524.47 2338.59 1520.93 Q2336.78 1517.37 2333.15 1517.37 M2333.15 1513.66 Q2338.96 1513.66 2342.02 1518.27 Q2345.09 1522.85 2345.09 1531.6 Q2345.09 1540.33 2342.02 1544.94 Q2338.96 1549.52 2333.15 1549.52 Q2327.34 1549.52 2324.26 1544.94 Q2321.21 1540.33 2321.21 1531.6 Q2321.21 1522.85 2324.26 1518.27 Q2327.34 1513.66 2333.15 1513.66 Z" fill="#000000" fill-rule="nonzero" fill-opacity="1"></path><polyline clip-path="url(#clip653)" style="stroke:#000000; stroke-linecap:round; stroke-linejoin:round; stroke-width:2; stroke-opacity:0.1; fill:none" points="334.19,1446.93 2352.76,1446.93 "></polyline>
<polyline clip-path="url(#clip653)" style="stroke:#000000; stroke-linecap:round; stroke-linejoin:round; stroke-width:2; stroke-opacity:0.1; fill:none" points="334.19,1255.01 2352.76,1255.01 "></polyline>
<polyline clip-path="url(#clip653)" style="stroke:#000000; stroke-linecap:round; stroke-linejoin:round; stroke-width:2; stroke-opacity:0.1; fill:none" points="334.19,1063.09 2352.76,1063.09 "></polyline>
<polyline clip-path="url(#clip653)" style="stroke:#000000; stroke-linecap:round; stroke-linejoin:round; stroke-width:2; stroke-opacity:0.1; fill:none" points="334.19,871.173 2352.76,871.173 "></polyline>
<polyline clip-path="url(#clip653)" style="stroke:#000000; stroke-linecap:round; stroke-linejoin:round; stroke-width:2; stroke-opacity:0.1; fill:none" points="334.19,679.256 2352.76,679.256 "></polyline>
<polyline clip-path="url(#clip653)" style="stroke:#000000; stroke-linecap:round; stroke-linejoin:round; stroke-width:2; stroke-opacity:0.1; fill:none" points="334.19,487.338 2352.76,487.338 "></polyline>
<polyline clip-path="url(#clip653)" style="stroke:#000000; stroke-linecap:round; stroke-linejoin:round; stroke-width:2; stroke-opacity:0.1; fill:none" points="334.19,295.421 2352.76,295.421 "></polyline>
<polyline clip-path="url(#clip650)" style="stroke:#000000; stroke-linecap:round; stroke-linejoin:round; stroke-width:4; stroke-opacity:1; fill:none" points="334.19,1486.45 334.19,123.472 "></polyline>
<polyline clip-path="url(#clip650)" style="stroke:#000000; stroke-linecap:round; stroke-linejoin:round; stroke-width:4; stroke-opacity:1; fill:none" points="334.19,1446.93 353.088,1446.93 "></polyline>
<polyline clip-path="url(#clip650)" style="stroke:#000000; stroke-linecap:round; stroke-linejoin:round; stroke-width:4; stroke-opacity:1; fill:none" points="334.19,1255.01 353.088,1255.01 "></polyline>
<polyline clip-path="url(#clip650)" style="stroke:#000000; stroke-linecap:round; stroke-linejoin:round; stroke-width:4; stroke-opacity:1; fill:none" points="334.19,1063.09 353.088,1063.09 "></polyline>
<polyline clip-path="url(#clip650)" style="stroke:#000000; stroke-linecap:round; stroke-linejoin:round; stroke-width:4; stroke-opacity:1; fill:none" points="334.19,871.173 353.088,871.173 "></polyline>
<polyline clip-path="url(#clip650)" style="stroke:#000000; stroke-linecap:round; stroke-linejoin:round; stroke-width:4; stroke-opacity:1; fill:none" points="334.19,679.256 353.088,679.256 "></polyline>
<polyline clip-path="url(#clip650)" style="stroke:#000000; stroke-linecap:round; stroke-linejoin:round; stroke-width:4; stroke-opacity:1; fill:none" points="334.19,487.338 353.088,487.338 "></polyline>
<polyline clip-path="url(#clip650)" style="stroke:#000000; stroke-linecap:round; stroke-linejoin:round; stroke-width:4; stroke-opacity:1; fill:none" points="334.19,295.421 353.088,295.421 "></polyline>
<path clip-path="url(#clip650)" d="M56.6171 1466.72 L72.9365 1466.72 L72.9365 1470.65 L50.9921 1470.65 L50.9921 1466.72 Q53.6541 1463.96 58.2375 1459.33 Q62.8439 1454.68 64.0245 1453.34 Q66.2698 1450.82 67.1494 1449.08 Q68.0522 1447.32 68.0522 1445.63 Q68.0522 1442.88 66.1078 1441.14 Q64.1865 1439.4 61.0847 1439.4 Q58.8856 1439.4 56.4319 1440.17 Q54.0014 1440.93 51.2236 1442.48 L51.2236 1437.76 Q54.0477 1436.63 56.5014 1436.05 Q58.955 1435.47 60.9921 1435.47 Q66.3624 1435.47 69.5568 1438.15 Q72.7513 1440.84 72.7513 1445.33 Q72.7513 1447.46 71.9411 1449.38 Q71.1541 1451.28 69.0476 1453.87 Q68.4689 1454.54 65.367 1457.76 Q62.2652 1460.95 56.6171 1466.72 Z" fill="#000000" fill-rule="nonzero" fill-opacity="1"></path><path clip-path="url(#clip650)" d="M82.7512 1464.77 L87.6354 1464.77 L87.6354 1470.65 L82.7512 1470.65 L82.7512 1464.77 Z" fill="#000000" fill-rule="nonzero" fill-opacity="1"></path><path clip-path="url(#clip650)" d="M97.8669 1436.09 L116.223 1436.09 L116.223 1440.03 L102.149 1440.03 L102.149 1448.5 Q103.168 1448.15 104.186 1447.99 Q105.205 1447.81 106.223 1447.81 Q112.01 1447.81 115.39 1450.98 Q118.77 1454.15 118.77 1459.57 Q118.77 1465.14 115.297 1468.25 Q111.825 1471.33 105.506 1471.33 Q103.33 1471.33 101.061 1470.95 Q98.8159 1470.58 96.4085 1469.84 L96.4085 1465.14 Q98.4919 1466.28 100.714 1466.83 Q102.936 1467.39 105.413 1467.39 Q109.418 1467.39 111.756 1465.28 Q114.094 1463.18 114.094 1459.57 Q114.094 1455.95 111.756 1453.85 Q109.418 1451.74 105.413 1451.74 Q103.538 1451.74 101.663 1452.16 Q99.8113 1452.58 97.8669 1453.45 L97.8669 1436.09 Z" fill="#000000" fill-rule="nonzero" fill-opacity="1"></path><path clip-path="url(#clip650)" d="M137.982 1439.17 Q134.371 1439.17 132.543 1442.74 Q130.737 1446.28 130.737 1453.41 Q130.737 1460.51 132.543 1464.08 Q134.371 1467.62 137.982 1467.62 Q141.617 1467.62 143.422 1464.08 Q145.251 1460.51 145.251 1453.41 Q145.251 1446.28 143.422 1442.74 Q141.617 1439.17 137.982 1439.17 M137.982 1435.47 Q143.793 1435.47 146.848 1440.08 Q149.927 1444.66 149.927 1453.41 Q149.927 1462.14 146.848 1466.74 Q143.793 1471.33 137.982 1471.33 Q132.172 1471.33 129.094 1466.74 Q126.038 1462.14 126.038 1453.41 Q126.038 1444.66 129.094 1440.08 Q132.172 1435.47 137.982 1435.47 Z" fill="#000000" fill-rule="nonzero" fill-opacity="1"></path><path clip-path="url(#clip650)" d="M168.144 1439.17 Q164.533 1439.17 162.704 1442.74 Q160.899 1446.28 160.899 1453.41 Q160.899 1460.51 162.704 1464.08 Q164.533 1467.62 168.144 1467.62 Q171.779 1467.62 173.584 1464.08 Q175.413 1460.51 175.413 1453.41 Q175.413 1446.28 173.584 1442.74 Q171.779 1439.17 168.144 1439.17 M168.144 1435.47 Q173.954 1435.47 177.01 1440.08 Q180.089 1444.66 180.089 1453.41 Q180.089 1462.14 177.01 1466.74 Q173.954 1471.33 168.144 1471.33 Q162.334 1471.33 159.255 1466.74 Q156.2 1462.14 156.2 1453.41 Q156.2 1444.66 159.255 1440.08 Q162.334 1435.47 168.144 1435.47 Z" fill="#000000" fill-rule="nonzero" fill-opacity="1"></path><path clip-path="url(#clip650)" d="M216.477 1445.19 L205.899 1455.82 L216.477 1466.39 L213.723 1469.2 L203.098 1458.57 L192.473 1469.2 L189.741 1466.39 L200.297 1455.82 L189.741 1445.19 L192.473 1442.39 L203.098 1453.02 L213.723 1442.39 L216.477 1445.19 Z" fill="#000000" fill-rule="nonzero" fill-opacity="1"></path><path clip-path="url(#clip650)" d="M228.838 1466.72 L236.477 1466.72 L236.477 1440.35 L228.167 1442.02 L228.167 1437.76 L236.431 1436.09 L241.107 1436.09 L241.107 1466.72 L248.746 1466.72 L248.746 1470.65 L228.838 1470.65 L228.838 1466.72 Z" fill="#000000" fill-rule="nonzero" fill-opacity="1"></path><path clip-path="url(#clip650)" d="M268.19 1439.17 Q264.579 1439.17 262.75 1442.74 Q260.945 1446.28 260.945 1453.41 Q260.945 1460.51 262.75 1464.08 Q264.579 1467.62 268.19 1467.62 Q271.824 1467.62 273.63 1464.08 Q275.459 1460.51 275.459 1453.41 Q275.459 1446.28 273.63 1442.74 Q271.824 1439.17 268.19 1439.17 M268.19 1435.47 Q274 1435.47 277.056 1440.08 Q280.134 1444.66 280.134 1453.41 Q280.134 1462.14 277.056 1466.74 Q274 1471.33 268.19 1471.33 Q262.38 1471.33 259.301 1466.74 Q256.246 1462.14 256.246 1453.41 Q256.246 1444.66 259.301 1440.08 Q262.38 1435.47 268.19 1435.47 Z" fill="#000000" fill-rule="nonzero" fill-opacity="1"></path><path clip-path="url(#clip650)" d="M280.134 1415.16 L298.19 1415.16 L298.19 1416.78 L287.996 1443.24 L284.028 1443.24 L293.62 1418.36 L280.134 1418.36 L280.134 1415.16 Z" fill="#000000" fill-rule="nonzero" fill-opacity="1"></path><path clip-path="url(#clip650)" d="M52.6356 1244.18 L70.992 1244.18 L70.992 1248.11 L56.918 1248.11 L56.918 1256.58 Q57.9365 1256.24 58.955 1256.07 Q59.9736 1255.89 60.9921 1255.89 Q66.7791 1255.89 70.1587 1259.06 Q73.5383 1262.23 73.5383 1267.65 Q73.5383 1273.23 70.0661 1276.33 Q66.5939 1279.41 60.2745 1279.41 Q58.0986 1279.41 55.8301 1279.04 Q53.5847 1278.67 51.1773 1277.93 L51.1773 1273.23 Q53.2606 1274.36 55.4828 1274.92 Q57.7051 1275.47 60.1819 1275.47 Q64.1865 1275.47 66.5245 1273.37 Q68.8624 1271.26 68.8624 1267.65 Q68.8624 1264.04 66.5245 1261.93 Q64.1865 1259.82 60.1819 1259.82 Q58.3069 1259.82 56.4319 1260.24 Q54.5801 1260.66 52.6356 1261.54 L52.6356 1244.18 Z" fill="#000000" fill-rule="nonzero" fill-opacity="1"></path><path clip-path="url(#clip650)" d="M82.7512 1272.86 L87.6354 1272.86 L87.6354 1278.74 L82.7512 1278.74 L82.7512 1272.86 Z" fill="#000000" fill-rule="nonzero" fill-opacity="1"></path><path clip-path="url(#clip650)" d="M107.821 1247.25 Q104.209 1247.25 102.381 1250.82 Q100.575 1254.36 100.575 1261.49 Q100.575 1268.6 102.381 1272.16 Q104.209 1275.7 107.821 1275.7 Q111.455 1275.7 113.26 1272.16 Q115.089 1268.6 115.089 1261.49 Q115.089 1254.36 113.26 1250.82 Q111.455 1247.25 107.821 1247.25 M107.821 1243.55 Q113.631 1243.55 116.686 1248.16 Q119.765 1252.74 119.765 1261.49 Q119.765 1270.22 116.686 1274.82 Q113.631 1279.41 107.821 1279.41 Q102.01 1279.41 98.9317 1274.82 Q95.8761 1270.22 95.8761 1261.49 Q95.8761 1252.74 98.9317 1248.16 Q102.01 1243.55 107.821 1243.55 Z" fill="#000000" fill-rule="nonzero" fill-opacity="1"></path><path clip-path="url(#clip650)" d="M137.982 1247.25 Q134.371 1247.25 132.543 1250.82 Q130.737 1254.36 130.737 1261.49 Q130.737 1268.6 132.543 1272.16 Q134.371 1275.7 137.982 1275.7 Q141.617 1275.7 143.422 1272.16 Q145.251 1268.6 145.251 1261.49 Q145.251 1254.36 143.422 1250.82 Q141.617 1247.25 137.982 1247.25 M137.982 1243.55 Q143.793 1243.55 146.848 1248.16 Q149.927 1252.74 149.927 1261.49 Q149.927 1270.22 146.848 1274.82 Q143.793 1279.41 137.982 1279.41 Q132.172 1279.41 129.094 1274.82 Q126.038 1270.22 126.038 1261.49 Q126.038 1252.74 129.094 1248.16 Q132.172 1243.55 137.982 1243.55 Z" fill="#000000" fill-rule="nonzero" fill-opacity="1"></path><path clip-path="url(#clip650)" d="M168.144 1247.25 Q164.533 1247.25 162.704 1250.82 Q160.899 1254.36 160.899 1261.49 Q160.899 1268.6 162.704 1272.16 Q164.533 1275.7 168.144 1275.7 Q171.779 1275.7 173.584 1272.16 Q175.413 1268.6 175.413 1261.49 Q175.413 1254.36 173.584 1250.82 Q171.779 1247.25 168.144 1247.25 M168.144 1243.55 Q173.954 1243.55 177.01 1248.16 Q180.089 1252.74 180.089 1261.49 Q180.089 1270.22 177.01 1274.82 Q173.954 1279.41 168.144 1279.41 Q162.334 1279.41 159.255 1274.82 Q156.2 1270.22 156.2 1261.49 Q156.2 1252.74 159.255 1248.16 Q162.334 1243.55 168.144 1243.55 Z" fill="#000000" fill-rule="nonzero" fill-opacity="1"></path><path clip-path="url(#clip650)" d="M216.477 1253.27 L205.899 1263.9 L216.477 1274.48 L213.723 1277.28 L203.098 1266.65 L192.473 1277.28 L189.741 1274.48 L200.297 1263.9 L189.741 1253.27 L192.473 1250.47 L203.098 1261.1 L213.723 1250.47 L216.477 1253.27 Z" fill="#000000" fill-rule="nonzero" fill-opacity="1"></path><path clip-path="url(#clip650)" d="M228.838 1274.8 L236.477 1274.8 L236.477 1248.44 L228.167 1250.1 L228.167 1245.84 L236.431 1244.18 L241.107 1244.18 L241.107 1274.8 L248.746 1274.8 L248.746 1278.74 L228.838 1278.74 L228.838 1274.8 Z" fill="#000000" fill-rule="nonzero" fill-opacity="1"></path><path clip-path="url(#clip650)" d="M268.19 1247.25 Q264.579 1247.25 262.75 1250.82 Q260.945 1254.36 260.945 1261.49 Q260.945 1268.6 262.75 1272.16 Q264.579 1275.7 268.19 1275.7 Q271.824 1275.7 273.63 1272.16 Q275.459 1268.6 275.459 1261.49 Q275.459 1254.36 273.63 1250.82 Q271.824 1247.25 268.19 1247.25 M268.19 1243.55 Q274 1243.55 277.056 1248.16 Q280.134 1252.74 280.134 1261.49 Q280.134 1270.22 277.056 1274.82 Q274 1279.41 268.19 1279.41 Q262.38 1279.41 259.301 1274.82 Q256.246 1270.22 256.246 1261.49 Q256.246 1252.74 259.301 1248.16 Q262.38 1243.55 268.19 1243.55 Z" fill="#000000" fill-rule="nonzero" fill-opacity="1"></path><path clip-path="url(#clip650)" d="M280.134 1223.25 L298.19 1223.25 L298.19 1224.86 L287.996 1251.33 L284.028 1251.33 L293.62 1226.44 L280.134 1226.44 L280.134 1223.25 Z" fill="#000000" fill-rule="nonzero" fill-opacity="1"></path><path clip-path="url(#clip650)" d="M51.4088 1052.26 L73.6309 1052.26 L73.6309 1054.25 L61.0847 1086.82 L56.2004 1086.82 L68.0059 1056.19 L51.4088 1056.19 L51.4088 1052.26 Z" fill="#000000" fill-rule="nonzero" fill-opacity="1"></path><path clip-path="url(#clip650)" d="M82.7512 1080.94 L87.6354 1080.94 L87.6354 1086.82 L82.7512 1086.82 L82.7512 1080.94 Z" fill="#000000" fill-rule="nonzero" fill-opacity="1"></path><path clip-path="url(#clip650)" d="M97.8669 1052.26 L116.223 1052.26 L116.223 1056.19 L102.149 1056.19 L102.149 1064.67 Q103.168 1064.32 104.186 1064.16 Q105.205 1063.97 106.223 1063.97 Q112.01 1063.97 115.39 1067.14 Q118.77 1070.31 118.77 1075.73 Q118.77 1081.31 115.297 1084.41 Q111.825 1087.49 105.506 1087.49 Q103.33 1087.49 101.061 1087.12 Q98.8159 1086.75 96.4085 1086.01 L96.4085 1081.31 Q98.4919 1082.44 100.714 1083 Q102.936 1083.55 105.413 1083.55 Q109.418 1083.55 111.756 1081.45 Q114.094 1079.34 114.094 1075.73 Q114.094 1072.12 111.756 1070.01 Q109.418 1067.91 105.413 1067.91 Q103.538 1067.91 101.663 1068.32 Q99.8113 1068.74 97.8669 1069.62 L97.8669 1052.26 Z" fill="#000000" fill-rule="nonzero" fill-opacity="1"></path><path clip-path="url(#clip650)" d="M137.982 1055.34 Q134.371 1055.34 132.543 1058.9 Q130.737 1062.44 130.737 1069.57 Q130.737 1076.68 132.543 1080.24 Q134.371 1083.79 137.982 1083.79 Q141.617 1083.79 143.422 1080.24 Q145.251 1076.68 145.251 1069.57 Q145.251 1062.44 143.422 1058.9 Q141.617 1055.34 137.982 1055.34 M137.982 1051.63 Q143.793 1051.63 146.848 1056.24 Q149.927 1060.82 149.927 1069.57 Q149.927 1078.3 146.848 1082.91 Q143.793 1087.49 137.982 1087.49 Q132.172 1087.49 129.094 1082.91 Q126.038 1078.3 126.038 1069.57 Q126.038 1060.82 129.094 1056.24 Q132.172 1051.63 137.982 1051.63 Z" fill="#000000" fill-rule="nonzero" fill-opacity="1"></path><path clip-path="url(#clip650)" d="M168.144 1055.34 Q164.533 1055.34 162.704 1058.9 Q160.899 1062.44 160.899 1069.57 Q160.899 1076.68 162.704 1080.24 Q164.533 1083.79 168.144 1083.79 Q171.779 1083.79 173.584 1080.24 Q175.413 1076.68 175.413 1069.57 Q175.413 1062.44 173.584 1058.9 Q171.779 1055.34 168.144 1055.34 M168.144 1051.63 Q173.954 1051.63 177.01 1056.24 Q180.089 1060.82 180.089 1069.57 Q180.089 1078.3 177.01 1082.91 Q173.954 1087.49 168.144 1087.49 Q162.334 1087.49 159.255 1082.91 Q156.2 1078.3 156.2 1069.57 Q156.2 1060.82 159.255 1056.24 Q162.334 1051.63 168.144 1051.63 Z" fill="#000000" fill-rule="nonzero" fill-opacity="1"></path><path clip-path="url(#clip650)" d="M216.477 1061.36 L205.899 1071.98 L216.477 1082.56 L213.723 1085.36 L203.098 1074.74 L192.473 1085.36 L189.741 1082.56 L200.297 1071.98 L189.741 1061.36 L192.473 1058.55 L203.098 1069.18 L213.723 1058.55 L216.477 1061.36 Z" fill="#000000" fill-rule="nonzero" fill-opacity="1"></path><path clip-path="url(#clip650)" d="M228.838 1082.88 L236.477 1082.88 L236.477 1056.52 L228.167 1058.18 L228.167 1053.93 L236.431 1052.26 L241.107 1052.26 L241.107 1082.88 L248.746 1082.88 L248.746 1086.82 L228.838 1086.82 L228.838 1082.88 Z" fill="#000000" fill-rule="nonzero" fill-opacity="1"></path><path clip-path="url(#clip650)" d="M268.19 1055.34 Q264.579 1055.34 262.75 1058.9 Q260.945 1062.44 260.945 1069.57 Q260.945 1076.68 262.75 1080.24 Q264.579 1083.79 268.19 1083.79 Q271.824 1083.79 273.63 1080.24 Q275.459 1076.68 275.459 1069.57 Q275.459 1062.44 273.63 1058.9 Q271.824 1055.34 268.19 1055.34 M268.19 1051.63 Q274 1051.63 277.056 1056.24 Q280.134 1060.82 280.134 1069.57 Q280.134 1078.3 277.056 1082.91 Q274 1087.49 268.19 1087.49 Q262.38 1087.49 259.301 1082.91 Q256.246 1078.3 256.246 1069.57 Q256.246 1060.82 259.301 1056.24 Q262.38 1051.63 268.19 1051.63 Z" fill="#000000" fill-rule="nonzero" fill-opacity="1"></path><path clip-path="url(#clip650)" d="M280.134 1031.33 L298.19 1031.33 L298.19 1032.95 L287.996 1059.41 L284.028 1059.41 L293.62 1034.53 L280.134 1034.53 L280.134 1031.33 Z" fill="#000000" fill-rule="nonzero" fill-opacity="1"></path><path clip-path="url(#clip650)" d="M52.1958 890.966 L59.8347 890.966 L59.8347 864.6 L51.5245 866.267 L51.5245 862.008 L59.7884 860.341 L64.4643 860.341 L64.4643 890.966 L72.1031 890.966 L72.1031 894.901 L52.1958 894.901 L52.1958 890.966 Z" fill="#000000" fill-rule="nonzero" fill-opacity="1"></path><path clip-path="url(#clip650)" d="M81.5475 889.021 L86.4318 889.021 L86.4318 894.901 L81.5475 894.901 L81.5475 889.021 Z" fill="#000000" fill-rule="nonzero" fill-opacity="1"></path><path clip-path="url(#clip650)" d="M106.617 863.42 Q103.006 863.42 101.177 866.985 Q99.3715 870.526 99.3715 877.656 Q99.3715 884.762 101.177 888.327 Q103.006 891.869 106.617 891.869 Q110.251 891.869 112.057 888.327 Q113.885 884.762 113.885 877.656 Q113.885 870.526 112.057 866.985 Q110.251 863.42 106.617 863.42 M106.617 859.716 Q112.427 859.716 115.483 864.322 Q118.561 868.906 118.561 877.656 Q118.561 886.383 115.483 890.989 Q112.427 895.572 106.617 895.572 Q100.807 895.572 97.728 890.989 Q94.6724 886.383 94.6724 877.656 Q94.6724 868.906 97.728 864.322 Q100.807 859.716 106.617 859.716 Z" fill="#000000" fill-rule="nonzero" fill-opacity="1"></path><path clip-path="url(#clip650)" d="M136.779 863.42 Q133.168 863.42 131.339 866.985 Q129.533 870.526 129.533 877.656 Q129.533 884.762 131.339 888.327 Q133.168 891.869 136.779 891.869 Q140.413 891.869 142.218 888.327 Q144.047 884.762 144.047 877.656 Q144.047 870.526 142.218 866.985 Q140.413 863.42 136.779 863.42 M136.779 859.716 Q142.589 859.716 145.644 864.322 Q148.723 868.906 148.723 877.656 Q148.723 886.383 145.644 890.989 Q142.589 895.572 136.779 895.572 Q130.969 895.572 127.89 890.989 Q124.834 886.383 124.834 877.656 Q124.834 868.906 127.89 864.322 Q130.969 859.716 136.779 859.716 Z" fill="#000000" fill-rule="nonzero" fill-opacity="1"></path><path clip-path="url(#clip650)" d="M166.941 863.42 Q163.329 863.42 161.501 866.985 Q159.695 870.526 159.695 877.656 Q159.695 884.762 161.501 888.327 Q163.329 891.869 166.941 891.869 Q170.575 891.869 172.38 888.327 Q174.209 884.762 174.209 877.656 Q174.209 870.526 172.38 866.985 Q170.575 863.42 166.941 863.42 M166.941 859.716 Q172.751 859.716 175.806 864.322 Q178.885 868.906 178.885 877.656 Q178.885 886.383 175.806 890.989 Q172.751 895.572 166.941 895.572 Q161.13 895.572 158.052 890.989 Q154.996 886.383 154.996 877.656 Q154.996 868.906 158.052 864.322 Q161.13 859.716 166.941 859.716 Z" fill="#000000" fill-rule="nonzero" fill-opacity="1"></path><path clip-path="url(#clip650)" d="M215.274 869.438 L204.695 880.063 L215.274 890.642 L212.519 893.443 L201.894 882.818 L191.269 893.443 L188.538 890.642 L199.093 880.063 L188.538 869.438 L191.269 866.637 L201.894 877.262 L212.519 866.637 L215.274 869.438 Z" fill="#000000" fill-rule="nonzero" fill-opacity="1"></path><path clip-path="url(#clip650)" d="M227.635 890.966 L235.274 890.966 L235.274 864.6 L226.963 866.267 L226.963 862.008 L235.227 860.341 L239.903 860.341 L239.903 890.966 L247.542 890.966 L247.542 894.901 L227.635 894.901 L227.635 890.966 Z" fill="#000000" fill-rule="nonzero" fill-opacity="1"></path><path clip-path="url(#clip650)" d="M266.986 863.42 Q263.375 863.42 261.547 866.985 Q259.741 870.526 259.741 877.656 Q259.741 884.762 261.547 888.327 Q263.375 891.869 266.986 891.869 Q270.621 891.869 272.426 888.327 Q274.255 884.762 274.255 877.656 Q274.255 870.526 272.426 866.985 Q270.621 863.42 266.986 863.42 M266.986 859.716 Q272.796 859.716 275.852 864.322 Q278.931 868.906 278.931 877.656 Q278.931 886.383 275.852 890.989 Q272.796 895.572 266.986 895.572 Q261.176 895.572 258.097 890.989 Q255.042 886.383 255.042 877.656 Q255.042 868.906 258.097 864.322 Q261.176 859.716 266.986 859.716 Z" fill="#000000" fill-rule="nonzero" fill-opacity="1"></path><path clip-path="url(#clip650)" d="M288.56 854.156 Q285.852 854.156 284.291 855.604 Q282.749 857.052 282.749 859.591 Q282.749 862.13 284.291 863.579 Q285.852 865.027 288.56 865.027 Q291.269 865.027 292.83 863.579 Q294.391 862.112 294.391 859.591 Q294.391 857.052 292.83 855.604 Q291.287 854.156 288.56 854.156 M284.761 852.538 Q282.316 851.937 280.943 850.263 Q279.589 848.589 279.589 846.181 Q279.589 842.815 281.978 840.859 Q284.385 838.903 288.56 838.903 Q292.754 838.903 295.143 840.859 Q297.532 842.815 297.532 846.181 Q297.532 848.589 296.159 850.263 Q294.804 851.937 292.378 852.538 Q295.124 853.178 296.648 855.04 Q298.19 856.902 298.19 859.591 Q298.19 863.673 295.688 865.854 Q293.206 868.036 288.56 868.036 Q283.915 868.036 281.413 865.854 Q278.931 863.673 278.931 859.591 Q278.931 856.902 280.473 855.04 Q282.015 853.178 284.761 852.538 M283.369 846.539 Q283.369 848.72 284.724 849.943 Q286.096 851.165 288.56 851.165 Q291.005 851.165 292.378 849.943 Q293.77 848.72 293.77 846.539 Q293.77 844.357 292.378 843.135 Q291.005 841.912 288.56 841.912 Q286.096 841.912 284.724 843.135 Q283.369 844.357 283.369 846.539 Z" fill="#000000" fill-rule="nonzero" fill-opacity="1"></path><path clip-path="url(#clip650)" d="M52.1958 699.048 L59.8347 699.048 L59.8347 672.683 L51.5245 674.349 L51.5245 670.09 L59.7884 668.423 L64.4643 668.423 L64.4643 699.048 L72.1031 699.048 L72.1031 702.983 L52.1958 702.983 L52.1958 699.048 Z" fill="#000000" fill-rule="nonzero" fill-opacity="1"></path><path clip-path="url(#clip650)" d="M81.5475 697.104 L86.4318 697.104 L86.4318 702.983 L81.5475 702.983 L81.5475 697.104 Z" fill="#000000" fill-rule="nonzero" fill-opacity="1"></path><path clip-path="url(#clip650)" d="M100.645 699.048 L116.964 699.048 L116.964 702.983 L95.0197 702.983 L95.0197 699.048 Q97.6817 696.294 102.265 691.664 Q106.871 687.011 108.052 685.669 Q110.297 683.146 111.177 681.409 Q112.08 679.65 112.08 677.96 Q112.08 675.206 110.135 673.47 Q108.214 671.734 105.112 671.734 Q102.913 671.734 100.459 672.497 Q98.0289 673.261 95.2511 674.812 L95.2511 670.09 Q98.0752 668.956 100.529 668.377 Q102.983 667.798 105.02 667.798 Q110.39 667.798 113.584 670.484 Q116.779 673.169 116.779 677.66 Q116.779 679.789 115.969 681.71 Q115.182 683.609 113.075 686.201 Q112.496 686.872 109.395 690.09 Q106.293 693.284 100.645 699.048 Z" fill="#000000" fill-rule="nonzero" fill-opacity="1"></path><path clip-path="url(#clip650)" d="M126.825 668.423 L145.181 668.423 L145.181 672.359 L131.107 672.359 L131.107 680.831 Q132.126 680.484 133.144 680.322 Q134.163 680.136 135.181 680.136 Q140.968 680.136 144.348 683.308 Q147.728 686.479 147.728 691.896 Q147.728 697.474 144.256 700.576 Q140.783 703.655 134.464 703.655 Q132.288 703.655 130.019 703.284 Q127.774 702.914 125.367 702.173 L125.367 697.474 Q127.45 698.608 129.672 699.164 Q131.894 699.72 134.371 699.72 Q138.376 699.72 140.714 697.613 Q143.052 695.507 143.052 691.896 Q143.052 688.284 140.714 686.178 Q138.376 684.072 134.371 684.072 Q132.496 684.072 130.621 684.488 Q128.769 684.905 126.825 685.784 L126.825 668.423 Z" fill="#000000" fill-rule="nonzero" fill-opacity="1"></path><path clip-path="url(#clip650)" d="M166.941 671.502 Q163.329 671.502 161.501 675.067 Q159.695 678.609 159.695 685.738 Q159.695 692.845 161.501 696.409 Q163.329 699.951 166.941 699.951 Q170.575 699.951 172.38 696.409 Q174.209 692.845 174.209 685.738 Q174.209 678.609 172.38 675.067 Q170.575 671.502 166.941 671.502 M166.941 667.798 Q172.751 667.798 175.806 672.405 Q178.885 676.988 178.885 685.738 Q178.885 694.465 175.806 699.071 Q172.751 703.655 166.941 703.655 Q161.13 703.655 158.052 699.071 Q154.996 694.465 154.996 685.738 Q154.996 676.988 158.052 672.405 Q161.13 667.798 166.941 667.798 Z" fill="#000000" fill-rule="nonzero" fill-opacity="1"></path><path clip-path="url(#clip650)" d="M215.274 677.521 L204.695 688.146 L215.274 698.724 L212.519 701.525 L201.894 690.9 L191.269 701.525 L188.538 698.724 L199.093 688.146 L188.538 677.521 L191.269 674.72 L201.894 685.345 L212.519 674.72 L215.274 677.521 Z" fill="#000000" fill-rule="nonzero" fill-opacity="1"></path><path clip-path="url(#clip650)" d="M227.635 699.048 L235.274 699.048 L235.274 672.683 L226.963 674.349 L226.963 670.09 L235.227 668.423 L239.903 668.423 L239.903 699.048 L247.542 699.048 L247.542 702.983 L227.635 702.983 L227.635 699.048 Z" fill="#000000" fill-rule="nonzero" fill-opacity="1"></path><path clip-path="url(#clip650)" d="M266.986 671.502 Q263.375 671.502 261.547 675.067 Q259.741 678.609 259.741 685.738 Q259.741 692.845 261.547 696.409 Q263.375 699.951 266.986 699.951 Q270.621 699.951 272.426 696.409 Q274.255 692.845 274.255 685.738 Q274.255 678.609 272.426 675.067 Q270.621 671.502 266.986 671.502 M266.986 667.798 Q272.796 667.798 275.852 672.405 Q278.931 676.988 278.931 685.738 Q278.931 694.465 275.852 699.071 Q272.796 703.655 266.986 703.655 Q261.176 703.655 258.097 699.071 Q255.042 694.465 255.042 685.738 Q255.042 676.988 258.097 672.405 Q261.176 667.798 266.986 667.798 Z" fill="#000000" fill-rule="nonzero" fill-opacity="1"></path><path clip-path="url(#clip650)" d="M288.56 662.238 Q285.852 662.238 284.291 663.687 Q282.749 665.135 282.749 667.674 Q282.749 670.213 284.291 671.661 Q285.852 673.109 288.56 673.109 Q291.269 673.109 292.83 671.661 Q294.391 670.194 294.391 667.674 Q294.391 665.135 292.83 663.687 Q291.287 662.238 288.56 662.238 M284.761 660.621 Q282.316 660.019 280.943 658.345 Q279.589 656.671 279.589 654.264 Q279.589 650.897 281.978 648.941 Q284.385 646.985 288.56 646.985 Q292.754 646.985 295.143 648.941 Q297.532 650.897 297.532 654.264 Q297.532 656.671 296.159 658.345 Q294.804 660.019 292.378 660.621 Q295.124 661.26 296.648 663.122 Q298.19 664.984 298.19 667.674 Q298.19 671.755 295.688 673.937 Q293.206 676.118 288.56 676.118 Q283.915 676.118 281.413 673.937 Q278.931 671.755 278.931 667.674 Q278.931 664.984 280.473 663.122 Q282.015 661.26 284.761 660.621 M283.369 654.621 Q283.369 656.803 284.724 658.025 Q286.096 659.248 288.56 659.248 Q291.005 659.248 292.378 658.025 Q293.77 656.803 293.77 654.621 Q293.77 652.439 292.378 651.217 Q291.005 649.994 288.56 649.994 Q286.096 649.994 284.724 651.217 Q283.369 652.439 283.369 654.621 Z" fill="#000000" fill-rule="nonzero" fill-opacity="1"></path><path clip-path="url(#clip650)" d="M52.1958 507.131 L59.8347 507.131 L59.8347 480.765 L51.5245 482.432 L51.5245 478.173 L59.7884 476.506 L64.4643 476.506 L64.4643 507.131 L72.1031 507.131 L72.1031 511.066 L52.1958 511.066 L52.1958 507.131 Z" fill="#000000" fill-rule="nonzero" fill-opacity="1"></path><path clip-path="url(#clip650)" d="M81.5475 505.186 L86.4318 505.186 L86.4318 511.066 L81.5475 511.066 L81.5475 505.186 Z" fill="#000000" fill-rule="nonzero" fill-opacity="1"></path><path clip-path="url(#clip650)" d="M96.6632 476.506 L115.02 476.506 L115.02 480.441 L100.946 480.441 L100.946 488.913 Q101.964 488.566 102.983 488.404 Q104.001 488.219 105.02 488.219 Q110.807 488.219 114.186 491.39 Q117.566 494.561 117.566 499.978 Q117.566 505.557 114.094 508.658 Q110.621 511.737 104.302 511.737 Q102.126 511.737 99.8576 511.367 Q97.6122 510.996 95.2049 510.256 L95.2049 505.557 Q97.2882 506.691 99.5104 507.246 Q101.733 507.802 104.209 507.802 Q108.214 507.802 110.552 505.696 Q112.89 503.589 112.89 499.978 Q112.89 496.367 110.552 494.26 Q108.214 492.154 104.209 492.154 Q102.334 492.154 100.459 492.571 Q98.6076 492.987 96.6632 493.867 L96.6632 476.506 Z" fill="#000000" fill-rule="nonzero" fill-opacity="1"></path><path clip-path="url(#clip650)" d="M136.779 479.585 Q133.168 479.585 131.339 483.149 Q129.533 486.691 129.533 493.821 Q129.533 500.927 131.339 504.492 Q133.168 508.033 136.779 508.033 Q140.413 508.033 142.218 504.492 Q144.047 500.927 144.047 493.821 Q144.047 486.691 142.218 483.149 Q140.413 479.585 136.779 479.585 M136.779 475.881 Q142.589 475.881 145.644 480.487 Q148.723 485.071 148.723 493.821 Q148.723 502.547 145.644 507.154 Q142.589 511.737 136.779 511.737 Q130.969 511.737 127.89 507.154 Q124.834 502.547 124.834 493.821 Q124.834 485.071 127.89 480.487 Q130.969 475.881 136.779 475.881 Z" fill="#000000" fill-rule="nonzero" fill-opacity="1"></path><path clip-path="url(#clip650)" d="M166.941 479.585 Q163.329 479.585 161.501 483.149 Q159.695 486.691 159.695 493.821 Q159.695 500.927 161.501 504.492 Q163.329 508.033 166.941 508.033 Q170.575 508.033 172.38 504.492 Q174.209 500.927 174.209 493.821 Q174.209 486.691 172.38 483.149 Q170.575 479.585 166.941 479.585 M166.941 475.881 Q172.751 475.881 175.806 480.487 Q178.885 485.071 178.885 493.821 Q178.885 502.547 175.806 507.154 Q172.751 511.737 166.941 511.737 Q161.13 511.737 158.052 507.154 Q154.996 502.547 154.996 493.821 Q154.996 485.071 158.052 480.487 Q161.13 475.881 166.941 475.881 Z" fill="#000000" fill-rule="nonzero" fill-opacity="1"></path><path clip-path="url(#clip650)" d="M215.274 485.603 L204.695 496.228 L215.274 506.807 L212.519 509.608 L201.894 498.983 L191.269 509.608 L188.538 506.807 L199.093 496.228 L188.538 485.603 L191.269 482.802 L201.894 493.427 L212.519 482.802 L215.274 485.603 Z" fill="#000000" fill-rule="nonzero" fill-opacity="1"></path><path clip-path="url(#clip650)" d="M227.635 507.131 L235.274 507.131 L235.274 480.765 L226.963 482.432 L226.963 478.173 L235.227 476.506 L239.903 476.506 L239.903 507.131 L247.542 507.131 L247.542 511.066 L227.635 511.066 L227.635 507.131 Z" fill="#000000" fill-rule="nonzero" fill-opacity="1"></path><path clip-path="url(#clip650)" d="M266.986 479.585 Q263.375 479.585 261.547 483.149 Q259.741 486.691 259.741 493.821 Q259.741 500.927 261.547 504.492 Q263.375 508.033 266.986 508.033 Q270.621 508.033 272.426 504.492 Q274.255 500.927 274.255 493.821 Q274.255 486.691 272.426 483.149 Q270.621 479.585 266.986 479.585 M266.986 475.881 Q272.796 475.881 275.852 480.487 Q278.931 485.071 278.931 493.821 Q278.931 502.547 275.852 507.154 Q272.796 511.737 266.986 511.737 Q261.176 511.737 258.097 507.154 Q255.042 502.547 255.042 493.821 Q255.042 485.071 258.097 480.487 Q261.176 475.881 266.986 475.881 Z" fill="#000000" fill-rule="nonzero" fill-opacity="1"></path><path clip-path="url(#clip650)" d="M288.56 470.321 Q285.852 470.321 284.291 471.769 Q282.749 473.217 282.749 475.756 Q282.749 478.295 284.291 479.743 Q285.852 481.192 288.56 481.192 Q291.269 481.192 292.83 479.743 Q294.391 478.276 294.391 475.756 Q294.391 473.217 292.83 471.769 Q291.287 470.321 288.56 470.321 M284.761 468.703 Q282.316 468.101 280.943 466.428 Q279.589 464.754 279.589 462.346 Q279.589 458.98 281.978 457.024 Q284.385 455.068 288.56 455.068 Q292.754 455.068 295.143 457.024 Q297.532 458.98 297.532 462.346 Q297.532 464.754 296.159 466.428 Q294.804 468.101 292.378 468.703 Q295.124 469.343 296.648 471.205 Q298.19 473.067 298.19 475.756 Q298.19 479.837 295.688 482.019 Q293.206 484.201 288.56 484.201 Q283.915 484.201 281.413 482.019 Q278.931 479.837 278.931 475.756 Q278.931 473.067 280.473 471.205 Q282.015 469.343 284.761 468.703 M283.369 462.704 Q283.369 464.885 284.724 466.108 Q286.096 467.33 288.56 467.33 Q291.005 467.33 292.378 466.108 Q293.77 464.885 293.77 462.704 Q293.77 460.522 292.378 459.299 Q291.005 458.077 288.56 458.077 Q286.096 458.077 284.724 459.299 Q283.369 460.522 283.369 462.704 Z" fill="#000000" fill-rule="nonzero" fill-opacity="1"></path><path clip-path="url(#clip650)" d="M52.1958 315.213 L59.8347 315.213 L59.8347 288.847 L51.5245 290.514 L51.5245 286.255 L59.7884 284.588 L64.4643 284.588 L64.4643 315.213 L72.1031 315.213 L72.1031 319.148 L52.1958 319.148 L52.1958 315.213 Z" fill="#000000" fill-rule="nonzero" fill-opacity="1"></path><path clip-path="url(#clip650)" d="M81.5475 313.269 L86.4318 313.269 L86.4318 319.148 L81.5475 319.148 L81.5475 313.269 Z" fill="#000000" fill-rule="nonzero" fill-opacity="1"></path><path clip-path="url(#clip650)" d="M95.4363 284.588 L117.658 284.588 L117.658 286.579 L105.112 319.148 L100.228 319.148 L112.033 288.523 L95.4363 288.523 L95.4363 284.588 Z" fill="#000000" fill-rule="nonzero" fill-opacity="1"></path><path clip-path="url(#clip650)" d="M126.825 284.588 L145.181 284.588 L145.181 288.523 L131.107 288.523 L131.107 296.996 Q132.126 296.648 133.144 296.486 Q134.163 296.301 135.181 296.301 Q140.968 296.301 144.348 299.472 Q147.728 302.644 147.728 308.06 Q147.728 313.639 144.256 316.741 Q140.783 319.82 134.464 319.82 Q132.288 319.82 130.019 319.449 Q127.774 319.079 125.367 318.338 L125.367 313.639 Q127.45 314.773 129.672 315.329 Q131.894 315.884 134.371 315.884 Q138.376 315.884 140.714 313.778 Q143.052 311.671 143.052 308.06 Q143.052 304.449 140.714 302.343 Q138.376 300.236 134.371 300.236 Q132.496 300.236 130.621 300.653 Q128.769 301.07 126.825 301.949 L126.825 284.588 Z" fill="#000000" fill-rule="nonzero" fill-opacity="1"></path><path clip-path="url(#clip650)" d="M166.941 287.667 Q163.329 287.667 161.501 291.232 Q159.695 294.773 159.695 301.903 Q159.695 309.009 161.501 312.574 Q163.329 316.116 166.941 316.116 Q170.575 316.116 172.38 312.574 Q174.209 309.009 174.209 301.903 Q174.209 294.773 172.38 291.232 Q170.575 287.667 166.941 287.667 M166.941 283.963 Q172.751 283.963 175.806 288.57 Q178.885 293.153 178.885 301.903 Q178.885 310.63 175.806 315.236 Q172.751 319.82 166.941 319.82 Q161.13 319.82 158.052 315.236 Q154.996 310.63 154.996 301.903 Q154.996 293.153 158.052 288.57 Q161.13 283.963 166.941 283.963 Z" fill="#000000" fill-rule="nonzero" fill-opacity="1"></path><path clip-path="url(#clip650)" d="M215.274 293.685 L204.695 304.31 L215.274 314.889 L212.519 317.69 L201.894 307.065 L191.269 317.69 L188.538 314.889 L199.093 304.31 L188.538 293.685 L191.269 290.885 L201.894 301.509 L212.519 290.885 L215.274 293.685 Z" fill="#000000" fill-rule="nonzero" fill-opacity="1"></path><path clip-path="url(#clip650)" d="M227.635 315.213 L235.274 315.213 L235.274 288.847 L226.963 290.514 L226.963 286.255 L235.227 284.588 L239.903 284.588 L239.903 315.213 L247.542 315.213 L247.542 319.148 L227.635 319.148 L227.635 315.213 Z" fill="#000000" fill-rule="nonzero" fill-opacity="1"></path><path clip-path="url(#clip650)" d="M266.986 287.667 Q263.375 287.667 261.547 291.232 Q259.741 294.773 259.741 301.903 Q259.741 309.009 261.547 312.574 Q263.375 316.116 266.986 316.116 Q270.621 316.116 272.426 312.574 Q274.255 309.009 274.255 301.903 Q274.255 294.773 272.426 291.232 Q270.621 287.667 266.986 287.667 M266.986 283.963 Q272.796 283.963 275.852 288.57 Q278.931 293.153 278.931 301.903 Q278.931 310.63 275.852 315.236 Q272.796 319.82 266.986 319.82 Q261.176 319.82 258.097 315.236 Q255.042 310.63 255.042 301.903 Q255.042 293.153 258.097 288.57 Q261.176 283.963 266.986 283.963 Z" fill="#000000" fill-rule="nonzero" fill-opacity="1"></path><path clip-path="url(#clip650)" d="M288.56 278.403 Q285.852 278.403 284.291 279.851 Q282.749 281.3 282.749 283.839 Q282.749 286.378 284.291 287.826 Q285.852 289.274 288.56 289.274 Q291.269 289.274 292.83 287.826 Q294.391 286.359 294.391 283.839 Q294.391 281.3 292.83 279.851 Q291.287 278.403 288.56 278.403 M284.761 276.786 Q282.316 276.184 280.943 274.51 Q279.589 272.836 279.589 270.429 Q279.589 267.062 281.978 265.106 Q284.385 263.15 288.56 263.15 Q292.754 263.15 295.143 265.106 Q297.532 267.062 297.532 270.429 Q297.532 272.836 296.159 274.51 Q294.804 276.184 292.378 276.786 Q295.124 277.425 296.648 279.287 Q298.19 281.149 298.19 283.839 Q298.19 287.92 295.688 290.102 Q293.206 292.283 288.56 292.283 Q283.915 292.283 281.413 290.102 Q278.931 287.92 278.931 283.839 Q278.931 281.149 280.473 279.287 Q282.015 277.425 284.761 276.786 M283.369 270.786 Q283.369 272.968 284.724 274.19 Q286.096 275.413 288.56 275.413 Q291.005 275.413 292.378 274.19 Q293.77 272.968 293.77 270.786 Q293.77 268.604 292.378 267.382 Q291.005 266.159 288.56 266.159 Q286.096 266.159 284.724 267.382 Q283.369 268.604 283.369 270.786 Z" fill="#000000" fill-rule="nonzero" fill-opacity="1"></path><path clip-path="url(#clip650)" d="M843.159 10.7217 L851.342 10.7217 L851.342 64.3152 L880.792 64.3152 L880.792 71.2017 L843.159 71.2017 L843.159 10.7217 Z" fill="#000000" fill-rule="nonzero" fill-opacity="1"></path><path clip-path="url(#clip650)" d="M909.675 48.3951 Q900.641 48.3951 897.158 50.4611 Q893.674 52.527 893.674 57.5096 Q893.674 61.4795 896.266 63.829 Q898.899 66.1381 903.396 66.1381 Q909.594 66.1381 913.321 61.7631 Q917.088 57.3476 917.088 50.056 L917.088 48.3951 L909.675 48.3951 M924.542 45.3164 L924.542 71.2017 L917.088 71.2017 L917.088 64.3152 Q914.536 68.4471 910.728 70.432 Q906.92 72.3764 901.411 72.3764 Q894.443 72.3764 890.312 68.4876 Q886.22 64.5582 886.22 57.9957 Q886.22 50.3395 891.324 46.4507 Q896.469 42.5618 906.637 42.5618 L917.088 42.5618 L917.088 41.8326 Q917.088 36.688 913.685 33.8929 Q910.323 31.0572 904.206 31.0572 Q900.317 31.0572 896.631 31.9889 Q892.945 32.9206 889.542 34.7841 L889.542 27.8975 Q893.633 26.3177 897.482 25.548 Q901.33 24.7378 904.976 24.7378 Q914.82 24.7378 919.681 29.842 Q924.542 34.9461 924.542 45.3164 Z" fill="#000000" fill-rule="nonzero" fill-opacity="1"></path><path clip-path="url(#clip650)" d="M968.818 27.1684 L968.818 34.2169 Q965.658 32.5966 962.256 31.7864 Q958.853 30.9762 955.207 30.9762 Q949.657 30.9762 946.862 32.6776 Q944.108 34.379 944.108 37.7817 Q944.108 40.3743 946.092 41.8731 Q948.077 43.3315 954.073 44.6683 L956.625 45.2354 Q964.565 46.9368 967.886 50.056 Q971.249 53.1347 971.249 58.6844 Q971.249 65.0038 966.225 68.6901 Q961.243 72.3764 952.493 72.3764 Q948.847 72.3764 944.877 71.6473 Q940.948 70.9586 936.573 69.5408 L936.573 61.8441 Q940.705 63.9911 944.715 65.0848 Q948.726 66.1381 952.655 66.1381 Q957.921 66.1381 960.757 64.3557 Q963.592 62.5328 963.592 59.2515 Q963.592 56.2133 961.526 54.593 Q959.501 52.9726 952.574 51.4738 L949.981 50.8661 Q943.054 49.4078 939.976 46.4102 Q936.897 43.372 936.897 38.1058 Q936.897 31.7054 941.434 28.2216 Q945.971 24.7378 954.316 24.7378 Q958.448 24.7378 962.094 25.3455 Q965.739 25.9531 968.818 27.1684 Z" fill="#000000" fill-rule="nonzero" fill-opacity="1"></path><path clip-path="url(#clip650)" d="M990.49 12.9497 L990.49 25.8316 L1005.84 25.8316 L1005.84 31.6244 L990.49 31.6244 L990.49 56.2539 Q990.49 61.8036 991.989 63.3834 Q993.529 64.9633 998.187 64.9633 L1005.84 64.9633 L1005.84 71.2017 L998.187 71.2017 Q989.559 71.2017 986.277 68.0015 Q982.996 64.7607 982.996 56.2539 L982.996 31.6244 L977.527 31.6244 L977.527 25.8316 L982.996 25.8316 L982.996 12.9497 L990.49 12.9497 Z" fill="#000000" fill-rule="nonzero" fill-opacity="1"></path><path clip-path="url(#clip650)" d="M1050.12 64.3152 L1078.68 64.3152 L1078.68 71.2017 L1040.28 71.2017 L1040.28 64.3152 Q1044.93 59.4946 1052.96 51.3928 Q1061.02 43.2504 1063.08 40.9009 Q1067.01 36.4854 1068.55 33.4473 Q1070.13 30.3686 1070.13 27.4114 Q1070.13 22.5908 1066.73 19.5527 Q1063.37 16.5145 1057.94 16.5145 Q1054.09 16.5145 1049.8 17.8513 Q1045.54 19.1881 1040.68 21.9022 L1040.68 13.6383 Q1045.62 11.6534 1049.92 10.6407 Q1054.21 9.62794 1057.78 9.62794 Q1067.17 9.62794 1072.76 14.327 Q1078.35 19.026 1078.35 26.8848 Q1078.35 30.6116 1076.94 33.9739 Q1075.56 37.2956 1071.87 41.8326 Q1070.86 43.0074 1065.43 48.6382 Q1060 54.2284 1050.12 64.3152 Z" fill="#000000" fill-rule="nonzero" fill-opacity="1"></path><path clip-path="url(#clip650)" d="M1121.5 10.7217 L1159.74 10.7217 L1159.74 17.6082 L1129.68 17.6082 L1129.68 35.5132 L1158.48 35.5132 L1158.48 42.3998 L1129.68 42.3998 L1129.68 64.3152 L1160.47 64.3152 L1160.47 71.2017 L1121.5 71.2017 L1121.5 10.7217 Z" fill="#000000" fill-rule="nonzero" fill-opacity="1"></path><path clip-path="url(#clip650)" d="M1173.59 25.8316 L1181.04 25.8316 L1181.04 71.2017 L1173.59 71.2017 L1173.59 25.8316 M1173.59 8.16962 L1181.04 8.16962 L1181.04 17.6082 L1173.59 17.6082 L1173.59 8.16962 Z" fill="#000000" fill-rule="nonzero" fill-opacity="1"></path><path clip-path="url(#clip650)" d="M1226.5 47.99 Q1226.5 39.8882 1223.13 35.4322 Q1219.81 30.9762 1213.78 30.9762 Q1207.78 30.9762 1204.42 35.4322 Q1201.1 39.8882 1201.1 47.99 Q1201.1 56.0513 1204.42 60.5073 Q1207.78 64.9633 1213.78 64.9633 Q1219.81 64.9633 1223.13 60.5073 Q1226.5 56.0513 1226.5 47.99 M1233.95 65.5709 Q1233.95 77.1565 1228.81 82.7873 Q1223.66 88.4585 1213.05 88.4585 Q1209.12 88.4585 1205.63 87.8509 Q1202.15 87.2838 1198.87 86.0685 L1198.87 78.8174 Q1202.15 80.5998 1205.35 81.4505 Q1208.55 82.3012 1211.87 82.3012 Q1219.2 82.3012 1222.85 78.4528 Q1226.5 74.645 1226.5 66.9077 L1226.5 63.2214 Q1224.19 67.2318 1220.58 69.2167 Q1216.98 71.2017 1211.95 71.2017 Q1203.61 71.2017 1198.5 64.8418 Q1193.4 58.4818 1193.4 47.99 Q1193.4 37.4577 1198.5 31.0977 Q1203.61 24.7378 1211.95 24.7378 Q1216.98 24.7378 1220.58 26.7228 Q1224.19 28.7077 1226.5 32.7181 L1226.5 25.8316 L1233.95 25.8316 L1233.95 65.5709 Z" fill="#000000" fill-rule="nonzero" fill-opacity="1"></path><path clip-path="url(#clip650)" d="M1288.11 46.6532 L1288.11 50.299 L1253.84 50.299 Q1254.33 57.9957 1258.46 62.0466 Q1262.63 66.057 1270.04 66.057 Q1274.34 66.057 1278.35 65.0038 Q1282.4 63.9506 1286.37 61.8441 L1286.37 68.8927 Q1282.36 70.5941 1278.15 71.4853 Q1273.93 72.3764 1269.6 72.3764 Q1258.74 72.3764 1252.38 66.057 Q1246.06 59.7376 1246.06 48.9622 Q1246.06 37.8222 1252.06 31.3003 Q1258.09 24.7378 1268.3 24.7378 Q1277.46 24.7378 1282.76 30.6521 Q1288.11 36.5259 1288.11 46.6532 M1280.66 44.4657 Q1280.58 38.3489 1277.21 34.703 Q1273.89 31.0572 1268.38 31.0572 Q1262.14 31.0572 1258.38 34.5815 Q1254.65 38.1058 1254.08 44.5062 L1280.66 44.4657 Z" fill="#000000" fill-rule="nonzero" fill-opacity="1"></path><path clip-path="url(#clip650)" d="M1338.06 43.8176 L1338.06 71.2017 L1330.6 71.2017 L1330.6 44.0606 Q1330.6 37.6197 1328.09 34.4195 Q1325.58 31.2193 1320.56 31.2193 Q1314.52 31.2193 1311.04 35.0676 Q1307.55 38.916 1307.55 45.5595 L1307.55 71.2017 L1300.06 71.2017 L1300.06 25.8316 L1307.55 25.8316 L1307.55 32.8801 Q1310.23 28.7887 1313.83 26.7633 Q1317.48 24.7378 1322.22 24.7378 Q1330.04 24.7378 1334.05 29.5989 Q1338.06 34.4195 1338.06 43.8176 Z" fill="#000000" fill-rule="nonzero" fill-opacity="1"></path><path clip-path="url(#clip650)" d="M1347.58 25.8316 L1355.48 25.8316 L1369.66 63.9101 L1383.83 25.8316 L1391.73 25.8316 L1374.72 71.2017 L1364.59 71.2017 L1347.58 25.8316 Z" fill="#000000" fill-rule="nonzero" fill-opacity="1"></path><path clip-path="url(#clip650)" d="M1422.64 48.3951 Q1413.61 48.3951 1410.12 50.4611 Q1406.64 52.527 1406.64 57.5096 Q1406.64 61.4795 1409.23 63.829 Q1411.87 66.1381 1416.36 66.1381 Q1422.56 66.1381 1426.29 61.7631 Q1430.05 57.3476 1430.05 50.056 L1430.05 48.3951 L1422.64 48.3951 M1437.51 45.3164 L1437.51 71.2017 L1430.05 71.2017 L1430.05 64.3152 Q1427.5 68.4471 1423.69 70.432 Q1419.89 72.3764 1414.38 72.3764 Q1407.41 72.3764 1403.28 68.4876 Q1399.19 64.5582 1399.19 57.9957 Q1399.19 50.3395 1404.29 46.4507 Q1409.43 42.5618 1419.6 42.5618 L1430.05 42.5618 L1430.05 41.8326 Q1430.05 36.688 1426.65 33.8929 Q1423.29 31.0572 1417.17 31.0572 Q1413.28 31.0572 1409.6 31.9889 Q1405.91 32.9206 1402.51 34.7841 L1402.51 27.8975 Q1406.6 26.3177 1410.45 25.548 Q1414.3 24.7378 1417.94 24.7378 Q1427.79 24.7378 1432.65 29.842 Q1437.51 34.9461 1437.51 45.3164 Z" fill="#000000" fill-rule="nonzero" fill-opacity="1"></path><path clip-path="url(#clip650)" d="M1452.86 8.16962 L1460.31 8.16962 L1460.31 71.2017 L1452.86 71.2017 L1452.86 8.16962 Z" fill="#000000" fill-rule="nonzero" fill-opacity="1"></path><path clip-path="url(#clip650)" d="M1475.14 53.2967 L1475.14 25.8316 L1482.59 25.8316 L1482.59 53.0131 Q1482.59 59.4541 1485.11 62.6948 Q1487.62 65.895 1492.64 65.895 Q1498.68 65.895 1502.16 62.0466 Q1505.68 58.1983 1505.68 51.5548 L1505.68 25.8316 L1513.14 25.8316 L1513.14 71.2017 L1505.68 71.2017 L1505.68 64.2341 Q1502.97 68.3661 1499.36 70.3915 Q1495.8 72.3764 1491.06 72.3764 Q1483.24 72.3764 1479.19 67.5154 Q1475.14 62.6543 1475.14 53.2967 M1493.9 24.7378 L1493.9 24.7378 Z" fill="#000000" fill-rule="nonzero" fill-opacity="1"></path><path clip-path="url(#clip650)" d="M1567.3 46.6532 L1567.3 50.299 L1533.03 50.299 Q1533.51 57.9957 1537.65 62.0466 Q1541.82 66.057 1549.23 66.057 Q1553.53 66.057 1557.54 65.0038 Q1561.59 63.9506 1565.56 61.8441 L1565.56 68.8927 Q1561.55 70.5941 1557.33 71.4853 Q1553.12 72.3764 1548.79 72.3764 Q1537.93 72.3764 1531.57 66.057 Q1525.25 59.7376 1525.25 48.9622 Q1525.25 37.8222 1531.25 31.3003 Q1537.28 24.7378 1547.49 24.7378 Q1556.64 24.7378 1561.95 30.6521 Q1567.3 36.5259 1567.3 46.6532 M1559.84 44.4657 Q1559.76 38.3489 1556.4 34.703 Q1553.08 31.0572 1547.57 31.0572 Q1541.33 31.0572 1537.57 34.5815 Q1533.84 38.1058 1533.27 44.5062 L1559.84 44.4657 Z" fill="#000000" fill-rule="nonzero" fill-opacity="1"></path><path clip-path="url(#clip650)" d="M1608.46 27.1684 L1608.46 34.2169 Q1605.3 32.5966 1601.89 31.7864 Q1598.49 30.9762 1594.84 30.9762 Q1589.3 30.9762 1586.5 32.6776 Q1583.75 34.379 1583.75 37.7817 Q1583.75 40.3743 1585.73 41.8731 Q1587.72 43.3315 1593.71 44.6683 L1596.26 45.2354 Q1604.2 46.9368 1607.52 50.056 Q1610.89 53.1347 1610.89 58.6844 Q1610.89 65.0038 1605.86 68.6901 Q1600.88 72.3764 1592.13 72.3764 Q1588.48 72.3764 1584.51 71.6473 Q1580.59 70.9586 1576.21 69.5408 L1576.21 61.8441 Q1580.34 63.9911 1584.35 65.0848 Q1588.36 66.1381 1592.29 66.1381 Q1597.56 66.1381 1600.39 64.3557 Q1603.23 62.5328 1603.23 59.2515 Q1603.23 56.2133 1601.16 54.593 Q1599.14 52.9726 1592.21 51.4738 L1589.62 50.8661 Q1582.69 49.4078 1579.61 46.4102 Q1576.53 43.372 1576.53 38.1058 Q1576.53 31.7054 1581.07 28.2216 Q1585.61 24.7378 1593.95 24.7378 Q1598.09 24.7378 1601.73 25.3455 Q1605.38 25.9531 1608.46 27.1684 Z" fill="#000000" fill-rule="nonzero" fill-opacity="1"></path><path clip-path="url(#clip650)" d="M1666.71 31.0572 Q1660.71 31.0572 1657.23 35.7563 Q1653.74 40.4148 1653.74 48.5571 Q1653.74 56.6995 1657.19 61.3985 Q1660.67 66.057 1666.71 66.057 Q1672.66 66.057 1676.15 61.358 Q1679.63 56.6589 1679.63 48.5571 Q1679.63 40.4958 1676.15 35.7968 Q1672.66 31.0572 1666.71 31.0572 M1666.71 24.7378 Q1676.43 24.7378 1681.98 31.0572 Q1687.53 37.3766 1687.53 48.5571 Q1687.53 59.6971 1681.98 66.057 Q1676.43 72.3764 1666.71 72.3764 Q1656.95 72.3764 1651.4 66.057 Q1645.89 59.6971 1645.89 48.5571 Q1645.89 37.3766 1651.4 31.0572 Q1656.95 24.7378 1666.71 24.7378 Z" fill="#000000" fill-rule="nonzero" fill-opacity="1"></path><path clip-path="url(#clip650)" d="M1722.85 8.16962 L1722.85 14.3675 L1715.72 14.3675 Q1711.71 14.3675 1710.13 15.9879 Q1708.59 17.6082 1708.59 21.8212 L1708.59 25.8316 L1720.87 25.8316 L1720.87 31.6244 L1708.59 31.6244 L1708.59 71.2017 L1701.1 71.2017 L1701.1 31.6244 L1693.97 31.6244 L1693.97 25.8316 L1701.1 25.8316 L1701.1 22.6719 Q1701.1 15.0967 1704.62 11.6534 Q1708.15 8.16962 1715.8 8.16962 L1722.85 8.16962 Z" fill="#000000" fill-rule="nonzero" fill-opacity="1"></path><path clip-path="url(#clip650)" d="M1807.24 12.8739 L1801.96 34.2703 Q1801.59 35.623 1801.34 35.787 Q1801.14 35.9509 1800.48 35.9509 Q1799.21 35.9509 1799.21 35.0901 Q1799.21 35.0082 1799.33 33.9424 Q1799.46 32.8357 1799.46 30.8272 Q1799.46 23.4082 1795.85 19.0223 Q1792.28 14.6365 1785.93 14.6365 Q1779.99 14.6365 1774.29 17.7517 Q1768.59 20.8669 1764.94 25.4577 Q1761.87 29.2287 1759.74 33.8195 Q1757.65 38.4103 1756.79 42.4272 Q1755.92 46.4032 1755.6 48.8215 Q1755.31 51.2399 1755.31 52.7975 Q1755.31 57.3883 1756.79 60.9544 Q1758.26 64.4794 1760.72 66.4879 Q1763.22 68.4964 1766.09 69.4801 Q1769 70.4639 1772.16 70.4639 Q1773.35 70.4639 1774.78 70.2999 Q1776.21 70.136 1778.43 69.5211 Q1780.68 68.9063 1782.53 67.8816 Q1784.41 66.8568 1786.05 64.8893 Q1787.73 62.9219 1788.39 60.2985 Q1790.15 53.6173 1790.15 52.6335 Q1790.15 51.8138 1789.66 51.5268 Q1789.17 51.2399 1787.53 51.035 L1783.1 50.871 Q1783.02 50.871 1782.9 50.871 Q1782.12 50.871 1781.79 50.871 Q1781.46 50.83 1781.09 50.748 Q1780.76 50.6661 1780.64 50.5021 Q1780.56 50.2972 1780.56 49.9692 Q1780.56 49.1904 1780.89 48.8215 Q1781.22 48.4116 1781.5 48.3707 Q1781.79 48.2887 1782.32 48.2887 L1794.09 48.5346 Q1795.03 48.5346 1798.47 48.4116 Q1801.91 48.2887 1802.9 48.2887 Q1804.01 48.2887 1804.01 49.1904 Q1804.01 50.871 1802.65 50.871 Q1801.3 50.912 1800.6 50.953 Q1799.91 50.953 1799.21 51.1579 Q1798.55 51.3629 1798.31 51.5268 Q1798.06 51.6498 1797.73 52.2646 Q1797.41 52.8385 1797.28 53.3304 Q1797.16 53.7812 1796.87 54.9289 Q1796.71 55.6668 1796.3 57.0604 Q1795.93 58.454 1795.77 59.1918 L1794.17 65.6681 Q1793.06 70.4639 1792.73 70.7918 Q1792.57 71.1197 1792.16 71.1197 Q1791.54 71.1197 1790.23 69.3162 Q1788.96 67.5127 1788.39 65.9141 Q1787.36 67.0208 1786.71 67.6766 Q1786.05 68.2914 1784.54 69.2752 Q1783.06 70.2589 1781.09 71.0377 Q1776.3 73.0462 1770.6 73.0462 Q1760.43 73.0462 1754.04 66.6109 Q1747.64 60.1346 1747.64 50.0512 Q1747.64 42.9191 1750.92 35.9099 Q1754.2 28.9008 1759.41 23.6951 Q1764.61 18.4895 1771.5 15.2513 Q1778.39 12.0132 1785.27 12.0132 Q1787.9 12.0132 1790.23 12.71 Q1792.57 13.4068 1793.96 14.2676 Q1795.4 15.1284 1796.67 16.399 Q1797.94 17.6287 1798.35 18.2026 Q1798.8 18.7764 1799.21 19.4732 L1805.07 13.0379 Q1806.1 12.0132 1806.34 12.0132 Q1806.83 12.0132 1807.04 12.3001 Q1807.24 12.587 1807.24 12.8739 Z" fill="#000000" fill-rule="nonzero" fill-opacity="1"></path><path clip-path="url(#clip650)" d="M1815.62 62.7458 L1815.62 60.9095 Q1822.68 60.9095 1826.32 57.1507 Q1827.33 57.1507 1827.5 57.3803 Q1827.67 57.6098 1827.67 58.6715 L1827.67 91.6391 Q1827.67 93.3894 1828.53 93.9345 Q1829.39 94.4797 1833.15 94.4797 L1835.02 94.4797 L1835.02 96.2873 Q1832.95 96.1152 1825.49 96.1152 Q1818.03 96.1152 1815.99 96.2873 L1815.99 94.4797 L1817.86 94.4797 Q1821.56 94.4797 1822.45 93.9632 Q1823.34 93.4181 1823.34 91.6391 L1823.34 61.1964 Q1820.27 62.7458 1815.62 62.7458 Z" fill="#000000" fill-rule="nonzero" fill-opacity="1"></path><circle clip-path="url(#clip653)" cx="391.319" cy="1447.87" r="7.2" fill="#009af9" fill-rule="evenodd" fill-opacity="1" stroke="#000000" stroke-opacity="1" stroke-width="3.2"></circle>
<circle clip-path="url(#clip653)" cx="2295.63" cy="162.047" r="7.2" fill="#009af9" fill-rule="evenodd" fill-opacity="1" stroke="#000000" stroke-opacity="1" stroke-width="3.2"></circle>
</svg>