<svg xmlns="http://www.w3.org/2000/svg" xmlns:xlink="http://www.w3.org/1999/xlink" width="600" height="400" viewBox="0 0 2400 1600">
<defs>
  <clipPath id="clip730">
    <rect x="0" y="0" width="2400" height="1600"></rect>
  </clipPath>
</defs>
<path clip-path="url(#clip730)" d="M0 1600 L2400 1600 L2400 0 L0 0  Z" fill="#ffffff" fill-rule="evenodd" fill-opacity="1"></path>
<defs>
  <clipPath id="clip731">
    <rect x="480" y="0" width="1681" height="1600"></rect>
  </clipPath>
</defs>
<defs>
  <clipPath id="clip732">
    <rect x="156" y="123" width="2197" height="1364"></rect>
  </clipPath>
</defs>
<path clip-path="url(#clip730)" d="M305.232 1486.45 L2352.76 1486.45 L2352.76 123.472 L305.232 123.472  Z" fill="#ffffff" fill-rule="evenodd" fill-opacity="1"></path>
<defs>
  <clipPath id="clip733">
    <rect x="305" y="123" width="2049" height="1364"></rect>
  </clipPath>
</defs>
<polyline clip-path="url(#clip733)" style="stroke:#000000; stroke-linecap:round; stroke-linejoin:round; stroke-width:2; stroke-opacity:0.1; fill:none" points="363.18,1486.45 363.18,123.472 "></polyline>
<polyline clip-path="url(#clip733)" style="stroke:#000000; stroke-linecap:round; stroke-linejoin:round; stroke-width:2; stroke-opacity:0.1; fill:none" points="846.087,1486.45 846.087,123.472 "></polyline>
<polyline clip-path="url(#clip733)" style="stroke:#000000; stroke-linecap:round; stroke-linejoin:round; stroke-width:2; stroke-opacity:0.1; fill:none" points="1328.99,1486.45 1328.99,123.472 "></polyline>
<polyline clip-path="url(#clip733)" style="stroke:#000000; stroke-linecap:round; stroke-linejoin:round; stroke-width:2; stroke-opacity:0.1; fill:none" points="1811.9,1486.45 1811.9,123.472 "></polyline>
<polyline clip-path="url(#clip733)" style="stroke:#000000; stroke-linecap:round; stroke-linejoin:round; stroke-width:2; stroke-opacity:0.1; fill:none" points="2294.81,1486.45 2294.81,123.472 "></polyline>
<polyline clip-path="url(#clip730)" style="stroke:#000000; stroke-linecap:round; stroke-linejoin:round; stroke-width:4; stroke-opacity:1; fill:none" points="305.232,1486.45 2352.76,1486.45 "></polyline>
<polyline clip-path="url(#clip730)" style="stroke:#000000; stroke-linecap:round; stroke-linejoin:round; stroke-width:4; stroke-opacity:1; fill:none" points="363.18,1486.45 363.18,1467.55 "></polyline>
<polyline clip-path="url(#clip730)" style="stroke:#000000; stroke-linecap:round; stroke-linejoin:round; stroke-width:4; stroke-opacity:1; fill:none" points="846.087,1486.45 846.087,1467.55 "></polyline>
<polyline clip-path="url(#clip730)" style="stroke:#000000; stroke-linecap:round; stroke-linejoin:round; stroke-width:4; stroke-opacity:1; fill:none" points="1328.99,1486.45 1328.99,1467.55 "></polyline>
<polyline clip-path="url(#clip730)" style="stroke:#000000; stroke-linecap:round; stroke-linejoin:round; stroke-width:4; stroke-opacity:1; fill:none" points="1811.9,1486.45 1811.9,1467.55 "></polyline>
<polyline clip-path="url(#clip730)" style="stroke:#000000; stroke-linecap:round; stroke-linejoin:round; stroke-width:4; stroke-opacity:1; fill:none" points="2294.81,1486.45 2294.81,1467.55 "></polyline>
<path clip-path="url(#clip730)" d="M315.253 1544.91 L322.891 1544.91 L322.891 1518.55 L314.581 1520.21 L314.581 1515.95 L322.845 1514.29 L327.521 1514.29 L327.521 1544.91 L335.16 1544.91 L335.16 1548.85 L315.253 1548.85 L315.253 1544.91 Z" fill="#000000" fill-rule="nonzero" fill-opacity="1"></path><path clip-path="url(#clip730)" d="M344.604 1542.97 L349.488 1542.97 L349.488 1548.85 L344.604 1548.85 L344.604 1542.97 Z" fill="#000000" fill-rule="nonzero" fill-opacity="1"></path><path clip-path="url(#clip730)" d="M369.674 1517.37 Q366.062 1517.37 364.234 1520.93 Q362.428 1524.47 362.428 1531.6 Q362.428 1538.71 364.234 1542.27 Q366.062 1545.82 369.674 1545.82 Q373.308 1545.82 375.113 1542.27 Q376.942 1538.71 376.942 1531.6 Q376.942 1524.47 375.113 1520.93 Q373.308 1517.37 369.674 1517.37 M369.674 1513.66 Q375.484 1513.66 378.539 1518.27 Q381.618 1522.85 381.618 1531.6 Q381.618 1540.33 378.539 1544.94 Q375.484 1549.52 369.674 1549.52 Q363.863 1549.52 360.785 1544.94 Q357.729 1540.33 357.729 1531.6 Q357.729 1522.85 360.785 1518.27 Q363.863 1513.66 369.674 1513.66 Z" fill="#000000" fill-rule="nonzero" fill-opacity="1"></path><path clip-path="url(#clip730)" d="M399.835 1517.37 Q396.224 1517.37 394.396 1520.93 Q392.59 1524.47 392.59 1531.6 Q392.59 1538.71 394.396 1542.27 Q396.224 1545.82 399.835 1545.82 Q403.47 1545.82 405.275 1542.27 Q407.104 1538.71 407.104 1531.6 Q407.104 1524.47 405.275 1520.93 Q403.47 1517.37 399.835 1517.37 M399.835 1513.66 Q405.646 1513.66 408.701 1518.27 Q411.78 1522.85 411.78 1531.6 Q411.78 1540.33 408.701 1544.94 Q405.646 1549.52 399.835 1549.52 Q394.025 1549.52 390.947 1544.94 Q387.891 1540.33 387.891 1531.6 Q387.891 1522.85 390.947 1518.27 Q394.025 1513.66 399.835 1513.66 Z" fill="#000000" fill-rule="nonzero" fill-opacity="1"></path><path clip-path="url(#clip730)" d="M798.657 1544.91 L806.296 1544.91 L806.296 1518.55 L797.986 1520.21 L797.986 1515.95 L806.249 1514.29 L810.925 1514.29 L810.925 1544.91 L818.564 1544.91 L818.564 1548.85 L798.657 1548.85 L798.657 1544.91 Z" fill="#000000" fill-rule="nonzero" fill-opacity="1"></path><path clip-path="url(#clip730)" d="M828.009 1542.97 L832.893 1542.97 L832.893 1548.85 L828.009 1548.85 L828.009 1542.97 Z" fill="#000000" fill-rule="nonzero" fill-opacity="1"></path><path clip-path="url(#clip730)" d="M847.106 1544.91 L863.425 1544.91 L863.425 1548.85 L841.481 1548.85 L841.481 1544.91 Q844.143 1542.16 848.726 1537.53 Q853.332 1532.88 854.513 1531.53 Q856.758 1529.01 857.638 1527.27 Q858.541 1525.51 858.541 1523.82 Q858.541 1521.07 856.596 1519.33 Q854.675 1517.6 851.573 1517.6 Q849.374 1517.6 846.92 1518.36 Q844.49 1519.13 841.712 1520.68 L841.712 1515.95 Q844.536 1514.82 846.99 1514.24 Q849.444 1513.66 851.481 1513.66 Q856.851 1513.66 860.045 1516.35 Q863.24 1519.03 863.24 1523.52 Q863.24 1525.65 862.43 1527.57 Q861.643 1529.47 859.536 1532.07 Q858.957 1532.74 855.856 1535.95 Q852.754 1539.15 847.106 1544.91 Z" fill="#000000" fill-rule="nonzero" fill-opacity="1"></path><path clip-path="url(#clip730)" d="M873.286 1514.29 L891.642 1514.29 L891.642 1518.22 L877.568 1518.22 L877.568 1526.7 Q878.587 1526.35 879.605 1526.19 Q880.624 1526 881.643 1526 Q887.43 1526 890.809 1529.17 Q894.189 1532.34 894.189 1537.76 Q894.189 1543.34 890.717 1546.44 Q887.244 1549.52 880.925 1549.52 Q878.749 1549.52 876.481 1549.15 Q874.235 1548.78 871.828 1548.04 L871.828 1543.34 Q873.911 1544.47 876.133 1545.03 Q878.355 1545.58 880.832 1545.58 Q884.837 1545.58 887.175 1543.48 Q889.513 1541.37 889.513 1537.76 Q889.513 1534.15 887.175 1532.04 Q884.837 1529.94 880.832 1529.94 Q878.957 1529.94 877.082 1530.35 Q875.231 1530.77 873.286 1531.65 L873.286 1514.29 Z" fill="#000000" fill-rule="nonzero" fill-opacity="1"></path><path clip-path="url(#clip730)" d="M1281.07 1544.91 L1288.7 1544.91 L1288.7 1518.55 L1280.39 1520.21 L1280.39 1515.95 L1288.66 1514.29 L1293.33 1514.29 L1293.33 1544.91 L1300.97 1544.91 L1300.97 1548.85 L1281.07 1548.85 L1281.07 1544.91 Z" fill="#000000" fill-rule="nonzero" fill-opacity="1"></path><path clip-path="url(#clip730)" d="M1310.42 1542.97 L1315.3 1542.97 L1315.3 1548.85 L1310.42 1548.85 L1310.42 1542.97 Z" fill="#000000" fill-rule="nonzero" fill-opacity="1"></path><path clip-path="url(#clip730)" d="M1325.53 1514.29 L1343.89 1514.29 L1343.89 1518.22 L1329.82 1518.22 L1329.82 1526.7 Q1330.83 1526.35 1331.85 1526.19 Q1332.87 1526 1333.89 1526 Q1339.68 1526 1343.06 1529.17 Q1346.44 1532.34 1346.44 1537.76 Q1346.44 1543.34 1342.96 1546.44 Q1339.49 1549.52 1333.17 1549.52 Q1331 1549.52 1328.73 1549.15 Q1326.48 1548.78 1324.07 1548.04 L1324.07 1543.34 Q1326.16 1544.47 1328.38 1545.03 Q1330.6 1545.58 1333.08 1545.58 Q1337.08 1545.58 1339.42 1543.48 Q1341.76 1541.37 1341.76 1537.76 Q1341.76 1534.15 1339.42 1532.04 Q1337.08 1529.94 1333.08 1529.94 Q1331.2 1529.94 1329.33 1530.35 Q1327.48 1530.77 1325.53 1531.65 L1325.53 1514.29 Z" fill="#000000" fill-rule="nonzero" fill-opacity="1"></path><path clip-path="url(#clip730)" d="M1365.65 1517.37 Q1362.04 1517.37 1360.21 1520.93 Q1358.4 1524.47 1358.4 1531.6 Q1358.4 1538.71 1360.21 1542.27 Q1362.04 1545.82 1365.65 1545.82 Q1369.28 1545.82 1371.09 1542.27 Q1372.92 1538.71 1372.92 1531.6 Q1372.92 1524.47 1371.09 1520.93 Q1369.28 1517.37 1365.65 1517.37 M1365.65 1513.66 Q1371.46 1513.66 1374.51 1518.27 Q1377.59 1522.85 1377.59 1531.6 Q1377.59 1540.33 1374.51 1544.94 Q1371.46 1549.52 1365.65 1549.52 Q1359.84 1549.52 1356.76 1544.94 Q1353.7 1540.33 1353.7 1531.6 Q1353.7 1522.85 1356.76 1518.27 Q1359.84 1513.66 1365.65 1513.66 Z" fill="#000000" fill-rule="nonzero" fill-opacity="1"></path><path clip-path="url(#clip730)" d="M1764.47 1544.91 L1772.11 1544.91 L1772.11 1518.55 L1763.8 1520.21 L1763.8 1515.95 L1772.06 1514.29 L1776.74 1514.29 L1776.74 1544.91 L1784.38 1544.91 L1784.38 1548.85 L1764.47 1548.85 L1764.47 1544.91 Z" fill="#000000" fill-rule="nonzero" fill-opacity="1"></path><path clip-path="url(#clip730)" d="M1793.82 1542.97 L1798.71 1542.97 L1798.71 1548.85 L1793.82 1548.85 L1793.82 1542.97 Z" fill="#000000" fill-rule="nonzero" fill-opacity="1"></path><path clip-path="url(#clip730)" d="M1807.71 1514.29 L1829.93 1514.29 L1829.93 1516.28 L1817.39 1548.85 L1812.5 1548.85 L1824.31 1518.22 L1807.71 1518.22 L1807.71 1514.29 Z" fill="#000000" fill-rule="nonzero" fill-opacity="1"></path><path clip-path="url(#clip730)" d="M1839.1 1514.29 L1857.46 1514.29 L1857.46 1518.22 L1843.38 1518.22 L1843.38 1526.7 Q1844.4 1526.35 1845.42 1526.19 Q1846.44 1526 1847.46 1526 Q1853.24 1526 1856.62 1529.17 Q1860 1532.34 1860 1537.76 Q1860 1543.34 1856.53 1546.44 Q1853.06 1549.52 1846.74 1549.52 Q1844.56 1549.52 1842.29 1549.15 Q1840.05 1548.78 1837.64 1548.04 L1837.64 1543.34 Q1839.72 1544.47 1841.95 1545.03 Q1844.17 1545.58 1846.65 1545.58 Q1850.65 1545.58 1852.99 1543.48 Q1855.33 1541.37 1855.33 1537.76 Q1855.33 1534.15 1852.99 1532.04 Q1850.65 1529.94 1846.65 1529.94 Q1844.77 1529.94 1842.9 1530.35 Q1841.04 1530.77 1839.1 1531.65 L1839.1 1514.29 Z" fill="#000000" fill-rule="nonzero" fill-opacity="1"></path><path clip-path="url(#clip730)" d="M2250.96 1544.91 L2267.28 1544.91 L2267.28 1548.85 L2245.34 1548.85 L2245.34 1544.91 Q2248 1542.16 2252.59 1537.53 Q2257.19 1532.88 2258.37 1531.53 Q2260.62 1529.01 2261.5 1527.27 Q2262.4 1525.51 2262.4 1523.82 Q2262.4 1521.07 2260.46 1519.33 Q2258.53 1517.6 2255.43 1517.6 Q2253.23 1517.6 2250.78 1518.36 Q2248.35 1519.13 2245.57 1520.68 L2245.57 1515.95 Q2248.4 1514.82 2250.85 1514.24 Q2253.3 1513.66 2255.34 1513.66 Q2260.71 1513.66 2263.9 1516.35 Q2267.1 1519.03 2267.1 1523.52 Q2267.1 1525.65 2266.29 1527.57 Q2265.5 1529.47 2263.4 1532.07 Q2262.82 1532.74 2259.71 1535.95 Q2256.61 1539.15 2250.96 1544.91 Z" fill="#000000" fill-rule="nonzero" fill-opacity="1"></path><path clip-path="url(#clip730)" d="M2277.1 1542.97 L2281.98 1542.97 L2281.98 1548.85 L2277.1 1548.85 L2277.1 1542.97 Z" fill="#000000" fill-rule="nonzero" fill-opacity="1"></path><path clip-path="url(#clip730)" d="M2302.17 1517.37 Q2298.56 1517.37 2296.73 1520.93 Q2294.92 1524.47 2294.92 1531.6 Q2294.92 1538.71 2296.73 1542.27 Q2298.56 1545.82 2302.17 1545.82 Q2305.8 1545.82 2307.61 1542.27 Q2309.44 1538.71 2309.44 1531.6 Q2309.44 1524.47 2307.61 1520.93 Q2305.8 1517.37 2302.17 1517.37 M2302.17 1513.66 Q2307.98 1513.66 2311.03 1518.27 Q2314.11 1522.85 2314.11 1531.6 Q2314.11 1540.33 2311.03 1544.94 Q2307.98 1549.52 2302.17 1549.52 Q2296.36 1549.52 2293.28 1544.94 Q2290.22 1540.33 2290.22 1531.6 Q2290.22 1522.85 2293.28 1518.27 Q2296.36 1513.66 2302.17 1513.66 Z" fill="#000000" fill-rule="nonzero" fill-opacity="1"></path><path clip-path="url(#clip730)" d="M2332.33 1517.37 Q2328.72 1517.37 2326.89 1520.93 Q2325.08 1524.47 2325.08 1531.6 Q2325.08 1538.71 2326.89 1542.27 Q2328.72 1545.82 2332.33 1545.82 Q2335.96 1545.82 2337.77 1542.27 Q2339.6 1538.71 2339.6 1531.6 Q2339.6 1524.47 2337.77 1520.93 Q2335.96 1517.37 2332.33 1517.37 M2332.33 1513.66 Q2338.14 1513.66 2341.2 1518.27 Q2344.27 1522.85 2344.27 1531.6 Q2344.27 1540.33 2341.2 1544.94 Q2338.14 1549.52 2332.33 1549.52 Q2326.52 1549.52 2323.44 1544.94 Q2320.39 1540.33 2320.39 1531.6 Q2320.39 1522.85 2323.44 1518.27 Q2326.52 1513.66 2332.33 1513.66 Z" fill="#000000" fill-rule="nonzero" fill-opacity="1"></path><polyline clip-path="url(#clip733)" style="stroke:#000000; stroke-linecap:round; stroke-linejoin:round; stroke-width:2; stroke-opacity:0.1; fill:none" points="305.232,1329.33 2352.76,1329.33 "></polyline>
<polyline clip-path="url(#clip733)" style="stroke:#000000; stroke-linecap:round; stroke-linejoin:round; stroke-width:2; stroke-opacity:0.1; fill:none" points="305.232,1026.86 2352.76,1026.86 "></polyline>
<polyline clip-path="url(#clip733)" style="stroke:#000000; stroke-linecap:round; stroke-linejoin:round; stroke-width:2; stroke-opacity:0.1; fill:none" points="305.232,724.391 2352.76,724.391 "></polyline>
<polyline clip-path="url(#clip733)" style="stroke:#000000; stroke-linecap:round; stroke-linejoin:round; stroke-width:2; stroke-opacity:0.1; fill:none" points="305.232,421.921 2352.76,421.921 "></polyline>
<polyline clip-path="url(#clip730)" style="stroke:#000000; stroke-linecap:round; stroke-linejoin:round; stroke-width:4; stroke-opacity:1; fill:none" points="305.232,1486.45 305.232,123.472 "></polyline>
<polyline clip-path="url(#clip730)" style="stroke:#000000; stroke-linecap:round; stroke-linejoin:round; stroke-width:4; stroke-opacity:1; fill:none" points="305.232,1329.33 324.129,1329.33 "></polyline>
<polyline clip-path="url(#clip730)" style="stroke:#000000; stroke-linecap:round; stroke-linejoin:round; stroke-width:4; stroke-opacity:1; fill:none" points="305.232,1026.86 324.129,1026.86 "></polyline>
<polyline clip-path="url(#clip730)" style="stroke:#000000; stroke-linecap:round; stroke-linejoin:round; stroke-width:4; stroke-opacity:1; fill:none" points="305.232,724.391 324.129,724.391 "></polyline>
<polyline clip-path="url(#clip730)" style="stroke:#000000; stroke-linecap:round; stroke-linejoin:round; stroke-width:4; stroke-opacity:1; fill:none" points="305.232,421.921 324.129,421.921 "></polyline>
<path clip-path="url(#clip730)" d="M53.8393 1318.5 L72.1957 1318.5 L72.1957 1322.43 L58.1217 1322.43 L58.1217 1330.9 Q59.1402 1330.56 60.1587 1330.4 Q61.1773 1330.21 62.1958 1330.21 Q67.9828 1330.21 71.3624 1333.38 Q74.742 1336.55 74.742 1341.97 Q74.742 1347.55 71.2698 1350.65 Q67.7976 1353.73 61.4782 1353.73 Q59.3023 1353.73 57.0338 1353.36 Q54.7884 1352.99 52.381 1352.25 L52.381 1347.55 Q54.4643 1348.68 56.6865 1349.24 Q58.9088 1349.79 61.3856 1349.79 Q65.3902 1349.79 67.7281 1347.69 Q70.0661 1345.58 70.0661 1341.97 Q70.0661 1338.36 67.7281 1336.25 Q65.3902 1334.15 61.3856 1334.15 Q59.5106 1334.15 57.6356 1334.56 Q55.7838 1334.98 53.8393 1335.86 L53.8393 1318.5 Z" fill="#000000" fill-rule="nonzero" fill-opacity="1"></path><path clip-path="url(#clip730)" d="M83.9549 1347.18 L88.8391 1347.18 L88.8391 1353.06 L83.9549 1353.06 L83.9549 1347.18 Z" fill="#000000" fill-rule="nonzero" fill-opacity="1"></path><path clip-path="url(#clip730)" d="M109.024 1321.58 Q105.413 1321.58 103.584 1325.14 Q101.779 1328.68 101.779 1335.81 Q101.779 1342.92 103.584 1346.48 Q105.413 1350.03 109.024 1350.03 Q112.658 1350.03 114.464 1346.48 Q116.293 1342.92 116.293 1335.81 Q116.293 1328.68 114.464 1325.14 Q112.658 1321.58 109.024 1321.58 M109.024 1317.87 Q114.834 1317.87 117.89 1322.48 Q120.969 1327.06 120.969 1335.81 Q120.969 1344.54 117.89 1349.15 Q114.834 1353.73 109.024 1353.73 Q103.214 1353.73 100.135 1349.15 Q97.0798 1344.54 97.0798 1335.81 Q97.0798 1327.06 100.135 1322.48 Q103.214 1317.87 109.024 1317.87 Z" fill="#000000" fill-rule="nonzero" fill-opacity="1"></path><path clip-path="url(#clip730)" d="M139.186 1321.58 Q135.575 1321.58 133.746 1325.14 Q131.941 1328.68 131.941 1335.81 Q131.941 1342.92 133.746 1346.48 Q135.575 1350.03 139.186 1350.03 Q142.82 1350.03 144.626 1346.48 Q146.455 1342.92 146.455 1335.81 Q146.455 1328.68 144.626 1325.14 Q142.82 1321.58 139.186 1321.58 M139.186 1317.87 Q144.996 1317.87 148.052 1322.48 Q151.13 1327.06 151.13 1335.81 Q151.13 1344.54 148.052 1349.15 Q144.996 1353.73 139.186 1353.73 Q133.376 1353.73 130.297 1349.15 Q127.242 1344.54 127.242 1335.81 Q127.242 1327.06 130.297 1322.48 Q133.376 1317.87 139.186 1317.87 Z" fill="#000000" fill-rule="nonzero" fill-opacity="1"></path><path clip-path="url(#clip730)" d="M187.519 1327.59 L176.941 1338.22 L187.519 1348.8 L184.765 1351.6 L174.14 1340.97 L163.515 1351.6 L160.783 1348.8 L171.339 1338.22 L160.783 1327.59 L163.515 1324.79 L174.14 1335.42 L184.765 1324.79 L187.519 1327.59 Z" fill="#000000" fill-rule="nonzero" fill-opacity="1"></path><path clip-path="url(#clip730)" d="M199.88 1349.12 L207.519 1349.12 L207.519 1322.76 L199.209 1324.42 L199.209 1320.16 L207.473 1318.5 L212.149 1318.5 L212.149 1349.12 L219.788 1349.12 L219.788 1353.06 L199.88 1353.06 L199.88 1349.12 Z" fill="#000000" fill-rule="nonzero" fill-opacity="1"></path><path clip-path="url(#clip730)" d="M239.232 1321.58 Q235.621 1321.58 233.792 1325.14 Q231.987 1328.68 231.987 1335.81 Q231.987 1342.92 233.792 1346.48 Q235.621 1350.03 239.232 1350.03 Q242.866 1350.03 244.672 1346.48 Q246.5 1342.92 246.5 1335.81 Q246.5 1328.68 244.672 1325.14 Q242.866 1321.58 239.232 1321.58 M239.232 1317.87 Q245.042 1317.87 248.098 1322.48 Q251.176 1327.06 251.176 1335.81 Q251.176 1344.54 248.098 1349.15 Q245.042 1353.73 239.232 1353.73 Q233.422 1353.73 230.343 1349.15 Q227.287 1344.54 227.287 1335.81 Q227.287 1327.06 230.343 1322.48 Q233.422 1317.87 239.232 1317.87 Z" fill="#000000" fill-rule="nonzero" fill-opacity="1"></path><path clip-path="url(#clip730)" d="M251.176 1297.57 L269.232 1297.57 L269.232 1299.18 L259.038 1325.65 L255.069 1325.65 L264.661 1300.76 L251.176 1300.76 L251.176 1297.57 Z" fill="#000000" fill-rule="nonzero" fill-opacity="1"></path><path clip-path="url(#clip730)" d="M53.3995 1046.65 L61.0384 1046.65 L61.0384 1020.29 L52.7282 1021.95 L52.7282 1017.69 L60.9921 1016.03 L65.668 1016.03 L65.668 1046.65 L73.3068 1046.65 L73.3068 1050.59 L53.3995 1050.59 L53.3995 1046.65 Z" fill="#000000" fill-rule="nonzero" fill-opacity="1"></path><path clip-path="url(#clip730)" d="M82.7512 1044.71 L87.6354 1044.71 L87.6354 1050.59 L82.7512 1050.59 L82.7512 1044.71 Z" fill="#000000" fill-rule="nonzero" fill-opacity="1"></path><path clip-path="url(#clip730)" d="M107.821 1019.11 Q104.209 1019.11 102.381 1022.67 Q100.575 1026.21 100.575 1033.34 Q100.575 1040.45 102.381 1044.01 Q104.209 1047.56 107.821 1047.56 Q111.455 1047.56 113.26 1044.01 Q115.089 1040.45 115.089 1033.34 Q115.089 1026.21 113.26 1022.67 Q111.455 1019.11 107.821 1019.11 M107.821 1015.4 Q113.631 1015.4 116.686 1020.01 Q119.765 1024.59 119.765 1033.34 Q119.765 1042.07 116.686 1046.68 Q113.631 1051.26 107.821 1051.26 Q102.01 1051.26 98.9317 1046.68 Q95.8761 1042.07 95.8761 1033.34 Q95.8761 1024.59 98.9317 1020.01 Q102.01 1015.4 107.821 1015.4 Z" fill="#000000" fill-rule="nonzero" fill-opacity="1"></path><path clip-path="url(#clip730)" d="M137.982 1019.11 Q134.371 1019.11 132.543 1022.67 Q130.737 1026.21 130.737 1033.34 Q130.737 1040.45 132.543 1044.01 Q134.371 1047.56 137.982 1047.56 Q141.617 1047.56 143.422 1044.01 Q145.251 1040.45 145.251 1033.34 Q145.251 1026.21 143.422 1022.67 Q141.617 1019.11 137.982 1019.11 M137.982 1015.4 Q143.793 1015.4 146.848 1020.01 Q149.927 1024.59 149.927 1033.34 Q149.927 1042.07 146.848 1046.68 Q143.793 1051.26 137.982 1051.26 Q132.172 1051.26 129.094 1046.68 Q126.038 1042.07 126.038 1033.34 Q126.038 1024.59 129.094 1020.01 Q132.172 1015.4 137.982 1015.4 Z" fill="#000000" fill-rule="nonzero" fill-opacity="1"></path><path clip-path="url(#clip730)" d="M186.315 1025.13 L175.737 1035.75 L186.315 1046.33 L183.561 1049.13 L172.936 1038.5 L162.311 1049.13 L159.58 1046.33 L170.135 1035.75 L159.58 1025.13 L162.311 1022.32 L172.936 1032.95 L183.561 1022.32 L186.315 1025.13 Z" fill="#000000" fill-rule="nonzero" fill-opacity="1"></path><path clip-path="url(#clip730)" d="M198.677 1046.65 L206.315 1046.65 L206.315 1020.29 L198.005 1021.95 L198.005 1017.69 L206.269 1016.03 L210.945 1016.03 L210.945 1046.65 L218.584 1046.65 L218.584 1050.59 L198.677 1050.59 L198.677 1046.65 Z" fill="#000000" fill-rule="nonzero" fill-opacity="1"></path><path clip-path="url(#clip730)" d="M238.028 1019.11 Q234.417 1019.11 232.588 1022.67 Q230.783 1026.21 230.783 1033.34 Q230.783 1040.45 232.588 1044.01 Q234.417 1047.56 238.028 1047.56 Q241.662 1047.56 243.468 1044.01 Q245.297 1040.45 245.297 1033.34 Q245.297 1026.21 243.468 1022.67 Q241.662 1019.11 238.028 1019.11 M238.028 1015.4 Q243.838 1015.4 246.894 1020.01 Q249.973 1024.59 249.973 1033.34 Q249.973 1042.07 246.894 1046.68 Q243.838 1051.26 238.028 1051.26 Q232.218 1051.26 229.139 1046.68 Q226.084 1042.07 226.084 1033.34 Q226.084 1024.59 229.139 1020.01 Q232.218 1015.4 238.028 1015.4 Z" fill="#000000" fill-rule="nonzero" fill-opacity="1"></path><path clip-path="url(#clip730)" d="M259.602 1009.84 Q256.894 1009.84 255.333 1011.29 Q253.791 1012.74 253.791 1015.28 Q253.791 1017.82 255.333 1019.27 Q256.894 1020.71 259.602 1020.71 Q262.31 1020.71 263.871 1019.27 Q265.433 1017.8 265.433 1015.28 Q265.433 1012.74 263.871 1011.29 Q262.329 1009.84 259.602 1009.84 M255.803 1008.23 Q253.358 1007.62 251.985 1005.95 Q250.631 1004.28 250.631 1001.87 Q250.631 998.502 253.019 996.546 Q255.427 994.59 259.602 994.59 Q263.796 994.59 266.185 996.546 Q268.573 998.502 268.573 1001.87 Q268.573 1004.28 267.2 1005.95 Q265.846 1007.62 263.42 1008.23 Q266.166 1008.86 267.689 1010.73 Q269.232 1012.59 269.232 1015.28 Q269.232 1019.36 266.73 1021.54 Q264.248 1023.72 259.602 1023.72 Q254.957 1023.72 252.455 1021.54 Q249.973 1019.36 249.973 1015.28 Q249.973 1012.59 251.515 1010.73 Q253.057 1008.86 255.803 1008.23 M254.411 1002.23 Q254.411 1004.41 255.765 1005.63 Q257.138 1006.85 259.602 1006.85 Q262.047 1006.85 263.42 1005.63 Q264.812 1004.41 264.812 1002.23 Q264.812 1000.04 263.42 998.821 Q262.047 997.599 259.602 997.599 Q257.138 997.599 255.765 998.821 Q254.411 1000.04 254.411 1002.23 Z" fill="#000000" fill-rule="nonzero" fill-opacity="1"></path><path clip-path="url(#clip730)" d="M53.3995 744.183 L61.0384 744.183 L61.0384 717.818 L52.7282 719.484 L52.7282 715.225 L60.9921 713.558 L65.668 713.558 L65.668 744.183 L73.3068 744.183 L73.3068 748.118 L53.3995 748.118 L53.3995 744.183 Z" fill="#000000" fill-rule="nonzero" fill-opacity="1"></path><path clip-path="url(#clip730)" d="M82.7512 742.239 L87.6354 742.239 L87.6354 748.118 L82.7512 748.118 L82.7512 742.239 Z" fill="#000000" fill-rule="nonzero" fill-opacity="1"></path><path clip-path="url(#clip730)" d="M97.8669 713.558 L116.223 713.558 L116.223 717.493 L102.149 717.493 L102.149 725.966 Q103.168 725.618 104.186 725.456 Q105.205 725.271 106.223 725.271 Q112.01 725.271 115.39 728.442 Q118.77 731.614 118.77 737.03 Q118.77 742.609 115.297 745.711 Q111.825 748.79 105.506 748.79 Q103.33 748.79 101.061 748.419 Q98.8159 748.049 96.4085 747.308 L96.4085 742.609 Q98.4919 743.743 100.714 744.299 Q102.936 744.854 105.413 744.854 Q109.418 744.854 111.756 742.748 Q114.094 740.641 114.094 737.03 Q114.094 733.419 111.756 731.313 Q109.418 729.206 105.413 729.206 Q103.538 729.206 101.663 729.623 Q99.8113 730.04 97.8669 730.919 L97.8669 713.558 Z" fill="#000000" fill-rule="nonzero" fill-opacity="1"></path><path clip-path="url(#clip730)" d="M137.982 716.637 Q134.371 716.637 132.543 720.202 Q130.737 723.743 130.737 730.873 Q130.737 737.979 132.543 741.544 Q134.371 745.086 137.982 745.086 Q141.617 745.086 143.422 741.544 Q145.251 737.979 145.251 730.873 Q145.251 723.743 143.422 720.202 Q141.617 716.637 137.982 716.637 M137.982 712.933 Q143.793 712.933 146.848 717.54 Q149.927 722.123 149.927 730.873 Q149.927 739.6 146.848 744.206 Q143.793 748.79 137.982 748.79 Q132.172 748.79 129.094 744.206 Q126.038 739.6 126.038 730.873 Q126.038 722.123 129.094 717.54 Q132.172 712.933 137.982 712.933 Z" fill="#000000" fill-rule="nonzero" fill-opacity="1"></path><path clip-path="url(#clip730)" d="M186.315 722.655 L175.737 733.28 L186.315 743.859 L183.561 746.66 L172.936 736.035 L162.311 746.66 L159.58 743.859 L170.135 733.28 L159.58 722.655 L162.311 719.855 L172.936 730.479 L183.561 719.855 L186.315 722.655 Z" fill="#000000" fill-rule="nonzero" fill-opacity="1"></path><path clip-path="url(#clip730)" d="M198.677 744.183 L206.315 744.183 L206.315 717.818 L198.005 719.484 L198.005 715.225 L206.269 713.558 L210.945 713.558 L210.945 744.183 L218.584 744.183 L218.584 748.118 L198.677 748.118 L198.677 744.183 Z" fill="#000000" fill-rule="nonzero" fill-opacity="1"></path><path clip-path="url(#clip730)" d="M238.028 716.637 Q234.417 716.637 232.588 720.202 Q230.783 723.743 230.783 730.873 Q230.783 737.979 232.588 741.544 Q234.417 745.086 238.028 745.086 Q241.662 745.086 243.468 741.544 Q245.297 737.979 245.297 730.873 Q245.297 723.743 243.468 720.202 Q241.662 716.637 238.028 716.637 M238.028 712.933 Q243.838 712.933 246.894 717.54 Q249.973 722.123 249.973 730.873 Q249.973 739.6 246.894 744.206 Q243.838 748.79 238.028 748.79 Q232.218 748.79 229.139 744.206 Q226.084 739.6 226.084 730.873 Q226.084 722.123 229.139 717.54 Q232.218 712.933 238.028 712.933 Z" fill="#000000" fill-rule="nonzero" fill-opacity="1"></path><path clip-path="url(#clip730)" d="M259.602 707.373 Q256.894 707.373 255.333 708.821 Q253.791 710.27 253.791 712.809 Q253.791 715.348 255.333 716.796 Q256.894 718.244 259.602 718.244 Q262.31 718.244 263.871 716.796 Q265.433 715.329 265.433 712.809 Q265.433 710.27 263.871 708.821 Q262.329 707.373 259.602 707.373 M255.803 705.756 Q253.358 705.154 251.985 703.48 Q250.631 701.806 250.631 699.399 Q250.631 696.032 253.019 694.076 Q255.427 692.12 259.602 692.12 Q263.796 692.12 266.185 694.076 Q268.573 696.032 268.573 699.399 Q268.573 701.806 267.2 703.48 Q265.846 705.154 263.42 705.756 Q266.166 706.395 267.689 708.257 Q269.232 710.119 269.232 712.809 Q269.232 716.89 266.73 719.072 Q264.248 721.253 259.602 721.253 Q254.957 721.253 252.455 719.072 Q249.973 716.89 249.973 712.809 Q249.973 710.119 251.515 708.257 Q253.057 706.395 255.803 705.756 M254.411 699.756 Q254.411 701.938 255.765 703.16 Q257.138 704.383 259.602 704.383 Q262.047 704.383 263.42 703.16 Q264.812 701.938 264.812 699.756 Q264.812 697.574 263.42 696.352 Q262.047 695.129 259.602 695.129 Q257.138 695.129 255.765 696.352 Q254.411 697.574 254.411 699.756 Z" fill="#000000" fill-rule="nonzero" fill-opacity="1"></path><path clip-path="url(#clip730)" d="M56.6171 441.713 L72.9365 441.713 L72.9365 445.649 L50.9921 445.649 L50.9921 441.713 Q53.6541 438.959 58.2375 434.329 Q62.8439 429.676 64.0245 428.334 Q66.2698 425.811 67.1494 424.075 Q68.0522 422.315 68.0522 420.626 Q68.0522 417.871 66.1078 416.135 Q64.1865 414.399 61.0847 414.399 Q58.8856 414.399 56.4319 415.163 Q54.0014 415.927 51.2236 417.477 L51.2236 412.755 Q54.0477 411.621 56.5014 411.042 Q58.955 410.464 60.9921 410.464 Q66.3624 410.464 69.5568 413.149 Q72.7513 415.834 72.7513 420.325 Q72.7513 422.454 71.9411 424.376 Q71.1541 426.274 69.0476 428.866 Q68.4689 429.538 65.367 432.755 Q62.2652 435.95 56.6171 441.713 Z" fill="#000000" fill-rule="nonzero" fill-opacity="1"></path><path clip-path="url(#clip730)" d="M82.7512 439.769 L87.6354 439.769 L87.6354 445.649 L82.7512 445.649 L82.7512 439.769 Z" fill="#000000" fill-rule="nonzero" fill-opacity="1"></path><path clip-path="url(#clip730)" d="M107.821 414.167 Q104.209 414.167 102.381 417.732 Q100.575 421.274 100.575 428.403 Q100.575 435.51 102.381 439.075 Q104.209 442.616 107.821 442.616 Q111.455 442.616 113.26 439.075 Q115.089 435.51 115.089 428.403 Q115.089 421.274 113.26 417.732 Q111.455 414.167 107.821 414.167 M107.821 410.464 Q113.631 410.464 116.686 415.07 Q119.765 419.653 119.765 428.403 Q119.765 437.13 116.686 441.737 Q113.631 446.32 107.821 446.32 Q102.01 446.32 98.9317 441.737 Q95.8761 437.13 95.8761 428.403 Q95.8761 419.653 98.9317 415.07 Q102.01 410.464 107.821 410.464 Z" fill="#000000" fill-rule="nonzero" fill-opacity="1"></path><path clip-path="url(#clip730)" d="M137.982 414.167 Q134.371 414.167 132.543 417.732 Q130.737 421.274 130.737 428.403 Q130.737 435.51 132.543 439.075 Q134.371 442.616 137.982 442.616 Q141.617 442.616 143.422 439.075 Q145.251 435.51 145.251 428.403 Q145.251 421.274 143.422 417.732 Q141.617 414.167 137.982 414.167 M137.982 410.464 Q143.793 410.464 146.848 415.07 Q149.927 419.653 149.927 428.403 Q149.927 437.13 146.848 441.737 Q143.793 446.32 137.982 446.32 Q132.172 446.32 129.094 441.737 Q126.038 437.13 126.038 428.403 Q126.038 419.653 129.094 415.07 Q132.172 410.464 137.982 410.464 Z" fill="#000000" fill-rule="nonzero" fill-opacity="1"></path><path clip-path="url(#clip730)" d="M186.315 420.186 L175.737 430.811 L186.315 441.389 L183.561 444.19 L172.936 433.565 L162.311 444.19 L159.58 441.389 L170.135 430.811 L159.58 420.186 L162.311 417.385 L172.936 428.01 L183.561 417.385 L186.315 420.186 Z" fill="#000000" fill-rule="nonzero" fill-opacity="1"></path><path clip-path="url(#clip730)" d="M198.677 441.713 L206.315 441.713 L206.315 415.348 L198.005 417.015 L198.005 412.755 L206.269 411.089 L210.945 411.089 L210.945 441.713 L218.584 441.713 L218.584 445.649 L198.677 445.649 L198.677 441.713 Z" fill="#000000" fill-rule="nonzero" fill-opacity="1"></path><path clip-path="url(#clip730)" d="M238.028 414.167 Q234.417 414.167 232.588 417.732 Q230.783 421.274 230.783 428.403 Q230.783 435.51 232.588 439.075 Q234.417 442.616 238.028 442.616 Q241.662 442.616 243.468 439.075 Q245.297 435.51 245.297 428.403 Q245.297 421.274 243.468 417.732 Q241.662 414.167 238.028 414.167 M238.028 410.464 Q243.838 410.464 246.894 415.07 Q249.973 419.653 249.973 428.403 Q249.973 437.13 246.894 441.737 Q243.838 446.32 238.028 446.32 Q232.218 446.32 229.139 441.737 Q226.084 437.13 226.084 428.403 Q226.084 419.653 229.139 415.07 Q232.218 410.464 238.028 410.464 Z" fill="#000000" fill-rule="nonzero" fill-opacity="1"></path><path clip-path="url(#clip730)" d="M259.602 404.904 Q256.894 404.904 255.333 406.352 Q253.791 407.8 253.791 410.339 Q253.791 412.878 255.333 414.326 Q256.894 415.774 259.602 415.774 Q262.31 415.774 263.871 414.326 Q265.433 412.859 265.433 410.339 Q265.433 407.8 263.871 406.352 Q262.329 404.904 259.602 404.904 M255.803 403.286 Q253.358 402.684 251.985 401.01 Q250.631 399.336 250.631 396.929 Q250.631 393.562 253.019 391.606 Q255.427 389.65 259.602 389.65 Q263.796 389.65 266.185 391.606 Q268.573 393.562 268.573 396.929 Q268.573 399.336 267.2 401.01 Q265.846 402.684 263.42 403.286 Q266.166 403.926 267.689 405.787 Q269.232 407.649 269.232 410.339 Q269.232 414.42 266.73 416.602 Q264.248 418.784 259.602 418.784 Q254.957 418.784 252.455 416.602 Q249.973 414.42 249.973 410.339 Q249.973 407.649 251.515 405.787 Q253.057 403.926 255.803 403.286 M254.411 397.286 Q254.411 399.468 255.765 400.691 Q257.138 401.913 259.602 401.913 Q262.047 401.913 263.42 400.691 Q264.812 399.468 264.812 397.286 Q264.812 395.105 263.42 393.882 Q262.047 392.66 259.602 392.66 Q257.138 392.66 255.765 393.882 Q254.411 395.105 254.411 397.286 Z" fill="#000000" fill-rule="nonzero" fill-opacity="1"></path><path clip-path="url(#clip730)" d="M826.662 10.7217 L834.845 10.7217 L834.845 64.3152 L864.295 64.3152 L864.295 71.2017 L826.662 71.2017 L826.662 10.7217 Z" fill="#000000" fill-rule="nonzero" fill-opacity="1"></path><path clip-path="url(#clip730)" d="M893.178 48.3951 Q884.144 48.3951 880.661 50.4611 Q877.177 52.527 877.177 57.5096 Q877.177 61.4795 879.769 63.829 Q882.402 66.1381 886.899 66.1381 Q893.097 66.1381 896.824 61.7631 Q900.591 57.3476 900.591 50.056 L900.591 48.3951 L893.178 48.3951 M908.045 45.3164 L908.045 71.2017 L900.591 71.2017 L900.591 64.3152 Q898.039 68.4471 894.231 70.432 Q890.423 72.3764 884.914 72.3764 Q877.946 72.3764 873.814 68.4876 Q869.723 64.5582 869.723 57.9957 Q869.723 50.3395 874.827 46.4507 Q879.972 42.5618 890.14 42.5618 L900.591 42.5618 L900.591 41.8326 Q900.591 36.688 897.188 33.8929 Q893.826 31.0572 887.709 31.0572 Q883.82 31.0572 880.134 31.9889 Q876.448 32.9206 873.045 34.7841 L873.045 27.8975 Q877.136 26.3177 880.985 25.548 Q884.833 24.7378 888.479 24.7378 Q898.322 24.7378 903.184 29.842 Q908.045 34.9461 908.045 45.3164 Z" fill="#000000" fill-rule="nonzero" fill-opacity="1"></path><path clip-path="url(#clip730)" d="M952.321 27.1684 L952.321 34.2169 Q949.161 32.5966 945.759 31.7864 Q942.356 30.9762 938.71 30.9762 Q933.16 30.9762 930.365 32.6776 Q927.61 34.379 927.61 37.7817 Q927.61 40.3743 929.595 41.8731 Q931.58 43.3315 937.576 44.6683 L940.128 45.2354 Q948.068 46.9368 951.389 50.056 Q954.752 53.1347 954.752 58.6844 Q954.752 65.0038 949.728 68.6901 Q944.746 72.3764 935.996 72.3764 Q932.35 72.3764 928.38 71.6473 Q924.451 70.9586 920.076 69.5408 L920.076 61.8441 Q924.208 63.9911 928.218 65.0848 Q932.229 66.1381 936.158 66.1381 Q941.424 66.1381 944.26 64.3557 Q947.095 62.5328 947.095 59.2515 Q947.095 56.2133 945.029 54.593 Q943.004 52.9726 936.077 51.4738 L933.484 50.8661 Q926.557 49.4078 923.479 46.4102 Q920.4 43.372 920.4 38.1058 Q920.4 31.7054 924.937 28.2216 Q929.474 24.7378 937.819 24.7378 Q941.951 24.7378 945.596 25.3455 Q949.242 25.9531 952.321 27.1684 Z" fill="#000000" fill-rule="nonzero" fill-opacity="1"></path><path clip-path="url(#clip730)" d="M973.993 12.9497 L973.993 25.8316 L989.346 25.8316 L989.346 31.6244 L973.993 31.6244 L973.993 56.2539 Q973.993 61.8036 975.492 63.3834 Q977.032 64.9633 981.69 64.9633 L989.346 64.9633 L989.346 71.2017 L981.69 71.2017 Q973.062 71.2017 969.78 68.0015 Q966.499 64.7607 966.499 56.2539 L966.499 31.6244 L961.03 31.6244 L961.03 25.8316 L966.499 25.8316 L966.499 12.9497 L973.993 12.9497 Z" fill="#000000" fill-rule="nonzero" fill-opacity="1"></path><path clip-path="url(#clip730)" d="M1033.62 64.3152 L1062.18 64.3152 L1062.18 71.2017 L1023.78 71.2017 L1023.78 64.3152 Q1028.44 59.4946 1036.46 51.3928 Q1044.52 43.2504 1046.59 40.9009 Q1050.51 36.4854 1052.05 33.4473 Q1053.63 30.3686 1053.63 27.4114 Q1053.63 22.5908 1050.23 19.5527 Q1046.87 16.5145 1041.44 16.5145 Q1037.59 16.5145 1033.3 17.8513 Q1029.05 19.1881 1024.18 21.9022 L1024.18 13.6383 Q1029.13 11.6534 1033.42 10.6407 Q1037.71 9.62794 1041.28 9.62794 Q1050.68 9.62794 1056.27 14.327 Q1061.86 19.026 1061.86 26.8848 Q1061.86 30.6116 1060.44 33.9739 Q1059.06 37.2956 1055.38 41.8326 Q1054.36 43.0074 1048.94 48.6382 Q1043.51 54.2284 1033.62 64.3152 Z" fill="#000000" fill-rule="nonzero" fill-opacity="1"></path><path clip-path="url(#clip730)" d="M1105 10.7217 L1143.24 10.7217 L1143.24 17.6082 L1113.18 17.6082 L1113.18 35.5132 L1141.98 35.5132 L1141.98 42.3998 L1113.18 42.3998 L1113.18 64.3152 L1143.97 64.3152 L1143.97 71.2017 L1105 71.2017 L1105 10.7217 Z" fill="#000000" fill-rule="nonzero" fill-opacity="1"></path><path clip-path="url(#clip730)" d="M1157.09 25.8316 L1164.55 25.8316 L1164.55 71.2017 L1157.09 71.2017 L1157.09 25.8316 M1157.09 8.16962 L1164.55 8.16962 L1164.55 17.6082 L1157.09 17.6082 L1157.09 8.16962 Z" fill="#000000" fill-rule="nonzero" fill-opacity="1"></path><path clip-path="url(#clip730)" d="M1210 47.99 Q1210 39.8882 1206.64 35.4322 Q1203.32 30.9762 1197.28 30.9762 Q1191.28 30.9762 1187.92 35.4322 Q1184.6 39.8882 1184.6 47.99 Q1184.6 56.0513 1187.92 60.5073 Q1191.28 64.9633 1197.28 64.9633 Q1203.32 64.9633 1206.64 60.5073 Q1210 56.0513 1210 47.99 M1217.45 65.5709 Q1217.45 77.1565 1212.31 82.7873 Q1207.16 88.4585 1196.55 88.4585 Q1192.62 88.4585 1189.14 87.8509 Q1185.65 87.2838 1182.37 86.0685 L1182.37 78.8174 Q1185.65 80.5998 1188.85 81.4505 Q1192.05 82.3012 1195.38 82.3012 Q1202.71 82.3012 1206.35 78.4528 Q1210 74.645 1210 66.9077 L1210 63.2214 Q1207.69 67.2318 1204.08 69.2167 Q1200.48 71.2017 1195.46 71.2017 Q1187.11 71.2017 1182.01 64.8418 Q1176.9 58.4818 1176.9 47.99 Q1176.9 37.4577 1182.01 31.0977 Q1187.11 24.7378 1195.46 24.7378 Q1200.48 24.7378 1204.08 26.7228 Q1207.69 28.7077 1210 32.7181 L1210 25.8316 L1217.45 25.8316 L1217.45 65.5709 Z" fill="#000000" fill-rule="nonzero" fill-opacity="1"></path><path clip-path="url(#clip730)" d="M1271.61 46.6532 L1271.61 50.299 L1237.34 50.299 Q1237.83 57.9957 1241.96 62.0466 Q1246.13 66.057 1253.55 66.057 Q1257.84 66.057 1261.85 65.0038 Q1265.9 63.9506 1269.87 61.8441 L1269.87 68.8927 Q1265.86 70.5941 1261.65 71.4853 Q1257.44 72.3764 1253.1 72.3764 Q1242.24 72.3764 1235.88 66.057 Q1229.56 59.7376 1229.56 48.9622 Q1229.56 37.8222 1235.56 31.3003 Q1241.6 24.7378 1251.8 24.7378 Q1260.96 24.7378 1266.27 30.6521 Q1271.61 36.5259 1271.61 46.6532 M1264.16 44.4657 Q1264.08 38.3489 1260.72 34.703 Q1257.39 31.0572 1251.89 31.0572 Q1245.65 31.0572 1241.88 34.5815 Q1238.15 38.1058 1237.59 44.5062 L1264.16 44.4657 Z" fill="#000000" fill-rule="nonzero" fill-opacity="1"></path><path clip-path="url(#clip730)" d="M1321.56 43.8176 L1321.56 71.2017 L1314.11 71.2017 L1314.11 44.0606 Q1314.11 37.6197 1311.6 34.4195 Q1309.08 31.2193 1304.06 31.2193 Q1298.03 31.2193 1294.54 35.0676 Q1291.06 38.916 1291.06 45.5595 L1291.06 71.2017 L1283.56 71.2017 L1283.56 25.8316 L1291.06 25.8316 L1291.06 32.8801 Q1293.73 28.7887 1297.34 26.7633 Q1300.98 24.7378 1305.72 24.7378 Q1313.54 24.7378 1317.55 29.5989 Q1321.56 34.4195 1321.56 43.8176 Z" fill="#000000" fill-rule="nonzero" fill-opacity="1"></path><path clip-path="url(#clip730)" d="M1331.08 25.8316 L1338.98 25.8316 L1353.16 63.9101 L1367.34 25.8316 L1375.24 25.8316 L1358.22 71.2017 L1348.09 71.2017 L1331.08 25.8316 Z" fill="#000000" fill-rule="nonzero" fill-opacity="1"></path><path clip-path="url(#clip730)" d="M1406.14 48.3951 Q1397.11 48.3951 1393.63 50.4611 Q1390.14 52.527 1390.14 57.5096 Q1390.14 61.4795 1392.74 63.829 Q1395.37 66.1381 1399.86 66.1381 Q1406.06 66.1381 1409.79 61.7631 Q1413.56 57.3476 1413.56 50.056 L1413.56 48.3951 L1406.14 48.3951 M1421.01 45.3164 L1421.01 71.2017 L1413.56 71.2017 L1413.56 64.3152 Q1411 68.4471 1407.2 70.432 Q1403.39 72.3764 1397.88 72.3764 Q1390.91 72.3764 1386.78 68.4876 Q1382.69 64.5582 1382.69 57.9957 Q1382.69 50.3395 1387.79 46.4507 Q1392.94 42.5618 1403.11 42.5618 L1413.56 42.5618 L1413.56 41.8326 Q1413.56 36.688 1410.15 33.8929 Q1406.79 31.0572 1400.68 31.0572 Q1396.79 31.0572 1393.1 31.9889 Q1389.41 32.9206 1386.01 34.7841 L1386.01 27.8975 Q1390.1 26.3177 1393.95 25.548 Q1397.8 24.7378 1401.44 24.7378 Q1411.29 24.7378 1416.15 29.842 Q1421.01 34.9461 1421.01 45.3164 Z" fill="#000000" fill-rule="nonzero" fill-opacity="1"></path><path clip-path="url(#clip730)" d="M1436.36 8.16962 L1443.82 8.16962 L1443.82 71.2017 L1436.36 71.2017 L1436.36 8.16962 Z" fill="#000000" fill-rule="nonzero" fill-opacity="1"></path><path clip-path="url(#clip730)" d="M1458.64 53.2967 L1458.64 25.8316 L1466.1 25.8316 L1466.1 53.0131 Q1466.1 59.4541 1468.61 62.6948 Q1471.12 65.895 1476.14 65.895 Q1482.18 65.895 1485.66 62.0466 Q1489.19 58.1983 1489.19 51.5548 L1489.19 25.8316 L1496.64 25.8316 L1496.64 71.2017 L1489.19 71.2017 L1489.19 64.2341 Q1486.47 68.3661 1482.87 70.3915 Q1479.3 72.3764 1474.56 72.3764 Q1466.75 72.3764 1462.69 67.5154 Q1458.64 62.6543 1458.64 53.2967 M1477.4 24.7378 L1477.4 24.7378 Z" fill="#000000" fill-rule="nonzero" fill-opacity="1"></path><path clip-path="url(#clip730)" d="M1550.8 46.6532 L1550.8 50.299 L1516.53 50.299 Q1517.02 57.9957 1521.15 62.0466 Q1525.32 66.057 1532.73 66.057 Q1537.03 66.057 1541.04 65.0038 Q1545.09 63.9506 1549.06 61.8441 L1549.06 68.8927 Q1545.05 70.5941 1540.84 71.4853 Q1536.62 72.3764 1532.29 72.3764 Q1521.43 72.3764 1515.07 66.057 Q1508.75 59.7376 1508.75 48.9622 Q1508.75 37.8222 1514.75 31.3003 Q1520.78 24.7378 1530.99 24.7378 Q1540.15 24.7378 1545.45 30.6521 Q1550.8 36.5259 1550.8 46.6532 M1543.35 44.4657 Q1543.27 38.3489 1539.9 34.703 Q1536.58 31.0572 1531.07 31.0572 Q1524.84 31.0572 1521.07 34.5815 Q1517.34 38.1058 1516.77 44.5062 L1543.35 44.4657 Z" fill="#000000" fill-rule="nonzero" fill-opacity="1"></path><path clip-path="url(#clip730)" d="M1591.96 27.1684 L1591.96 34.2169 Q1588.8 32.5966 1585.4 31.7864 Q1581.99 30.9762 1578.35 30.9762 Q1572.8 30.9762 1570 32.6776 Q1567.25 34.379 1567.25 37.7817 Q1567.25 40.3743 1569.23 41.8731 Q1571.22 43.3315 1577.21 44.6683 L1579.77 45.2354 Q1587.71 46.9368 1591.03 50.056 Q1594.39 53.1347 1594.39 58.6844 Q1594.39 65.0038 1589.37 68.6901 Q1584.38 72.3764 1575.63 72.3764 Q1571.99 72.3764 1568.02 71.6473 Q1564.09 70.9586 1559.71 69.5408 L1559.71 61.8441 Q1563.85 63.9911 1567.86 65.0848 Q1571.87 66.1381 1575.8 66.1381 Q1581.06 66.1381 1583.9 64.3557 Q1586.73 62.5328 1586.73 59.2515 Q1586.73 56.2133 1584.67 54.593 Q1582.64 52.9726 1575.71 51.4738 L1573.12 50.8661 Q1566.2 49.4078 1563.12 46.4102 Q1560.04 43.372 1560.04 38.1058 Q1560.04 31.7054 1564.57 28.2216 Q1569.11 24.7378 1577.46 24.7378 Q1581.59 24.7378 1585.23 25.3455 Q1588.88 25.9531 1591.96 27.1684 Z" fill="#000000" fill-rule="nonzero" fill-opacity="1"></path><path clip-path="url(#clip730)" d="M1650.21 31.0572 Q1644.22 31.0572 1640.73 35.7563 Q1637.25 40.4148 1637.25 48.5571 Q1637.25 56.6995 1640.69 61.3985 Q1644.17 66.057 1650.21 66.057 Q1656.17 66.057 1659.65 61.358 Q1663.13 56.6589 1663.13 48.5571 Q1663.13 40.4958 1659.65 35.7968 Q1656.17 31.0572 1650.21 31.0572 M1650.21 24.7378 Q1659.93 24.7378 1665.48 31.0572 Q1671.03 37.3766 1671.03 48.5571 Q1671.03 59.6971 1665.48 66.057 Q1659.93 72.3764 1650.21 72.3764 Q1640.45 72.3764 1634.9 66.057 Q1629.39 59.6971 1629.39 48.5571 Q1629.39 37.3766 1634.9 31.0572 Q1640.45 24.7378 1650.21 24.7378 Z" fill="#000000" fill-rule="nonzero" fill-opacity="1"></path><path clip-path="url(#clip730)" d="M1706.36 8.16962 L1706.36 14.3675 L1699.23 14.3675 Q1695.22 14.3675 1693.64 15.9879 Q1692.1 17.6082 1692.1 21.8212 L1692.1 25.8316 L1704.37 25.8316 L1704.37 31.6244 L1692.1 31.6244 L1692.1 71.2017 L1684.6 71.2017 L1684.6 31.6244 L1677.47 31.6244 L1677.47 25.8316 L1684.6 25.8316 L1684.6 22.6719 Q1684.6 15.0967 1688.13 11.6534 Q1691.65 8.16962 1699.31 8.16962 L1706.36 8.16962 Z" fill="#000000" fill-rule="nonzero" fill-opacity="1"></path><path clip-path="url(#clip730)" d="M1790.75 12.8739 L1785.46 34.2703 Q1785.09 35.623 1784.84 35.787 Q1784.64 35.9509 1783.98 35.9509 Q1782.71 35.9509 1782.71 35.0901 Q1782.71 35.0082 1782.84 33.9424 Q1782.96 32.8357 1782.96 30.8272 Q1782.96 23.4082 1779.35 19.0223 Q1775.79 14.6365 1769.43 14.6365 Q1763.49 14.6365 1757.79 17.7517 Q1752.09 20.8669 1748.45 25.4577 Q1745.37 29.2287 1743.24 33.8195 Q1741.15 38.4103 1740.29 42.4272 Q1739.43 46.4032 1739.1 48.8215 Q1738.81 51.2399 1738.81 52.7975 Q1738.81 57.3883 1740.29 60.9544 Q1741.76 64.4794 1744.22 66.4879 Q1746.72 68.4964 1749.59 69.4801 Q1752.5 70.4639 1755.66 70.4639 Q1756.85 70.4639 1758.28 70.2999 Q1759.72 70.136 1761.93 69.5211 Q1764.19 68.9063 1766.03 67.8816 Q1767.92 66.8568 1769.55 64.8893 Q1771.24 62.9219 1771.89 60.2985 Q1773.65 53.6173 1773.65 52.6335 Q1773.65 51.8138 1773.16 51.5268 Q1772.67 51.2399 1771.03 51.035 L1766.6 50.871 Q1766.52 50.871 1766.4 50.871 Q1765.62 50.871 1765.29 50.871 Q1764.96 50.83 1764.6 50.748 Q1764.27 50.6661 1764.14 50.5021 Q1764.06 50.2972 1764.06 49.9692 Q1764.06 49.1904 1764.39 48.8215 Q1764.72 48.4116 1765 48.3707 Q1765.29 48.2887 1765.82 48.2887 L1777.59 48.5346 Q1778.53 48.5346 1781.97 48.4116 Q1785.42 48.2887 1786.4 48.2887 Q1787.51 48.2887 1787.51 49.1904 Q1787.51 50.871 1786.16 50.871 Q1784.8 50.912 1784.11 50.953 Q1783.41 50.953 1782.71 51.1579 Q1782.06 51.3629 1781.81 51.5268 Q1781.56 51.6498 1781.24 52.2646 Q1780.91 52.8385 1780.79 53.3304 Q1780.66 53.7812 1780.38 54.9289 Q1780.21 55.6668 1779.8 57.0604 Q1779.43 58.454 1779.27 59.1918 L1777.67 65.6681 Q1776.56 70.4639 1776.24 70.7918 Q1776.07 71.1197 1775.66 71.1197 Q1775.05 71.1197 1773.74 69.3162 Q1772.47 67.5127 1771.89 65.9141 Q1770.87 67.0208 1770.21 67.6766 Q1769.55 68.2914 1768.04 69.2752 Q1766.56 70.2589 1764.6 71.0377 Q1759.8 73.0462 1754.1 73.0462 Q1743.94 73.0462 1737.54 66.6109 Q1731.15 60.1346 1731.15 50.0512 Q1731.15 42.9191 1734.43 35.9099 Q1737.71 28.9008 1742.91 23.6951 Q1748.12 18.4895 1755 15.2513 Q1761.89 12.0132 1768.78 12.0132 Q1771.4 12.0132 1773.74 12.71 Q1776.07 13.4068 1777.47 14.2676 Q1778.9 15.1284 1780.17 16.399 Q1781.44 17.6287 1781.85 18.2026 Q1782.3 18.7764 1782.71 19.4732 L1788.57 13.0379 Q1789.6 12.0132 1789.84 12.0132 Q1790.34 12.0132 1790.54 12.3001 Q1790.75 12.587 1790.75 12.8739 Z" fill="#000000" fill-rule="nonzero" fill-opacity="1"></path><path clip-path="url(#clip730)" d="M1799.12 96.2873 Q1799.12 95.2257 1799.21 94.9101 Q1799.32 94.5945 1799.78 94.1067 L1811.06 81.5394 Q1817.23 74.5958 1817.23 68.5417 Q1817.23 64.6108 1815.16 61.7989 Q1813.13 58.9871 1809.37 58.9871 Q1806.78 58.9871 1804.6 60.5652 Q1802.42 62.1432 1801.42 64.9551 Q1801.59 64.8977 1802.19 64.8977 Q1803.66 64.8977 1804.46 65.8159 Q1805.29 66.734 1805.29 67.9678 Q1805.29 69.5459 1804.26 70.3206 Q1803.26 71.0666 1802.25 71.0666 Q1801.85 71.0666 1801.3 70.9805 Q1800.79 70.8945 1799.96 70.0911 Q1799.12 69.259 1799.12 67.7957 Q1799.12 63.6926 1802.22 60.4217 Q1805.35 57.1507 1810.11 57.1507 Q1815.51 57.1507 1819.04 60.3643 Q1822.59 63.5492 1822.59 68.5417 Q1822.59 70.2919 1822.05 71.8987 Q1821.53 73.4768 1820.81 74.7106 Q1820.13 75.9443 1818.23 77.9241 Q1816.34 79.9039 1814.82 81.3098 Q1813.3 82.7158 1809.88 85.6998 L1803.66 91.7539 L1814.24 91.7539 Q1819.41 91.7539 1819.81 91.2948 Q1820.38 90.4627 1821.1 86.0728 L1822.59 86.0728 L1820.93 96.2873 L1799.12 96.2873 Z" fill="#000000" fill-rule="nonzero" fill-opacity="1"></path><circle clip-path="url(#clip733)" cx="363.18" cy="1447.87" r="7.2" fill="#009af9" fill-rule="evenodd" fill-opacity="1" stroke="#000000" stroke-opacity="1" stroke-width="3.2"></circle>
<circle clip-path="url(#clip733)" cx="2294.81" cy="162.047" r="7.2" fill="#009af9" fill-rule="evenodd" fill-opacity="1" stroke="#000000" stroke-opacity="1" stroke-width="3.2"></circle>
</svg>