<svg xmlns="http://www.w3.org/2000/svg" xmlns:xlink="http://www.w3.org/1999/xlink" width="600" height="400" viewBox="0 0 2400 1600">
<defs>
  <clipPath id="clip690">
    <rect x="0" y="0" width="2400" height="1600"></rect>
  </clipPath>
</defs>
<path clip-path="url(#clip690)" d="M0 1600 L2400 1600 L2400 0 L0 0  Z" fill="#ffffff" fill-rule="evenodd" fill-opacity="1"></path>
<defs>
  <clipPath id="clip691">
    <rect x="480" y="0" width="1681" height="1600"></rect>
  </clipPath>
</defs>
<defs>
  <clipPath id="clip692">
    <rect x="334" y="123" width="2020" height="1364"></rect>
  </clipPath>
</defs>
<path clip-path="url(#clip690)" d="M156.274 1486.45 L2352.76 1486.45 L2352.76 123.472 L156.274 123.472  Z" fill="#ffffff" fill-rule="evenodd" fill-opacity="1"></path>
<defs>
  <clipPath id="clip693">
    <rect x="156" y="123" width="2197" height="1364"></rect>
  </clipPath>
</defs>
<polyline clip-path="url(#clip693)" style="stroke:#000000; stroke-linecap:round; stroke-linejoin:round; stroke-width:2; stroke-opacity:0.1; fill:none" points="162.435,1486.45 162.435,123.472 "></polyline>
<polyline clip-path="url(#clip693)" style="stroke:#000000; stroke-linecap:round; stroke-linejoin:round; stroke-width:2; stroke-opacity:0.1; fill:none" points="722.476,1486.45 722.476,123.472 "></polyline>
<polyline clip-path="url(#clip693)" style="stroke:#000000; stroke-linecap:round; stroke-linejoin:round; stroke-width:2; stroke-opacity:0.1; fill:none" points="1282.52,1486.45 1282.52,123.472 "></polyline>
<polyline clip-path="url(#clip693)" style="stroke:#000000; stroke-linecap:round; stroke-linejoin:round; stroke-width:2; stroke-opacity:0.1; fill:none" points="1842.56,1486.45 1842.56,123.472 "></polyline>
<polyline clip-path="url(#clip690)" style="stroke:#000000; stroke-linecap:round; stroke-linejoin:round; stroke-width:4; stroke-opacity:1; fill:none" points="156.274,1486.45 2352.76,1486.45 "></polyline>
<polyline clip-path="url(#clip690)" style="stroke:#000000; stroke-linecap:round; stroke-linejoin:round; stroke-width:4; stroke-opacity:1; fill:none" points="162.435,1486.45 162.435,1467.55 "></polyline>
<polyline clip-path="url(#clip690)" style="stroke:#000000; stroke-linecap:round; stroke-linejoin:round; stroke-width:4; stroke-opacity:1; fill:none" points="722.476,1486.45 722.476,1467.55 "></polyline>
<polyline clip-path="url(#clip690)" style="stroke:#000000; stroke-linecap:round; stroke-linejoin:round; stroke-width:4; stroke-opacity:1; fill:none" points="1282.52,1486.45 1282.52,1467.55 "></polyline>
<polyline clip-path="url(#clip690)" style="stroke:#000000; stroke-linecap:round; stroke-linejoin:round; stroke-width:4; stroke-opacity:1; fill:none" points="1842.56,1486.45 1842.56,1467.55 "></polyline>
<path clip-path="url(#clip690)" d="M162.435 1517.37 Q158.824 1517.37 156.995 1520.93 Q155.189 1524.47 155.189 1531.6 Q155.189 1538.71 156.995 1542.27 Q158.824 1545.82 162.435 1545.82 Q166.069 1545.82 167.874 1542.27 Q169.703 1538.71 169.703 1531.6 Q169.703 1524.47 167.874 1520.93 Q166.069 1517.37 162.435 1517.37 M162.435 1513.66 Q168.245 1513.66 171.3 1518.27 Q174.379 1522.85 174.379 1531.6 Q174.379 1540.33 171.3 1544.94 Q168.245 1549.52 162.435 1549.52 Q156.624 1549.52 153.546 1544.94 Q150.49 1540.33 150.49 1531.6 Q150.49 1522.85 153.546 1518.27 Q156.624 1513.66 162.435 1513.66 Z" fill="#000000" fill-rule="nonzero" fill-opacity="1"></path><path clip-path="url(#clip690)" d="M697.163 1544.91 L704.802 1544.91 L704.802 1518.55 L696.492 1520.21 L696.492 1515.95 L704.756 1514.29 L709.432 1514.29 L709.432 1544.91 L717.071 1544.91 L717.071 1548.85 L697.163 1548.85 L697.163 1544.91 Z" fill="#000000" fill-rule="nonzero" fill-opacity="1"></path><path clip-path="url(#clip690)" d="M736.515 1517.37 Q732.904 1517.37 731.075 1520.93 Q729.27 1524.47 729.27 1531.6 Q729.27 1538.71 731.075 1542.27 Q732.904 1545.82 736.515 1545.82 Q740.149 1545.82 741.955 1542.27 Q743.784 1538.71 743.784 1531.6 Q743.784 1524.47 741.955 1520.93 Q740.149 1517.37 736.515 1517.37 M736.515 1513.66 Q742.325 1513.66 745.381 1518.27 Q748.46 1522.85 748.46 1531.6 Q748.46 1540.33 745.381 1544.94 Q742.325 1549.52 736.515 1549.52 Q730.705 1549.52 727.626 1544.94 Q724.571 1540.33 724.571 1531.6 Q724.571 1522.85 727.626 1518.27 Q730.705 1513.66 736.515 1513.66 Z" fill="#000000" fill-rule="nonzero" fill-opacity="1"></path><path clip-path="url(#clip690)" d="M1261.29 1544.91 L1277.61 1544.91 L1277.61 1548.85 L1255.67 1548.85 L1255.67 1544.91 Q1258.33 1542.16 1262.91 1537.53 Q1267.52 1532.88 1268.7 1531.53 Q1270.94 1529.01 1271.82 1527.27 Q1272.73 1525.51 1272.73 1523.82 Q1272.73 1521.07 1270.78 1519.33 Q1268.86 1517.6 1265.76 1517.6 Q1263.56 1517.6 1261.11 1518.36 Q1258.67 1519.13 1255.9 1520.68 L1255.9 1515.95 Q1258.72 1514.82 1261.17 1514.24 Q1263.63 1513.66 1265.67 1513.66 Q1271.04 1513.66 1274.23 1516.35 Q1277.42 1519.03 1277.42 1523.52 Q1277.42 1525.65 1276.61 1527.57 Q1275.83 1529.47 1273.72 1532.07 Q1273.14 1532.74 1270.04 1535.95 Q1266.94 1539.15 1261.29 1544.91 Z" fill="#000000" fill-rule="nonzero" fill-opacity="1"></path><path clip-path="url(#clip690)" d="M1297.42 1517.37 Q1293.81 1517.37 1291.98 1520.93 Q1290.18 1524.47 1290.18 1531.6 Q1290.18 1538.71 1291.98 1542.27 Q1293.81 1545.82 1297.42 1545.82 Q1301.06 1545.82 1302.86 1542.27 Q1304.69 1538.71 1304.69 1531.6 Q1304.69 1524.47 1302.86 1520.93 Q1301.06 1517.37 1297.42 1517.37 M1297.42 1513.66 Q1303.23 1513.66 1306.29 1518.27 Q1309.37 1522.85 1309.37 1531.6 Q1309.37 1540.33 1306.29 1544.94 Q1303.23 1549.52 1297.42 1549.52 Q1291.61 1549.52 1288.54 1544.94 Q1285.48 1540.33 1285.48 1531.6 Q1285.48 1522.85 1288.54 1518.27 Q1291.61 1513.66 1297.42 1513.66 Z" fill="#000000" fill-rule="nonzero" fill-opacity="1"></path><path clip-path="url(#clip690)" d="M1831.4 1530.21 Q1834.76 1530.93 1836.63 1533.2 Q1838.53 1535.47 1838.53 1538.8 Q1838.53 1543.92 1835.01 1546.72 Q1831.49 1549.52 1825.01 1549.52 Q1822.84 1549.52 1820.52 1549.08 Q1818.23 1548.66 1815.78 1547.81 L1815.78 1543.29 Q1817.72 1544.43 1820.04 1545.01 Q1822.35 1545.58 1824.87 1545.58 Q1829.27 1545.58 1831.56 1543.85 Q1833.88 1542.11 1833.88 1538.8 Q1833.88 1535.75 1831.73 1534.03 Q1829.6 1532.3 1825.78 1532.3 L1821.75 1532.3 L1821.75 1528.45 L1825.96 1528.45 Q1829.41 1528.45 1831.24 1527.09 Q1833.07 1525.7 1833.07 1523.11 Q1833.07 1520.45 1831.17 1519.03 Q1829.29 1517.6 1825.78 1517.6 Q1823.85 1517.6 1821.66 1518.01 Q1819.46 1518.43 1816.82 1519.31 L1816.82 1515.14 Q1819.48 1514.4 1821.79 1514.03 Q1824.13 1513.66 1826.19 1513.66 Q1831.52 1513.66 1834.62 1516.09 Q1837.72 1518.5 1837.72 1522.62 Q1837.72 1525.49 1836.08 1527.48 Q1834.43 1529.45 1831.4 1530.21 Z" fill="#000000" fill-rule="nonzero" fill-opacity="1"></path><path clip-path="url(#clip690)" d="M1857.4 1517.37 Q1853.79 1517.37 1851.96 1520.93 Q1850.15 1524.47 1850.15 1531.6 Q1850.15 1538.71 1851.96 1542.27 Q1853.79 1545.82 1857.4 1545.82 Q1861.03 1545.82 1862.84 1542.27 Q1864.66 1538.71 1864.66 1531.6 Q1864.66 1524.47 1862.84 1520.93 Q1861.03 1517.37 1857.4 1517.37 M1857.4 1513.66 Q1863.21 1513.66 1866.26 1518.27 Q1869.34 1522.85 1869.34 1531.6 Q1869.34 1540.33 1866.26 1544.94 Q1863.21 1549.52 1857.4 1549.52 Q1851.59 1549.52 1848.51 1544.94 Q1845.45 1540.33 1845.45 1531.6 Q1845.45 1522.85 1848.51 1518.27 Q1851.59 1513.66 1857.4 1513.66 Z" fill="#000000" fill-rule="nonzero" fill-opacity="1"></path><polyline clip-path="url(#clip693)" style="stroke:#000000; stroke-linecap:round; stroke-linejoin:round; stroke-width:2; stroke-opacity:0.1; fill:none" points="156.274,1448.02 2352.76,1448.02 "></polyline>
<polyline clip-path="url(#clip693)" style="stroke:#000000; stroke-linecap:round; stroke-linejoin:round; stroke-width:2; stroke-opacity:0.1; fill:none" points="156.274,1182.07 2352.76,1182.07 "></polyline>
<polyline clip-path="url(#clip693)" style="stroke:#000000; stroke-linecap:round; stroke-linejoin:round; stroke-width:2; stroke-opacity:0.1; fill:none" points="156.274,916.118 2352.76,916.118 "></polyline>
<polyline clip-path="url(#clip693)" style="stroke:#000000; stroke-linecap:round; stroke-linejoin:round; stroke-width:2; stroke-opacity:0.1; fill:none" points="156.274,650.168 2352.76,650.168 "></polyline>
<polyline clip-path="url(#clip693)" style="stroke:#000000; stroke-linecap:round; stroke-linejoin:round; stroke-width:2; stroke-opacity:0.1; fill:none" points="156.274,384.218 2352.76,384.218 "></polyline>
<polyline clip-path="url(#clip690)" style="stroke:#000000; stroke-linecap:round; stroke-linejoin:round; stroke-width:4; stroke-opacity:1; fill:none" points="156.274,1486.45 156.274,123.472 "></polyline>
<polyline clip-path="url(#clip690)" style="stroke:#000000; stroke-linecap:round; stroke-linejoin:round; stroke-width:4; stroke-opacity:1; fill:none" points="156.274,1448.02 175.172,1448.02 "></polyline>
<polyline clip-path="url(#clip690)" style="stroke:#000000; stroke-linecap:round; stroke-linejoin:round; stroke-width:4; stroke-opacity:1; fill:none" points="156.274,1182.07 175.172,1182.07 "></polyline>
<polyline clip-path="url(#clip690)" style="stroke:#000000; stroke-linecap:round; stroke-linejoin:round; stroke-width:4; stroke-opacity:1; fill:none" points="156.274,916.118 175.172,916.118 "></polyline>
<polyline clip-path="url(#clip690)" style="stroke:#000000; stroke-linecap:round; stroke-linejoin:round; stroke-width:4; stroke-opacity:1; fill:none" points="156.274,650.168 175.172,650.168 "></polyline>
<polyline clip-path="url(#clip690)" style="stroke:#000000; stroke-linecap:round; stroke-linejoin:round; stroke-width:4; stroke-opacity:1; fill:none" points="156.274,384.218 175.172,384.218 "></polyline>
<path clip-path="url(#clip690)" d="M63.0985 1433.82 Q59.4875 1433.82 57.6588 1437.38 Q55.8532 1440.92 55.8532 1448.05 Q55.8532 1455.16 57.6588 1458.72 Q59.4875 1462.27 63.0985 1462.27 Q66.7328 1462.27 68.5383 1458.72 Q70.367 1455.16 70.367 1448.05 Q70.367 1440.92 68.5383 1437.38 Q66.7328 1433.82 63.0985 1433.82 M63.0985 1430.11 Q68.9087 1430.11 71.9642 1434.72 Q75.0429 1439.3 75.0429 1448.05 Q75.0429 1456.78 71.9642 1461.39 Q68.9087 1465.97 63.0985 1465.97 Q57.2884 1465.97 54.2097 1461.39 Q51.1542 1456.78 51.1542 1448.05 Q51.1542 1439.3 54.2097 1434.72 Q57.2884 1430.11 63.0985 1430.11 Z" fill="#000000" fill-rule="nonzero" fill-opacity="1"></path><path clip-path="url(#clip690)" d="M83.2605 1459.42 L88.1447 1459.42 L88.1447 1465.3 L83.2605 1465.3 L83.2605 1459.42 Z" fill="#000000" fill-rule="nonzero" fill-opacity="1"></path><path clip-path="url(#clip690)" d="M108.33 1433.82 Q104.719 1433.82 102.89 1437.38 Q101.084 1440.92 101.084 1448.05 Q101.084 1455.16 102.89 1458.72 Q104.719 1462.27 108.33 1462.27 Q111.964 1462.27 113.77 1458.72 Q115.598 1455.16 115.598 1448.05 Q115.598 1440.92 113.77 1437.38 Q111.964 1433.82 108.33 1433.82 M108.33 1430.11 Q114.14 1430.11 117.195 1434.72 Q120.274 1439.3 120.274 1448.05 Q120.274 1456.78 117.195 1461.39 Q114.14 1465.97 108.33 1465.97 Q102.52 1465.97 99.4409 1461.39 Q96.3854 1456.78 96.3854 1448.05 Q96.3854 1439.3 99.4409 1434.72 Q102.52 1430.11 108.33 1430.11 Z" fill="#000000" fill-rule="nonzero" fill-opacity="1"></path><path clip-path="url(#clip690)" d="M63.7467 1167.87 Q60.1356 1167.87 58.3069 1171.43 Q56.5014 1174.97 56.5014 1182.1 Q56.5014 1189.21 58.3069 1192.77 Q60.1356 1196.32 63.7467 1196.32 Q67.3809 1196.32 69.1865 1192.77 Q71.0152 1189.21 71.0152 1182.1 Q71.0152 1174.97 69.1865 1171.43 Q67.3809 1167.87 63.7467 1167.87 M63.7467 1164.16 Q69.5568 1164.16 72.6124 1168.77 Q75.6911 1173.35 75.6911 1182.1 Q75.6911 1190.83 72.6124 1195.44 Q69.5568 1200.02 63.7467 1200.02 Q57.9365 1200.02 54.8578 1195.44 Q51.8023 1190.83 51.8023 1182.1 Q51.8023 1173.35 54.8578 1168.77 Q57.9365 1164.16 63.7467 1164.16 Z" fill="#000000" fill-rule="nonzero" fill-opacity="1"></path><path clip-path="url(#clip690)" d="M83.9086 1193.47 L88.7928 1193.47 L88.7928 1199.35 L83.9086 1199.35 L83.9086 1193.47 Z" fill="#000000" fill-rule="nonzero" fill-opacity="1"></path><path clip-path="url(#clip690)" d="M113.145 1180.71 Q116.501 1181.43 118.376 1183.7 Q120.274 1185.97 120.274 1189.3 Q120.274 1194.42 116.756 1197.22 Q113.237 1200.02 106.756 1200.02 Q104.58 1200.02 102.265 1199.58 Q99.9733 1199.16 97.5197 1198.31 L97.5197 1193.79 Q99.4641 1194.93 101.779 1195.51 Q104.094 1196.08 106.617 1196.08 Q111.015 1196.08 113.307 1194.35 Q115.621 1192.61 115.621 1189.3 Q115.621 1186.25 113.469 1184.53 Q111.339 1182.8 107.52 1182.8 L103.492 1182.8 L103.492 1178.96 L107.705 1178.96 Q111.154 1178.96 112.983 1177.59 Q114.811 1176.2 114.811 1173.61 Q114.811 1170.95 112.913 1169.53 Q111.038 1168.1 107.52 1168.1 Q105.598 1168.1 103.399 1168.52 Q101.2 1168.93 98.5613 1169.81 L98.5613 1165.65 Q101.223 1164.9 103.538 1164.53 Q105.876 1164.16 107.936 1164.16 Q113.26 1164.16 116.362 1166.59 Q119.464 1169 119.464 1173.12 Q119.464 1175.99 117.82 1177.98 Q116.177 1179.95 113.145 1180.71 Z" fill="#000000" fill-rule="nonzero" fill-opacity="1"></path><path clip-path="url(#clip690)" d="M62.9365 901.917 Q59.3254 901.917 57.4967 905.482 Q55.6912 909.024 55.6912 916.153 Q55.6912 923.26 57.4967 926.824 Q59.3254 930.366 62.9365 930.366 Q66.5707 930.366 68.3763 926.824 Q70.205 923.26 70.205 916.153 Q70.205 909.024 68.3763 905.482 Q66.5707 901.917 62.9365 901.917 M62.9365 898.213 Q68.7467 898.213 71.8022 902.82 Q74.8809 907.403 74.8809 916.153 Q74.8809 924.88 71.8022 929.486 Q68.7467 934.07 62.9365 934.07 Q57.1264 934.07 54.0477 929.486 Q50.9921 924.88 50.9921 916.153 Q50.9921 907.403 54.0477 902.82 Q57.1264 898.213 62.9365 898.213 Z" fill="#000000" fill-rule="nonzero" fill-opacity="1"></path><path clip-path="url(#clip690)" d="M83.0984 927.519 L87.9827 927.519 L87.9827 933.398 L83.0984 933.398 L83.0984 927.519 Z" fill="#000000" fill-rule="nonzero" fill-opacity="1"></path><path clip-path="url(#clip690)" d="M108.746 914.255 Q105.598 914.255 103.746 916.408 Q101.918 918.56 101.918 922.31 Q101.918 926.037 103.746 928.213 Q105.598 930.366 108.746 930.366 Q111.895 930.366 113.723 928.213 Q115.575 926.037 115.575 922.31 Q115.575 918.56 113.723 916.408 Q111.895 914.255 108.746 914.255 M118.029 899.602 L118.029 903.862 Q116.27 903.028 114.464 902.588 Q112.682 902.149 110.922 902.149 Q106.293 902.149 103.839 905.274 Q101.409 908.399 101.061 914.718 Q102.427 912.704 104.487 911.639 Q106.547 910.551 109.024 910.551 Q114.233 910.551 117.242 913.723 Q120.274 916.871 120.274 922.31 Q120.274 927.635 117.126 930.852 Q113.978 934.07 108.746 934.07 Q102.751 934.07 99.5798 929.486 Q96.4085 924.88 96.4085 916.153 Q96.4085 907.959 100.297 903.098 Q104.186 898.213 110.737 898.213 Q112.496 898.213 114.279 898.561 Q116.084 898.908 118.029 899.602 Z" fill="#000000" fill-rule="nonzero" fill-opacity="1"></path><path clip-path="url(#clip690)" d="M63.2837 635.967 Q59.6726 635.967 57.8439 639.532 Q56.0384 643.073 56.0384 650.203 Q56.0384 657.309 57.8439 660.874 Q59.6726 664.416 63.2837 664.416 Q66.918 664.416 68.7235 660.874 Q70.5522 657.309 70.5522 650.203 Q70.5522 643.073 68.7235 639.532 Q66.918 635.967 63.2837 635.967 M63.2837 632.263 Q69.0939 632.263 72.1494 636.87 Q75.2281 641.453 75.2281 650.203 Q75.2281 658.93 72.1494 663.536 Q69.0939 668.12 63.2837 668.12 Q57.4736 668.12 54.3949 663.536 Q51.3393 658.93 51.3393 650.203 Q51.3393 641.453 54.3949 636.87 Q57.4736 632.263 63.2837 632.263 Z" fill="#000000" fill-rule="nonzero" fill-opacity="1"></path><path clip-path="url(#clip690)" d="M83.4457 661.569 L88.3299 661.569 L88.3299 667.448 L83.4457 667.448 L83.4457 661.569 Z" fill="#000000" fill-rule="nonzero" fill-opacity="1"></path><path clip-path="url(#clip690)" d="M98.6539 666.731 L98.6539 662.471 Q100.413 663.305 102.219 663.745 Q104.024 664.184 105.76 664.184 Q110.39 664.184 112.82 661.083 Q115.274 657.958 115.621 651.615 Q114.279 653.606 112.219 654.671 Q110.158 655.735 107.658 655.735 Q102.473 655.735 99.4409 652.61 Q96.4317 649.462 96.4317 644.022 Q96.4317 638.698 99.5798 635.481 Q102.728 632.263 107.959 632.263 Q113.955 632.263 117.103 636.87 Q120.274 641.453 120.274 650.203 Q120.274 658.374 116.385 663.258 Q112.52 668.12 105.969 668.12 Q104.209 668.12 102.404 667.772 Q100.598 667.425 98.6539 666.731 M107.959 652.078 Q111.108 652.078 112.936 649.925 Q114.788 647.772 114.788 644.022 Q114.788 640.296 112.936 638.143 Q111.108 635.967 107.959 635.967 Q104.811 635.967 102.959 638.143 Q101.131 640.296 101.131 644.022 Q101.131 647.772 102.959 649.925 Q104.811 652.078 107.959 652.078 Z" fill="#000000" fill-rule="nonzero" fill-opacity="1"></path><path clip-path="url(#clip690)" d="M55.506 397.563 L63.1448 397.563 L63.1448 371.197 L54.8347 372.864 L54.8347 368.605 L63.0985 366.938 L67.7744 366.938 L67.7744 397.563 L75.4133 397.563 L75.4133 401.498 L55.506 401.498 L55.506 397.563 Z" fill="#000000" fill-rule="nonzero" fill-opacity="1"></path><path clip-path="url(#clip690)" d="M84.8577 395.618 L89.7419 395.618 L89.7419 401.498 L84.8577 401.498 L84.8577 395.618 Z" fill="#000000" fill-rule="nonzero" fill-opacity="1"></path><path clip-path="url(#clip690)" d="M103.955 397.563 L120.274 397.563 L120.274 401.498 L98.3298 401.498 L98.3298 397.563 Q100.992 394.808 105.575 390.179 Q110.182 385.526 111.362 384.183 Q113.608 381.66 114.487 379.924 Q115.39 378.165 115.39 376.475 Q115.39 373.72 113.445 371.984 Q111.524 370.248 108.422 370.248 Q106.223 370.248 103.77 371.012 Q101.339 371.776 98.5613 373.327 L98.5613 368.605 Q101.385 367.47 103.839 366.892 Q106.293 366.313 108.33 366.313 Q113.7 366.313 116.895 368.998 Q120.089 371.683 120.089 376.174 Q120.089 378.304 119.279 380.225 Q118.492 382.123 116.385 384.716 Q115.807 385.387 112.705 388.605 Q109.603 391.799 103.955 397.563 Z" fill="#000000" fill-rule="nonzero" fill-opacity="1"></path><path clip-path="url(#clip690)" d="M724.9 10.7217 L759.657 10.7217 L759.657 17.6082 L733.083 17.6082 L733.083 35.4322 L757.065 35.4322 L757.065 42.3187 L733.083 42.3187 L733.083 71.2017 L724.9 71.2017 L724.9 10.7217 Z" fill="#000000" fill-rule="nonzero" fill-opacity="1"></path><path clip-path="url(#clip690)" d="M766.26 25.8316 L773.714 25.8316 L773.714 71.2017 L766.26 71.2017 L766.26 25.8316 M766.26 8.16962 L773.714 8.16962 L773.714 17.6082 L766.26 17.6082 L766.26 8.16962 Z" fill="#000000" fill-rule="nonzero" fill-opacity="1"></path><path clip-path="url(#clip690)" d="M815.6 32.7991 Q814.344 32.07 812.845 31.7459 Q811.387 31.3813 809.605 31.3813 Q803.285 31.3813 799.883 35.5132 Q796.52 39.6046 796.52 47.3014 L796.52 71.2017 L789.026 71.2017 L789.026 25.8316 L796.52 25.8316 L796.52 32.8801 Q798.87 28.7482 802.637 26.7633 Q806.405 24.7378 811.792 24.7378 Q812.562 24.7378 813.494 24.8593 Q814.425 24.9404 815.56 25.1429 L815.6 32.7991 Z" fill="#000000" fill-rule="nonzero" fill-opacity="1"></path><path clip-path="url(#clip690)" d="M852.342 27.1684 L852.342 34.2169 Q849.182 32.5966 845.779 31.7864 Q842.377 30.9762 838.731 30.9762 Q833.181 30.9762 830.386 32.6776 Q827.631 34.379 827.631 37.7817 Q827.631 40.3743 829.616 41.8731 Q831.601 43.3315 837.596 44.6683 L840.149 45.2354 Q848.088 46.9368 851.41 50.056 Q854.772 53.1347 854.772 58.6844 Q854.772 65.0038 849.749 68.6901 Q844.767 72.3764 836.017 72.3764 Q832.371 72.3764 828.401 71.6473 Q824.472 70.9586 820.097 69.5408 L820.097 61.8441 Q824.229 63.9911 828.239 65.0848 Q832.249 66.1381 836.179 66.1381 Q841.445 66.1381 844.28 64.3557 Q847.116 62.5328 847.116 59.2515 Q847.116 56.2133 845.05 54.593 Q843.025 52.9726 836.098 51.4738 L833.505 50.8661 Q826.578 49.4078 823.499 46.4102 Q820.421 43.372 820.421 38.1058 Q820.421 31.7054 824.958 28.2216 Q829.495 24.7378 837.84 24.7378 Q841.971 24.7378 845.617 25.3455 Q849.263 25.9531 852.342 27.1684 Z" fill="#000000" fill-rule="nonzero" fill-opacity="1"></path><path clip-path="url(#clip690)" d="M874.014 12.9497 L874.014 25.8316 L889.367 25.8316 L889.367 31.6244 L874.014 31.6244 L874.014 56.2539 Q874.014 61.8036 875.513 63.3834 Q877.052 64.9633 881.711 64.9633 L889.367 64.9633 L889.367 71.2017 L881.711 71.2017 Q873.082 71.2017 869.801 68.0015 Q866.52 64.7607 866.52 56.2539 L866.52 31.6244 L861.051 31.6244 L861.051 25.8316 L866.52 25.8316 L866.52 12.9497 L874.014 12.9497 Z" fill="#000000" fill-rule="nonzero" fill-opacity="1"></path><path clip-path="url(#clip690)" d="M951.386 38.5919 Q957.26 39.8477 960.541 43.8176 Q963.863 47.7875 963.863 53.6208 Q963.863 62.5733 957.706 67.4749 Q951.548 72.3764 940.206 72.3764 Q936.398 72.3764 932.347 71.6068 Q928.337 70.8776 924.043 69.3788 L924.043 61.4795 Q927.446 63.4645 931.496 64.4772 Q935.547 65.4899 939.963 65.4899 Q947.66 65.4899 951.67 62.4517 Q955.721 59.4136 955.721 53.6208 Q955.721 48.2736 951.954 45.2759 Q948.227 42.2377 941.543 42.2377 L934.494 42.2377 L934.494 35.5132 L941.867 35.5132 Q947.903 35.5132 951.103 33.1232 Q954.303 30.6926 954.303 26.1556 Q954.303 21.4971 950.981 19.026 Q947.7 16.5145 941.543 16.5145 Q938.18 16.5145 934.332 17.2436 Q930.484 17.9728 925.866 19.5121 L925.866 12.2205 Q930.524 10.9242 934.575 10.2761 Q938.667 9.62794 942.272 9.62794 Q951.589 9.62794 957.017 13.8814 Q962.445 18.0943 962.445 25.3049 Q962.445 30.3281 959.569 33.8118 Q956.693 37.2551 951.386 38.5919 Z" fill="#000000" fill-rule="nonzero" fill-opacity="1"></path><path clip-path="url(#clip690)" d="M996.878 42.4808 Q991.045 42.4808 987.682 45.6 Q984.361 48.7192 984.361 54.1879 Q984.361 59.6566 987.682 62.7758 Q991.045 65.895 996.878 65.895 Q1002.71 65.895 1006.07 62.7758 Q1009.44 59.6161 1009.44 54.1879 Q1009.44 48.7192 1006.07 45.6 Q1002.75 42.4808 996.878 42.4808 M988.695 38.997 Q983.429 37.7007 980.472 34.0954 Q977.555 30.4901 977.555 25.3049 Q977.555 18.0538 982.7 13.8409 Q987.885 9.62794 996.878 9.62794 Q1005.91 9.62794 1011.06 13.8409 Q1016.2 18.0538 1016.2 25.3049 Q1016.2 30.4901 1013.24 34.0954 Q1010.33 37.7007 1005.1 38.997 Q1011.02 40.3743 1014.3 44.3847 Q1017.62 48.3951 1017.62 54.1879 Q1017.62 62.9784 1012.23 67.6774 Q1006.88 72.3764 996.878 72.3764 Q986.872 72.3764 981.485 67.6774 Q976.137 62.9784 976.137 54.1879 Q976.137 48.3951 979.459 44.3847 Q982.781 40.3743 988.695 38.997 M985.698 26.0746 Q985.698 30.7737 988.614 33.4068 Q991.571 36.0398 996.878 36.0398 Q1002.14 36.0398 1005.1 33.4068 Q1008.1 30.7737 1008.1 26.0746 Q1008.1 21.3756 1005.1 18.7425 Q1002.14 16.1094 996.878 16.1094 Q991.571 16.1094 988.614 18.7425 Q985.698 21.3756 985.698 26.0746 Z" fill="#000000" fill-rule="nonzero" fill-opacity="1"></path><path clip-path="url(#clip690)" d="M1057.8 10.7217 L1096.04 10.7217 L1096.04 17.6082 L1065.99 17.6082 L1065.99 35.5132 L1094.79 35.5132 L1094.79 42.3998 L1065.99 42.3998 L1065.99 64.3152 L1096.77 64.3152 L1096.77 71.2017 L1057.8 71.2017 L1057.8 10.7217 Z" fill="#000000" fill-rule="nonzero" fill-opacity="1"></path><path clip-path="url(#clip690)" d="M1109.9 25.8316 L1117.35 25.8316 L1117.35 71.2017 L1109.9 71.2017 L1109.9 25.8316 M1109.9 8.16962 L1117.35 8.16962 L1117.35 17.6082 L1109.9 17.6082 L1109.9 8.16962 Z" fill="#000000" fill-rule="nonzero" fill-opacity="1"></path><path clip-path="url(#clip690)" d="M1162.8 47.99 Q1162.8 39.8882 1159.44 35.4322 Q1156.12 30.9762 1150.08 30.9762 Q1144.09 30.9762 1140.73 35.4322 Q1137.4 39.8882 1137.4 47.99 Q1137.4 56.0513 1140.73 60.5073 Q1144.09 64.9633 1150.08 64.9633 Q1156.12 64.9633 1159.44 60.5073 Q1162.8 56.0513 1162.8 47.99 M1170.26 65.5709 Q1170.26 77.1565 1165.11 82.7873 Q1159.97 88.4585 1149.35 88.4585 Q1145.42 88.4585 1141.94 87.8509 Q1138.46 87.2838 1135.18 86.0685 L1135.18 78.8174 Q1138.46 80.5998 1141.66 81.4505 Q1144.86 82.3012 1148.18 82.3012 Q1155.51 82.3012 1159.16 78.4528 Q1162.8 74.645 1162.8 66.9077 L1162.8 63.2214 Q1160.49 67.2318 1156.89 69.2167 Q1153.28 71.2017 1148.26 71.2017 Q1139.92 71.2017 1134.81 64.8418 Q1129.71 58.4818 1129.71 47.99 Q1129.71 37.4577 1134.81 31.0977 Q1139.92 24.7378 1148.26 24.7378 Q1153.28 24.7378 1156.89 26.7228 Q1160.49 28.7077 1162.8 32.7181 L1162.8 25.8316 L1170.26 25.8316 L1170.26 65.5709 Z" fill="#000000" fill-rule="nonzero" fill-opacity="1"></path><path clip-path="url(#clip690)" d="M1224.42 46.6532 L1224.42 50.299 L1190.15 50.299 Q1190.63 57.9957 1194.76 62.0466 Q1198.94 66.057 1206.35 66.057 Q1210.64 66.057 1214.65 65.0038 Q1218.71 63.9506 1222.68 61.8441 L1222.68 68.8927 Q1218.67 70.5941 1214.45 71.4853 Q1210.24 72.3764 1205.9 72.3764 Q1195.05 72.3764 1188.69 66.057 Q1182.37 59.7376 1182.37 48.9622 Q1182.37 37.8222 1188.36 31.3003 Q1194.4 24.7378 1204.61 24.7378 Q1213.76 24.7378 1219.07 30.6521 Q1224.42 36.5259 1224.42 46.6532 M1216.96 44.4657 Q1216.88 38.3489 1213.52 34.703 Q1210.2 31.0572 1204.69 31.0572 Q1198.45 31.0572 1194.68 34.5815 Q1190.96 38.1058 1190.39 44.5062 L1216.96 44.4657 Z" fill="#000000" fill-rule="nonzero" fill-opacity="1"></path><path clip-path="url(#clip690)" d="M1274.36 43.8176 L1274.36 71.2017 L1266.91 71.2017 L1266.91 44.0606 Q1266.91 37.6197 1264.4 34.4195 Q1261.89 31.2193 1256.87 31.2193 Q1250.83 31.2193 1247.35 35.0676 Q1243.86 38.916 1243.86 45.5595 L1243.86 71.2017 L1236.37 71.2017 L1236.37 25.8316 L1243.86 25.8316 L1243.86 32.8801 Q1246.54 28.7887 1250.14 26.7633 Q1253.79 24.7378 1258.53 24.7378 Q1266.34 24.7378 1270.35 29.5989 Q1274.36 34.4195 1274.36 43.8176 Z" fill="#000000" fill-rule="nonzero" fill-opacity="1"></path><path clip-path="url(#clip690)" d="M1283.88 25.8316 L1291.78 25.8316 L1305.96 63.9101 L1320.14 25.8316 L1328.04 25.8316 L1311.03 71.2017 L1300.9 71.2017 L1283.88 25.8316 Z" fill="#000000" fill-rule="nonzero" fill-opacity="1"></path><path clip-path="url(#clip690)" d="M1358.95 48.3951 Q1349.91 48.3951 1346.43 50.4611 Q1342.95 52.527 1342.95 57.5096 Q1342.95 61.4795 1345.54 63.829 Q1348.17 66.1381 1352.67 66.1381 Q1358.87 66.1381 1362.59 61.7631 Q1366.36 57.3476 1366.36 50.056 L1366.36 48.3951 L1358.95 48.3951 M1373.81 45.3164 L1373.81 71.2017 L1366.36 71.2017 L1366.36 64.3152 Q1363.81 68.4471 1360 70.432 Q1356.19 72.3764 1350.68 72.3764 Q1343.72 72.3764 1339.58 68.4876 Q1335.49 64.5582 1335.49 57.9957 Q1335.49 50.3395 1340.6 46.4507 Q1345.74 42.5618 1355.91 42.5618 L1366.36 42.5618 L1366.36 41.8326 Q1366.36 36.688 1362.96 33.8929 Q1359.6 31.0572 1353.48 31.0572 Q1349.59 31.0572 1345.9 31.9889 Q1342.22 32.9206 1338.81 34.7841 L1338.81 27.8975 Q1342.91 26.3177 1346.75 25.548 Q1350.6 24.7378 1354.25 24.7378 Q1364.09 24.7378 1368.95 29.842 Q1373.81 34.9461 1373.81 45.3164 Z" fill="#000000" fill-rule="nonzero" fill-opacity="1"></path><path clip-path="url(#clip690)" d="M1389.17 8.16962 L1396.62 8.16962 L1396.62 71.2017 L1389.17 71.2017 L1389.17 8.16962 Z" fill="#000000" fill-rule="nonzero" fill-opacity="1"></path><path clip-path="url(#clip690)" d="M1411.45 53.2967 L1411.45 25.8316 L1418.9 25.8316 L1418.9 53.0131 Q1418.9 59.4541 1421.41 62.6948 Q1423.92 65.895 1428.95 65.895 Q1434.98 65.895 1438.47 62.0466 Q1441.99 58.1983 1441.99 51.5548 L1441.99 25.8316 L1449.45 25.8316 L1449.45 71.2017 L1441.99 71.2017 L1441.99 64.2341 Q1439.28 68.3661 1435.67 70.3915 Q1432.11 72.3764 1427.37 72.3764 Q1419.55 72.3764 1415.5 67.5154 Q1411.45 62.6543 1411.45 53.2967 M1430.2 24.7378 L1430.2 24.7378 Z" fill="#000000" fill-rule="nonzero" fill-opacity="1"></path><path clip-path="url(#clip690)" d="M1503.61 46.6532 L1503.61 50.299 L1469.34 50.299 Q1469.82 57.9957 1473.95 62.0466 Q1478.13 66.057 1485.54 66.057 Q1489.83 66.057 1493.84 65.0038 Q1497.89 63.9506 1501.86 61.8441 L1501.86 68.8927 Q1497.85 70.5941 1493.64 71.4853 Q1489.43 72.3764 1485.09 72.3764 Q1474.24 72.3764 1467.88 66.057 Q1461.56 59.7376 1461.56 48.9622 Q1461.56 37.8222 1467.55 31.3003 Q1473.59 24.7378 1483.8 24.7378 Q1492.95 24.7378 1498.26 30.6521 Q1503.61 36.5259 1503.61 46.6532 M1496.15 44.4657 Q1496.07 38.3489 1492.71 34.703 Q1489.39 31.0572 1483.88 31.0572 Q1477.64 31.0572 1473.87 34.5815 Q1470.15 38.1058 1469.58 44.5062 L1496.15 44.4657 Z" fill="#000000" fill-rule="nonzero" fill-opacity="1"></path><path clip-path="url(#clip690)" d="M1544.76 27.1684 L1544.76 34.2169 Q1541.6 32.5966 1538.2 31.7864 Q1534.8 30.9762 1531.15 30.9762 Q1525.6 30.9762 1522.81 32.6776 Q1520.05 34.379 1520.05 37.7817 Q1520.05 40.3743 1522.04 41.8731 Q1524.02 43.3315 1530.02 44.6683 L1532.57 45.2354 Q1540.51 46.9368 1543.83 50.056 Q1547.19 53.1347 1547.19 58.6844 Q1547.19 65.0038 1542.17 68.6901 Q1537.19 72.3764 1528.44 72.3764 Q1524.79 72.3764 1520.82 71.6473 Q1516.89 70.9586 1512.52 69.5408 L1512.52 61.8441 Q1516.65 63.9911 1520.66 65.0848 Q1524.67 66.1381 1528.6 66.1381 Q1533.87 66.1381 1536.7 64.3557 Q1539.54 62.5328 1539.54 59.2515 Q1539.54 56.2133 1537.47 54.593 Q1535.45 52.9726 1528.52 51.4738 L1525.93 50.8661 Q1519 49.4078 1515.92 46.4102 Q1512.84 43.372 1512.84 38.1058 Q1512.84 31.7054 1517.38 28.2216 Q1521.92 24.7378 1530.26 24.7378 Q1534.39 24.7378 1538.04 25.3455 Q1541.68 25.9531 1544.76 27.1684 Z" fill="#000000" fill-rule="nonzero" fill-opacity="1"></path><path clip-path="url(#clip690)" d="M1603.01 31.0572 Q1597.02 31.0572 1593.54 35.7563 Q1590.05 40.4148 1590.05 48.5571 Q1590.05 56.6995 1593.5 61.3985 Q1596.98 66.057 1603.01 66.057 Q1608.97 66.057 1612.45 61.358 Q1615.94 56.6589 1615.94 48.5571 Q1615.94 40.4958 1612.45 35.7968 Q1608.97 31.0572 1603.01 31.0572 M1603.01 24.7378 Q1612.74 24.7378 1618.29 31.0572 Q1623.84 37.3766 1623.84 48.5571 Q1623.84 59.6971 1618.29 66.057 Q1612.74 72.3764 1603.01 72.3764 Q1593.25 72.3764 1587.7 66.057 Q1582.19 59.6971 1582.19 48.5571 Q1582.19 37.3766 1587.7 31.0572 Q1593.25 24.7378 1603.01 24.7378 Z" fill="#000000" fill-rule="nonzero" fill-opacity="1"></path><path clip-path="url(#clip690)" d="M1659.16 8.16962 L1659.16 14.3675 L1652.03 14.3675 Q1648.02 14.3675 1646.44 15.9879 Q1644.9 17.6082 1644.9 21.8212 L1644.9 25.8316 L1657.18 25.8316 L1657.18 31.6244 L1644.9 31.6244 L1644.9 71.2017 L1637.41 71.2017 L1637.41 31.6244 L1630.28 31.6244 L1630.28 25.8316 L1637.41 25.8316 L1637.41 22.6719 Q1637.41 15.0967 1640.93 11.6534 Q1644.46 8.16962 1652.11 8.16962 L1659.16 8.16962 Z" fill="#000000" fill-rule="nonzero" fill-opacity="1"></path><path clip-path="url(#clip690)" d="M1743.55 12.8739 L1738.26 34.2703 Q1737.89 35.623 1737.65 35.787 Q1737.44 35.9509 1736.79 35.9509 Q1735.52 35.9509 1735.52 35.0901 Q1735.52 35.0082 1735.64 33.9424 Q1735.76 32.8357 1735.76 30.8272 Q1735.76 23.4082 1732.16 19.0223 Q1728.59 14.6365 1722.24 14.6365 Q1716.29 14.6365 1710.59 17.7517 Q1704.9 20.8669 1701.25 25.4577 Q1698.18 29.2287 1696.04 33.8195 Q1693.95 38.4103 1693.09 42.4272 Q1692.23 46.4032 1691.9 48.8215 Q1691.62 51.2399 1691.62 52.7975 Q1691.62 57.3883 1693.09 60.9544 Q1694.57 64.4794 1697.03 66.4879 Q1699.53 68.4964 1702.4 69.4801 Q1705.31 70.4639 1708.46 70.4639 Q1709.65 70.4639 1711.09 70.2999 Q1712.52 70.136 1714.73 69.5211 Q1716.99 68.9063 1718.83 67.8816 Q1720.72 66.8568 1722.36 64.8893 Q1724.04 62.9219 1724.7 60.2985 Q1726.46 53.6173 1726.46 52.6335 Q1726.46 51.8138 1725.97 51.5268 Q1725.47 51.2399 1723.83 51.035 L1719.41 50.871 Q1719.33 50.871 1719.2 50.871 Q1718.42 50.871 1718.1 50.871 Q1717.77 50.83 1717.4 50.748 Q1717.07 50.6661 1716.95 50.5021 Q1716.87 50.2972 1716.87 49.9692 Q1716.87 49.1904 1717.19 48.8215 Q1717.52 48.4116 1717.81 48.3707 Q1718.1 48.2887 1718.63 48.2887 L1730.39 48.5346 Q1731.34 48.5346 1734.78 48.4116 Q1738.22 48.2887 1739.21 48.2887 Q1740.31 48.2887 1740.31 49.1904 Q1740.31 50.871 1738.96 50.871 Q1737.61 50.912 1736.91 50.953 Q1736.21 50.953 1735.52 51.1579 Q1734.86 51.3629 1734.61 51.5268 Q1734.37 51.6498 1734.04 52.2646 Q1733.71 52.8385 1733.59 53.3304 Q1733.47 53.7812 1733.18 54.9289 Q1733.02 55.6668 1732.61 57.0604 Q1732.24 58.454 1732.07 59.1918 L1730.47 65.6681 Q1729.37 70.4639 1729.04 70.7918 Q1728.88 71.1197 1728.47 71.1197 Q1727.85 71.1197 1726.54 69.3162 Q1725.27 67.5127 1724.7 65.9141 Q1723.67 67.0208 1723.01 67.6766 Q1722.36 68.2914 1720.84 69.2752 Q1719.37 70.2589 1717.4 71.0377 Q1712.6 73.0462 1706.91 73.0462 Q1696.74 73.0462 1690.35 66.6109 Q1683.95 60.1346 1683.95 50.0512 Q1683.95 42.9191 1687.23 35.9099 Q1690.51 28.9008 1695.72 23.6951 Q1700.92 18.4895 1707.81 15.2513 Q1714.69 12.0132 1721.58 12.0132 Q1724.2 12.0132 1726.54 12.71 Q1728.88 13.4068 1730.27 14.2676 Q1731.7 15.1284 1732.98 16.399 Q1734.25 17.6287 1734.66 18.2026 Q1735.11 18.7764 1735.52 19.4732 L1741.38 13.0379 Q1742.4 12.0132 1742.65 12.0132 Q1743.14 12.0132 1743.35 12.3001 Q1743.55 12.587 1743.55 12.8739 Z" fill="#000000" fill-rule="nonzero" fill-opacity="1"></path><path clip-path="url(#clip690)" d="M1751.93 96.2873 Q1751.93 95.2257 1752.01 94.9101 Q1752.13 94.5945 1752.59 94.1067 L1763.86 81.5394 Q1770.03 74.5958 1770.03 68.5417 Q1770.03 64.6108 1767.97 61.7989 Q1765.93 58.9871 1762.17 58.9871 Q1759.59 58.9871 1757.41 60.5652 Q1755.23 62.1432 1754.22 64.9551 Q1754.4 64.8977 1755 64.8977 Q1756.46 64.8977 1757.26 65.8159 Q1758.1 66.734 1758.1 67.9678 Q1758.1 69.5459 1757.06 70.3206 Q1756.06 71.0666 1755.06 71.0666 Q1754.65 71.0666 1754.11 70.9805 Q1753.59 70.8945 1752.76 70.0911 Q1751.93 69.259 1751.93 67.7957 Q1751.93 63.6926 1755.03 60.4217 Q1758.15 57.1507 1762.92 57.1507 Q1768.31 57.1507 1771.84 60.3643 Q1775.4 63.5492 1775.4 68.5417 Q1775.4 70.2919 1774.85 71.8987 Q1774.34 73.4768 1773.62 74.7106 Q1772.93 75.9443 1771.04 77.9241 Q1769.14 79.9039 1767.62 81.3098 Q1766.1 82.7158 1762.69 85.6998 L1756.46 91.7539 L1767.05 91.7539 Q1772.21 91.7539 1772.61 91.2948 Q1773.19 90.4627 1773.91 86.0728 L1775.4 86.0728 L1773.73 96.2873 L1751.93 96.2873 Z" fill="#000000" fill-rule="nonzero" fill-opacity="1"></path><circle clip-path="url(#clip693)" cx="218.439" cy="1447.87" r="7.2" fill="#009af9" fill-rule="evenodd" fill-opacity="1" stroke="#000000" stroke-opacity="1" stroke-width="3.2"></circle>
<circle clip-path="url(#clip693)" cx="274.443" cy="1390.18" r="7.2" fill="#009af9" fill-rule="evenodd" fill-opacity="1" stroke="#000000" stroke-opacity="1" stroke-width="3.2"></circle>
<circle clip-path="url(#clip693)" cx="330.447" cy="1253.75" r="7.2" fill="#009af9" fill-rule="evenodd" fill-opacity="1" stroke="#000000" stroke-opacity="1" stroke-width="3.2"></circle>
<circle clip-path="url(#clip693)" cx="386.451" cy="1229.93" r="7.2" fill="#009af9" fill-rule="evenodd" fill-opacity="1" stroke="#000000" stroke-opacity="1" stroke-width="3.2"></circle>
<circle clip-path="url(#clip693)" cx="442.455" cy="1214.23" r="7.2" fill="#009af9" fill-rule="evenodd" fill-opacity="1" stroke="#000000" stroke-opacity="1" stroke-width="3.2"></circle>
<circle clip-path="url(#clip693)" cx="498.459" cy="1206.26" r="7.2" fill="#009af9" fill-rule="evenodd" fill-opacity="1" stroke="#000000" stroke-opacity="1" stroke-width="3.2"></circle>
<circle clip-path="url(#clip693)" cx="554.463" cy="1200.57" r="7.2" fill="#009af9" fill-rule="evenodd" fill-opacity="1" stroke="#000000" stroke-opacity="1" stroke-width="3.2"></circle>
<circle clip-path="url(#clip693)" cx="610.468" cy="1194.3" r="7.2" fill="#009af9" fill-rule="evenodd" fill-opacity="1" stroke="#000000" stroke-opacity="1" stroke-width="3.2"></circle>
<circle clip-path="url(#clip693)" cx="666.472" cy="1188.55" r="7.2" fill="#009af9" fill-rule="evenodd" fill-opacity="1" stroke="#000000" stroke-opacity="1" stroke-width="3.2"></circle>
<circle clip-path="url(#clip693)" cx="722.476" cy="1182.63" r="7.2" fill="#009af9" fill-rule="evenodd" fill-opacity="1" stroke="#000000" stroke-opacity="1" stroke-width="3.2"></circle>
<circle clip-path="url(#clip693)" cx="778.48" cy="1175.35" r="7.2" fill="#009af9" fill-rule="evenodd" fill-opacity="1" stroke="#000000" stroke-opacity="1" stroke-width="3.2"></circle>
<circle clip-path="url(#clip693)" cx="834.484" cy="1171.71" r="7.2" fill="#009af9" fill-rule="evenodd" fill-opacity="1" stroke="#000000" stroke-opacity="1" stroke-width="3.2"></circle>
<circle clip-path="url(#clip693)" cx="890.488" cy="1165.74" r="7.2" fill="#009af9" fill-rule="evenodd" fill-opacity="1" stroke="#000000" stroke-opacity="1" stroke-width="3.2"></circle>
<circle clip-path="url(#clip693)" cx="946.492" cy="1158.46" r="7.2" fill="#009af9" fill-rule="evenodd" fill-opacity="1" stroke="#000000" stroke-opacity="1" stroke-width="3.2"></circle>
<circle clip-path="url(#clip693)" cx="1002.5" cy="1153.76" r="7.2" fill="#009af9" fill-rule="evenodd" fill-opacity="1" stroke="#000000" stroke-opacity="1" stroke-width="3.2"></circle>
<circle clip-path="url(#clip693)" cx="1058.5" cy="1150.45" r="7.2" fill="#009af9" fill-rule="evenodd" fill-opacity="1" stroke="#000000" stroke-opacity="1" stroke-width="3.2"></circle>
<circle clip-path="url(#clip693)" cx="1114.5" cy="1143.23" r="7.2" fill="#009af9" fill-rule="evenodd" fill-opacity="1" stroke="#000000" stroke-opacity="1" stroke-width="3.2"></circle>
<circle clip-path="url(#clip693)" cx="1170.51" cy="1138.33" r="7.2" fill="#009af9" fill-rule="evenodd" fill-opacity="1" stroke="#000000" stroke-opacity="1" stroke-width="3.2"></circle>
<circle clip-path="url(#clip693)" cx="1226.51" cy="1135.26" r="7.2" fill="#009af9" fill-rule="evenodd" fill-opacity="1" stroke="#000000" stroke-opacity="1" stroke-width="3.2"></circle>
<circle clip-path="url(#clip693)" cx="1282.52" cy="1123.94" r="7.2" fill="#009af9" fill-rule="evenodd" fill-opacity="1" stroke="#000000" stroke-opacity="1" stroke-width="3.2"></circle>
<circle clip-path="url(#clip693)" cx="1338.52" cy="1122.7" r="7.2" fill="#009af9" fill-rule="evenodd" fill-opacity="1" stroke="#000000" stroke-opacity="1" stroke-width="3.2"></circle>
<circle clip-path="url(#clip693)" cx="1394.53" cy="1094.92" r="7.2" fill="#009af9" fill-rule="evenodd" fill-opacity="1" stroke="#000000" stroke-opacity="1" stroke-width="3.2"></circle>
<circle clip-path="url(#clip693)" cx="1450.53" cy="1077.97" r="7.2" fill="#009af9" fill-rule="evenodd" fill-opacity="1" stroke="#000000" stroke-opacity="1" stroke-width="3.2"></circle>
<circle clip-path="url(#clip693)" cx="1506.53" cy="1077.58" r="7.2" fill="#009af9" fill-rule="evenodd" fill-opacity="1" stroke="#000000" stroke-opacity="1" stroke-width="3.2"></circle>
<circle clip-path="url(#clip693)" cx="1562.54" cy="1053.56" r="7.2" fill="#009af9" fill-rule="evenodd" fill-opacity="1" stroke="#000000" stroke-opacity="1" stroke-width="3.2"></circle>
<circle clip-path="url(#clip693)" cx="1618.54" cy="1030.9" r="7.2" fill="#009af9" fill-rule="evenodd" fill-opacity="1" stroke="#000000" stroke-opacity="1" stroke-width="3.2"></circle>
<circle clip-path="url(#clip693)" cx="1674.55" cy="963.297" r="7.2" fill="#009af9" fill-rule="evenodd" fill-opacity="1" stroke="#000000" stroke-opacity="1" stroke-width="3.2"></circle>
<circle clip-path="url(#clip693)" cx="1730.55" cy="955.481" r="7.2" fill="#009af9" fill-rule="evenodd" fill-opacity="1" stroke="#000000" stroke-opacity="1" stroke-width="3.2"></circle>
<circle clip-path="url(#clip693)" cx="1786.55" cy="942.183" r="7.2" fill="#009af9" fill-rule="evenodd" fill-opacity="1" stroke="#000000" stroke-opacity="1" stroke-width="3.2"></circle>
<circle clip-path="url(#clip693)" cx="1842.56" cy="920.689" r="7.2" fill="#009af9" fill-rule="evenodd" fill-opacity="1" stroke="#000000" stroke-opacity="1" stroke-width="3.2"></circle>
<circle clip-path="url(#clip693)" cx="1898.56" cy="860.64" r="7.2" fill="#009af9" fill-rule="evenodd" fill-opacity="1" stroke="#000000" stroke-opacity="1" stroke-width="3.2"></circle>
<circle clip-path="url(#clip693)" cx="1954.57" cy="843.202" r="7.2" fill="#009af9" fill-rule="evenodd" fill-opacity="1" stroke="#000000" stroke-opacity="1" stroke-width="3.2"></circle>
<circle clip-path="url(#clip693)" cx="2010.57" cy="789.403" r="7.2" fill="#009af9" fill-rule="evenodd" fill-opacity="1" stroke="#000000" stroke-opacity="1" stroke-width="3.2"></circle>
<circle clip-path="url(#clip693)" cx="2066.57" cy="736.306" r="7.2" fill="#009af9" fill-rule="evenodd" fill-opacity="1" stroke="#000000" stroke-opacity="1" stroke-width="3.2"></circle>
<circle clip-path="url(#clip693)" cx="2122.58" cy="692.698" r="7.2" fill="#009af9" fill-rule="evenodd" fill-opacity="1" stroke="#000000" stroke-opacity="1" stroke-width="3.2"></circle>
<circle clip-path="url(#clip693)" cx="2178.58" cy="659.139" r="7.2" fill="#009af9" fill-rule="evenodd" fill-opacity="1" stroke="#000000" stroke-opacity="1" stroke-width="3.2"></circle>
<circle clip-path="url(#clip693)" cx="2234.59" cy="610.809" r="7.2" fill="#009af9" fill-rule="evenodd" fill-opacity="1" stroke="#000000" stroke-opacity="1" stroke-width="3.2"></circle>
<circle clip-path="url(#clip693)" cx="2290.59" cy="162.047" r="7.2" fill="#009af9" fill-rule="evenodd" fill-opacity="1" stroke="#000000" stroke-opacity="1" stroke-width="3.2"></circle>
</svg>