<svg xmlns="http://www.w3.org/2000/svg" xmlns:xlink="http://www.w3.org/1999/xlink" width="600" height="400" viewBox="0 0 2400 1600">
<defs>
  <clipPath id="clip770">
    <rect x="0" y="0" width="2400" height="1600"></rect>
  </clipPath>
</defs>
<path clip-path="url(#clip770)" d="M0 1600 L2400 1600 L2400 0 L0 0  Z" fill="#ffffff" fill-rule="evenodd" fill-opacity="1"></path>
<defs>
  <clipPath id="clip771">
    <rect x="480" y="0" width="1681" height="1600"></rect>
  </clipPath>
</defs>
<defs>
  <clipPath id="clip772">
    <rect x="305" y="123" width="2049" height="1364"></rect>
  </clipPath>
</defs>
<path clip-path="url(#clip770)" d="M156.112 1486.45 L2352.76 1486.45 L2352.76 123.472 L156.112 123.472  Z" fill="#ffffff" fill-rule="evenodd" fill-opacity="1"></path>
<defs>
  <clipPath id="clip773">
    <rect x="156" y="123" width="2198" height="1364"></rect>
  </clipPath>
</defs>
<polyline clip-path="url(#clip773)" style="stroke:#000000; stroke-linecap:round; stroke-linejoin:round; stroke-width:2; stroke-opacity:0.1; fill:none" points="162.273,1486.45 162.273,123.472 "></polyline>
<polyline clip-path="url(#clip773)" style="stroke:#000000; stroke-linecap:round; stroke-linejoin:round; stroke-width:2; stroke-opacity:0.1; fill:none" points="722.356,1486.45 722.356,123.472 "></polyline>
<polyline clip-path="url(#clip773)" style="stroke:#000000; stroke-linecap:round; stroke-linejoin:round; stroke-width:2; stroke-opacity:0.1; fill:none" points="1282.44,1486.45 1282.44,123.472 "></polyline>
<polyline clip-path="url(#clip773)" style="stroke:#000000; stroke-linecap:round; stroke-linejoin:round; stroke-width:2; stroke-opacity:0.1; fill:none" points="1842.52,1486.45 1842.52,123.472 "></polyline>
<polyline clip-path="url(#clip770)" style="stroke:#000000; stroke-linecap:round; stroke-linejoin:round; stroke-width:4; stroke-opacity:1; fill:none" points="156.112,1486.45 2352.76,1486.45 "></polyline>
<polyline clip-path="url(#clip770)" style="stroke:#000000; stroke-linecap:round; stroke-linejoin:round; stroke-width:4; stroke-opacity:1; fill:none" points="162.273,1486.45 162.273,1467.55 "></polyline>
<polyline clip-path="url(#clip770)" style="stroke:#000000; stroke-linecap:round; stroke-linejoin:round; stroke-width:4; stroke-opacity:1; fill:none" points="722.356,1486.45 722.356,1467.55 "></polyline>
<polyline clip-path="url(#clip770)" style="stroke:#000000; stroke-linecap:round; stroke-linejoin:round; stroke-width:4; stroke-opacity:1; fill:none" points="1282.44,1486.45 1282.44,1467.55 "></polyline>
<polyline clip-path="url(#clip770)" style="stroke:#000000; stroke-linecap:round; stroke-linejoin:round; stroke-width:4; stroke-opacity:1; fill:none" points="1842.52,1486.45 1842.52,1467.55 "></polyline>
<path clip-path="url(#clip770)" d="M162.273 1517.37 Q158.662 1517.37 156.833 1520.93 Q155.028 1524.47 155.028 1531.6 Q155.028 1538.71 156.833 1542.27 Q158.662 1545.82 162.273 1545.82 Q165.907 1545.82 167.713 1542.27 Q169.542 1538.71 169.542 1531.6 Q169.542 1524.47 167.713 1520.93 Q165.907 1517.37 162.273 1517.37 M162.273 1513.66 Q168.083 1513.66 171.139 1518.27 Q174.217 1522.85 174.217 1531.6 Q174.217 1540.33 171.139 1544.94 Q168.083 1549.52 162.273 1549.52 Q156.463 1549.52 153.384 1544.94 Q150.329 1540.33 150.329 1531.6 Q150.329 1522.85 153.384 1518.27 Q156.463 1513.66 162.273 1513.66 Z" fill="#000000" fill-rule="nonzero" fill-opacity="1"></path><path clip-path="url(#clip770)" d="M697.043 1544.91 L704.682 1544.91 L704.682 1518.55 L696.372 1520.21 L696.372 1515.95 L704.636 1514.29 L709.312 1514.29 L709.312 1544.91 L716.951 1544.91 L716.951 1548.85 L697.043 1548.85 L697.043 1544.91 Z" fill="#000000" fill-rule="nonzero" fill-opacity="1"></path><path clip-path="url(#clip770)" d="M736.395 1517.37 Q732.784 1517.37 730.955 1520.93 Q729.15 1524.47 729.15 1531.6 Q729.15 1538.71 730.955 1542.27 Q732.784 1545.82 736.395 1545.82 Q740.029 1545.82 741.835 1542.27 Q743.663 1538.71 743.663 1531.6 Q743.663 1524.47 741.835 1520.93 Q740.029 1517.37 736.395 1517.37 M736.395 1513.66 Q742.205 1513.66 745.261 1518.27 Q748.339 1522.85 748.339 1531.6 Q748.339 1540.33 745.261 1544.94 Q742.205 1549.52 736.395 1549.52 Q730.585 1549.52 727.506 1544.94 Q724.45 1540.33 724.45 1531.6 Q724.45 1522.85 727.506 1518.27 Q730.585 1513.66 736.395 1513.66 Z" fill="#000000" fill-rule="nonzero" fill-opacity="1"></path><path clip-path="url(#clip770)" d="M1261.21 1544.91 L1277.53 1544.91 L1277.53 1548.85 L1255.59 1548.85 L1255.59 1544.91 Q1258.25 1542.16 1262.83 1537.53 Q1267.44 1532.88 1268.62 1531.53 Q1270.86 1529.01 1271.74 1527.27 Q1272.65 1525.51 1272.65 1523.82 Q1272.65 1521.07 1270.7 1519.33 Q1268.78 1517.6 1265.68 1517.6 Q1263.48 1517.6 1261.03 1518.36 Q1258.6 1519.13 1255.82 1520.68 L1255.82 1515.95 Q1258.64 1514.82 1261.1 1514.24 Q1263.55 1513.66 1265.59 1513.66 Q1270.96 1513.66 1274.15 1516.35 Q1277.35 1519.03 1277.35 1523.52 Q1277.35 1525.65 1276.54 1527.57 Q1275.75 1529.47 1273.64 1532.07 Q1273.06 1532.74 1269.96 1535.95 Q1266.86 1539.15 1261.21 1544.91 Z" fill="#000000" fill-rule="nonzero" fill-opacity="1"></path><path clip-path="url(#clip770)" d="M1297.35 1517.37 Q1293.73 1517.37 1291.91 1520.93 Q1290.1 1524.47 1290.1 1531.6 Q1290.1 1538.71 1291.91 1542.27 Q1293.73 1545.82 1297.35 1545.82 Q1300.98 1545.82 1302.79 1542.27 Q1304.61 1538.71 1304.61 1531.6 Q1304.61 1524.47 1302.79 1520.93 Q1300.98 1517.37 1297.35 1517.37 M1297.35 1513.66 Q1303.16 1513.66 1306.21 1518.27 Q1309.29 1522.85 1309.29 1531.6 Q1309.29 1540.33 1306.21 1544.94 Q1303.16 1549.52 1297.35 1549.52 Q1291.54 1549.52 1288.46 1544.94 Q1285.4 1540.33 1285.4 1531.6 Q1285.4 1522.85 1288.46 1518.27 Q1291.54 1513.66 1297.35 1513.66 Z" fill="#000000" fill-rule="nonzero" fill-opacity="1"></path><path clip-path="url(#clip770)" d="M1831.36 1530.21 Q1834.72 1530.93 1836.59 1533.2 Q1838.49 1535.47 1838.49 1538.8 Q1838.49 1543.92 1834.97 1546.72 Q1831.46 1549.52 1824.97 1549.52 Q1822.8 1549.52 1820.48 1549.08 Q1818.19 1548.66 1815.74 1547.81 L1815.74 1543.29 Q1817.68 1544.43 1820 1545.01 Q1822.31 1545.58 1824.84 1545.58 Q1829.23 1545.58 1831.53 1543.85 Q1833.84 1542.11 1833.84 1538.8 Q1833.84 1535.75 1831.69 1534.03 Q1829.56 1532.3 1825.74 1532.3 L1821.71 1532.3 L1821.71 1528.45 L1825.92 1528.45 Q1829.37 1528.45 1831.2 1527.09 Q1833.03 1525.7 1833.03 1523.11 Q1833.03 1520.45 1831.13 1519.03 Q1829.26 1517.6 1825.74 1517.6 Q1823.82 1517.6 1821.62 1518.01 Q1819.42 1518.43 1816.78 1519.31 L1816.78 1515.14 Q1819.44 1514.4 1821.76 1514.03 Q1824.09 1513.66 1826.16 1513.66 Q1831.48 1513.66 1834.58 1516.09 Q1837.68 1518.5 1837.68 1522.62 Q1837.68 1525.49 1836.04 1527.48 Q1834.4 1529.45 1831.36 1530.21 Z" fill="#000000" fill-rule="nonzero" fill-opacity="1"></path><path clip-path="url(#clip770)" d="M1857.36 1517.37 Q1853.75 1517.37 1851.92 1520.93 Q1850.11 1524.47 1850.11 1531.6 Q1850.11 1538.71 1851.92 1542.27 Q1853.75 1545.82 1857.36 1545.82 Q1860.99 1545.82 1862.8 1542.27 Q1864.63 1538.71 1864.63 1531.6 Q1864.63 1524.47 1862.8 1520.93 Q1860.99 1517.37 1857.36 1517.37 M1857.36 1513.66 Q1863.17 1513.66 1866.22 1518.27 Q1869.3 1522.85 1869.3 1531.6 Q1869.3 1540.33 1866.22 1544.94 Q1863.17 1549.52 1857.36 1549.52 Q1851.55 1549.52 1848.47 1544.94 Q1845.41 1540.33 1845.41 1531.6 Q1845.41 1522.85 1848.47 1518.27 Q1851.55 1513.66 1857.36 1513.66 Z" fill="#000000" fill-rule="nonzero" fill-opacity="1"></path><polyline clip-path="url(#clip773)" style="stroke:#000000; stroke-linecap:round; stroke-linejoin:round; stroke-width:2; stroke-opacity:0.1; fill:none" points="156.112,1448.27 2352.76,1448.27 "></polyline>
<polyline clip-path="url(#clip773)" style="stroke:#000000; stroke-linecap:round; stroke-linejoin:round; stroke-width:2; stroke-opacity:0.1; fill:none" points="156.112,1038.59 2352.76,1038.59 "></polyline>
<polyline clip-path="url(#clip773)" style="stroke:#000000; stroke-linecap:round; stroke-linejoin:round; stroke-width:2; stroke-opacity:0.1; fill:none" points="156.112,628.903 2352.76,628.903 "></polyline>
<polyline clip-path="url(#clip773)" style="stroke:#000000; stroke-linecap:round; stroke-linejoin:round; stroke-width:2; stroke-opacity:0.1; fill:none" points="156.112,219.218 2352.76,219.218 "></polyline>
<polyline clip-path="url(#clip770)" style="stroke:#000000; stroke-linecap:round; stroke-linejoin:round; stroke-width:4; stroke-opacity:1; fill:none" points="156.112,1486.45 156.112,123.472 "></polyline>
<polyline clip-path="url(#clip770)" style="stroke:#000000; stroke-linecap:round; stroke-linejoin:round; stroke-width:4; stroke-opacity:1; fill:none" points="156.112,1448.27 175.01,1448.27 "></polyline>
<polyline clip-path="url(#clip770)" style="stroke:#000000; stroke-linecap:round; stroke-linejoin:round; stroke-width:4; stroke-opacity:1; fill:none" points="156.112,1038.59 175.01,1038.59 "></polyline>
<polyline clip-path="url(#clip770)" style="stroke:#000000; stroke-linecap:round; stroke-linejoin:round; stroke-width:4; stroke-opacity:1; fill:none" points="156.112,628.903 175.01,628.903 "></polyline>
<polyline clip-path="url(#clip770)" style="stroke:#000000; stroke-linecap:round; stroke-linejoin:round; stroke-width:4; stroke-opacity:1; fill:none" points="156.112,219.218 175.01,219.218 "></polyline>
<path clip-path="url(#clip770)" d="M62.9365 1434.07 Q59.3254 1434.07 57.4967 1437.64 Q55.6912 1441.18 55.6912 1448.31 Q55.6912 1455.41 57.4967 1458.98 Q59.3254 1462.52 62.9365 1462.52 Q66.5707 1462.52 68.3763 1458.98 Q70.205 1455.41 70.205 1448.31 Q70.205 1441.18 68.3763 1437.64 Q66.5707 1434.07 62.9365 1434.07 M62.9365 1430.37 Q68.7467 1430.37 71.8022 1434.97 Q74.8809 1439.56 74.8809 1448.31 Q74.8809 1457.03 71.8022 1461.64 Q68.7467 1466.22 62.9365 1466.22 Q57.1264 1466.22 54.0477 1461.64 Q50.9921 1457.03 50.9921 1448.31 Q50.9921 1439.56 54.0477 1434.97 Q57.1264 1430.37 62.9365 1430.37 Z" fill="#000000" fill-rule="nonzero" fill-opacity="1"></path><path clip-path="url(#clip770)" d="M83.0984 1459.67 L87.9827 1459.67 L87.9827 1465.55 L83.0984 1465.55 L83.0984 1459.67 Z" fill="#000000" fill-rule="nonzero" fill-opacity="1"></path><path clip-path="url(#clip770)" d="M108.168 1434.07 Q104.557 1434.07 102.728 1437.64 Q100.922 1441.18 100.922 1448.31 Q100.922 1455.41 102.728 1458.98 Q104.557 1462.52 108.168 1462.52 Q111.802 1462.52 113.608 1458.98 Q115.436 1455.41 115.436 1448.31 Q115.436 1441.18 113.608 1437.64 Q111.802 1434.07 108.168 1434.07 M108.168 1430.37 Q113.978 1430.37 117.033 1434.97 Q120.112 1439.56 120.112 1448.31 Q120.112 1457.03 117.033 1461.64 Q113.978 1466.22 108.168 1466.22 Q102.358 1466.22 99.2789 1461.64 Q96.2234 1457.03 96.2234 1448.31 Q96.2234 1439.56 99.2789 1434.97 Q102.358 1430.37 108.168 1430.37 Z" fill="#000000" fill-rule="nonzero" fill-opacity="1"></path><path clip-path="url(#clip770)" d="M63.9319 1024.39 Q60.3208 1024.39 58.4921 1027.95 Q56.6865 1031.49 56.6865 1038.62 Q56.6865 1045.73 58.4921 1049.29 Q60.3208 1052.84 63.9319 1052.84 Q67.5661 1052.84 69.3717 1049.29 Q71.2004 1045.73 71.2004 1038.62 Q71.2004 1031.49 69.3717 1027.95 Q67.5661 1024.39 63.9319 1024.39 M63.9319 1020.68 Q69.742 1020.68 72.7976 1025.29 Q75.8763 1029.87 75.8763 1038.62 Q75.8763 1047.35 72.7976 1051.96 Q69.742 1056.54 63.9319 1056.54 Q58.1217 1056.54 55.043 1051.96 Q51.9875 1047.35 51.9875 1038.62 Q51.9875 1029.87 55.043 1025.29 Q58.1217 1020.68 63.9319 1020.68 Z" fill="#000000" fill-rule="nonzero" fill-opacity="1"></path><path clip-path="url(#clip770)" d="M84.0938 1049.99 L88.978 1049.99 L88.978 1055.87 L84.0938 1055.87 L84.0938 1049.99 Z" fill="#000000" fill-rule="nonzero" fill-opacity="1"></path><path clip-path="url(#clip770)" d="M99.2095 1021.31 L117.566 1021.31 L117.566 1025.24 L103.492 1025.24 L103.492 1033.71 Q104.51 1033.37 105.529 1033.21 Q106.547 1033.02 107.566 1033.02 Q113.353 1033.02 116.733 1036.19 Q120.112 1039.36 120.112 1044.78 Q120.112 1050.36 116.64 1053.46 Q113.168 1056.54 106.848 1056.54 Q104.672 1056.54 102.404 1056.17 Q100.159 1055.8 97.7511 1055.06 L97.7511 1050.36 Q99.8345 1051.49 102.057 1052.05 Q104.279 1052.6 106.756 1052.6 Q110.76 1052.6 113.098 1050.5 Q115.436 1048.39 115.436 1044.78 Q115.436 1041.17 113.098 1039.06 Q110.76 1036.96 106.756 1036.96 Q104.881 1036.96 103.006 1037.37 Q101.154 1037.79 99.2095 1038.67 L99.2095 1021.31 Z" fill="#000000" fill-rule="nonzero" fill-opacity="1"></path><path clip-path="url(#clip770)" d="M53.7467 642.248 L61.3856 642.248 L61.3856 615.882 L53.0754 617.549 L53.0754 613.29 L61.3393 611.623 L66.0152 611.623 L66.0152 642.248 L73.654 642.248 L73.654 646.183 L53.7467 646.183 L53.7467 642.248 Z" fill="#000000" fill-rule="nonzero" fill-opacity="1"></path><path clip-path="url(#clip770)" d="M83.0984 640.303 L87.9827 640.303 L87.9827 646.183 L83.0984 646.183 L83.0984 640.303 Z" fill="#000000" fill-rule="nonzero" fill-opacity="1"></path><path clip-path="url(#clip770)" d="M108.168 614.702 Q104.557 614.702 102.728 618.266 Q100.922 621.808 100.922 628.938 Q100.922 636.044 102.728 639.609 Q104.557 643.151 108.168 643.151 Q111.802 643.151 113.608 639.609 Q115.436 636.044 115.436 628.938 Q115.436 621.808 113.608 618.266 Q111.802 614.702 108.168 614.702 M108.168 610.998 Q113.978 610.998 117.033 615.604 Q120.112 620.188 120.112 628.938 Q120.112 637.664 117.033 642.271 Q113.978 646.854 108.168 646.854 Q102.358 646.854 99.2789 642.271 Q96.2234 637.664 96.2234 628.938 Q96.2234 620.188 99.2789 615.604 Q102.358 610.998 108.168 610.998 Z" fill="#000000" fill-rule="nonzero" fill-opacity="1"></path><path clip-path="url(#clip770)" d="M54.7421 232.563 L62.381 232.563 L62.381 206.198 L54.0708 207.864 L54.0708 203.605 L62.3347 201.938 L67.0106 201.938 L67.0106 232.563 L74.6494 232.563 L74.6494 236.498 L54.7421 236.498 L54.7421 232.563 Z" fill="#000000" fill-rule="nonzero" fill-opacity="1"></path><path clip-path="url(#clip770)" d="M84.0938 230.619 L88.978 230.619 L88.978 236.498 L84.0938 236.498 L84.0938 230.619 Z" fill="#000000" fill-rule="nonzero" fill-opacity="1"></path><path clip-path="url(#clip770)" d="M99.2095 201.938 L117.566 201.938 L117.566 205.874 L103.492 205.874 L103.492 214.346 Q104.51 213.999 105.529 213.836 Q106.547 213.651 107.566 213.651 Q113.353 213.651 116.733 216.823 Q120.112 219.994 120.112 225.41 Q120.112 230.989 116.64 234.091 Q113.168 237.17 106.848 237.17 Q104.672 237.17 102.404 236.799 Q100.159 236.429 97.7511 235.688 L97.7511 230.989 Q99.8345 232.123 102.057 232.679 Q104.279 233.235 106.756 233.235 Q110.76 233.235 113.098 231.128 Q115.436 229.022 115.436 225.41 Q115.436 221.799 113.098 219.693 Q110.76 217.586 106.756 217.586 Q104.881 217.586 103.006 218.003 Q101.154 218.42 99.2095 219.299 L99.2095 201.938 Z" fill="#000000" fill-rule="nonzero" fill-opacity="1"></path><path clip-path="url(#clip770)" d="M724.365 10.0818 L759.122 10.0818 L759.122 16.9684 L732.548 16.9684 L732.548 34.7924 L756.53 34.7924 L756.53 41.6789 L732.548 41.6789 L732.548 70.5618 L724.365 70.5618 L724.365 10.0818 Z" fill="#000000" fill-rule="nonzero" fill-opacity="1"></path><path clip-path="url(#clip770)" d="M765.725 25.1917 L773.179 25.1917 L773.179 70.5618 L765.725 70.5618 L765.725 25.1917 M765.725 7.52977 L773.179 7.52977 L773.179 16.9684 L765.725 16.9684 L765.725 7.52977 Z" fill="#000000" fill-rule="nonzero" fill-opacity="1"></path><path clip-path="url(#clip770)" d="M815.065 32.1593 Q813.809 31.4301 812.311 31.106 Q810.852 30.7415 809.07 30.7415 Q802.75 30.7415 799.348 34.8734 Q795.985 38.9648 795.985 46.6615 L795.985 70.5618 L788.491 70.5618 L788.491 25.1917 L795.985 25.1917 L795.985 32.2403 Q798.335 28.1084 802.102 26.1234 Q805.87 24.098 811.257 24.098 Q812.027 24.098 812.959 24.2195 Q813.89 24.3005 815.025 24.5031 L815.065 32.1593 Z" fill="#000000" fill-rule="nonzero" fill-opacity="1"></path><path clip-path="url(#clip770)" d="M851.807 26.5285 L851.807 33.5771 Q848.647 31.9567 845.244 31.1465 Q841.842 30.3364 838.196 30.3364 Q832.646 30.3364 829.851 32.0377 Q827.096 33.7391 827.096 37.1419 Q827.096 39.7345 829.081 41.2333 Q831.066 42.6916 837.062 44.0284 L839.614 44.5955 Q847.553 46.2969 850.875 49.4161 Q854.237 52.4948 854.237 58.0445 Q854.237 64.364 849.214 68.0503 Q844.232 71.7366 835.482 71.7366 Q831.836 71.7366 827.866 71.0074 Q823.937 70.3188 819.562 68.901 L819.562 61.2043 Q823.694 63.3512 827.704 64.445 Q831.714 65.4982 835.644 65.4982 Q840.91 65.4982 843.746 63.7158 Q846.581 61.8929 846.581 58.6117 Q846.581 55.5735 844.515 53.9531 Q842.49 52.3328 835.563 50.8339 L832.97 50.2263 Q826.043 48.768 822.964 45.7703 Q819.886 42.7321 819.886 37.466 Q819.886 31.0655 824.423 27.5817 Q828.96 24.098 837.305 24.098 Q841.437 24.098 845.082 24.7056 Q848.728 25.3132 851.807 26.5285 Z" fill="#000000" fill-rule="nonzero" fill-opacity="1"></path><path clip-path="url(#clip770)" d="M873.479 12.3098 L873.479 25.1917 L888.832 25.1917 L888.832 30.9845 L873.479 30.9845 L873.479 55.614 Q873.479 61.1637 874.978 62.7436 Q876.517 64.3235 881.176 64.3235 L888.832 64.3235 L888.832 70.5618 L881.176 70.5618 Q872.547 70.5618 869.266 67.3616 Q865.985 64.1209 865.985 55.614 L865.985 30.9845 L860.516 30.9845 L860.516 25.1917 L865.985 25.1917 L865.985 12.3098 L873.479 12.3098 Z" fill="#000000" fill-rule="nonzero" fill-opacity="1"></path><path clip-path="url(#clip770)" d="M950.851 37.9521 Q956.725 39.2078 960.007 43.1777 Q963.328 47.1476 963.328 52.9809 Q963.328 61.9334 957.171 66.835 Q951.014 71.7366 939.671 71.7366 Q935.863 71.7366 931.812 70.9669 Q927.802 70.2378 923.508 68.7389 L923.508 60.8397 Q926.911 62.8246 930.962 63.8373 Q935.012 64.8501 939.428 64.8501 Q947.125 64.8501 951.135 61.8119 Q955.186 58.7737 955.186 52.9809 Q955.186 47.6337 951.419 44.6361 Q947.692 41.5979 941.008 41.5979 L933.959 41.5979 L933.959 34.8734 L941.332 34.8734 Q947.368 34.8734 950.568 32.4833 Q953.768 30.0528 953.768 25.5158 Q953.768 20.8572 950.446 18.3862 Q947.165 15.8746 941.008 15.8746 Q937.646 15.8746 933.797 16.6038 Q929.949 17.333 925.331 18.8723 L925.331 11.5807 Q929.989 10.2844 934.04 9.63624 Q938.132 8.9881 941.737 8.9881 Q951.054 8.9881 956.482 13.2415 Q961.91 17.4545 961.91 24.6651 Q961.91 29.6882 959.034 33.172 Q956.158 36.6153 950.851 37.9521 Z" fill="#000000" fill-rule="nonzero" fill-opacity="1"></path><path clip-path="url(#clip770)" d="M996.343 41.8409 Q990.51 41.8409 987.148 44.9601 Q983.826 48.0793 983.826 53.548 Q983.826 59.0168 987.148 62.136 Q990.51 65.2552 996.343 65.2552 Q1002.18 65.2552 1005.54 62.136 Q1008.9 58.9763 1008.9 53.548 Q1008.9 48.0793 1005.54 44.9601 Q1002.22 41.8409 996.343 41.8409 M988.16 38.3572 Q982.894 37.0609 979.937 33.4556 Q977.02 29.8503 977.02 24.6651 Q977.02 17.414 982.165 13.201 Q987.35 8.9881 996.343 8.9881 Q1005.38 8.9881 1010.52 13.201 Q1015.67 17.414 1015.67 24.6651 Q1015.67 29.8503 1012.71 33.4556 Q1009.79 37.0609 1004.57 38.3572 Q1010.48 39.7345 1013.76 43.7449 Q1017.08 47.7553 1017.08 53.548 Q1017.08 62.3385 1011.7 67.0376 Q1006.35 71.7366 996.343 71.7366 Q986.337 71.7366 980.95 67.0376 Q975.602 62.3385 975.602 53.548 Q975.602 47.7553 978.924 43.7449 Q982.246 39.7345 988.16 38.3572 M985.163 25.4348 Q985.163 30.1338 988.079 32.7669 Q991.036 35.4 996.343 35.4 Q1001.61 35.4 1004.57 32.7669 Q1007.56 30.1338 1007.56 25.4348 Q1007.56 20.7357 1004.57 18.1026 Q1001.61 15.4695 996.343 15.4695 Q991.036 15.4695 988.079 18.1026 Q985.163 20.7357 985.163 25.4348 Z" fill="#000000" fill-rule="nonzero" fill-opacity="1"></path><path clip-path="url(#clip770)" d="M1057.27 10.0818 L1095.51 10.0818 L1095.51 16.9684 L1065.45 16.9684 L1065.45 34.8734 L1094.25 34.8734 L1094.25 41.7599 L1065.45 41.7599 L1065.45 63.6753 L1096.24 63.6753 L1096.24 70.5618 L1057.27 70.5618 L1057.27 10.0818 Z" fill="#000000" fill-rule="nonzero" fill-opacity="1"></path><path clip-path="url(#clip770)" d="M1109.36 25.1917 L1116.82 25.1917 L1116.82 70.5618 L1109.36 70.5618 L1109.36 25.1917 M1109.36 7.52977 L1116.82 7.52977 L1116.82 16.9684 L1109.36 16.9684 L1109.36 7.52977 Z" fill="#000000" fill-rule="nonzero" fill-opacity="1"></path><path clip-path="url(#clip770)" d="M1162.27 47.3502 Q1162.27 39.2484 1158.91 34.7924 Q1155.58 30.3364 1149.55 30.3364 Q1143.55 30.3364 1140.19 34.7924 Q1136.87 39.2484 1136.87 47.3502 Q1136.87 55.4115 1140.19 59.8675 Q1143.55 64.3235 1149.55 64.3235 Q1155.58 64.3235 1158.91 59.8675 Q1162.27 55.4115 1162.27 47.3502 M1169.72 64.9311 Q1169.72 76.5167 1164.58 82.1474 Q1159.43 87.8187 1148.82 87.8187 Q1144.89 87.8187 1141.41 87.2111 Q1137.92 86.6439 1134.64 85.4287 L1134.64 78.1775 Q1137.92 79.9599 1141.12 80.8106 Q1144.32 81.6613 1147.64 81.6613 Q1154.98 81.6613 1158.62 77.813 Q1162.27 74.0051 1162.27 66.2679 L1162.27 62.5816 Q1159.96 66.592 1156.35 68.5769 Q1152.75 70.5618 1147.73 70.5618 Q1139.38 70.5618 1134.28 64.2019 Q1129.17 57.842 1129.17 47.3502 Q1129.17 36.8178 1134.28 30.4579 Q1139.38 24.098 1147.73 24.098 Q1152.75 24.098 1156.35 26.0829 Q1159.96 28.0679 1162.27 32.0783 L1162.27 25.1917 L1169.72 25.1917 L1169.72 64.9311 Z" fill="#000000" fill-rule="nonzero" fill-opacity="1"></path><path clip-path="url(#clip770)" d="M1223.88 46.0134 L1223.88 49.6592 L1189.61 49.6592 Q1190.1 57.3559 1194.23 61.4068 Q1198.4 65.4172 1205.82 65.4172 Q1210.11 65.4172 1214.12 64.364 Q1218.17 63.3107 1222.14 61.2043 L1222.14 68.2528 Q1218.13 69.9542 1213.92 70.8454 Q1209.7 71.7366 1205.37 71.7366 Q1194.51 71.7366 1188.15 65.4172 Q1181.83 59.0978 1181.83 48.3224 Q1181.83 37.1824 1187.83 30.6604 Q1193.87 24.098 1204.07 24.098 Q1213.23 24.098 1218.54 30.0123 Q1223.88 35.8861 1223.88 46.0134 M1216.43 43.8259 Q1216.35 37.709 1212.99 34.0632 Q1209.66 30.4174 1204.15 30.4174 Q1197.92 30.4174 1194.15 33.9417 Q1190.42 37.466 1189.85 43.8664 L1216.43 43.8259 Z" fill="#000000" fill-rule="nonzero" fill-opacity="1"></path><path clip-path="url(#clip770)" d="M1273.83 43.1777 L1273.83 70.5618 L1266.38 70.5618 L1266.38 43.4208 Q1266.38 36.9798 1263.86 33.7796 Q1261.35 30.5794 1256.33 30.5794 Q1250.29 30.5794 1246.81 34.4278 Q1243.33 38.2761 1243.33 44.9196 L1243.33 70.5618 L1235.83 70.5618 L1235.83 25.1917 L1243.33 25.1917 L1243.33 32.2403 Q1246 28.1489 1249.61 26.1234 Q1253.25 24.098 1257.99 24.098 Q1265.81 24.098 1269.82 28.9591 Q1273.83 33.7796 1273.83 43.1777 Z" fill="#000000" fill-rule="nonzero" fill-opacity="1"></path><path clip-path="url(#clip770)" d="M1283.35 25.1917 L1291.25 25.1917 L1305.43 63.2702 L1319.61 25.1917 L1327.5 25.1917 L1310.49 70.5618 L1300.36 70.5618 L1283.35 25.1917 Z" fill="#000000" fill-rule="nonzero" fill-opacity="1"></path><path clip-path="url(#clip770)" d="M1358.41 47.7553 Q1349.38 47.7553 1345.9 49.8212 Q1342.41 51.8872 1342.41 56.8698 Q1342.41 60.8397 1345 63.1892 Q1347.64 65.4982 1352.13 65.4982 Q1358.33 65.4982 1362.06 61.1232 Q1365.83 56.7078 1365.83 49.4161 L1365.83 47.7553 L1358.41 47.7553 M1373.28 44.6766 L1373.28 70.5618 L1365.83 70.5618 L1365.83 63.6753 Q1363.27 67.8072 1359.47 69.7922 Q1355.66 71.7366 1350.15 71.7366 Q1343.18 71.7366 1339.05 67.8477 Q1334.96 63.9184 1334.96 57.3559 Q1334.96 49.6997 1340.06 45.8108 Q1345.21 41.922 1355.37 41.922 L1365.83 41.922 L1365.83 41.1928 Q1365.83 36.0481 1362.42 33.253 Q1359.06 30.4174 1352.94 30.4174 Q1349.06 30.4174 1345.37 31.3491 Q1341.68 32.2808 1338.28 34.1442 L1338.28 27.2577 Q1342.37 25.6778 1346.22 24.9082 Q1350.07 24.098 1353.71 24.098 Q1363.56 24.098 1368.42 29.2021 Q1373.28 34.3063 1373.28 44.6766 Z" fill="#000000" fill-rule="nonzero" fill-opacity="1"></path><path clip-path="url(#clip770)" d="M1388.63 7.52977 L1396.09 7.52977 L1396.09 70.5618 L1388.63 70.5618 L1388.63 7.52977 Z" fill="#000000" fill-rule="nonzero" fill-opacity="1"></path><path clip-path="url(#clip770)" d="M1410.91 52.6568 L1410.91 25.1917 L1418.37 25.1917 L1418.37 52.3733 Q1418.37 58.8142 1420.88 62.0549 Q1423.39 65.2552 1428.41 65.2552 Q1434.45 65.2552 1437.93 61.4068 Q1441.46 57.5584 1441.46 50.915 L1441.46 25.1917 L1448.91 25.1917 L1448.91 70.5618 L1441.46 70.5618 L1441.46 63.5943 Q1438.74 67.7262 1435.14 69.7517 Q1431.57 71.7366 1426.83 71.7366 Q1419.01 71.7366 1414.96 66.8755 Q1410.91 62.0144 1410.91 52.6568 M1429.67 24.098 L1429.67 24.098 Z" fill="#000000" fill-rule="nonzero" fill-opacity="1"></path><path clip-path="url(#clip770)" d="M1503.07 46.0134 L1503.07 49.6592 L1468.8 49.6592 Q1469.29 57.3559 1473.42 61.4068 Q1477.59 65.4172 1485 65.4172 Q1489.3 65.4172 1493.31 64.364 Q1497.36 63.3107 1501.33 61.2043 L1501.33 68.2528 Q1497.32 69.9542 1493.11 70.8454 Q1488.89 71.7366 1484.56 71.7366 Q1473.7 71.7366 1467.34 65.4172 Q1461.02 59.0978 1461.02 48.3224 Q1461.02 37.1824 1467.02 30.6604 Q1473.05 24.098 1483.26 24.098 Q1492.42 24.098 1497.72 30.0123 Q1503.07 35.8861 1503.07 46.0134 M1495.62 43.8259 Q1495.54 37.709 1492.17 34.0632 Q1488.85 30.4174 1483.34 30.4174 Q1477.1 30.4174 1473.34 33.9417 Q1469.61 37.466 1469.04 43.8664 L1495.62 43.8259 Z" fill="#000000" fill-rule="nonzero" fill-opacity="1"></path><path clip-path="url(#clip770)" d="M1544.23 26.5285 L1544.23 33.5771 Q1541.07 31.9567 1537.67 31.1465 Q1534.26 30.3364 1530.62 30.3364 Q1525.07 30.3364 1522.27 32.0377 Q1519.52 33.7391 1519.52 37.1419 Q1519.52 39.7345 1521.5 41.2333 Q1523.49 42.6916 1529.48 44.0284 L1532.03 44.5955 Q1539.97 46.2969 1543.3 49.4161 Q1546.66 52.4948 1546.66 58.0445 Q1546.66 64.364 1541.64 68.0503 Q1536.65 71.7366 1527.9 71.7366 Q1524.26 71.7366 1520.29 71.0074 Q1516.36 70.3188 1511.98 68.901 L1511.98 61.2043 Q1516.11 63.3512 1520.13 64.445 Q1524.14 65.4982 1528.06 65.4982 Q1533.33 65.4982 1536.17 63.7158 Q1539 61.8929 1539 58.6117 Q1539 55.5735 1536.94 53.9531 Q1534.91 52.3328 1527.98 50.8339 L1525.39 50.2263 Q1518.46 48.768 1515.39 45.7703 Q1512.31 42.7321 1512.31 37.466 Q1512.31 31.0655 1516.84 27.5817 Q1521.38 24.098 1529.73 24.098 Q1533.86 24.098 1537.5 24.7056 Q1541.15 25.3132 1544.23 26.5285 Z" fill="#000000" fill-rule="nonzero" fill-opacity="1"></path><path clip-path="url(#clip770)" d="M1602.48 30.4174 Q1596.48 30.4174 1593 35.1164 Q1589.52 39.775 1589.52 47.9173 Q1589.52 56.0596 1592.96 60.7587 Q1596.44 65.4172 1602.48 65.4172 Q1608.43 65.4172 1611.92 60.7181 Q1615.4 56.0191 1615.4 47.9173 Q1615.4 39.856 1611.92 35.1569 Q1608.43 30.4174 1602.48 30.4174 M1602.48 24.098 Q1612.2 24.098 1617.75 30.4174 Q1623.3 36.7368 1623.3 47.9173 Q1623.3 59.0573 1617.75 65.4172 Q1612.2 71.7366 1602.48 71.7366 Q1592.72 71.7366 1587.17 65.4172 Q1581.66 59.0573 1581.66 47.9173 Q1581.66 36.7368 1587.17 30.4174 Q1592.72 24.098 1602.48 24.098 Z" fill="#000000" fill-rule="nonzero" fill-opacity="1"></path><path clip-path="url(#clip770)" d="M1658.63 7.52977 L1658.63 13.7277 L1651.5 13.7277 Q1647.49 13.7277 1645.91 15.348 Q1644.37 16.9684 1644.37 21.1813 L1644.37 25.1917 L1656.64 25.1917 L1656.64 30.9845 L1644.37 30.9845 L1644.37 70.5618 L1636.87 70.5618 L1636.87 30.9845 L1629.74 30.9845 L1629.74 25.1917 L1636.87 25.1917 L1636.87 22.032 Q1636.87 14.4568 1640.4 11.0136 Q1643.92 7.52977 1651.58 7.52977 L1658.63 7.52977 Z" fill="#000000" fill-rule="nonzero" fill-opacity="1"></path><path clip-path="url(#clip770)" d="M1743.02 12.2341 L1737.73 33.6305 Q1737.36 34.9832 1737.11 35.1471 Q1736.91 35.3111 1736.25 35.3111 Q1734.98 35.3111 1734.98 34.4503 Q1734.98 34.3683 1735.1 33.3026 Q1735.23 32.1959 1735.23 30.1874 Q1735.23 22.7683 1731.62 18.3825 Q1728.05 13.9966 1721.7 13.9966 Q1715.76 13.9966 1710.06 17.1118 Q1704.36 20.227 1700.71 24.8178 Q1697.64 28.5888 1695.51 33.1796 Q1693.42 37.7704 1692.56 41.7874 Q1691.7 45.7633 1691.37 48.1817 Q1691.08 50.6001 1691.08 52.1577 Q1691.08 56.7485 1692.56 60.3145 Q1694.03 63.8396 1696.49 65.8481 Q1698.99 67.8566 1701.86 68.8403 Q1704.77 69.824 1707.93 69.824 Q1709.12 69.824 1710.55 69.6601 Q1711.99 69.4961 1714.2 68.8813 Q1716.45 68.2664 1718.3 67.2417 Q1720.18 66.217 1721.82 64.2495 Q1723.5 62.282 1724.16 59.6587 Q1725.92 52.9774 1725.92 51.9937 Q1725.92 51.1739 1725.43 50.887 Q1724.94 50.6001 1723.3 50.3951 L1718.87 50.2312 Q1718.79 50.2312 1718.67 50.2312 Q1717.89 50.2312 1717.56 50.2312 Q1717.23 50.1902 1716.86 50.1082 Q1716.54 50.0262 1716.41 49.8623 Q1716.33 49.6573 1716.33 49.3294 Q1716.33 48.5506 1716.66 48.1817 Q1716.99 47.7718 1717.27 47.7308 Q1717.56 47.6488 1718.09 47.6488 L1729.86 47.8948 Q1730.8 47.8948 1734.24 47.7718 Q1737.69 47.6488 1738.67 47.6488 Q1739.78 47.6488 1739.78 48.5506 Q1739.78 50.2312 1738.42 50.2312 Q1737.07 50.2722 1736.38 50.3131 Q1735.68 50.3131 1734.98 50.5181 Q1734.33 50.723 1734.08 50.887 Q1733.83 51.01 1733.51 51.6248 Q1733.18 52.1986 1733.06 52.6905 Q1732.93 53.1414 1732.65 54.2891 Q1732.48 55.0269 1732.07 56.4205 Q1731.7 57.8142 1731.54 58.552 L1729.94 65.0283 Q1728.83 69.824 1728.51 70.152 Q1728.34 70.4799 1727.93 70.4799 Q1727.32 70.4799 1726 68.6763 Q1724.73 66.8728 1724.16 65.2742 Q1723.14 66.3809 1722.48 67.0368 Q1721.82 67.6516 1720.31 68.6353 Q1718.83 69.6191 1716.86 70.3979 Q1712.07 72.4064 1706.37 72.4064 Q1696.21 72.4064 1689.81 65.971 Q1683.42 59.4947 1683.42 49.4114 Q1683.42 42.2792 1686.7 35.2701 Q1689.98 28.2609 1695.18 23.0553 Q1700.39 17.8496 1707.27 14.6115 Q1714.16 11.3733 1721.05 11.3733 Q1723.67 11.3733 1726 12.0701 Q1728.34 12.767 1729.73 13.6277 Q1731.17 14.4885 1732.44 15.7592 Q1733.71 16.9889 1734.12 17.5627 Q1734.57 18.1366 1734.98 18.8334 L1740.84 12.3981 Q1741.87 11.3733 1742.11 11.3733 Q1742.61 11.3733 1742.81 11.6603 Q1743.02 11.9472 1743.02 12.2341 Z" fill="#000000" fill-rule="nonzero" fill-opacity="1"></path><path clip-path="url(#clip770)" d="M1751.39 87.7283 Q1751.39 85.9781 1752.4 85.146 Q1753.4 84.3139 1754.69 84.3139 Q1756.04 84.3139 1756.99 85.2034 Q1757.96 86.0642 1757.96 87.5849 Q1757.96 89.2203 1756.82 90.1385 Q1755.7 91.0567 1754.09 90.8271 Q1755.5 93.1799 1758.08 94.2415 Q1760.69 95.3032 1763.1 95.3032 Q1765.62 95.3032 1767.66 93.1225 Q1769.73 90.9419 1769.73 85.6051 Q1769.73 81.0717 1767.95 78.4607 Q1766.2 75.8496 1762.73 75.8496 L1760.14 75.8496 Q1759.25 75.8496 1759 75.7636 Q1758.74 75.6775 1758.74 75.1897 Q1758.74 74.6159 1759.63 74.5011 Q1760.52 74.5011 1761.92 74.3289 Q1765.34 74.2142 1767.14 71.2588 Q1768.78 68.5044 1768.78 64.5735 Q1768.78 60.9869 1767.06 59.4949 Q1765.37 57.9742 1763.16 57.9742 Q1761.09 57.9742 1758.82 58.835 Q1756.56 59.6958 1755.32 61.6182 Q1758.97 61.6182 1758.97 64.5735 Q1758.97 65.8647 1758.14 66.7254 Q1757.33 67.5575 1755.98 67.5575 Q1754.69 67.5575 1753.83 66.7541 Q1752.97 65.922 1752.97 64.5161 Q1752.97 61.1591 1755.95 58.835 Q1758.97 56.5109 1763.39 56.5109 Q1767.75 56.5109 1770.96 58.8063 Q1774.2 61.1017 1774.2 64.6309 Q1774.2 68.1027 1771.91 70.9432 Q1769.61 73.7838 1765.97 74.9602 Q1770.44 75.8496 1773.11 78.8911 Q1775.78 81.9038 1775.78 85.6051 Q1775.78 90.1959 1772.17 93.5816 Q1768.55 96.9386 1763.27 96.9386 Q1758.39 96.9386 1754.89 94.2989 Q1751.39 91.6592 1751.39 87.7283 Z" fill="#000000" fill-rule="nonzero" fill-opacity="1"></path><circle clip-path="url(#clip773)" cx="218.281" cy="1447.87" r="7.2" fill="#009af9" fill-rule="evenodd" fill-opacity="1" stroke="#000000" stroke-opacity="1" stroke-width="3.2"></circle>
<circle clip-path="url(#clip773)" cx="274.29" cy="1377.25" r="7.2" fill="#009af9" fill-rule="evenodd" fill-opacity="1" stroke="#000000" stroke-opacity="1" stroke-width="3.2"></circle>
<circle clip-path="url(#clip773)" cx="330.298" cy="1353.33" r="7.2" fill="#009af9" fill-rule="evenodd" fill-opacity="1" stroke="#000000" stroke-opacity="1" stroke-width="3.2"></circle>
<circle clip-path="url(#clip773)" cx="386.306" cy="1265.69" r="7.2" fill="#009af9" fill-rule="evenodd" fill-opacity="1" stroke="#000000" stroke-opacity="1" stroke-width="3.2"></circle>
<circle clip-path="url(#clip773)" cx="442.314" cy="1261.54" r="7.2" fill="#009af9" fill-rule="evenodd" fill-opacity="1" stroke="#000000" stroke-opacity="1" stroke-width="3.2"></circle>
<circle clip-path="url(#clip773)" cx="498.323" cy="1248.81" r="7.2" fill="#009af9" fill-rule="evenodd" fill-opacity="1" stroke="#000000" stroke-opacity="1" stroke-width="3.2"></circle>
<circle clip-path="url(#clip773)" cx="554.331" cy="1248.36" r="7.2" fill="#009af9" fill-rule="evenodd" fill-opacity="1" stroke="#000000" stroke-opacity="1" stroke-width="3.2"></circle>
<circle clip-path="url(#clip773)" cx="610.339" cy="1235.21" r="7.2" fill="#009af9" fill-rule="evenodd" fill-opacity="1" stroke="#000000" stroke-opacity="1" stroke-width="3.2"></circle>
<circle clip-path="url(#clip773)" cx="666.347" cy="1227.4" r="7.2" fill="#009af9" fill-rule="evenodd" fill-opacity="1" stroke="#000000" stroke-opacity="1" stroke-width="3.2"></circle>
<circle clip-path="url(#clip773)" cx="722.356" cy="1221.7" r="7.2" fill="#009af9" fill-rule="evenodd" fill-opacity="1" stroke="#000000" stroke-opacity="1" stroke-width="3.2"></circle>
<circle clip-path="url(#clip773)" cx="778.364" cy="1219.64" r="7.2" fill="#009af9" fill-rule="evenodd" fill-opacity="1" stroke="#000000" stroke-opacity="1" stroke-width="3.2"></circle>
<circle clip-path="url(#clip773)" cx="834.372" cy="1212.35" r="7.2" fill="#009af9" fill-rule="evenodd" fill-opacity="1" stroke="#000000" stroke-opacity="1" stroke-width="3.2"></circle>
<circle clip-path="url(#clip773)" cx="890.38" cy="1207.48" r="7.2" fill="#009af9" fill-rule="evenodd" fill-opacity="1" stroke="#000000" stroke-opacity="1" stroke-width="3.2"></circle>
<circle clip-path="url(#clip773)" cx="946.389" cy="1193.96" r="7.2" fill="#009af9" fill-rule="evenodd" fill-opacity="1" stroke="#000000" stroke-opacity="1" stroke-width="3.2"></circle>
<circle clip-path="url(#clip773)" cx="1002.4" cy="1191.7" r="7.2" fill="#009af9" fill-rule="evenodd" fill-opacity="1" stroke="#000000" stroke-opacity="1" stroke-width="3.2"></circle>
<circle clip-path="url(#clip773)" cx="1058.41" cy="1188.79" r="7.2" fill="#009af9" fill-rule="evenodd" fill-opacity="1" stroke="#000000" stroke-opacity="1" stroke-width="3.2"></circle>
<circle clip-path="url(#clip773)" cx="1114.41" cy="1177.8" r="7.2" fill="#009af9" fill-rule="evenodd" fill-opacity="1" stroke="#000000" stroke-opacity="1" stroke-width="3.2"></circle>
<circle clip-path="url(#clip773)" cx="1170.42" cy="1170.57" r="7.2" fill="#009af9" fill-rule="evenodd" fill-opacity="1" stroke="#000000" stroke-opacity="1" stroke-width="3.2"></circle>
<circle clip-path="url(#clip773)" cx="1226.43" cy="1161.04" r="7.2" fill="#009af9" fill-rule="evenodd" fill-opacity="1" stroke="#000000" stroke-opacity="1" stroke-width="3.2"></circle>
<circle clip-path="url(#clip773)" cx="1282.44" cy="1149.06" r="7.2" fill="#009af9" fill-rule="evenodd" fill-opacity="1" stroke="#000000" stroke-opacity="1" stroke-width="3.2"></circle>
<circle clip-path="url(#clip773)" cx="1338.45" cy="1147.58" r="7.2" fill="#009af9" fill-rule="evenodd" fill-opacity="1" stroke="#000000" stroke-opacity="1" stroke-width="3.2"></circle>
<circle clip-path="url(#clip773)" cx="1394.45" cy="1146.58" r="7.2" fill="#009af9" fill-rule="evenodd" fill-opacity="1" stroke="#000000" stroke-opacity="1" stroke-width="3.2"></circle>
<circle clip-path="url(#clip773)" cx="1450.46" cy="1137.95" r="7.2" fill="#009af9" fill-rule="evenodd" fill-opacity="1" stroke="#000000" stroke-opacity="1" stroke-width="3.2"></circle>
<circle clip-path="url(#clip773)" cx="1506.47" cy="1128.74" r="7.2" fill="#009af9" fill-rule="evenodd" fill-opacity="1" stroke="#000000" stroke-opacity="1" stroke-width="3.2"></circle>
<circle clip-path="url(#clip773)" cx="1562.48" cy="1127.2" r="7.2" fill="#009af9" fill-rule="evenodd" fill-opacity="1" stroke="#000000" stroke-opacity="1" stroke-width="3.2"></circle>
<circle clip-path="url(#clip773)" cx="1618.49" cy="1106.66" r="7.2" fill="#009af9" fill-rule="evenodd" fill-opacity="1" stroke="#000000" stroke-opacity="1" stroke-width="3.2"></circle>
<circle clip-path="url(#clip773)" cx="1674.5" cy="1101.53" r="7.2" fill="#009af9" fill-rule="evenodd" fill-opacity="1" stroke="#000000" stroke-opacity="1" stroke-width="3.2"></circle>
<circle clip-path="url(#clip773)" cx="1730.5" cy="1090.4" r="7.2" fill="#009af9" fill-rule="evenodd" fill-opacity="1" stroke="#000000" stroke-opacity="1" stroke-width="3.2"></circle>
<circle clip-path="url(#clip773)" cx="1786.51" cy="1060.89" r="7.2" fill="#009af9" fill-rule="evenodd" fill-opacity="1" stroke="#000000" stroke-opacity="1" stroke-width="3.2"></circle>
<circle clip-path="url(#clip773)" cx="1842.52" cy="1046.43" r="7.2" fill="#009af9" fill-rule="evenodd" fill-opacity="1" stroke="#000000" stroke-opacity="1" stroke-width="3.2"></circle>
<circle clip-path="url(#clip773)" cx="1898.53" cy="1019.43" r="7.2" fill="#009af9" fill-rule="evenodd" fill-opacity="1" stroke="#000000" stroke-opacity="1" stroke-width="3.2"></circle>
<circle clip-path="url(#clip773)" cx="1954.54" cy="967.184" r="7.2" fill="#009af9" fill-rule="evenodd" fill-opacity="1" stroke="#000000" stroke-opacity="1" stroke-width="3.2"></circle>
<circle clip-path="url(#clip773)" cx="2010.55" cy="941.765" r="7.2" fill="#009af9" fill-rule="evenodd" fill-opacity="1" stroke="#000000" stroke-opacity="1" stroke-width="3.2"></circle>
<circle clip-path="url(#clip773)" cx="2066.55" cy="900.899" r="7.2" fill="#009af9" fill-rule="evenodd" fill-opacity="1" stroke="#000000" stroke-opacity="1" stroke-width="3.2"></circle>
<circle clip-path="url(#clip773)" cx="2122.56" cy="841.292" r="7.2" fill="#009af9" fill-rule="evenodd" fill-opacity="1" stroke="#000000" stroke-opacity="1" stroke-width="3.2"></circle>
<circle clip-path="url(#clip773)" cx="2178.57" cy="712.941" r="7.2" fill="#009af9" fill-rule="evenodd" fill-opacity="1" stroke="#000000" stroke-opacity="1" stroke-width="3.2"></circle>
<circle clip-path="url(#clip773)" cx="2234.58" cy="568.723" r="7.2" fill="#009af9" fill-rule="evenodd" fill-opacity="1" stroke="#000000" stroke-opacity="1" stroke-width="3.2"></circle>
<circle clip-path="url(#clip773)" cx="2290.59" cy="162.047" r="7.2" fill="#009af9" fill-rule="evenodd" fill-opacity="1" stroke="#000000" stroke-opacity="1" stroke-width="3.2"></circle>
</svg>