<svg xmlns="http://www.w3.org/2000/svg" xmlns:xlink="http://www.w3.org/1999/xlink" width="600" height="400" viewBox="0 0 2400 1600">
<defs>
  <clipPath id="clip610">
    <rect x="0" y="0" width="2400" height="1600"></rect>
  </clipPath>
</defs>
<path clip-path="url(#clip610)" d="M0 1600 L2400 1600 L2400 0 L0 0  Z" fill="#ffffff" fill-rule="evenodd" fill-opacity="1"></path>
<defs>
  <clipPath id="clip611">
    <rect x="480" y="0" width="1681" height="1600"></rect>
  </clipPath>
</defs>
<defs>
  <clipPath id="clip612">
    <rect x="334" y="123" width="2020" height="1364"></rect>
  </clipPath>
</defs>
<path clip-path="url(#clip610)" d="M112.177 1486.45 L2352.76 1486.45 L2352.76 123.472 L112.177 123.472  Z" fill="#ffffff" fill-rule="evenodd" fill-opacity="1"></path>
<defs>
  <clipPath id="clip613">
    <rect x="112" y="123" width="2242" height="1364"></rect>
  </clipPath>
</defs>
<polyline clip-path="url(#clip613)" style="stroke:#000000; stroke-linecap:round; stroke-linejoin:round; stroke-width:2; stroke-opacity:0.1; fill:none" points="118.461,1486.45 118.461,123.472 "></polyline>
<polyline clip-path="url(#clip613)" style="stroke:#000000; stroke-linecap:round; stroke-linejoin:round; stroke-width:2; stroke-opacity:0.1; fill:none" points="689.746,1486.45 689.746,123.472 "></polyline>
<polyline clip-path="url(#clip613)" style="stroke:#000000; stroke-linecap:round; stroke-linejoin:round; stroke-width:2; stroke-opacity:0.1; fill:none" points="1261.03,1486.45 1261.03,123.472 "></polyline>
<polyline clip-path="url(#clip613)" style="stroke:#000000; stroke-linecap:round; stroke-linejoin:round; stroke-width:2; stroke-opacity:0.1; fill:none" points="1832.32,1486.45 1832.32,123.472 "></polyline>
<polyline clip-path="url(#clip610)" style="stroke:#000000; stroke-linecap:round; stroke-linejoin:round; stroke-width:4; stroke-opacity:1; fill:none" points="112.177,1486.45 2352.76,1486.45 "></polyline>
<polyline clip-path="url(#clip610)" style="stroke:#000000; stroke-linecap:round; stroke-linejoin:round; stroke-width:4; stroke-opacity:1; fill:none" points="118.461,1486.45 118.461,1467.55 "></polyline>
<polyline clip-path="url(#clip610)" style="stroke:#000000; stroke-linecap:round; stroke-linejoin:round; stroke-width:4; stroke-opacity:1; fill:none" points="689.746,1486.45 689.746,1467.55 "></polyline>
<polyline clip-path="url(#clip610)" style="stroke:#000000; stroke-linecap:round; stroke-linejoin:round; stroke-width:4; stroke-opacity:1; fill:none" points="1261.03,1486.45 1261.03,1467.55 "></polyline>
<polyline clip-path="url(#clip610)" style="stroke:#000000; stroke-linecap:round; stroke-linejoin:round; stroke-width:4; stroke-opacity:1; fill:none" points="1832.32,1486.45 1832.32,1467.55 "></polyline>
<path clip-path="url(#clip610)" d="M118.461 1517.37 Q114.85 1517.37 113.022 1520.93 Q111.216 1524.47 111.216 1531.6 Q111.216 1538.71 113.022 1542.27 Q114.85 1545.82 118.461 1545.82 Q122.096 1545.82 123.901 1542.27 Q125.73 1538.71 125.73 1531.6 Q125.73 1524.47 123.901 1520.93 Q122.096 1517.37 118.461 1517.37 M118.461 1513.66 Q124.271 1513.66 127.327 1518.27 Q130.406 1522.85 130.406 1531.6 Q130.406 1540.33 127.327 1544.94 Q124.271 1549.52 118.461 1549.52 Q112.651 1549.52 109.572 1544.94 Q106.517 1540.33 106.517 1531.6 Q106.517 1522.85 109.572 1518.27 Q112.651 1513.66 118.461 1513.66 Z" fill="#000000" fill-rule="nonzero" fill-opacity="1"></path><path clip-path="url(#clip610)" d="M664.434 1544.91 L672.073 1544.91 L672.073 1518.55 L663.762 1520.21 L663.762 1515.95 L672.026 1514.29 L676.702 1514.29 L676.702 1544.91 L684.341 1544.91 L684.341 1548.85 L664.434 1548.85 L664.434 1544.91 Z" fill="#000000" fill-rule="nonzero" fill-opacity="1"></path><path clip-path="url(#clip610)" d="M703.785 1517.37 Q700.174 1517.37 698.346 1520.93 Q696.54 1524.47 696.54 1531.6 Q696.54 1538.71 698.346 1542.27 Q700.174 1545.82 703.785 1545.82 Q707.42 1545.82 709.225 1542.27 Q711.054 1538.71 711.054 1531.6 Q711.054 1524.47 709.225 1520.93 Q707.42 1517.37 703.785 1517.37 M703.785 1513.66 Q709.595 1513.66 712.651 1518.27 Q715.73 1522.85 715.73 1531.6 Q715.73 1540.33 712.651 1544.94 Q709.595 1549.52 703.785 1549.52 Q697.975 1549.52 694.896 1544.94 Q691.841 1540.33 691.841 1531.6 Q691.841 1522.85 694.896 1518.27 Q697.975 1513.66 703.785 1513.66 Z" fill="#000000" fill-rule="nonzero" fill-opacity="1"></path><path clip-path="url(#clip610)" d="M1239.8 1544.91 L1256.12 1544.91 L1256.12 1548.85 L1234.18 1548.85 L1234.18 1544.91 Q1236.84 1542.16 1241.42 1537.53 Q1246.03 1532.88 1247.21 1531.53 Q1249.46 1529.01 1250.34 1527.27 Q1251.24 1525.51 1251.24 1523.82 Q1251.24 1521.07 1249.29 1519.33 Q1247.37 1517.6 1244.27 1517.6 Q1242.07 1517.6 1239.62 1518.36 Q1237.19 1519.13 1234.41 1520.68 L1234.41 1515.95 Q1237.23 1514.82 1239.69 1514.24 Q1242.14 1513.66 1244.18 1513.66 Q1249.55 1513.66 1252.74 1516.35 Q1255.94 1519.03 1255.94 1523.52 Q1255.94 1525.65 1255.13 1527.57 Q1254.34 1529.47 1252.23 1532.07 Q1251.66 1532.74 1248.55 1535.95 Q1245.45 1539.15 1239.8 1544.91 Z" fill="#000000" fill-rule="nonzero" fill-opacity="1"></path><path clip-path="url(#clip610)" d="M1275.94 1517.37 Q1272.33 1517.37 1270.5 1520.93 Q1268.69 1524.47 1268.69 1531.6 Q1268.69 1538.71 1270.5 1542.27 Q1272.33 1545.82 1275.94 1545.82 Q1279.57 1545.82 1281.38 1542.27 Q1283.21 1538.71 1283.21 1531.6 Q1283.21 1524.47 1281.38 1520.93 Q1279.57 1517.37 1275.94 1517.37 M1275.94 1513.66 Q1281.75 1513.66 1284.8 1518.27 Q1287.88 1522.85 1287.88 1531.6 Q1287.88 1540.33 1284.8 1544.94 Q1281.75 1549.52 1275.94 1549.52 Q1270.13 1549.52 1267.05 1544.94 Q1263.99 1540.33 1263.99 1531.6 Q1263.99 1522.85 1267.05 1518.27 Q1270.13 1513.66 1275.94 1513.66 Z" fill="#000000" fill-rule="nonzero" fill-opacity="1"></path><path clip-path="url(#clip610)" d="M1821.16 1530.21 Q1824.51 1530.93 1826.39 1533.2 Q1828.29 1535.47 1828.29 1538.8 Q1828.29 1543.92 1824.77 1546.72 Q1821.25 1549.52 1814.77 1549.52 Q1812.59 1549.52 1810.28 1549.08 Q1807.99 1548.66 1805.53 1547.81 L1805.53 1543.29 Q1807.48 1544.43 1809.79 1545.01 Q1812.11 1545.58 1814.63 1545.58 Q1819.03 1545.58 1821.32 1543.85 Q1823.64 1542.11 1823.64 1538.8 Q1823.64 1535.75 1821.48 1534.03 Q1819.35 1532.3 1815.53 1532.3 L1811.51 1532.3 L1811.51 1528.45 L1815.72 1528.45 Q1819.17 1528.45 1821 1527.09 Q1822.82 1525.7 1822.82 1523.11 Q1822.82 1520.45 1820.93 1519.03 Q1819.05 1517.6 1815.53 1517.6 Q1813.61 1517.6 1811.41 1518.01 Q1809.21 1518.43 1806.57 1519.31 L1806.57 1515.14 Q1809.24 1514.4 1811.55 1514.03 Q1813.89 1513.66 1815.95 1513.66 Q1821.27 1513.66 1824.38 1516.09 Q1827.48 1518.5 1827.48 1522.62 Q1827.48 1525.49 1825.83 1527.48 Q1824.19 1529.45 1821.16 1530.21 Z" fill="#000000" fill-rule="nonzero" fill-opacity="1"></path><path clip-path="url(#clip610)" d="M1847.15 1517.37 Q1843.54 1517.37 1841.71 1520.93 Q1839.91 1524.47 1839.91 1531.6 Q1839.91 1538.71 1841.71 1542.27 Q1843.54 1545.82 1847.15 1545.82 Q1850.79 1545.82 1852.59 1542.27 Q1854.42 1538.71 1854.42 1531.6 Q1854.42 1524.47 1852.59 1520.93 Q1850.79 1517.37 1847.15 1517.37 M1847.15 1513.66 Q1852.96 1513.66 1856.02 1518.27 Q1859.1 1522.85 1859.1 1531.6 Q1859.1 1540.33 1856.02 1544.94 Q1852.96 1549.52 1847.15 1549.52 Q1841.34 1549.52 1838.26 1544.94 Q1835.21 1540.33 1835.21 1531.6 Q1835.21 1522.85 1838.26 1518.27 Q1841.34 1513.66 1847.15 1513.66 Z" fill="#000000" fill-rule="nonzero" fill-opacity="1"></path><polyline clip-path="url(#clip613)" style="stroke:#000000; stroke-linecap:round; stroke-linejoin:round; stroke-width:2; stroke-opacity:0.1; fill:none" points="112.177,1447.92 2352.76,1447.92 "></polyline>
<polyline clip-path="url(#clip613)" style="stroke:#000000; stroke-linecap:round; stroke-linejoin:round; stroke-width:2; stroke-opacity:0.1; fill:none" points="112.177,1133.45 2352.76,1133.45 "></polyline>
<polyline clip-path="url(#clip613)" style="stroke:#000000; stroke-linecap:round; stroke-linejoin:round; stroke-width:2; stroke-opacity:0.1; fill:none" points="112.177,818.988 2352.76,818.988 "></polyline>
<polyline clip-path="url(#clip613)" style="stroke:#000000; stroke-linecap:round; stroke-linejoin:round; stroke-width:2; stroke-opacity:0.1; fill:none" points="112.177,504.522 2352.76,504.522 "></polyline>
<polyline clip-path="url(#clip613)" style="stroke:#000000; stroke-linecap:round; stroke-linejoin:round; stroke-width:2; stroke-opacity:0.1; fill:none" points="112.177,190.055 2352.76,190.055 "></polyline>
<polyline clip-path="url(#clip610)" style="stroke:#000000; stroke-linecap:round; stroke-linejoin:round; stroke-width:4; stroke-opacity:1; fill:none" points="112.177,1486.45 112.177,123.472 "></polyline>
<polyline clip-path="url(#clip610)" style="stroke:#000000; stroke-linecap:round; stroke-linejoin:round; stroke-width:4; stroke-opacity:1; fill:none" points="112.177,1447.92 131.075,1447.92 "></polyline>
<polyline clip-path="url(#clip610)" style="stroke:#000000; stroke-linecap:round; stroke-linejoin:round; stroke-width:4; stroke-opacity:1; fill:none" points="112.177,1133.45 131.075,1133.45 "></polyline>
<polyline clip-path="url(#clip610)" style="stroke:#000000; stroke-linecap:round; stroke-linejoin:round; stroke-width:4; stroke-opacity:1; fill:none" points="112.177,818.988 131.075,818.988 "></polyline>
<polyline clip-path="url(#clip610)" style="stroke:#000000; stroke-linecap:round; stroke-linejoin:round; stroke-width:4; stroke-opacity:1; fill:none" points="112.177,504.522 131.075,504.522 "></polyline>
<polyline clip-path="url(#clip610)" style="stroke:#000000; stroke-linecap:round; stroke-linejoin:round; stroke-width:4; stroke-opacity:1; fill:none" points="112.177,190.055 131.075,190.055 "></polyline>
<path clip-path="url(#clip610)" d="M64.2328 1433.72 Q60.6217 1433.72 58.793 1437.28 Q56.9875 1440.83 56.9875 1447.95 Q56.9875 1455.06 58.793 1458.63 Q60.6217 1462.17 64.2328 1462.17 Q67.867 1462.17 69.6726 1458.63 Q71.5013 1455.06 71.5013 1447.95 Q71.5013 1440.83 69.6726 1437.28 Q67.867 1433.72 64.2328 1433.72 M64.2328 1430.02 Q70.0429 1430.02 73.0985 1434.62 Q76.1772 1439.2 76.1772 1447.95 Q76.1772 1456.68 73.0985 1461.29 Q70.0429 1465.87 64.2328 1465.87 Q58.4226 1465.87 55.344 1461.29 Q52.2884 1456.68 52.2884 1447.95 Q52.2884 1439.2 55.344 1434.62 Q58.4226 1430.02 64.2328 1430.02 Z" fill="#000000" fill-rule="nonzero" fill-opacity="1"></path><path clip-path="url(#clip610)" d="M56.2699 1146.8 L63.9087 1146.8 L63.9087 1120.43 L55.5986 1122.1 L55.5986 1117.84 L63.8624 1116.17 L68.5383 1116.17 L68.5383 1146.8 L76.1772 1146.8 L76.1772 1150.73 L56.2699 1150.73 L56.2699 1146.8 Z" fill="#000000" fill-rule="nonzero" fill-opacity="1"></path><path clip-path="url(#clip610)" d="M59.8578 832.333 L76.1772 832.333 L76.1772 836.268 L54.2328 836.268 L54.2328 832.333 Q56.8949 829.578 61.4782 824.948 Q66.0846 820.296 67.2652 818.953 Q69.5105 816.43 70.3902 814.694 Q71.2929 812.935 71.2929 811.245 Q71.2929 808.49 69.3485 806.754 Q67.4272 805.018 64.3254 805.018 Q62.1263 805.018 59.6726 805.782 Q57.2421 806.546 54.4643 808.097 L54.4643 803.375 Q57.2884 802.24 59.7421 801.662 Q62.1958 801.083 64.2328 801.083 Q69.6031 801.083 72.7976 803.768 Q75.992 806.453 75.992 810.944 Q75.992 813.074 75.1818 814.995 Q74.3948 816.893 72.2883 819.486 Q71.7096 820.157 68.6078 823.374 Q65.5059 826.569 59.8578 832.333 Z" fill="#000000" fill-rule="nonzero" fill-opacity="1"></path><path clip-path="url(#clip610)" d="M69.0476 503.167 Q72.404 503.885 74.279 506.154 Q76.1772 508.422 76.1772 511.755 Q76.1772 516.871 72.6587 519.672 Q69.1402 522.473 62.6587 522.473 Q60.4828 522.473 58.168 522.033 Q55.8764 521.616 53.4227 520.76 L53.4227 516.246 Q55.3671 517.38 57.6819 517.959 Q59.9967 518.538 62.5198 518.538 Q66.918 518.538 69.2096 516.802 Q71.5244 515.066 71.5244 511.755 Q71.5244 508.7 69.3717 506.987 Q67.242 505.251 63.4226 505.251 L59.3949 505.251 L59.3949 501.408 L63.6078 501.408 Q67.0569 501.408 68.8855 500.043 Q70.7142 498.654 70.7142 496.061 Q70.7142 493.399 68.8161 491.987 Q66.9411 490.552 63.4226 490.552 Q61.5013 490.552 59.3023 490.968 Q57.1032 491.385 54.4643 492.265 L54.4643 488.098 Q57.1264 487.357 59.4412 486.987 Q61.7791 486.617 63.8393 486.617 Q69.1633 486.617 72.2652 489.047 Q75.367 491.455 75.367 495.575 Q75.367 498.445 73.7235 500.436 Q72.08 502.404 69.0476 503.167 Z" fill="#000000" fill-rule="nonzero" fill-opacity="1"></path><path clip-path="url(#clip610)" d="M66.5939 176.85 L54.7884 195.298 L66.5939 195.298 L66.5939 176.85 M65.367 172.775 L71.2466 172.775 L71.2466 195.298 L76.1772 195.298 L76.1772 199.187 L71.2466 199.187 L71.2466 207.335 L66.5939 207.335 L66.5939 199.187 L50.9921 199.187 L50.9921 194.673 L65.367 172.775 Z" fill="#000000" fill-rule="nonzero" fill-opacity="1"></path><path clip-path="url(#clip610)" d="M704.87 10.7217 L739.627 10.7217 L739.627 17.6082 L713.053 17.6082 L713.053 35.4322 L737.034 35.4322 L737.034 42.3187 L713.053 42.3187 L713.053 71.2017 L704.87 71.2017 L704.87 10.7217 Z" fill="#000000" fill-rule="nonzero" fill-opacity="1"></path><path clip-path="url(#clip610)" d="M746.23 25.8316 L753.683 25.8316 L753.683 71.2017 L746.23 71.2017 L746.23 25.8316 M746.23 8.16962 L753.683 8.16962 L753.683 17.6082 L746.23 17.6082 L746.23 8.16962 Z" fill="#000000" fill-rule="nonzero" fill-opacity="1"></path><path clip-path="url(#clip610)" d="M795.57 32.7991 Q794.314 32.07 792.815 31.7459 Q791.357 31.3813 789.574 31.3813 Q783.255 31.3813 779.852 35.5132 Q776.49 39.6046 776.49 47.3014 L776.49 71.2017 L768.996 71.2017 L768.996 25.8316 L776.49 25.8316 L776.49 32.8801 Q778.839 28.7482 782.607 26.7633 Q786.374 24.7378 791.762 24.7378 Q792.531 24.7378 793.463 24.8593 Q794.395 24.9404 795.529 25.1429 L795.57 32.7991 Z" fill="#000000" fill-rule="nonzero" fill-opacity="1"></path><path clip-path="url(#clip610)" d="M832.311 27.1684 L832.311 34.2169 Q829.152 32.5966 825.749 31.7864 Q822.346 30.9762 818.7 30.9762 Q813.15 30.9762 810.355 32.6776 Q807.601 34.379 807.601 37.7817 Q807.601 40.3743 809.586 41.8731 Q811.571 43.3315 817.566 44.6683 L820.118 45.2354 Q828.058 46.9368 831.38 50.056 Q834.742 53.1347 834.742 58.6844 Q834.742 65.0038 829.719 68.6901 Q824.736 72.3764 815.986 72.3764 Q812.34 72.3764 808.37 71.6473 Q804.441 70.9586 800.066 69.5408 L800.066 61.8441 Q804.198 63.9911 808.208 65.0848 Q812.219 66.1381 816.148 66.1381 Q821.414 66.1381 824.25 64.3557 Q827.086 62.5328 827.086 59.2515 Q827.086 56.2133 825.02 54.593 Q822.994 52.9726 816.067 51.4738 L813.475 50.8661 Q806.548 49.4078 803.469 46.4102 Q800.39 43.372 800.39 38.1058 Q800.39 31.7054 804.927 28.2216 Q809.464 24.7378 817.809 24.7378 Q821.941 24.7378 825.587 25.3455 Q829.233 25.9531 832.311 27.1684 Z" fill="#000000" fill-rule="nonzero" fill-opacity="1"></path><path clip-path="url(#clip610)" d="M853.984 12.9497 L853.984 25.8316 L869.337 25.8316 L869.337 31.6244 L853.984 31.6244 L853.984 56.2539 Q853.984 61.8036 855.482 63.3834 Q857.022 64.9633 861.68 64.9633 L869.337 64.9633 L869.337 71.2017 L861.68 71.2017 Q853.052 71.2017 849.771 68.0015 Q846.489 64.7607 846.489 56.2539 L846.489 31.6244 L841.021 31.6244 L841.021 25.8316 L846.489 25.8316 L846.489 12.9497 L853.984 12.9497 Z" fill="#000000" fill-rule="nonzero" fill-opacity="1"></path><path clip-path="url(#clip610)" d="M931.356 38.5919 Q937.23 39.8477 940.511 43.8176 Q943.833 47.7875 943.833 53.6208 Q943.833 62.5733 937.675 67.4749 Q931.518 72.3764 920.175 72.3764 Q916.368 72.3764 912.317 71.6068 Q908.306 70.8776 904.012 69.3788 L904.012 61.4795 Q907.415 63.4645 911.466 64.4772 Q915.517 65.4899 919.932 65.4899 Q927.629 65.4899 931.639 62.4517 Q935.69 59.4136 935.69 53.6208 Q935.69 48.2736 931.923 45.2759 Q928.196 42.2377 921.512 42.2377 L914.464 42.2377 L914.464 35.5132 L921.836 35.5132 Q927.872 35.5132 931.072 33.1232 Q934.273 30.6926 934.273 26.1556 Q934.273 21.4971 930.951 19.026 Q927.67 16.5145 921.512 16.5145 Q918.15 16.5145 914.302 17.2436 Q910.453 17.9728 905.835 19.5121 L905.835 12.2205 Q910.494 10.9242 914.545 10.2761 Q918.636 9.62794 922.241 9.62794 Q931.558 9.62794 936.987 13.8814 Q942.415 18.0943 942.415 25.3049 Q942.415 30.3281 939.539 33.8118 Q936.663 37.2551 931.356 38.5919 Z" fill="#000000" fill-rule="nonzero" fill-opacity="1"></path><path clip-path="url(#clip610)" d="M976.848 42.4808 Q971.014 42.4808 967.652 45.6 Q964.33 48.7192 964.33 54.1879 Q964.33 59.6566 967.652 62.7758 Q971.014 65.895 976.848 65.895 Q982.681 65.895 986.043 62.7758 Q989.405 59.6161 989.405 54.1879 Q989.405 48.7192 986.043 45.6 Q982.721 42.4808 976.848 42.4808 M968.665 38.997 Q963.399 37.7007 960.441 34.0954 Q957.525 30.4901 957.525 25.3049 Q957.525 18.0538 962.669 13.8409 Q967.855 9.62794 976.848 9.62794 Q985.881 9.62794 991.026 13.8409 Q996.17 18.0538 996.17 25.3049 Q996.17 30.4901 993.213 34.0954 Q990.297 37.7007 985.071 38.997 Q990.985 40.3743 994.266 44.3847 Q997.588 48.3951 997.588 54.1879 Q997.588 62.9784 992.2 67.6774 Q986.853 72.3764 976.848 72.3764 Q966.842 72.3764 961.454 67.6774 Q956.107 62.9784 956.107 54.1879 Q956.107 48.3951 959.429 44.3847 Q962.75 40.3743 968.665 38.997 M965.667 26.0746 Q965.667 30.7737 968.584 33.4068 Q971.541 36.0398 976.848 36.0398 Q982.114 36.0398 985.071 33.4068 Q988.069 30.7737 988.069 26.0746 Q988.069 21.3756 985.071 18.7425 Q982.114 16.1094 976.848 16.1094 Q971.541 16.1094 968.584 18.7425 Q965.667 21.3756 965.667 26.0746 Z" fill="#000000" fill-rule="nonzero" fill-opacity="1"></path><path clip-path="url(#clip610)" d="M1037.77 10.7217 L1076.01 10.7217 L1076.01 17.6082 L1045.96 17.6082 L1045.96 35.5132 L1074.76 35.5132 L1074.76 42.3998 L1045.96 42.3998 L1045.96 64.3152 L1076.74 64.3152 L1076.74 71.2017 L1037.77 71.2017 L1037.77 10.7217 Z" fill="#000000" fill-rule="nonzero" fill-opacity="1"></path><path clip-path="url(#clip610)" d="M1089.87 25.8316 L1097.32 25.8316 L1097.32 71.2017 L1089.87 71.2017 L1089.87 25.8316 M1089.87 8.16962 L1097.32 8.16962 L1097.32 17.6082 L1089.87 17.6082 L1089.87 8.16962 Z" fill="#000000" fill-rule="nonzero" fill-opacity="1"></path><path clip-path="url(#clip610)" d="M1142.77 47.99 Q1142.77 39.8882 1139.41 35.4322 Q1136.09 30.9762 1130.05 30.9762 Q1124.06 30.9762 1120.7 35.4322 Q1117.37 39.8882 1117.37 47.99 Q1117.37 56.0513 1120.7 60.5073 Q1124.06 64.9633 1130.05 64.9633 Q1136.09 64.9633 1139.41 60.5073 Q1142.77 56.0513 1142.77 47.99 M1150.23 65.5709 Q1150.23 77.1565 1145.08 82.7873 Q1139.94 88.4585 1129.32 88.4585 Q1125.39 88.4585 1121.91 87.8509 Q1118.43 87.2838 1115.15 86.0685 L1115.15 78.8174 Q1118.43 80.5998 1121.63 81.4505 Q1124.83 82.3012 1128.15 82.3012 Q1135.48 82.3012 1139.13 78.4528 Q1142.77 74.645 1142.77 66.9077 L1142.77 63.2214 Q1140.46 67.2318 1136.86 69.2167 Q1133.25 71.2017 1128.23 71.2017 Q1119.88 71.2017 1114.78 64.8418 Q1109.68 58.4818 1109.68 47.99 Q1109.68 37.4577 1114.78 31.0977 Q1119.88 24.7378 1128.23 24.7378 Q1133.25 24.7378 1136.86 26.7228 Q1140.46 28.7077 1142.77 32.7181 L1142.77 25.8316 L1150.23 25.8316 L1150.23 65.5709 Z" fill="#000000" fill-rule="nonzero" fill-opacity="1"></path><path clip-path="url(#clip610)" d="M1204.39 46.6532 L1204.39 50.299 L1170.12 50.299 Q1170.6 57.9957 1174.73 62.0466 Q1178.91 66.057 1186.32 66.057 Q1190.61 66.057 1194.62 65.0038 Q1198.68 63.9506 1202.64 61.8441 L1202.64 68.8927 Q1198.63 70.5941 1194.42 71.4853 Q1190.21 72.3764 1185.87 72.3764 Q1175.02 72.3764 1168.66 66.057 Q1162.34 59.7376 1162.34 48.9622 Q1162.34 37.8222 1168.33 31.3003 Q1174.37 24.7378 1184.58 24.7378 Q1193.73 24.7378 1199.04 30.6521 Q1204.39 36.5259 1204.39 46.6532 M1196.93 44.4657 Q1196.85 38.3489 1193.49 34.703 Q1190.17 31.0572 1184.66 31.0572 Q1178.42 31.0572 1174.65 34.5815 Q1170.93 38.1058 1170.36 44.5062 L1196.93 44.4657 Z" fill="#000000" fill-rule="nonzero" fill-opacity="1"></path><path clip-path="url(#clip610)" d="M1254.33 43.8176 L1254.33 71.2017 L1246.88 71.2017 L1246.88 44.0606 Q1246.88 37.6197 1244.37 34.4195 Q1241.86 31.2193 1236.83 31.2193 Q1230.8 31.2193 1227.31 35.0676 Q1223.83 38.916 1223.83 45.5595 L1223.83 71.2017 L1216.34 71.2017 L1216.34 25.8316 L1223.83 25.8316 L1223.83 32.8801 Q1226.5 28.7887 1230.11 26.7633 Q1233.76 24.7378 1238.5 24.7378 Q1246.31 24.7378 1250.32 29.5989 Q1254.33 34.4195 1254.33 43.8176 Z" fill="#000000" fill-rule="nonzero" fill-opacity="1"></path><path clip-path="url(#clip610)" d="M1263.85 25.8316 L1271.75 25.8316 L1285.93 63.9101 L1300.11 25.8316 L1308.01 25.8316 L1291 71.2017 L1280.87 71.2017 L1263.85 25.8316 Z" fill="#000000" fill-rule="nonzero" fill-opacity="1"></path><path clip-path="url(#clip610)" d="M1338.92 48.3951 Q1329.88 48.3951 1326.4 50.4611 Q1322.92 52.527 1322.92 57.5096 Q1322.92 61.4795 1325.51 63.829 Q1328.14 66.1381 1332.64 66.1381 Q1338.84 66.1381 1342.56 61.7631 Q1346.33 57.3476 1346.33 50.056 L1346.33 48.3951 L1338.92 48.3951 M1353.78 45.3164 L1353.78 71.2017 L1346.33 71.2017 L1346.33 64.3152 Q1343.78 68.4471 1339.97 70.432 Q1336.16 72.3764 1330.65 72.3764 Q1323.69 72.3764 1319.55 68.4876 Q1315.46 64.5582 1315.46 57.9957 Q1315.46 50.3395 1320.57 46.4507 Q1325.71 42.5618 1335.88 42.5618 L1346.33 42.5618 L1346.33 41.8326 Q1346.33 36.688 1342.93 33.8929 Q1339.57 31.0572 1333.45 31.0572 Q1329.56 31.0572 1325.87 31.9889 Q1322.19 32.9206 1318.78 34.7841 L1318.78 27.8975 Q1322.88 26.3177 1326.72 25.548 Q1330.57 24.7378 1334.22 24.7378 Q1344.06 24.7378 1348.92 29.842 Q1353.78 34.9461 1353.78 45.3164 Z" fill="#000000" fill-rule="nonzero" fill-opacity="1"></path><path clip-path="url(#clip610)" d="M1369.14 8.16962 L1376.59 8.16962 L1376.59 71.2017 L1369.14 71.2017 L1369.14 8.16962 Z" fill="#000000" fill-rule="nonzero" fill-opacity="1"></path><path clip-path="url(#clip610)" d="M1391.42 53.2967 L1391.42 25.8316 L1398.87 25.8316 L1398.87 53.0131 Q1398.87 59.4541 1401.38 62.6948 Q1403.89 65.895 1408.92 65.895 Q1414.95 65.895 1418.44 62.0466 Q1421.96 58.1983 1421.96 51.5548 L1421.96 25.8316 L1429.41 25.8316 L1429.41 71.2017 L1421.96 71.2017 L1421.96 64.2341 Q1419.25 68.3661 1415.64 70.3915 Q1412.08 72.3764 1407.34 72.3764 Q1399.52 72.3764 1395.47 67.5154 Q1391.42 62.6543 1391.42 53.2967 M1410.17 24.7378 L1410.17 24.7378 Z" fill="#000000" fill-rule="nonzero" fill-opacity="1"></path><path clip-path="url(#clip610)" d="M1483.58 46.6532 L1483.58 50.299 L1449.3 50.299 Q1449.79 57.9957 1453.92 62.0466 Q1458.09 66.057 1465.51 66.057 Q1469.8 66.057 1473.81 65.0038 Q1477.86 63.9506 1481.83 61.8441 L1481.83 68.8927 Q1477.82 70.5941 1473.61 71.4853 Q1469.4 72.3764 1465.06 72.3764 Q1454.21 72.3764 1447.85 66.057 Q1441.53 59.7376 1441.53 48.9622 Q1441.53 37.8222 1447.52 31.3003 Q1453.56 24.7378 1463.77 24.7378 Q1472.92 24.7378 1478.23 30.6521 Q1483.58 36.5259 1483.58 46.6532 M1476.12 44.4657 Q1476.04 38.3489 1472.68 34.703 Q1469.36 31.0572 1463.85 31.0572 Q1457.61 31.0572 1453.84 34.5815 Q1450.11 38.1058 1449.55 44.5062 L1476.12 44.4657 Z" fill="#000000" fill-rule="nonzero" fill-opacity="1"></path><path clip-path="url(#clip610)" d="M1524.73 27.1684 L1524.73 34.2169 Q1521.57 32.5966 1518.17 31.7864 Q1514.77 30.9762 1511.12 30.9762 Q1505.57 30.9762 1502.78 32.6776 Q1500.02 34.379 1500.02 37.7817 Q1500.02 40.3743 1502.01 41.8731 Q1503.99 43.3315 1509.99 44.6683 L1512.54 45.2354 Q1520.48 46.9368 1523.8 50.056 Q1527.16 53.1347 1527.16 58.6844 Q1527.16 65.0038 1522.14 68.6901 Q1517.16 72.3764 1508.41 72.3764 Q1504.76 72.3764 1500.79 71.6473 Q1496.86 70.9586 1492.49 69.5408 L1492.49 61.8441 Q1496.62 63.9911 1500.63 65.0848 Q1504.64 66.1381 1508.57 66.1381 Q1513.84 66.1381 1516.67 64.3557 Q1519.51 62.5328 1519.51 59.2515 Q1519.51 56.2133 1517.44 54.593 Q1515.42 52.9726 1508.49 51.4738 L1505.9 50.8661 Q1498.97 49.4078 1495.89 46.4102 Q1492.81 43.372 1492.81 38.1058 Q1492.81 31.7054 1497.35 28.2216 Q1501.89 24.7378 1510.23 24.7378 Q1514.36 24.7378 1518.01 25.3455 Q1521.65 25.9531 1524.73 27.1684 Z" fill="#000000" fill-rule="nonzero" fill-opacity="1"></path><path clip-path="url(#clip610)" d="M1582.98 31.0572 Q1576.99 31.0572 1573.51 35.7563 Q1570.02 40.4148 1570.02 48.5571 Q1570.02 56.6995 1573.46 61.3985 Q1576.95 66.057 1582.98 66.057 Q1588.94 66.057 1592.42 61.358 Q1595.91 56.6589 1595.91 48.5571 Q1595.91 40.4958 1592.42 35.7968 Q1588.94 31.0572 1582.98 31.0572 M1582.98 24.7378 Q1592.71 24.7378 1598.26 31.0572 Q1603.81 37.3766 1603.81 48.5571 Q1603.81 59.6971 1598.26 66.057 Q1592.71 72.3764 1582.98 72.3764 Q1573.22 72.3764 1567.67 66.057 Q1562.16 59.6971 1562.16 48.5571 Q1562.16 37.3766 1567.67 31.0572 Q1573.22 24.7378 1582.98 24.7378 Z" fill="#000000" fill-rule="nonzero" fill-opacity="1"></path><path clip-path="url(#clip610)" d="M1639.13 8.16962 L1639.13 14.3675 L1632 14.3675 Q1627.99 14.3675 1626.41 15.9879 Q1624.87 17.6082 1624.87 21.8212 L1624.87 25.8316 L1637.14 25.8316 L1637.14 31.6244 L1624.87 31.6244 L1624.87 71.2017 L1617.38 71.2017 L1617.38 31.6244 L1610.25 31.6244 L1610.25 25.8316 L1617.38 25.8316 L1617.38 22.6719 Q1617.38 15.0967 1620.9 11.6534 Q1624.43 8.16962 1632.08 8.16962 L1639.13 8.16962 Z" fill="#000000" fill-rule="nonzero" fill-opacity="1"></path><path clip-path="url(#clip610)" d="M1723.52 12.8739 L1718.23 34.2703 Q1717.86 35.623 1717.62 35.787 Q1717.41 35.9509 1716.76 35.9509 Q1715.49 35.9509 1715.49 35.0901 Q1715.49 35.0082 1715.61 33.9424 Q1715.73 32.8357 1715.73 30.8272 Q1715.73 23.4082 1712.12 19.0223 Q1708.56 14.6365 1702.21 14.6365 Q1696.26 14.6365 1690.56 17.7517 Q1684.87 20.8669 1681.22 25.4577 Q1678.14 29.2287 1676.01 33.8195 Q1673.92 38.4103 1673.06 42.4272 Q1672.2 46.4032 1671.87 48.8215 Q1671.59 51.2399 1671.59 52.7975 Q1671.59 57.3883 1673.06 60.9544 Q1674.54 64.4794 1677 66.4879 Q1679.5 68.4964 1682.37 69.4801 Q1685.28 70.4639 1688.43 70.4639 Q1689.62 70.4639 1691.06 70.2999 Q1692.49 70.136 1694.7 69.5211 Q1696.96 68.9063 1698.8 67.8816 Q1700.69 66.8568 1702.33 64.8893 Q1704.01 62.9219 1704.66 60.2985 Q1706.43 53.6173 1706.43 52.6335 Q1706.43 51.8138 1705.94 51.5268 Q1705.44 51.2399 1703.8 51.035 L1699.38 50.871 Q1699.3 50.871 1699.17 50.871 Q1698.39 50.871 1698.07 50.871 Q1697.74 50.83 1697.37 50.748 Q1697.04 50.6661 1696.92 50.5021 Q1696.84 50.2972 1696.84 49.9692 Q1696.84 49.1904 1697.16 48.8215 Q1697.49 48.4116 1697.78 48.3707 Q1698.07 48.2887 1698.6 48.2887 L1710.36 48.5346 Q1711.3 48.5346 1714.75 48.4116 Q1718.19 48.2887 1719.17 48.2887 Q1720.28 48.2887 1720.28 49.1904 Q1720.28 50.871 1718.93 50.871 Q1717.58 50.912 1716.88 50.953 Q1716.18 50.953 1715.49 51.1579 Q1714.83 51.3629 1714.58 51.5268 Q1714.34 51.6498 1714.01 52.2646 Q1713.68 52.8385 1713.56 53.3304 Q1713.44 53.7812 1713.15 54.9289 Q1712.99 55.6668 1712.58 57.0604 Q1712.21 58.454 1712.04 59.1918 L1710.44 65.6681 Q1709.34 70.4639 1709.01 70.7918 Q1708.85 71.1197 1708.44 71.1197 Q1707.82 71.1197 1706.51 69.3162 Q1705.24 67.5127 1704.66 65.9141 Q1703.64 67.0208 1702.98 67.6766 Q1702.33 68.2914 1700.81 69.2752 Q1699.34 70.2589 1697.37 71.0377 Q1692.57 73.0462 1686.88 73.0462 Q1676.71 73.0462 1670.32 66.6109 Q1663.92 60.1346 1663.92 50.0512 Q1663.92 42.9191 1667.2 35.9099 Q1670.48 28.9008 1675.69 23.6951 Q1680.89 18.4895 1687.78 15.2513 Q1694.66 12.0132 1701.55 12.0132 Q1704.17 12.0132 1706.51 12.71 Q1708.85 13.4068 1710.24 14.2676 Q1711.67 15.1284 1712.94 16.399 Q1714.22 17.6287 1714.63 18.2026 Q1715.08 18.7764 1715.49 19.4732 L1721.35 13.0379 Q1722.37 12.0132 1722.62 12.0132 Q1723.11 12.0132 1723.31 12.3001 Q1723.52 12.587 1723.52 12.8739 Z" fill="#000000" fill-rule="nonzero" fill-opacity="1"></path><path clip-path="url(#clip610)" d="M1731.9 62.7458 L1731.9 60.9095 Q1738.96 60.9095 1742.6 57.1507 Q1743.6 57.1507 1743.78 57.3803 Q1743.95 57.6098 1743.95 58.6715 L1743.95 91.6391 Q1743.95 93.3894 1744.81 93.9345 Q1745.67 94.4797 1749.43 94.4797 L1751.29 94.4797 L1751.29 96.2873 Q1749.23 96.1152 1741.77 96.1152 Q1734.31 96.1152 1732.27 96.2873 L1732.27 94.4797 L1734.14 94.4797 Q1737.84 94.4797 1738.73 93.9632 Q1739.62 93.4181 1739.62 91.6391 L1739.62 61.1964 Q1736.55 62.7458 1731.9 62.7458 Z" fill="#000000" fill-rule="nonzero" fill-opacity="1"></path><circle clip-path="url(#clip613)" cx="175.59" cy="1447.87" r="7.2" fill="#009af9" fill-rule="evenodd" fill-opacity="1" stroke="#000000" stroke-opacity="1" stroke-width="3.2"></circle>
<circle clip-path="url(#clip613)" cx="232.718" cy="1406.11" r="7.2" fill="#009af9" fill-rule="evenodd" fill-opacity="1" stroke="#000000" stroke-opacity="1" stroke-width="3.2"></circle>
<circle clip-path="url(#clip613)" cx="289.847" cy="1320.6" r="7.2" fill="#009af9" fill-rule="evenodd" fill-opacity="1" stroke="#000000" stroke-opacity="1" stroke-width="3.2"></circle>
<circle clip-path="url(#clip613)" cx="346.975" cy="1267.8" r="7.2" fill="#009af9" fill-rule="evenodd" fill-opacity="1" stroke="#000000" stroke-opacity="1" stroke-width="3.2"></circle>
<circle clip-path="url(#clip613)" cx="404.104" cy="1260.36" r="7.2" fill="#009af9" fill-rule="evenodd" fill-opacity="1" stroke="#000000" stroke-opacity="1" stroke-width="3.2"></circle>
<circle clip-path="url(#clip613)" cx="461.232" cy="1250.11" r="7.2" fill="#009af9" fill-rule="evenodd" fill-opacity="1" stroke="#000000" stroke-opacity="1" stroke-width="3.2"></circle>
<circle clip-path="url(#clip613)" cx="518.361" cy="1236.97" r="7.2" fill="#009af9" fill-rule="evenodd" fill-opacity="1" stroke="#000000" stroke-opacity="1" stroke-width="3.2"></circle>
<circle clip-path="url(#clip613)" cx="575.489" cy="1228.27" r="7.2" fill="#009af9" fill-rule="evenodd" fill-opacity="1" stroke="#000000" stroke-opacity="1" stroke-width="3.2"></circle>
<circle clip-path="url(#clip613)" cx="632.618" cy="1220.94" r="7.2" fill="#009af9" fill-rule="evenodd" fill-opacity="1" stroke="#000000" stroke-opacity="1" stroke-width="3.2"></circle>
<circle clip-path="url(#clip613)" cx="689.746" cy="1198.45" r="7.2" fill="#009af9" fill-rule="evenodd" fill-opacity="1" stroke="#000000" stroke-opacity="1" stroke-width="3.2"></circle>
<circle clip-path="url(#clip613)" cx="746.875" cy="1196.47" r="7.2" fill="#009af9" fill-rule="evenodd" fill-opacity="1" stroke="#000000" stroke-opacity="1" stroke-width="3.2"></circle>
<circle clip-path="url(#clip613)" cx="804.003" cy="1186.21" r="7.2" fill="#009af9" fill-rule="evenodd" fill-opacity="1" stroke="#000000" stroke-opacity="1" stroke-width="3.2"></circle>
<circle clip-path="url(#clip613)" cx="861.131" cy="1178.65" r="7.2" fill="#009af9" fill-rule="evenodd" fill-opacity="1" stroke="#000000" stroke-opacity="1" stroke-width="3.2"></circle>
<circle clip-path="url(#clip613)" cx="918.26" cy="1173.97" r="7.2" fill="#009af9" fill-rule="evenodd" fill-opacity="1" stroke="#000000" stroke-opacity="1" stroke-width="3.2"></circle>
<circle clip-path="url(#clip613)" cx="975.388" cy="1170.4" r="7.2" fill="#009af9" fill-rule="evenodd" fill-opacity="1" stroke="#000000" stroke-opacity="1" stroke-width="3.2"></circle>
<circle clip-path="url(#clip613)" cx="1032.52" cy="1159.73" r="7.2" fill="#009af9" fill-rule="evenodd" fill-opacity="1" stroke="#000000" stroke-opacity="1" stroke-width="3.2"></circle>
<circle clip-path="url(#clip613)" cx="1089.65" cy="1141.9" r="7.2" fill="#009af9" fill-rule="evenodd" fill-opacity="1" stroke="#000000" stroke-opacity="1" stroke-width="3.2"></circle>
<circle clip-path="url(#clip613)" cx="1146.77" cy="1132.69" r="7.2" fill="#009af9" fill-rule="evenodd" fill-opacity="1" stroke="#000000" stroke-opacity="1" stroke-width="3.2"></circle>
<circle clip-path="url(#clip613)" cx="1203.9" cy="1124.4" r="7.2" fill="#009af9" fill-rule="evenodd" fill-opacity="1" stroke="#000000" stroke-opacity="1" stroke-width="3.2"></circle>
<circle clip-path="url(#clip613)" cx="1261.03" cy="1116.65" r="7.2" fill="#009af9" fill-rule="evenodd" fill-opacity="1" stroke="#000000" stroke-opacity="1" stroke-width="3.2"></circle>
<circle clip-path="url(#clip613)" cx="1318.16" cy="1103.96" r="7.2" fill="#009af9" fill-rule="evenodd" fill-opacity="1" stroke="#000000" stroke-opacity="1" stroke-width="3.2"></circle>
<circle clip-path="url(#clip613)" cx="1375.29" cy="1097.15" r="7.2" fill="#009af9" fill-rule="evenodd" fill-opacity="1" stroke="#000000" stroke-opacity="1" stroke-width="3.2"></circle>
<circle clip-path="url(#clip613)" cx="1432.42" cy="1084.91" r="7.2" fill="#009af9" fill-rule="evenodd" fill-opacity="1" stroke="#000000" stroke-opacity="1" stroke-width="3.2"></circle>
<circle clip-path="url(#clip613)" cx="1489.54" cy="1083.43" r="7.2" fill="#009af9" fill-rule="evenodd" fill-opacity="1" stroke="#000000" stroke-opacity="1" stroke-width="3.2"></circle>
<circle clip-path="url(#clip613)" cx="1546.67" cy="1071.27" r="7.2" fill="#009af9" fill-rule="evenodd" fill-opacity="1" stroke="#000000" stroke-opacity="1" stroke-width="3.2"></circle>
<circle clip-path="url(#clip613)" cx="1603.8" cy="1055.92" r="7.2" fill="#009af9" fill-rule="evenodd" fill-opacity="1" stroke="#000000" stroke-opacity="1" stroke-width="3.2"></circle>
<circle clip-path="url(#clip613)" cx="1660.93" cy="1039.92" r="7.2" fill="#009af9" fill-rule="evenodd" fill-opacity="1" stroke="#000000" stroke-opacity="1" stroke-width="3.2"></circle>
<circle clip-path="url(#clip613)" cx="1718.06" cy="1019.85" r="7.2" fill="#009af9" fill-rule="evenodd" fill-opacity="1" stroke="#000000" stroke-opacity="1" stroke-width="3.2"></circle>
<circle clip-path="url(#clip613)" cx="1775.19" cy="1004.92" r="7.2" fill="#009af9" fill-rule="evenodd" fill-opacity="1" stroke="#000000" stroke-opacity="1" stroke-width="3.2"></circle>
<circle clip-path="url(#clip613)" cx="1832.32" cy="985.64" r="7.2" fill="#009af9" fill-rule="evenodd" fill-opacity="1" stroke="#000000" stroke-opacity="1" stroke-width="3.2"></circle>
<circle clip-path="url(#clip613)" cx="1889.44" cy="983.18" r="7.2" fill="#009af9" fill-rule="evenodd" fill-opacity="1" stroke="#000000" stroke-opacity="1" stroke-width="3.2"></circle>
<circle clip-path="url(#clip613)" cx="1946.57" cy="917.927" r="7.2" fill="#009af9" fill-rule="evenodd" fill-opacity="1" stroke="#000000" stroke-opacity="1" stroke-width="3.2"></circle>
<circle clip-path="url(#clip613)" cx="2003.7" cy="869.375" r="7.2" fill="#009af9" fill-rule="evenodd" fill-opacity="1" stroke="#000000" stroke-opacity="1" stroke-width="3.2"></circle>
<circle clip-path="url(#clip613)" cx="2060.83" cy="856.776" r="7.2" fill="#009af9" fill-rule="evenodd" fill-opacity="1" stroke="#000000" stroke-opacity="1" stroke-width="3.2"></circle>
<circle clip-path="url(#clip613)" cx="2117.96" cy="762.987" r="7.2" fill="#009af9" fill-rule="evenodd" fill-opacity="1" stroke="#000000" stroke-opacity="1" stroke-width="3.2"></circle>
<circle clip-path="url(#clip613)" cx="2175.09" cy="529.769" r="7.2" fill="#009af9" fill-rule="evenodd" fill-opacity="1" stroke="#000000" stroke-opacity="1" stroke-width="3.2"></circle>
<circle clip-path="url(#clip613)" cx="2232.21" cy="508.859" r="7.2" fill="#009af9" fill-rule="evenodd" fill-opacity="1" stroke="#000000" stroke-opacity="1" stroke-width="3.2"></circle>
<circle clip-path="url(#clip613)" cx="2289.34" cy="162.047" r="7.2" fill="#009af9" fill-rule="evenodd" fill-opacity="1" stroke="#000000" stroke-opacity="1" stroke-width="3.2"></circle>
</svg>