<svg height="400" viewBox="0 0 2400 1600" width="600" xmlns="http://www.w3.org/2000/svg" xmlns:xlink="http://www.w3.org/1999/xlink"><clipPath id="a"><path d="m0 0h2400v1600h-2400z"/></clipPath><clipPath id="b"><path d="m199 123h2154v1364h-2154z"/></clipPath><path clip-path="url(#a)" d="m0 1600h2400v-1600h-2400z" fill="#fff" fill-rule="evenodd"/><path clip-path="url(#a)" d="m199.283 1486.45h2153.477v-1362.978h-2153.477z" fill="#fff" fill-rule="evenodd"/><g stroke="#000"><path d="m485.961 1486.45v-1362.978" style="stroke-linecap:round;stroke-linejoin:round;stroke-width:2;stroke-opacity:.1;fill:none;clip-path:url(#b)"/><path d="m711.692 1486.45v-1362.978" style="stroke-linecap:round;stroke-linejoin:round;stroke-width:2;stroke-opacity:.1;fill:none;clip-path:url(#b)"/><path d="m937.423 1486.45v-1362.978" style="stroke-linecap:round;stroke-linejoin:round;stroke-width:2;stroke-opacity:.1;fill:none;clip-path:url(#b)"/><path d="m1163.15 1486.45v-1362.978" style="stroke-linecap:round;stroke-linejoin:round;stroke-width:2;stroke-opacity:.1;fill:none;clip-path:url(#b)"/><path d="m1388.88 1486.45v-1362.978" style="stroke-linecap:round;stroke-linejoin:round;stroke-width:2;stroke-opacity:.1;fill:none;clip-path:url(#b)"/><path d="m1614.62 1486.45v-1362.978" style="stroke-linecap:round;stroke-linejoin:round;stroke-width:2;stroke-opacity:.1;fill:none;clip-path:url(#b)"/><path d="m1840.35 1486.45v-1362.978" style="stroke-linecap:round;stroke-linejoin:round;stroke-width:2;stroke-opacity:.1;fill:none;clip-path:url(#b)"/><path d="m2066.08 1486.45v-1362.978" style="stroke-linecap:round;stroke-linejoin:round;stroke-width:2;stroke-opacity:.1;fill:none;clip-path:url(#b)"/><path d="m2291.81 1486.45v-1362.978" style="stroke-linecap:round;stroke-linejoin:round;stroke-width:2;stroke-opacity:.1;fill:none;clip-path:url(#b)"/><path clip-path="url(#a)" d="m199.283 1486.45h2153.477" fill="none" stroke-linecap="round" stroke-linejoin="round" stroke-width="4"/><path clip-path="url(#a)" d="m485.961 1486.45v-18.9" fill="none" stroke-linecap="round" stroke-linejoin="round" stroke-width="4"/><path clip-path="url(#a)" d="m711.692 1486.45v-18.9" fill="none" stroke-linecap="round" stroke-linejoin="round" stroke-width="4"/><path clip-path="url(#a)" d="m937.423 1486.45v-18.9" fill="none" stroke-linecap="round" stroke-linejoin="round" stroke-width="4"/><path clip-path="url(#a)" d="m1163.15 1486.45v-18.9" fill="none" stroke-linecap="round" stroke-linejoin="round" stroke-width="4"/><path clip-path="url(#a)" d="m1388.88 1486.45v-18.9" fill="none" stroke-linecap="round" stroke-linejoin="round" stroke-width="4"/><path clip-path="url(#a)" d="m1614.62 1486.45v-18.9" fill="none" stroke-linecap="round" stroke-linejoin="round" stroke-width="4"/><path clip-path="url(#a)" d="m1840.35 1486.45v-18.9" fill="none" stroke-linecap="round" stroke-linejoin="round" stroke-width="4"/><path clip-path="url(#a)" d="m2066.08 1486.45v-18.9" fill="none" stroke-linecap="round" stroke-linejoin="round" stroke-width="4"/><path clip-path="url(#a)" d="m2291.81 1486.45v-18.9" fill="none" stroke-linecap="round" stroke-linejoin="round" stroke-width="4"/></g><path clip-path="url(#a)" d="m476.343 1544.91h7.639v-26.36l-8.31 1.66v-4.26l8.264-1.66h4.676v30.62h7.639v3.94h-19.908z"/><path clip-path="url(#a)" d="m706.345 1544.91h16.319v3.94h-21.944v-3.94q2.662-2.75 7.245-7.38 4.607-4.65 5.787-6 2.246-2.52 3.125-4.26.903-1.76.903-3.45 0-2.75-1.944-4.49-1.921-1.73-5.023-1.73-2.199 0-4.653.76-2.431.77-5.208 2.32v-4.73q2.824-1.13 5.277-1.71 2.454-.58 4.491-.58 5.37 0 8.565 2.69 3.194 2.68 3.194 7.17 0 2.13-.81 4.05-.787 1.9-2.893 4.5-.579.67-3.681 3.88-3.102 3.2-8.75 8.96z"/><path clip-path="url(#a)" d="m941.671 1530.21q3.356.72 5.231 2.99 1.898 2.27 1.898 5.6 0 5.12-3.518 7.92-3.519 2.8-10 2.8-2.176 0-4.491-.44-2.291-.42-4.745-1.27v-4.52q1.944 1.14 4.259 1.72 2.315.57 4.838.57 4.398 0 6.69-1.73 2.315-1.74 2.315-5.05 0-3.05-2.153-4.77-2.13-1.73-5.949-1.73h-4.028v-3.85h4.213q3.449 0 5.278-1.36 1.829-1.39 1.829-3.98 0-2.66-1.899-4.08-1.875-1.43-5.393-1.43-1.921 0-4.12.41-2.2.42-4.838 1.3v-4.17q2.662-.74 4.976-1.11 2.338-.37 4.399-.37 5.324 0 8.425 2.43 3.102 2.41 3.102 6.53 0 2.87-1.643 4.86-1.644 1.97-4.676 2.73z"/><path clip-path="url(#a)" d="m1166.16 1518.36-11.8 18.45h11.8zm-1.22-4.07h5.88v22.52h4.93v3.89h-4.93v8.15h-4.66v-8.15h-15.6v-4.51z"/><path clip-path="url(#a)" d="m1379.16 1514.29h18.36v3.93h-14.07v8.48q1.01-.35 2.03-.51 1.02-.19 2.04-.19 5.79 0 9.17 3.17 3.38 3.17 3.38 8.59 0 5.58-3.48 8.68-3.47 3.08-9.79 3.08-2.17 0-4.44-.37-2.25-.37-4.66-1.11v-4.7q2.09 1.13 4.31 1.69 2.22.55 4.7.55 4 0 6.34-2.1 2.34-2.11 2.34-5.72 0-3.61-2.34-5.72-2.34-2.1-6.34-2.1-1.88 0-3.75.41-1.85.42-3.8 1.3z"/><path clip-path="url(#a)" d="m1615.02 1529.7q-3.15 0-5 2.16-1.83 2.15-1.83 5.9 0 3.73 1.83 5.9 1.85 2.16 5 2.16 3.15 0 4.98-2.16 1.85-2.17 1.85-5.9 0-3.75-1.85-5.9-1.83-2.16-4.98-2.16m9.28-14.65v4.26q-1.76-.83-3.56-1.27-1.78-.44-3.54-.44-4.63 0-7.09 3.12-2.43 3.13-2.77 9.45 1.36-2.02 3.42-3.08 2.06-1.09 4.54-1.09 5.21 0 8.22 3.17 3.03 3.15 3.03 8.59 0 5.32-3.15 8.54-3.15 3.22-8.38 3.22-5.99 0-9.17-4.58-3.17-4.61-3.17-13.34 0-8.19 3.89-13.05 3.89-4.89 10.44-4.89 1.76 0 3.54.35 1.81.35 3.75 1.04z"/><path clip-path="url(#a)" d="m1829.24 1514.29h22.22v1.99l-12.55 32.57h-4.88l11.8-30.63h-16.59z"/><path clip-path="url(#a)" d="m2066.08 1532.44q-3.34 0-5.26 1.78-1.9 1.78-1.9 4.91 0 3.12 1.9 4.9 1.92 1.79 5.26 1.79 3.33 0 5.25-1.79 1.92-1.8 1.92-4.9 0-3.13-1.92-4.91-1.9-1.78-5.25-1.78m-4.68-1.99q-3.01-.75-4.7-2.81-1.66-2.06-1.66-5.02 0-4.14 2.94-6.55 2.96-2.41 8.1-2.41 5.16 0 8.1 2.41 2.94 2.41 2.94 6.55 0 2.96-1.69 5.02-1.67 2.06-4.65 2.81 3.38.78 5.25 3.07 1.9 2.3 1.9 5.61 0 5.02-3.08 7.7-3.05 2.69-8.77 2.69-5.72 0-8.8-2.69-3.05-2.68-3.05-7.7 0-3.31 1.89-5.61 1.9-2.29 5.28-3.07m-1.71-7.39q0 2.69 1.67 4.19 1.69 1.51 4.72 1.51 3.01 0 4.7-1.51 1.71-1.5 1.71-4.19 0-2.68-1.71-4.19-1.69-1.5-4.7-1.5-3.03 0-4.72 1.5-1.67 1.51-1.67 4.19z"/><path clip-path="url(#a)" d="m2282.11 1548.13v-4.26q1.76.83 3.56 1.27 1.81.44 3.55.44 4.63 0 7.06-3.1 2.45-3.12 2.8-9.47-1.35 2-3.41 3.06-2.06 1.06-4.56 1.06-5.18 0-8.21-3.12-3.01-3.15-3.01-8.59 0-5.32 3.15-8.54 3.14-3.22 8.38-3.22 5.99 0 9.14 4.61 3.17 4.58 3.17 13.33 0 8.17-3.89 13.06-3.86 4.86-10.42 4.86-1.75 0-3.56-.35-1.81-.35-3.75-1.04m9.31-14.65q3.14 0 4.97-2.16 1.85-2.15 1.85-5.9 0-3.72-1.85-5.88-1.83-2.17-4.97-2.17-3.15 0-5 2.17-1.83 2.16-1.83 5.88 0 3.75 1.83 5.9 1.85 2.16 5 2.16z"/><path d="m199.283 1407.73h2153.477" style="stroke:#000;stroke-linecap:round;stroke-linejoin:round;stroke-width:2;stroke-opacity:.1;fill:none;clip-path:url(#b)"/><path d="m199.283 1167.05h2153.477" style="stroke:#000;stroke-linecap:round;stroke-linejoin:round;stroke-width:2;stroke-opacity:.1;fill:none;clip-path:url(#b)"/><path d="m199.283 926.368h2153.477" style="stroke:#000;stroke-linecap:round;stroke-linejoin:round;stroke-width:2;stroke-opacity:.1;fill:none;clip-path:url(#b)"/><path d="m199.283 685.686h2153.477" style="stroke:#000;stroke-linecap:round;stroke-linejoin:round;stroke-width:2;stroke-opacity:.1;fill:none;clip-path:url(#b)"/><path d="m199.283 445.004h2153.477" style="stroke:#000;stroke-linecap:round;stroke-linejoin:round;stroke-width:2;stroke-opacity:.1;fill:none;clip-path:url(#b)"/><path d="m199.283 204.322h2153.477" style="stroke:#000;stroke-linecap:round;stroke-linejoin:round;stroke-width:2;stroke-opacity:.1;fill:none;clip-path:url(#b)"/><path d="m199.283 1486.45v-1362.978" style="stroke:#000;stroke-linecap:round;stroke-linejoin:round;stroke-width:4;fill:none;clip-path:url(#a)"/><path d="m199.283 1407.73h18.898" style="stroke:#000;stroke-linecap:round;stroke-linejoin:round;stroke-width:4;fill:none;clip-path:url(#a)"/><path d="m199.283 1167.05h18.898" style="stroke:#000;stroke-linecap:round;stroke-linejoin:round;stroke-width:4;fill:none;clip-path:url(#a)"/><path d="m199.283 926.368h18.898" style="stroke:#000;stroke-linecap:round;stroke-linejoin:round;stroke-width:4;fill:none;clip-path:url(#a)"/><path d="m199.283 685.686h18.898" style="stroke:#000;stroke-linecap:round;stroke-linejoin:round;stroke-width:4;fill:none;clip-path:url(#a)"/><path d="m199.283 445.004h18.898" style="stroke:#000;stroke-linecap:round;stroke-linejoin:round;stroke-width:4;fill:none;clip-path:url(#a)"/><path d="m199.283 204.322h18.898" style="stroke:#000;stroke-linecap:round;stroke-linejoin:round;stroke-width:4;fill:none;clip-path:url(#a)"/><path clip-path="url(#a)" d="m81.0614 1390.45h18.3564v3.94h-14.074v8.47q1.0185-.35 2.037-.51 1.0185-.18 2.037-.18 5.7871 0 9.1667 3.17 3.3795 3.17 3.3795 8.58 0 5.58-3.4721 8.69-3.4722 3.07-9.7916 3.07-2.176 0-4.4445-.37-2.2453-.37-4.6527-1.11v-4.7q2.0833 1.14 4.3055 1.69 2.2222.56 4.6991.56 4.0046 0 6.3425-2.11 2.338-2.1 2.338-5.72 0-3.61-2.338-5.71-2.3379-2.11-6.3425-2.11-1.875 0-3.75.42-1.8519.41-3.7963 1.29z"/><path clip-path="url(#a)" d="m121.177 1393.53q-3.611 0-5.44 3.57-1.805 3.54-1.805 10.67 0 7.1 1.805 10.67 1.829 3.54 5.44 3.54 3.634 0 5.44-3.54 1.828-3.57 1.828-10.67 0-7.13-1.828-10.67-1.806-3.57-5.44-3.57m0-3.7q5.81 0 8.866 4.6 3.078 4.59 3.078 13.34 0 8.72-3.078 13.33-3.056 4.58-8.866 4.58-5.81 0-8.889-4.58-3.055-4.61-3.055-13.33 0-8.75 3.055-13.34 3.079-4.6 8.889-4.6z"/><path clip-path="url(#a)" d="m151.339 1393.53q-3.611 0-5.44 3.57-1.806 3.54-1.806 10.67 0 7.1 1.806 10.67 1.829 3.54 5.44 3.54 3.634 0 5.44-3.54 1.828-3.57 1.828-10.67 0-7.13-1.828-10.67-1.806-3.57-5.44-3.57m0-3.7q5.81 0 8.866 4.6 3.078 4.59 3.078 13.34 0 8.72-3.078 13.33-3.056 4.58-8.866 4.58-5.81 0-8.889-4.58-3.056-4.61-3.056-13.33 0-8.75 3.056-13.34 3.079-4.6 8.889-4.6z"/><path clip-path="url(#a)" d="m91.5938 1165.19q-3.1482 0-5 2.15-1.8287 2.15-1.8287 5.9 0 3.73 1.8287 5.91 1.8518 2.15 5 2.15 3.1481 0 4.9768-2.15 1.8518-2.18 1.8518-5.91 0-3.75-1.8518-5.9-1.8287-2.15-4.9768-2.15m9.2822-14.66v4.26q-1.7591-.83-3.5647-1.27-1.7824-.44-3.5416-.44-4.6296 0-7.0833 3.13-2.4306 3.12-2.7778 9.44 1.3657-2.01 3.4259-3.08 2.0602-1.09 4.537-1.09 5.2083 0 8.2175 3.17 3.032 3.15 3.032 8.59 0 5.33-3.1477 8.54-3.1481 3.22-8.3795 3.22-5.9954 0-9.1667-4.58-3.1712-4.61-3.1712-13.33 0-8.2 3.8888-13.06 3.8889-4.88 10.4398-4.88 1.7592 0 3.5416.34 1.8056.35 3.7499 1.04z"/><path clip-path="url(#a)" d="m121.177 1152.85q-3.611 0-5.44 3.56-1.805 3.55-1.805 10.68 0 7.1 1.805 10.67 1.829 3.54 5.44 3.54 3.634 0 5.44-3.54 1.828-3.57 1.828-10.67 0-7.13-1.828-10.68-1.806-3.56-5.44-3.56m0-3.7q5.81 0 8.866 4.6 3.078 4.59 3.078 13.34 0 8.72-3.078 13.33-3.056 4.58-8.866 4.58-5.81 0-8.889-4.58-3.055-4.61-3.055-13.33 0-8.75 3.055-13.34 3.079-4.6 8.889-4.6z"/><path clip-path="url(#a)" d="m151.339 1152.85q-3.611 0-5.44 3.56-1.806 3.55-1.806 10.68 0 7.1 1.806 10.67 1.829 3.54 5.44 3.54 3.634 0 5.44-3.54 1.828-3.57 1.828-10.67 0-7.13-1.828-10.68-1.806-3.56-5.44-3.56m0-3.7q5.81 0 8.866 4.6 3.078 4.59 3.078 13.34 0 8.72-3.078 13.33-3.056 4.58-8.866 4.58-5.81 0-8.889-4.58-3.056-4.61-3.056-13.33 0-8.75 3.056-13.34 3.079-4.6 8.889-4.6z"/><path clip-path="url(#a)" d="m79.8346 909.088h22.2224v1.991l-12.5466 32.569h-4.8842l11.8055-30.624h-16.5971z"/><path clip-path="url(#a)" d="m121.177 912.167q-3.611 0-5.44 3.565-1.805 3.542-1.805 10.671 0 7.107 1.805 10.671 1.829 3.542 5.44 3.542 3.634 0 5.44-3.542 1.828-3.564 1.828-10.671 0-7.129-1.828-10.671-1.806-3.565-5.44-3.565m0-3.704q5.81 0 8.866 4.607 3.078 4.583 3.078 13.333 0 8.727-3.078 13.333-3.056 4.584-8.866 4.584-5.81 0-8.889-4.584-3.055-4.606-3.055-13.333 0-8.75 3.055-13.333 3.079-4.607 8.889-4.607z"/><path clip-path="url(#a)" d="m151.339 912.167q-3.611 0-5.44 3.565-1.806 3.542-1.806 10.671 0 7.107 1.806 10.671 1.829 3.542 5.44 3.542 3.634 0 5.44-3.542 1.828-3.564 1.828-10.671 0-7.129-1.828-10.671-1.806-3.565-5.44-3.565m0-3.704q5.81 0 8.866 4.607 3.078 4.583 3.078 13.333 0 8.727-3.078 13.333-3.056 4.584-8.866 4.584-5.81 0-8.889-4.584-3.056-4.606-3.056-13.333 0-8.75 3.056-13.333 3.079-4.607 8.889-4.607z"/><path clip-path="url(#a)" d="m91.0151 686.554q-3.3334 0-5.2546 1.783-1.8982 1.782-1.8982 4.907 0 3.125 1.8982 4.907 1.9212 1.783 5.2546 1.783 3.3333 0 5.2546-1.783 1.9212-1.805 1.9212-4.907 0-3.125-1.9212-4.907-1.8982-1.783-5.2546-1.783m-4.6759-1.99q-3.0093-.741-4.6991-2.801-1.6666-2.06-1.6666-5.023 0-4.144 2.9398-6.551 2.9629-2.408 8.1018-2.408 5.162 0 8.1018 2.408 2.9401 2.407 2.9401 6.551 0 2.963-1.69 5.023-1.6668 2.06-4.6529 2.801 3.3796.787 5.2549 3.078 1.898 2.292 1.898 5.602 0 5.023-3.0788 7.708-3.0556 2.686-8.7731 2.686-5.7176 0-8.7963-2.686-3.0555-2.685-3.0555-7.708 0-3.31 1.8981-5.602 1.8981-2.291 5.2778-3.078m-1.713-7.385q0 2.686 1.6667 4.19 1.6898 1.505 4.7222 1.505 3.0092 0 4.699-1.505 1.713-1.504 1.713-4.19 0-2.685-1.713-4.189-1.6898-1.505-4.699-1.505-3.0324 0-4.7222 1.505-1.6667 1.504-1.6667 4.189z"/><path clip-path="url(#a)" d="m121.177 671.485q-3.611 0-5.44 3.565-1.805 3.541-1.805 10.671 0 7.106 1.805 10.671 1.829 3.542 5.44 3.542 3.634 0 5.44-3.542 1.828-3.565 1.828-10.671 0-7.13-1.828-10.671-1.806-3.565-5.44-3.565m0-3.704q5.81 0 8.866 4.607 3.078 4.583 3.078 13.333 0 8.727-3.078 13.333-3.056 4.584-8.866 4.584-5.81 0-8.889-4.584-3.055-4.606-3.055-13.333 0-8.75 3.055-13.333 3.079-4.607 8.889-4.607z"/><path clip-path="url(#a)" d="m151.339 671.485q-3.611 0-5.44 3.565-1.806 3.541-1.806 10.671 0 7.106 1.806 10.671 1.829 3.542 5.44 3.542 3.634 0 5.44-3.542 1.828-3.565 1.828-10.671 0-7.13-1.828-10.671-1.806-3.565-5.44-3.565m0-3.704q5.81 0 8.866 4.607 3.078 4.583 3.078 13.333 0 8.727-3.078 13.333-3.056 4.584-8.866 4.584-5.81 0-8.889-4.584-3.056-4.606-3.056-13.333 0-8.75 3.056-13.333 3.079-4.607 8.889-4.607z"/><path clip-path="url(#a)" d="m81.154 461.567v-4.26q1.7593.834 3.5648 1.273 1.8055.44 3.5416.44 4.6296 0 7.0602-3.102 2.4537-3.125 2.8009-9.467-1.3426 1.991-3.4028 3.055-2.0601 1.065-4.5601 1.065-5.1852 0-8.2176-3.125-3.0092-3.148-3.0092-8.588 0-5.324 3.1481-8.541 3.1482-3.218 8.3796-3.218 5.9953 0 9.1435 4.607 3.171 4.583 3.171 13.333 0 8.171-3.8886 13.055-3.8657 4.861-10.4166 4.861-1.7593 0-3.5648-.347-1.8056-.347-3.75-1.041m9.3055-14.653q3.1481 0 4.9768-2.153 1.8519-2.153 1.8519-5.903 0-3.727-1.8519-5.879-1.8287-2.176-4.9768-2.176-3.1481 0-5 2.176-1.8287 2.152-1.8287 5.879 0 3.75 1.8287 5.903 1.8519 2.153 5 2.153z"/><path clip-path="url(#a)" d="m121.177 430.803q-3.611 0-5.44 3.565-1.805 3.541-1.805 10.671 0 7.106 1.805 10.671 1.829 3.542 5.44 3.542 3.634 0 5.44-3.542 1.828-3.565 1.828-10.671 0-7.13-1.828-10.671-1.806-3.565-5.44-3.565m0-3.704q5.81 0 8.866 4.607 3.078 4.583 3.078 13.333 0 8.727-3.078 13.333-3.056 4.583-8.866 4.583-5.81 0-8.889-4.583-3.055-4.606-3.055-13.333 0-8.75 3.055-13.333 3.079-4.607 8.889-4.607z"/><path clip-path="url(#a)" d="m151.339 430.803q-3.611 0-5.44 3.565-1.806 3.541-1.806 10.671 0 7.106 1.806 10.671 1.829 3.542 5.44 3.542 3.634 0 5.44-3.542 1.828-3.565 1.828-10.671 0-7.13-1.828-10.671-1.806-3.565-5.44-3.565m0-3.704q5.81 0 8.866 4.607 3.078 4.583 3.078 13.333 0 8.727-3.078 13.333-3.056 4.583-8.866 4.583-5.81 0-8.889-4.583-3.056-4.606-3.056-13.333 0-8.75 3.056-13.333 3.079-4.607 8.889-4.607z"/><path clip-path="url(#a)" d="m51.6634 217.667h7.6389v-26.366l-8.3102 1.667v-4.259l8.2639-1.667h4.6759v30.625h7.6388v3.935h-19.9073z"/><path clip-path="url(#a)" d="m91.0151 190.121q-3.6111 0-5.4398 3.564-1.8056 3.542-1.8056 10.672 0 7.106 1.8056 10.671 1.8287 3.542 5.4398 3.542 3.6342 0 5.4397-3.542 1.8287-3.565 1.8287-10.671 0-7.13-1.8287-10.672-1.8055-3.564-5.4397-3.564m0-3.704q5.8101 0 8.8657 4.606 3.0782 4.584 3.0782 13.334 0 8.726-3.0782 13.333-3.0556 4.583-8.8657 4.583-5.8102 0-8.8889-4.583-3.0555-4.607-3.0555-13.333 0-8.75 3.0555-13.334 3.0787-4.606 8.8889-4.606z"/><path clip-path="url(#a)" d="m121.177 190.121q-3.611 0-5.44 3.564-1.805 3.542-1.805 10.672 0 7.106 1.805 10.671 1.829 3.542 5.44 3.542 3.634 0 5.44-3.542 1.828-3.565 1.828-10.671 0-7.13-1.828-10.672-1.806-3.564-5.44-3.564m0-3.704q5.81 0 8.866 4.606 3.078 4.584 3.078 13.334 0 8.726-3.078 13.333-3.056 4.583-8.866 4.583-5.81 0-8.889-4.583-3.055-4.607-3.055-13.333 0-8.75 3.055-13.334 3.079-4.606 8.889-4.606z"/><path clip-path="url(#a)" d="m151.339 190.121q-3.611 0-5.44 3.564-1.806 3.542-1.806 10.672 0 7.106 1.806 10.671 1.829 3.542 5.44 3.542 3.634 0 5.44-3.542 1.828-3.565 1.828-10.671 0-7.13-1.828-10.672-1.806-3.564-5.44-3.564m0-3.704q5.81 0 8.866 4.606 3.078 4.584 3.078 13.334 0 8.726-3.078 13.333-3.056 4.583-8.866 4.583-5.81 0-8.889-4.583-3.056-4.607-3.056-13.333 0-8.75 3.056-13.334 3.079-4.606 8.889-4.606z"/><path clip-path="url(#a)" d="m814.532 19.9496-1.68 14.5103q-.123 1.3116-.328 1.7215-.205.3689-.861.3689-.492 0-.779-.2869-.246-.3279-.246-.6968 0-.205.041-.7378.041-.5329.041-.7788.369-2.5414.369-4.4679 0-3.566-1.066-5.4925-1.065-1.9675-3.812-2.8693-2.746-.9427-7.911-.9427h-11.805q-2.705 0-3.361.4918-.614.4919-1.188 2.7873l-5.042 20.2077h7.911q2.951 0 4.714-.3689 1.803-.3689 2.992-1.3936 1.23-1.0657 1.885-2.5004.697-1.4346 1.394-4.0169.205-.8608.41-1.1887.246-.3279.779-.3279.41 0 .697.2869.286.2459.286.6148l-4.795 19.6339q-.246.9838-.492 1.3527-.246.3279-.738.3279-.533 0-.82-.287-.287-.2869-.287-.6148 0-.3279.246-.9427.615-2.6644.615-4.099 0-.8198-.082-1.2297-.041-.4098-.41-.9837-.328-.6148-1.065-.9018-.738-.2869-2.132-.4918-1.394-.246-3.484-.246h-8.28l-5.738 22.913q-.41 1.5166-.41 1.9265 0 .4509.205.6149.246.1229.901.2049.738.123 1.845.123h12.256q2.705 0 4.878-.2459 2.172-.246 3.975-.8608 1.845-.6149 3.239-1.3117 1.393-.6968 2.705-1.9675 1.312-1.3116 2.213-2.4593.943-1.1887 2.05-3.1972 1.107-2.0085 1.885-3.648.779-1.6806 1.968-4.3859.328-.9837 1.106-.9837.451 0 .697.2459.246.205.287.4099v.2459q-.246.7788-.41 1.1887l-7.706 18.1173q-.451 1.0247-.819 1.2297-.369.2049-1.804.2049h-43.572q-.983 0-1.393-.041-.369-.041-.656-.2459-.287-.2459-.287-.7378 0-.7788.328-1.1067.328-.3689.697-.4099.369-.041 1.311-.041 2.05 0 3.28-.123 1.229-.1229 2.008-.2869.82-.205 1.23-.7788.451-.5739.656-1.0657.205-.5329.491-1.7216l11.068-44.3914q.409-1.5166.409-2.0084 0-.5329-.368-.8608-.328-.3279-1.23-.4509-.902-.1639-1.64-.1639-.697-.041-2.213-.041-.984 0-1.394-.041-.369-.041-.656-.246-.287-.2049-.287-.6558 0-1.1477.492-1.3936.533-.287 2.009-.287h42.383q1.68 0 2.049.369.41.3279.246 1.9264z"/><path clip-path="url(#a)" d="m852.213 43.1086q0 2.1724-1.435 3.5661-1.394 1.3936-3.197 1.3936-1.558 0-2.377-.9018-.82-.9017-.82-2.0494 0-1.6396 1.27-2.9923 1.271-1.3526 3.116-1.6395-1.353-.9838-3.526-.9838-3.566 0-6.722 2.7463-1.393 1.2707-2.91 3.6071-1.517 2.2954-1.804 3.2791l-2.664 10.9442q-.246 1.2296-1.762 7.1321-1.476 5.8615-1.599 6.1074-.41 1.1477-1.312 1.7625-.901.6149-1.803.6149-1.025 0-1.722-.6149-.696-.6148-.696-1.6805 0-.164.122-.7788.123-.6149.328-1.4756.205-.8608.287-1.3527l4.878-19.3879q.902-3.5251 1.107-4.6318.246-1.1477.246-2.4184 0-2.2134-.697-3.0332-.697-.8198-1.927-.8198-2.131 0-3.525 2.5414-1.393 2.5413-2.582 7.46-.369 1.3527-.615 1.6396-.205.2869-.82.2869-1.024-.041-1.024-.8608 0-.2049.328-1.5166.327-1.3526.942-3.3201.656-2.0085 1.353-3.2791.41-.8608.779-1.4347.369-.5738 1.106-1.4756.738-.9017 1.845-1.3936 1.107-.4919 2.459-.4919 2.952 0 5.042 1.8035 2.131 1.8036 2.623 4.6318 1.025-1.4756 2.296-2.7462 1.27-1.3117 3.607-2.5004 2.336-1.1887 4.836-1.1887 3.116 0 5.042 1.5986 1.927 1.5576 1.927 3.853z"/><path clip-path="url(#a)" d="m891.496 43.1086q0 2.1724-1.435 3.5661-1.393 1.3936-3.197 1.3936-1.558 0-2.377-.9018-.82-.9017-.82-2.0494 0-1.6396 1.27-2.9923 1.271-1.3526 3.116-1.6395-1.353-.9838-3.525-.9838-3.566 0-6.723 2.7463-1.393 1.2707-2.91 3.6071-1.516 2.2954-1.803 3.2791l-2.665 10.9442q-.246 1.2296-1.762 7.1321-1.476 5.8615-1.599 6.1074-.41 1.1477-1.311 1.7625-.902.6149-1.804.6149-1.025 0-1.722-.6149-.696-.6148-.696-1.6805 0-.164.123-.7788.123-.6149.328-1.4756.204-.8608.286-1.3527l4.878-19.3879q.902-3.5251 1.107-4.6318.246-1.1477.246-2.4184 0-2.2134-.697-3.0332-.697-.8198-1.927-.8198-2.131 0-3.525 2.5414-1.393 2.5413-2.582 7.46-.369 1.3527-.615 1.6396-.205.2869-.82.2869-1.024-.041-1.024-.8608 0-.2049.328-1.5166.328-1.3526.942-3.3201.656-2.0085 1.353-3.2791.41-.8608.779-1.4347.369-.5738 1.107-1.4756.737-.9017 1.844-1.3936 1.107-.4919 2.459-.4919 2.952 0 5.042 1.8035 2.132 1.8036 2.623 4.6318 1.025-1.4756 2.296-2.7462 1.27-1.3117 3.607-2.5004 2.336-1.1887 4.837-1.1887 3.115 0 5.041 1.5986 1.927 1.5576 1.927 3.853z"/><path clip-path="url(#a)" d="m933.721 51.8393q0 4.4678-1.967 8.8947-1.968 4.3858-5.124 7.665-3.115 3.2381-7.214 5.2876-4.099 2.0085-8.198 2.0085-5.861 0-9.673-3.976-3.771-4.0169-3.771-10.2473 0-5.8205 3.238-11.354 3.279-5.5746 8.526-9.0177 5.246-3.4431 10.739-3.4431 5.779 0 9.591 3.894 3.853 3.894 3.853 10.2883m-6.148-3.2791q0-3.976-1.926-6.5173-1.927-2.5414-5.452-2.5414-1.025 0-2.213.3279-1.189.287-2.747 1.0658-1.516.7788-3.238 2.4183-1.68 1.5986-3.156 3.894-1.927 3.0332-3.402 8.6078-1.435 5.5335-1.435 8.8537 0 4.5907 2.132 6.8861 2.131 2.2545 5.164 2.2545 2.952 0 6.067-2.0495 3.156-2.0905 5.328-5.6565 2.173-3.6891 3.525-9.0996 1.353-5.4516 1.353-8.4438z"/><path clip-path="url(#a)" d="m970.591 43.1086q0 2.1724-1.435 3.5661-1.394 1.3936-3.197 1.3936-1.558 0-2.377-.9018-.82-.9017-.82-2.0494 0-1.6396 1.27-2.9923 1.271-1.3526 3.116-1.6395-1.353-.9838-3.525-.9838-3.567 0-6.723 2.7463-1.393 1.2707-2.91 3.6071-1.517 2.2954-1.803 3.2791l-2.665 10.9442q-.246 1.2296-1.762 7.1321-1.476 5.8615-1.599 6.1074-.41 1.1477-1.312 1.7625-.901.6149-1.803.6149-1.025 0-1.722-.6149-.696-.6148-.696-1.6805 0-.164.123-.7788.122-.6149.327-1.4756.205-.8608.287-1.3527l4.878-19.3879q.902-3.5251 1.107-4.6318.246-1.1477.246-2.4184 0-2.2134-.697-3.0332-.697-.8198-1.927-.8198-2.131 0-3.525 2.5414-1.393 2.5413-2.582 7.46-.369 1.3527-.615 1.6396-.205.2869-.82.2869-1.024-.041-1.024-.8608 0-.2049.328-1.5166.327-1.3526.942-3.3201.656-2.0085 1.353-3.2791.41-.8608.779-1.4347.369-.5738 1.106-1.4756.738-.9017 1.845-1.3936 1.107-.4919 2.459-.4919 2.952 0 5.042 1.8035 2.131 1.8036 2.623 4.6318 1.025-1.4756 2.296-2.7462 1.27-1.3117 3.607-2.5004 2.336-1.1887 4.837-1.1887 3.115 0 5.041 1.5986 1.927 1.5576 1.927 3.853z"/><path clip-path="url(#a)" d="m1060.21 38.6408q0 6.7632-2.92 13.4035-2.86 6.5992-7.54 11.5999-4.63 4.9597-10.9 8.0339-6.27 3.0742-12.67 3.0742h-27.787q-.983 0-1.393-.041-.369-.041-.656-.2459-.287-.2459-.287-.7378 0-.7788.328-1.1067.328-.3689.697-.4099.369-.041 1.311-.041 2.047 0 3.277-.123 1.23-.1229 2.01-.2869.82-.205 1.23-.7788.45-.5739.66-1.0657.2-.5329.49-1.7216l11.23-45.0882q.33-1.3526.33-1.5576 0-.6968-.41-.9427-.37-.2869-1.44-.4099-2.05-.164-3.6-.164-1.03 0-1.44-.041-.37-.041-.7-.2459-.28-.2459-.28-.7378 0-.7788.33-1.1067.36-.3689.77-.4099.41-.082 1.4-.082h28.2q6.11 0 10.66 2.8693 4.55 2.8282 6.8 7.624 2.3 4.7547 2.3 10.7392m-7.34-3.0742q0-7.829-4.26-11.682-4.23-3.853-10.91-3.853h-8.97q-2.67 0-3.32.4919-.66.4509-1.23 2.7053l-11.52 46.0719q-.41 1.5166-.41 1.9265 0 .4509.2.6149.25.1229.9.2049.74.123 1.85.123h9.47q3.65 0 6.97-.9838 3.36-1.0247 5.78-2.6233 2.41-1.6395 3.97-3.0332 1.56-1.4346 2.67-2.8692 2.5-3.2382 4.34-7.4601 1.89-4.2219 2.75-8.0749.9-3.8939 1.31-6.7632.41-2.9102.41-4.7957z"/><path clip-path="url(#a)" d="m1098.81 65.0379q.33.3689.33.7378 0 .3689-.82 1.4346-.78 1.0657-2.46 2.5003-1.68 1.4347-3.85 2.7873-2.17 1.3526-5.37 2.2544-3.2.9428-6.56.9428-6.02 0-9.63-4.3039-3.57-4.3039-3.57-10.9032 0-4.2219 1.4-7.9519 1.39-3.771 3.64-6.4353 2.3-2.6643 5.17-4.5908 2.91-1.9675 5.94-2.9102 3.04-.9428 5.86-.9428 4.14 0 6.56 2.0905 2.42 2.0904 2.42 5.0417 0 .6968-.2 1.5575-.17.8608-.74 2.2135-.53 1.3526-1.93 2.7053-1.39 1.3116-3.44 2.1724-4.55 1.9265-12.83 1.9265h-4.47q-1.31 5.2876-1.31 8.7307 0 1.3526.25 2.7463.24 1.3526.9 3.0742.69 1.7215 2.25 2.8282 1.6 1.0658 3.9 1.0658.73 0 1.51-.041.82-.041 2.87-.4919 2.09-.4509 3.94-1.2297 1.84-.7788 4.18-2.4593 2.37-1.7216 4.26-4.058.66-.8607 1.11-.8607.37 0 .69.3689m-3.73-20.2487q0-2.2545-1.68-3.7711-1.64-1.5166-4.51-1.5166-.9 0-2 .205-1.11.2049-2.96 1.0657-1.8.8608-3.4 2.2954-1.6 1.3936-3.19 4.1399-1.6 2.7053-2.55 6.3124h3.45q1.19 0 2.05 0 .86-.041 2.74-.205 1.93-.1639 3.32-.4509 1.4-.3279 3.16-.9837 1.76-.6558 2.87-1.5166 1.15-.9018 1.93-2.3364.77-1.4346.77-3.2381z"/><path clip-path="url(#a)" d="m1142.75 51.0605q0 5.9844-3.03 11.7639-3 5.7795-7.71 9.3456-4.71 3.5251-9.51 3.5251-2.87 0-4.79-1.5576-1.89-1.5986-2.91-3.853-.78 2.7873-2.46 9.4685-1.68 6.6813-1.68 7.3371 0 .3689.08.5328.08.164.45.3689.37.246 1.27.328.9.1229 2.42.1229.78 0 1.06 0 .33.041.62.246.33.2049.33.6558 0 1.6806-1.52 1.6806-1.35 0-4.14-.123-2.79-.123-4.18-.123-1.19 0-3.57.123-2.37.123-3.48.123-1.11 0-1.11-.9838 0-.5738.17-.9427.12-.328.45-.4919.32-.123.61-.164.25 0 .74 0 1.88 0 2.7-.3279.82-.2869 1.11-.9017.33-.5739.7-2.2135l9.43-37.3822q.57-2.5003.57-4.2629 0-2.2134-.7-3.0332-.69-.8198-1.92-.8198-2.14 0-3.53 2.5414-1.39 2.5413-2.58 7.46-.37 1.3527-.62 1.6396-.2.2869-.82.2869-1.02-.041-1.02-.8608 0-.2049.33-1.5166.33-1.3526.94-3.3201.66-2.0085 1.35-3.2791.41-.8608.78-1.4347.37-.5738 1.11-1.4756.78-.9017 1.88-1.3936 1.11-.4919 2.46-.4919 2.63 0 4.8 1.5576 2.17 1.5576 2.75 4.7138 2.33-2.7463 5.2-4.5088 2.87-1.7626 5.78-1.7626 4.84 0 7.99 3.771 3.2 3.7301 3.2 9.6325m-6.07-3.689q0-3.73-1.43-5.7795-1.39-2.0905-3.94-2.0905-3.15 0-6.8 3.1972-3.61 3.0332-4.34 5.8615l-4.14 16.4367-.25 1.3526q0 .2459.12.9838.17.6968.62 1.8445.49 1.1477 1.14 2.1724.7.9837 1.93 1.7216 1.27.7378 2.83.7378 2.5 0 5.21-2.2135 2.74-2.2134 4.79-6.3943 1.27-2.7053 2.75-8.5258 1.51-5.8614 1.51-9.3045z"/><path clip-path="url(#a)" d="m1179.36 65.0379q.32.3689.32.7378 0 .3689-.82 1.4346-.77 1.0657-2.45 2.5003-1.69 1.4347-3.86 2.7873-2.17 1.3526-5.37 2.2544-3.19.9428-6.56.9428-6.02 0-9.63-4.3039-3.56-4.3039-3.56-10.9032 0-4.2219 1.39-7.9519 1.39-3.771 3.65-6.4353 2.29-2.6643 5.16-4.5908 2.91-1.9675 5.95-2.9102 3.03-.9428 5.86-.9428 4.14 0 6.56 2.0905 2.41 2.0904 2.41 5.0417 0 .6968-.2 1.5575-.17.8608-.74 2.2135-.53 1.3526-1.93 2.7053-1.39 1.3116-3.44 2.1724-4.55 1.9265-12.83 1.9265h-4.47q-1.31 5.2876-1.31 8.7307 0 1.3526.25 2.7463.24 1.3526.9 3.0742.7 1.7215 2.25 2.8282 1.6 1.0658 3.9 1.0658.74 0 1.51-.041.82-.041 2.87-.4919 2.09-.4509 3.94-1.2297 1.84-.7788 4.18-2.4593 2.38-1.7216 4.26-4.058.66-.8607 1.11-.8607.37 0 .7.3689m-3.73-20.2487q0-2.2545-1.68-3.7711-1.64-1.5166-4.51-1.5166-.9 0-2.01.205-1.11.2049-2.95 1.0657-1.81.8608-3.4 2.2954-1.6 1.3936-3.2 4.1399-1.6 2.7053-2.54 6.3124h3.44q1.19 0 2.05 0 .86-.041 2.75-.205 1.92-.1639 3.32-.4509 1.39-.3279 3.15-.9837 1.76-.6558 2.87-1.5166 1.15-.9018 1.93-2.3364.78-1.4346.78-3.2381z"/><path clip-path="url(#a)" d="m1229.97 62.7425q0 .3279-.37 1.5985-.37 1.2707-1.27 3.2382-.86 1.9675-2.05 3.771-1.19 1.7625-3.15 3.0742-1.93 1.2707-4.14 1.2707-2.95 0-4.92-1.9675-1.97-1.9675-1.97-4.9187 0-1.6396.86-3.894 5.45-14.5512 5.45-19.5519 0-5.8615-4.55-5.8615-2.25 0-4.38.8608-2.09.8198-3.53 1.9675-1.43 1.1477-2.74 2.7463-1.27 1.5576-1.93 2.6233-.61 1.0247-1.11 2.0495l-1.06 4.1809q-.25 1.1477-1.44 5.6155l-1.84 7.583q-1.31 5.6565-1.6 6.1894-.41 1.1477-1.31 1.7625-.9.6149-1.81.6149-1.02 0-1.72-.6149-.69-.6148-.69-1.6805 0-.164.12-.7788.12-.6149.33-1.4756.2-.8608.28-1.3527l4.88-19.3879q.9-3.5251 1.11-4.6318.24-1.1477.24-2.4184 0-3.853-2.62-3.853-2.13 0-3.52 2.5414-1.4 2.5413-2.59 7.46-.37 1.3527-.61 1.6396-.21.2869-.82.2869-1.03-.041-1.03-.8608 0-.2049.33-1.5576.33-1.3526.94-3.2791.66-1.9675 1.28-3.2791.53-.9838.82-1.4347.32-.4918 1.1-1.4346.82-.9837 1.89-1.4346 1.1-.4919 2.46-.4919 3.03 0 5.24 1.9675 2.22 1.9265 2.5 5.3286 5.46-7.2961 13.08-7.2961 4.51 0 7.09 2.3774 2.58 2.3774 2.58 6.5993 0 .9837-.2 2.2544-.17 1.2297-.58 2.7872-.36 1.5576-.69 2.7463-.33 1.1887-.99 3.1152-.65 1.8855-.94 2.7053-.29.8198-.98 2.7463-.66 1.8855-.74 2.0904-1.52 3.812-1.52 5.9845 0 1.4346.45 2.0904.5.6559 1.56.6559 2.87 0 5-2.8283 2.17-2.8693 3.57-7.542.33-1.0248.49-1.2707.2-.2459.78-.2459.98 0 .98.8198z"/><path clip-path="url(#a)" d="m1276.31 17.4083-12.1 48.5313q-.49 2.1724-.49 4.017 0 3.853 2.5 3.853 1.23 0 2.22-.7788.98-.7788 1.76-2.4184.78-1.6396 1.27-3.1562.49-1.5576 1.15-4.0169.2-.9838.37-1.2297.2-.2869.78-.2869 1.02 0 1.02.8198-1.11 5.2876-2.54 8.3208-2.3 4.6318-6.19 4.6318-2.95 0-5.04-1.8036-2.09-1.8035-2.58-4.5088-5.37 6.3124-10.95 6.3124-4.92 0-8.03-3.7301-3.12-3.771-3.12-9.7144 0-5.9845 2.95-11.723 3-5.7384 7.71-9.3045 4.71-3.5661 9.55-3.5661 5.12 0 7.75 5.3696l5.04-19.9208.24-1.6395q0-.4919-.2-.7379-.16-.2869-1.15-.4918-.94-.205-2.83-.205-.78 0-1.14-.041-.33-.041-.62-.2459-.29-.2459-.29-.7378 0-1.4346 1.19-1.5986 7.87-.9018 10.66-.9018.49 0 .78.246.29.2049.29.4509zm-13.04 29.4713q0-.3689-.28-1.3936-.29-1.0248-.95-2.4594-.65-1.4346-2.09-2.4593-1.39-1.0658-3.28-1.0658-2.54 0-5.2 2.1725-2.63 2.1724-4.55 5.8614-1.48 2.9513-3.08 9.1406-1.55 6.1894-1.55 9.2636 0 1.8855.41 3.5661.45 1.6396 1.72 2.9922 1.27 1.3117 3.24 1.3117 4.79 0 9.5-5.9435.91-1.0247 1.11-1.4346.25-.4509.58-1.6806l4.18-16.4367q.24-1.2297.24-1.4346z"/><path clip-path="url(#a)" d="m1311.8 65.0379q.33.3689.33.7378 0 .3689-.82 1.4346-.78 1.0657-2.46 2.5003-1.68 1.4347-3.85 2.7873-2.17 1.3526-5.37 2.2544-3.2.9428-6.56.9428-6.02 0-9.63-4.3039-3.57-4.3039-3.57-10.9032 0-4.2219 1.4-7.9519 1.39-3.771 3.64-6.4353 2.3-2.6643 5.17-4.5908 2.91-1.9675 5.94-2.9102 3.04-.9428 5.86-.9428 4.14 0 6.56 2.0905 2.42 2.0904 2.42 5.0417 0 .6968-.2 1.5575-.17.8608-.74 2.2135-.54 1.3526-1.93 2.7053-1.39 1.3116-3.44 2.1724-4.55 1.9265-12.83 1.9265h-4.47q-1.31 5.2876-1.31 8.7307 0 1.3526.24 2.7463.25 1.3526.91 3.0742.69 1.7215 2.25 2.8282 1.6 1.0658 3.89 1.0658.74 0 1.52-.041.82-.041 2.87-.4919 2.09-.4509 3.94-1.2297 1.84-.7788 4.18-2.4593 2.37-1.7216 4.26-4.058.66-.8607 1.11-.8607.37 0 .69.3689m-3.73-20.2487q0-2.2545-1.68-3.7711-1.64-1.5166-4.51-1.5166-.9 0-2 .205-1.11.2049-2.96 1.0657-1.8.8608-3.4 2.2954-1.6 1.3936-3.2 4.1399-1.59 2.7053-2.54 6.3124h3.45q1.19 0 2.05 0 .86-.041 2.74-.205 1.93-.1639 3.32-.4509 1.4-.3279 3.16-.9837 1.76-.6558 2.87-1.5166 1.15-.9018 1.92-2.3364.78-1.4346.78-3.2381z"/><path clip-path="url(#a)" d="m1362.42 62.7425q0 .3279-.37 1.5985-.37 1.2707-1.27 3.2382-.86 1.9675-2.05 3.771-1.19 1.7625-3.16 3.0742-1.92 1.2707-4.14 1.2707-2.95 0-4.91-1.9675-1.97-1.9675-1.97-4.9187 0-1.6396.86-3.894 5.45-14.5512 5.45-19.5519 0-5.8615-4.55-5.8615-2.25 0-4.39.8608-2.09.8198-3.52 1.9675-1.44 1.1477-2.75 2.7463-1.27 1.5576-1.92 2.6233-.62 1.0247-1.11 2.0495l-1.07 4.1809q-.24 1.1477-1.43 5.6155l-1.85 7.583q-1.31 5.6565-1.59 6.1894-.41 1.1477-1.32 1.7625-.9.6149-1.8.6149-1.02 0-1.72-.6149-.7-.6148-.7-1.6805 0-.164.13-.7788.12-.6149.32-1.4756.21-.8608.29-1.3527l4.88-19.3879q.9-3.5251 1.11-4.6318.24-1.1477.24-2.4184 0-3.853-2.62-3.853-2.13 0-3.53 2.5414-1.39 2.5413-2.58 7.46-.37 1.3527-.61 1.6396-.21.2869-.82.2869-1.03-.041-1.03-.8608 0-.2049.33-1.5576.33-1.3526.94-3.2791.66-1.9675 1.27-3.2791.54-.9838.82-1.4347.33-.4918 1.11-1.4346.82-.9837 1.88-1.4346 1.11-.4919 2.46-.4919 3.04 0 5.25 1.9675 2.21 1.9265 2.5 5.3286 5.45-7.2961 13.08-7.2961 4.5 0 7.09 2.3774 2.58 2.3774 2.58 6.5993 0 .9837-.21 2.2544-.16 1.2297-.57 2.7872-.37 1.5576-.7 2.7463-.32 1.1887-.98 3.1152-.66 1.8855-.94 2.7053-.29.8198-.99 2.7463-.65 1.8855-.73 2.0904-1.52 3.812-1.52 5.9845 0 1.4346.45 2.0904.49.6559 1.56.6559 2.87 0 5-2.8283 2.17-2.8693 3.56-7.542.33-1.0248.5-1.2707.2-.2459.78-.2459.98 0 .98.8198z"/><path clip-path="url(#a)" d="m1401.13 65.0379q.33.3689.33.7378 0 .3689-.82 1.4346-.78 1.0657-2.46 2.5003-1.68 1.4347-3.85 2.7873-2.18 1.3526-5.37 2.2544-3.2.9428-6.56.9428-6.27 0-9.96-4.14-3.65-4.1399-3.65-10.0833 0-5.7795 3.24-11.3131 3.24-5.5745 8.48-9.0176 5.25-3.4841 10.78-3.4841 4.39 0 7.13 2.0495 2.75 2.0494 2.75 5.1646 0 2.4184-1.39 3.894-1.4 1.4756-3.28 1.4756-1.31 0-2.22-.7378-.9-.7788-.9-2.2134 0-1.8445 1.52-3.2791.57-.5739 1.23-.8198.7-.287 1.11-.287.41-.0409 1.35-.0409-.86-1.5986-2.91-2.4594-2.01-.9018-4.31-.9018-3.4 0-6.64 2.3774-3.23 2.3364-5.2 6.0254-1.97 3.6071-3.24 8.7308-1.27 5.0826-1.27 8.0339 0 4.0579 1.88 6.5992 1.89 2.5414 5.66 2.5414.74 0 1.52-.041.82-.041 2.87-.4919 2.09-.4509 3.93-1.2297 1.85-.7788 4.18-2.4593 2.38-1.7216 4.27-4.058.65-.8607 1.1-.8607.37 0 .7.3689z"/><path clip-path="url(#a)" d="m1441.48 40.8542q0 .5738-.37 1.9265l-8.04 32.0536q-1.76 7.1321-7.5 12.1328-5.7 5.0007-12.17 5.0007-3.9 0-6.4-2.0904-2.5-2.0495-2.5-5.2057 0-2.7873 1.48-4.1399 1.47-1.3117 3.24-1.3117.57 0 1.19.164.61.164 1.27.8608.65.6968.65 1.8855 0 1.9265-1.68 3.4431-.82.6968-1.6.8608-.73.1639-2.01.1639.5 1.1477 1.4 1.9265.9.7788 1.92 1.0657 1.03.3279 1.69.4099.69.123 1.35.123 5.24 0 9.26-5.2876 1.19-1.5986 2.05-3.1972.9-1.5576 1.56-3.4841.65-1.8855.94-2.9102.33-1.0247.9-3.3611-3.81 3.812-8.48 3.812-1.97 0-3.73-.5329-1.72-.5329-3.24-1.6396-1.52-1.1477-2.42-3.1561-.86-2.0085-.86-4.6728 0-2.8283 1.11-6.6813 1.1-3.853 3.77-10.9441 1.43-3.976 1.43-5.9025 0-.9427-.2-1.5166-.21-.6148-.62-.8198-.41-.2459-.65-.2869-.21-.041-.62-.041-2.42 0-4.67 2.4594-2.25 2.4593-3.81 7.9519-.33 1.0247-.53 1.2707-.21.2459-.82.2459-1.03-.041-1.03-.8608 0-.3279.37-1.5985.37-1.3117 1.23-3.2382.9-1.9675 2.13-3.73 1.23-1.8035 3.16-3.0742 1.96-1.2707 4.22-1.2707 3.07 0 4.96 2.0085 1.93 1.9675 1.93 4.8777 0 1.1887-.33 2.2544-.29 1.0248-1.36 3.771-4.3 11.0671-4.3 16.4777 0 1.3117.21 2.4184.24 1.0657.77 2.1314.54 1.0248 1.6 1.6396 1.11.5739 2.63.5739 1.92 0 3.73-.9018 1.84-.9428 2.99-2.2134 1.19-1.2707 1.88-2.3364.74-1.1067.91-1.6806l3.77-15.084 1.68-6.7223q.78-3.648 1.15-4.5498.49-.8608 1.35-1.3116.86-.4509 1.6-.4509 1.02 0 1.72.6148.74.6149.74 1.6806z"/><path clip-path="url(#a)" d="m1501.59 51.8393q0 4.4678-1.97 8.8947-1.97 4.3858-5.12 7.665-3.12 3.2381-7.22 5.2876-4.1 2.0085-8.2 2.0085-5.86 0-9.67-3.976-3.77-4.0169-3.77-10.2473 0-5.8205 3.24-11.354 3.28-5.5746 8.52-9.0177 5.25-3.4431 10.74-3.4431 5.78 0 9.59 3.894 3.86 3.894 3.86 10.2883m-6.15-3.2791q0-3.976-1.93-6.5173-1.92-2.5414-5.45-2.5414-1.02 0-2.21.3279-1.19.287-2.75 1.0658-1.52.7788-3.24 2.4183-1.68 1.5986-3.15 3.894-1.93 3.0332-3.41 8.6078-1.43 5.5335-1.43 8.8537 0 4.5907 2.13 6.8861 2.13 2.2545 5.17 2.2545 2.95 0 6.06-2.0495 3.16-2.0905 5.33-5.6565 2.17-3.6891 3.53-9.0996 1.35-5.4516 1.35-8.4438z"/><path clip-path="url(#a)" d="m1549.77 62.7425q0 .3279-.37 1.5985-.37 1.2707-1.27 3.2382-.86 1.9675-2.05 3.771-1.19 1.7625-3.16 3.0742-1.92 1.2707-4.14 1.2707-2.95 0-4.91-1.9675-1.97-1.9675-1.97-4.9187 0-1.6396.86-3.894 5.45-14.5512 5.45-19.5519 0-5.8615-4.55-5.8615-2.25 0-4.38.8608-2.1.8198-3.53 1.9675-1.43 1.1477-2.75 2.7463-1.27 1.5576-1.92 2.6233-.62 1.0247-1.11 2.0495l-1.07 4.1809q-.24 1.1477-1.43 5.6155l-1.84 7.583q-1.32 5.6565-1.6 6.1894-.41 1.1477-1.31 1.7625-.91.6149-1.81.6149-1.02 0-1.72-.6149-.7-.6148-.7-1.6805 0-.164.13-.7788.12-.6149.32-1.4756.21-.8608.29-1.3527l4.88-19.3879q.9-3.5251 1.11-4.6318.24-1.1477.24-2.4184 0-3.853-2.62-3.853-2.13 0-3.53 2.5414-1.39 2.5413-2.58 7.46-.37 1.3527-.61 1.6396-.21.2869-.82.2869-1.03-.041-1.03-.8608 0-.2049.33-1.5576.33-1.3526.94-3.2791.66-1.9675 1.27-3.2791.54-.9838.82-1.4347.33-.4918 1.11-1.4346.82-.9837 1.89-1.4346 1.1-.4919 2.45-.4919 3.04 0 5.25 1.9675 2.21 1.9265 2.5 5.3286 5.45-7.2961 13.08-7.2961 4.51 0 7.09 2.3774 2.58 2.3774 2.58 6.5993 0 .9837-.2 2.2544-.17 1.2297-.58 2.7872-.37 1.5576-.7 2.7463-.32 1.1887-.98 3.1152-.65 1.8855-.94 2.7053-.29.8198-.99 2.7463-.65 1.8855-.73 2.0904-1.52 3.812-1.52 5.9845 0 1.4346.45 2.0904.49.6559 1.56.6559 2.87 0 5-2.8283 2.17-2.8693 3.57-7.542.32-1.0248.49-1.2707.2-.2459.78-.2459.98 0 .98.8198z"/><path clip-path="url(#a)" d="m1646.97 18.3511q0 1.6805-1.43 1.6805-4.64.164-6.52 1.7216-1.85 1.5166-2.54 4.4678l-11.73 46.7688q-.41 1.4756-.65 1.6395-.25.123-.7.123-.57 0-.9-.2869-.29-.2869-.7-1.3117l-20.9-49.433q-.17-.328-.37-.7788-.21-.4509-.37-.7378l-11.11 44.3094q-.33 1.2706-.33 1.9265 0 1.5985 1.11 2.6233 1.15.9837 4.43 1.1067 1.68 0 1.68.9018 0 1.6805-1.52 1.6805-1.39 0-4.3-.123-2.91-.1229-4.35-.1229-1.39 0-4.22.1229-2.83.123-4.18.123-1.07 0-1.07-.9427 0-.7378.29-1.1068.29-.4098.53-.4508.25-.082.62-.082 2.46-.082 4.14-.5739 1.68-.4918 2.62-1.4346.99-.9427 1.44-1.8855.49-.9837.86-2.4184l11.23-45.0882q0-.7378-5.7-.7378-.98 0-1.39-.041-.37-.041-.66-.2459-.28-.2049-.28-.6558 0-1.1477.49-1.3937.49-.2869 1.92-.2869h11.28q1.43 0 1.8.2459.37.205.86 1.3527l18.57 43.8175 9.38-37.3412q.25-.7378.25-1.7625 0-1.6396-1.23-2.6234-1.19-1.0247-4.47-1.0657-1.51 0-1.51-.9427 0-.7788.28-1.1477.33-.4099.58-.4509.28-.082.65-.082 1.4 0 4.27.123 2.87.1229 4.3.1229 1.39 0 4.22-.1229 2.87-.123 4.26-.123.5 0 .74.2459.29.205.33.4509z"/><path clip-path="url(#a)" d="m1687.31 51.8393q0 4.4678-1.96 8.8947-1.97 4.3858-5.13 7.665-3.11 3.2381-7.21 5.2876-4.1 2.0085-8.2 2.0085-5.86 0-9.67-3.976-3.77-4.0169-3.77-10.2473 0-5.8205 3.23-11.354 3.28-5.5746 8.53-9.0177 5.25-3.4431 10.74-3.4431 5.78 0 9.59 3.894 3.85 3.894 3.85 10.2883m-6.14-3.2791q0-3.976-1.93-6.5173-1.93-2.5414-5.45-2.5414-1.03 0-2.22.3279-1.18.287-2.74 1.0658-1.52.7788-3.24 2.4183-1.68 1.5986-3.16 3.894-1.92 3.0332-3.4 8.6078-1.43 5.5335-1.43 8.8537 0 4.5907 2.13 6.8861 2.13 2.2545 5.16 2.2545 2.95 0 6.07-2.0495 3.16-2.0905 5.33-5.6565 2.17-3.6891 3.52-9.0996 1.36-5.4516 1.36-8.4438z"/><path clip-path="url(#a)" d="m1711.44 22.286q0 1.8036-1.48 3.1562-1.43 1.3117-2.99 1.3117-1.44 0-2.34-.8608-.86-.9018-.86-2.1724 0-1.6806 1.44-3.0742 1.43-1.3937 3.11-1.3937 1.39 0 2.26.8608.86.8608.86 2.1724m.73 40.4565q0 .3279-.37 1.6395-.36 1.2707-1.27 3.2382-.86 1.9265-2.05 3.73-1.18 1.8035-3.15 3.0742-1.93 1.2707-4.14 1.2707-2.99 0-4.96-1.9675-1.93-1.9675-1.93-4.9187 0-1.5986 1.93-6.7223 5.57-14.9201 5.78-15.5349.94-2.3364.94-4.3859 0-.9427-.2-1.5166-.21-.6148-.62-.8198-.41-.2459-.65-.2869-.21-.041-.62-.041-2.42 0-4.67 2.4594-2.26 2.4593-3.81 7.9519-.33 1.0247-.54 1.2707-.2.2459-.82.2459-1.02-.041-1.02-.8608 0-.2459.29-1.1887.28-.9837.82-2.4593.53-1.5166 1.47-3.0742.94-1.5986 2.09-2.9922 1.19-1.3937 2.87-2.2954 1.68-.9018 3.57-.9018 3.07 0 4.96 2.0085 1.92 1.9675 1.92 4.8777 0 1.5986-1.1 4.4269-1.36 3.689-1.85 4.8777l-3.28 8.8127q-1.19 3.1971-1.56 4.1809-.32.9427-.61 2.0904-.25 1.1067-.25 2.1315 0 1.4346.45 2.0904.5.6559 1.56.6559 2.95 0 5.13-2.9103 2.17-2.9512 3.44-7.46.04-.123.08-.3279.33-1.0248.66-1.1477.16-.041.49-.041 1.02 0 1.02.8198z"/><path clip-path="url(#a)" d="m1751.92 44.8711q0 2.2954-1.15 3.5251-1.15 1.1887-2.71 1.1887-1.27 0-1.96-.7378-.66-.7378-.66-1.7216 0-1.4346 1.15-2.5823 1.19-1.1477 2.91-1.1887-.58-1.5166-2.09-2.4183-1.52-.9428-2.87-1.1887-1.31-.246-2.62-.246-2.59 0-4.55.8198-1.97.8198-2.96 2.0905-.98 1.2297-1.43 2.4183-.45 1.1887-.45 2.2135 0 .9017.2 1.6395.25.6968.82 1.2297.58.4919.99.8198.45.3279 1.43.6148.99.287 1.4.4099.41.082 1.55.3279 2.38.4919 3.45.7788 1.06.246 2.46.9428 1.43.6968 2.5 1.8035 2.58 2.5823 2.58 6.1484 0 1.3117-.45 2.9103-.41 1.5985-1.6 3.607-1.19 2.0085-2.99 3.6071-1.81 1.5985-4.92 2.7053-3.08 1.1067-6.93 1.1067-5.37 0-8.69-2.2544-3.32-2.2954-3.32-5.9025 0-2.6233 1.44-4.0579 1.43-1.4757 3.28-1.4757 1.39 0 2.25.7788.86.7379.86 2.1315 0 1.8855-1.52 3.3201-1.51 1.4346-3.77 1.1477 1.93 4.4269 9.55 4.4269 2.87 0 5.09-.7378 2.25-.7788 3.48-1.8446 1.27-1.1067 2.09-2.4593.82-1.3527 1.07-2.3774.28-1.0247.28-1.8035 0-1.3527-.53-2.3774-.53-1.0247-1.27-1.5986-.7-.6148-2.05-1.1067-1.31-.5329-2.25-.7378-.95-.205-2.63-.5329-.78-.1639-1.27-.2459-.49-.123-1.52-.4509-.98-.3689-1.68-.7378-.65-.3689-1.51-1.0247-.86-.6559-1.4-1.4346-.53-.7788-.9-1.9265-.37-1.1477-.37-2.5004 0-1.2297.37-2.7053.41-1.4756 1.44-3.1971 1.06-1.7216 2.58-3.1152 1.52-1.3937 4.06-2.2954 2.58-.9428 5.74-.9428 4.59 0 7.29 2.1315 2.71 2.0904 2.71 5.0826z"/><path clip-path="url(#a)" d="m1791.58 65.0379q.33.3689.33.7378 0 .3689-.82 1.4346-.78 1.0657-2.46 2.5003-1.68 1.4347-3.86 2.7873-2.17 1.3526-5.37 2.2544-3.19.9428-6.55.9428-6.03 0-9.64-4.3039-3.56-4.3039-3.56-10.9032 0-4.2219 1.39-7.9519 1.39-3.771 3.65-6.4353 2.29-2.6643 5.16-4.5908 2.91-1.9675 5.95-2.9102 3.03-.9428 5.86-.9428 4.14 0 6.56 2.0905 2.42 2.0904 2.42 5.0417 0 .6968-.21 1.5575-.16.8608-.74 2.2135-.53 1.3526-1.92 2.7053-1.4 1.3116-3.45 2.1724-4.55 1.9265-12.83 1.9265h-4.46q-1.32 5.2876-1.32 8.7307 0 1.3526.25 2.7463.25 1.3526.9 3.0742.7 1.7215 2.26 2.8282 1.59 1.0658 3.89 1.0658.74 0 1.52-.041.82-.041 2.87-.4919 2.09-.4509 3.93-1.2297 1.85-.7788 4.18-2.4593 2.38-1.7216 4.26-4.058.66-.8607 1.11-.8607.37 0 .7.3689m-3.73-20.2487q0-2.2545-1.68-3.7711-1.64-1.5166-4.51-1.5166-.9 0-2.01.205-1.11.2049-2.95 1.0657-1.8.8608-3.4 2.2954-1.6 1.3936-3.2 4.1399-1.6 2.7053-2.54 6.3124h3.44q1.19 0 2.05 0 .86-.041 2.75-.205 1.92-.1639 3.32-.4509 1.39-.3279 3.15-.9837 1.77-.6558 2.87-1.5166 1.15-.9018 1.93-2.3364.78-1.4346.78-3.2381z"/><path d="m2291.81 927.544-225.73-765.497-225.73 511.576-225.73 313.936-225.74-174.121-225.73-45.377-225.727 679.809-225.731-354.06-225.731 217.28-225.73-21.63" style="stroke:#009af9;stroke-linecap:round;stroke-linejoin:round;stroke-width:4;fill:none;clip-path:url(#b)"/><circle clip-path="url(#b)" cx="2291.81" cy="927.544" fill="#009af9" fill-rule="evenodd" r="7.2" stroke="#000" stroke-width="3.2"/><circle clip-path="url(#b)" cx="2066.08" cy="162.047" fill="#009af9" fill-rule="evenodd" r="7.2" stroke="#000" stroke-width="3.2"/><circle clip-path="url(#b)" cx="1840.35" cy="673.623" fill="#009af9" fill-rule="evenodd" r="7.2" stroke="#000" stroke-width="3.2"/><circle clip-path="url(#b)" cx="1614.62" cy="987.559" fill="#009af9" fill-rule="evenodd" r="7.2" stroke="#000" stroke-width="3.2"/><circle clip-path="url(#b)" cx="1388.88" cy="813.438" fill="#009af9" fill-rule="evenodd" r="7.2" stroke="#000" stroke-width="3.2"/><circle clip-path="url(#b)" cx="1163.15" cy="768.061" fill="#009af9" fill-rule="evenodd" r="7.2" stroke="#000" stroke-width="3.2"/><circle clip-path="url(#b)" cx="937.423" cy="1447.87" fill="#009af9" fill-rule="evenodd" r="7.2" stroke="#000" stroke-width="3.2"/><circle clip-path="url(#b)" cx="711.692" cy="1093.81" fill="#009af9" fill-rule="evenodd" r="7.2" stroke="#000" stroke-width="3.2"/><circle clip-path="url(#b)" cx="485.961" cy="1311.09" fill="#009af9" fill-rule="evenodd" r="7.2" stroke="#000" stroke-width="3.2"/><circle clip-path="url(#b)" cx="260.231" cy="1289.46" fill="#009af9" fill-rule="evenodd" r="7.2" stroke="#000" stroke-width="3.2"/><path d="m260.231 1349.37 20.315-8.04 20.316-8.04 20.316-8.04 20.316-8.04 20.315-8.03 20.316-8.04 20.316-8.04 20.316-8.04 20.316-8.04 20.315-8.04 20.316-8.03 20.316-8.04 20.316-8.04 20.315-8.04 20.316-8.04 20.316-8.04 20.316-8.03 20.316-8.04 20.315-8.04 20.316-8.04 20.316-8.04 20.316-8.04 20.315-8.03 20.316-8.04 20.316-8.04 20.316-8.04 20.316-8.04 20.315-8.04 20.316-8.04 20.316-8.03 20.316-8.04 20.316-8.04 20.315-8.04 20.316-8.04 20.316-8.04 20.316-8.03 20.311-8.04 20.32-8.04 20.32-8.04 20.31-8.04 20.32-8.04 20.31-8.03 20.32-8.04 20.31-8.04 20.32-8.039 20.32-8.038 20.31-8.038 20.32-8.039 20.31-8.038 20.32-8.038 20.32-8.039 20.31-8.038 20.32-8.039 20.31-8.038 20.32-8.038 20.31-8.039 20.32-8.038 20.32-8.038 20.31-8.039 20.32-8.038 20.31-8.038 20.32-8.039 20.31-8.038 20.32-8.038 20.32-8.039 20.31-8.038 20.32-8.038 20.31-8.039 20.32-8.038 20.32-8.039 20.31-8.038 20.32-8.038 20.31-8.039 20.32-8.038 20.31-8.038 20.32-8.039 20.32-8.038 20.31-8.038 20.32-8.039 20.31-8.038 20.32-8.038 20.31-8.039 20.32-8.038 20.32-8.038 20.31-8.039 20.32-8.038 20.31-8.039 20.32-8.038 20.31-8.038 20.32-8.039 20.32-8.038 20.31-8.038 20.32-8.039 20.31-8.038 20.32-8.038 20.32-8.039 20.31-8.038 20.32-8.038 20.31-8.039 20.32-8.038" style="stroke:#e26f46;stroke-linecap:round;stroke-linejoin:round;stroke-width:4;fill:none;clip-path:url(#b)"/><path d="m260.231 1387.94 20.315-10.62 20.316-10.56 20.316-10.51 20.316-10.46 20.315-10.41 20.316-10.36 20.316-10.3 20.316-10.25 20.316-10.2 20.315-10.15 20.316-10.09 20.316-10.05 20.316-9.99 20.315-9.94 20.316-9.88 20.316-9.84 20.316-9.78 20.316-9.73 20.315-9.68 20.316-9.63 20.316-9.57 20.316-9.52 20.315-9.47 20.316-9.42 20.316-9.37 20.316-9.31 20.316-9.26 20.315-9.21 20.316-9.16 20.316-9.11 20.316-9.05 20.316-9 20.315-8.95 20.316-8.9 20.316-8.84 20.316-8.8 20.311-8.74 20.32-8.69 20.32-8.64 20.31-8.58 20.32-8.533 20.31-8.481 20.32-8.429 20.31-8.377 20.32-8.325 20.32-8.272 20.31-8.221 20.32-8.169 20.31-8.116 20.32-8.064 20.32-8.013 20.31-7.96 20.32-7.908 20.31-7.856 20.32-7.804 20.31-7.752 20.32-7.7 20.32-7.648 20.31-7.596 20.32-7.544 20.31-7.491 20.32-7.44 20.31-7.387 20.32-7.336 20.32-7.283 20.31-7.231 20.32-7.179 20.31-7.128 20.32-7.075 20.32-7.023 20.31-6.971 20.32-6.918 20.31-6.867 20.32-6.815 20.31-6.763 20.32-6.71 20.32-6.659 20.31-6.606 20.32-6.554 20.31-6.503 20.32-6.45 20.31-6.398 20.32-6.346 20.32-6.294 20.31-6.242 20.32-6.19 20.31-6.138 20.32-6.086 20.31-6.033 20.32-5.982 20.32-5.929 20.31-5.878 20.32-5.825 20.31-5.774 20.32-5.721 20.32-5.669 20.31-5.617 20.32-5.565 20.31-5.513 20.32-5.461" style="stroke:#3da44d;stroke-linecap:round;stroke-linejoin:round;stroke-width:4;fill:none;clip-path:url(#b)"/><path d="m260.231 1244.42 20.315 12.4 20.316 11.22 20.316 10.09 20.316 8.96 20.315 7.87 20.316 6.8 20.316 5.76 20.316 4.73 20.316 3.75 20.315 2.77 20.316 1.83 20.316.91 20.316.02 20.315-.86 20.316-1.69 20.316-2.52 20.316-3.32 20.316-4.08 20.315-4.83 20.316-5.54 20.316-6.25 20.316-6.91 20.315-7.56 20.316-8.18 20.316-8.77 20.316-9.35 20.316-9.89 20.315-10.41 20.316-10.91 20.316-11.38 20.316-11.83 20.316-12.24 20.315-12.65 20.316-13.01 20.316-13.36 20.316-13.69 20.311-13.97 20.32-14.26 20.32-14.49 20.31-14.72 20.32-14.92 20.31-15.09 20.32-15.24 20.31-15.35 20.32-15.459 20.32-15.529 20.31-15.576 20.32-15.598 20.31-15.596 20.32-15.569 20.32-15.518 20.31-15.44 20.32-15.338 20.31-15.211 20.32-15.06 20.31-14.883 20.32-14.681 20.32-14.455 20.31-14.204 20.32-13.928 20.31-13.626 20.32-13.3 20.31-12.949 20.32-12.574 20.32-12.172 20.31-11.747 20.32-11.296 20.31-10.821 20.32-10.32 20.32-9.795 20.31-9.244 20.32-8.67 20.31-8.069 20.32-7.444 20.31-6.795 20.32-6.119 20.32-5.42 20.31-4.695 20.32-3.946 20.31-3.171 20.32-2.372 20.31-1.547 20.32-.699 20.32.176 20.31 1.075 20.32 1.999 20.31 2.947 20.32 3.921 20.31 4.92 20.32 5.944 20.32 6.992 20.31 8.065 20.32 9.164 20.31 10.286 20.32 11.435 20.32 12.608 20.31 13.806 20.32 15.029 20.31 16.276 20.32 17.549" style="stroke:#c271d2;stroke-linecap:round;stroke-linejoin:round;stroke-width:4;fill:none;clip-path:url(#b)"/><path clip-path="url(#a)" d="m271.066 428.105h442.614v-259.2h-442.614z" fill="#fff" fill-rule="evenodd"/><path d="m271.066 428.105h442.614v-259.2h-442.614z" style="stroke:#000;stroke-linecap:round;stroke-linejoin:round;stroke-width:4;fill:none;clip-path:url(#a)"/><path d="m294.993 220.745h143.565" style="stroke:#009af9;stroke-linecap:round;stroke-linejoin:round;stroke-width:4;fill:none;clip-path:url(#a)"/><circle clip-path="url(#a)" cx="366.776" cy="220.745" fill="#009af9" fill-rule="evenodd" r="18.432" stroke="#000" stroke-width="8.192"/><path clip-path="url(#a)" d="m462.485 203.465h21.852v3.935h-17.176v10.231h16.459v3.935h-16.459v12.523h17.593v3.936h-22.269z"/><path clip-path="url(#a)" d="m507.277 216.08q-.718-.416-1.574-.602-.834-.208-1.852-.208-3.611 0-5.556 2.361-1.921 2.338-1.921 6.736v13.658h-4.282v-25.926h4.282v4.028q1.343-2.361 3.495-3.496 2.153-1.157 5.232-1.157.44 0 .972.069.533.047 1.181.162z"/><path clip-path="url(#a)" d="m525.934 216.08q-.717-.416-1.574-.602-.833-.208-1.852-.208-3.611 0-5.555 2.361-1.922 2.338-1.922 6.736v13.658h-4.282v-25.926h4.282v4.028q1.343-2.361 3.496-3.496 2.153-1.157 5.231-1.157.44 0 .972.069.533.047 1.181.162z"/><path clip-path="url(#a)" d="m539.406 215.085q-3.426 0-5.416 2.685-1.991 2.662-1.991 7.315 0 4.653 1.968 7.338 1.99 2.662 5.439 2.662 3.403 0 5.394-2.685 1.991-2.685 1.991-7.315 0-4.607-1.991-7.292-1.991-2.708-5.394-2.708m0-3.611q5.556 0 8.727 3.611 3.171 3.611 3.171 10 0 6.366-3.171 10-3.171 3.611-8.727 3.611-5.578 0-8.75-3.611-3.148-3.634-3.148-10 0-6.389 3.148-10 3.172-3.611 8.75-3.611z"/><path clip-path="url(#a)" d="m573.388 216.08q-.718-.416-1.574-.602-.834-.208-1.852-.208-3.611 0-5.556 2.361-1.921 2.338-1.921 6.736v13.658h-4.283v-25.926h4.283v4.028q1.342-2.361 3.495-3.496 2.153-1.157 5.232-1.157.439 0 .972.069.532.047 1.18.162z"/><path d="m294.993 272.585h143.565" style="stroke:#e26f46;stroke-linecap:round;stroke-linejoin:round;stroke-width:4;fill:none;clip-path:url(#a)"/><path clip-path="url(#a)" d="m462.485 255.305h4.676v30.624h16.829v3.936h-21.505z"/><path clip-path="url(#a)" d="m488.712 263.939h4.259v25.926h-4.259zm0-10.093h4.259v5.394h-4.259z"/><path clip-path="url(#a)" d="m523.434 274.217v15.648h-4.259v-15.51q0-3.68-1.435-5.509-1.435-1.828-4.306-1.828-3.449 0-5.44 2.199-1.99 2.199-1.99 5.995v14.653h-4.283v-25.926h4.283v4.028q1.527-2.338 3.588-3.496 2.083-1.157 4.791-1.157 4.468 0 6.76 2.778 2.291 2.754 2.291 8.125z"/><path clip-path="url(#a)" d="m554.105 275.837v2.083h-19.583q.278 4.398 2.639 6.713 2.384 2.292 6.62 2.292 2.454 0 4.746-.602 2.314-.602 4.583-1.806v4.028q-2.292.972-4.699 1.482-2.408.509-4.884.509-6.204 0-9.838-3.611-3.611-3.611-3.611-9.769 0-6.365 3.426-10.092 3.449-3.75 9.282-3.75 5.231 0 8.264 3.379 3.055 3.357 3.055 9.144m-4.259-1.25q-.046-3.495-1.968-5.579-1.898-2.083-5.046-2.083-3.565 0-5.717 2.014-2.13 2.014-2.454 5.671z"/><path clip-path="url(#a)" d="m572.878 276.832q-5.162 0-7.152 1.181-1.991 1.18-1.991 4.028 0 2.268 1.481 3.611 1.505 1.319 4.074 1.319 3.542 0 5.672-2.5 2.152-2.523 2.152-6.69v-.949zm8.496-1.759v14.792h-4.26v-3.936q-1.458 2.362-3.634 3.496-2.176 1.111-5.324 1.111-3.981 0-6.342-2.222-2.338-2.246-2.338-5.996 0-4.375 2.916-6.597 2.94-2.222 8.75-2.222h5.972v-.417q0-2.939-1.944-4.537-1.921-1.62-5.417-1.62-2.222 0-4.328.532-2.107.533-4.051 1.598v-3.936q2.338-.902 4.537-1.342 2.199-.463 4.282-.463 5.625 0 8.403 2.917 2.778 2.916 2.778 8.842z"/><path clip-path="url(#a)" d="m605.17 267.92q-.718-.416-1.574-.602-.834-.208-1.852-.208-3.611 0-5.556 2.361-1.921 2.338-1.921 6.736v13.658h-4.282v-25.926h4.282v4.028q1.343-2.361 3.495-3.496 2.153-1.157 5.232-1.157.44 0 .972.069.533.047 1.181.162z"/><path d="m294.993 324.425h143.565" style="stroke:#3da44d;stroke-linecap:round;stroke-linejoin:round;stroke-width:4;fill:none;clip-path:url(#a)"/><path clip-path="url(#a)" d="m478.504 310.316q-5.093 0-8.102 3.796-2.986 3.796-2.986 10.347 0 6.528 2.986 10.324 3.009 3.797 8.102 3.797 5.092 0 8.055-3.797 2.986-3.796 2.986-10.324 0-6.551-2.986-10.347-2.963-3.796-8.055-3.796m6.551 30.764 6.157 6.736h-5.648l-5.116-5.533q-.764.047-1.18.07-.394.023-.764.023-7.292 0-11.667-4.861-4.352-4.884-4.352-13.056 0-8.194 4.352-13.055 4.375-4.884 11.667-4.884 7.268 0 11.62 4.884 4.352 4.861 4.352 13.055 0 6.019-2.431 10.301-2.407 4.283-6.99 6.32z"/><path clip-path="url(#a)" d="m501.166 331.473v-15.694h4.259v15.532q0 3.681 1.435 5.533 1.435 1.828 4.306 1.828 3.449 0 5.439-2.199 2.014-2.199 2.014-5.995v-14.699h4.26v25.926h-4.26v-3.982q-1.551 2.361-3.611 3.519-2.037 1.134-4.745 1.134-4.468 0-6.782-2.778-2.315-2.778-2.315-8.125"/><path clip-path="url(#a)" d="m543.434 328.672q-5.162 0-7.153 1.181-1.99 1.18-1.99 4.028 0 2.268 1.481 3.611 1.505 1.319 4.074 1.319 3.542 0 5.671-2.5 2.153-2.523 2.153-6.69v-.949zm8.495-1.759v14.792h-4.259v-3.936q-1.458 2.362-3.634 3.496-2.176 1.111-5.324 1.111-3.982 0-6.343-2.222-2.338-2.246-2.338-5.996 0-4.375 2.917-6.597 2.94-2.222 8.75-2.222h5.972v-.417q0-2.939-1.944-4.537-1.922-1.62-5.417-1.62-2.222 0-4.329.532-2.106.533-4.051 1.598v-3.936q2.338-.902 4.537-1.342 2.2-.463 4.283-.463 5.625 0 8.403 2.917 2.777 2.916 2.777 8.842z"/><path clip-path="url(#a)" d="m577.763 319.714v-14.028h4.259v36.019h-4.259v-3.889q-1.343 2.315-3.403 3.449-2.037 1.111-4.908 1.111-4.699 0-7.662-3.75-2.939-3.75-2.939-9.861 0-6.111 2.939-9.861 2.963-3.75 7.662-3.75 2.871 0 4.908 1.134 2.06 1.111 3.403 3.426m-14.514 9.051q0 4.699 1.921 7.384 1.944 2.662 5.324 2.662 3.38 0 5.324-2.662 1.945-2.685 1.945-7.384 0-4.699-1.945-7.361-1.944-2.685-5.324-2.685-3.38 0-5.324 2.685-1.921 2.662-1.921 7.361z"/><path clip-path="url(#a)" d="m605.818 319.76q-.718-.416-1.574-.602-.833-.208-1.852-.208-3.611 0-5.555 2.361-1.922 2.338-1.922 6.736v13.658h-4.282v-25.926h4.282v4.028q1.343-2.361 3.496-3.496 2.152-1.157 5.231-1.157.44 0 .972.069.533.047 1.181.162z"/><path clip-path="url(#a)" d="m622.068 328.672q-5.162 0-7.153 1.181-1.991 1.18-1.991 4.028 0 2.268 1.482 3.611 1.505 1.319 4.074 1.319 3.542 0 5.671-2.5 2.153-2.523 2.153-6.69v-.949zm8.495-1.759v14.792h-4.259v-3.936q-1.458 2.362-3.634 3.496-2.176 1.111-5.324 1.111-3.982 0-6.343-2.222-2.338-2.246-2.338-5.996 0-4.375 2.917-6.597 2.94-2.222 8.75-2.222h5.972v-.417q0-2.939-1.944-4.537-1.922-1.62-5.417-1.62-2.222 0-4.329.532-2.106.533-4.051 1.598v-3.936q2.338-.902 4.537-1.342 2.199-.463 4.283-.463 5.625 0 8.402 2.917 2.778 2.916 2.778 8.842z"/><path clip-path="url(#a)" d="m643.549 308.418v7.361h8.773v3.31h-8.773v14.074q0 3.171.857 4.074.879.903 3.541.903h4.375v3.565h-4.375q-4.93 0-6.805-1.829-1.875-1.852-1.875-6.713v-14.074h-3.125v-3.31h3.125v-7.361z"/><path clip-path="url(#a)" d="m657.924 315.779h4.259v25.926h-4.259zm0-10.093h4.259v5.394h-4.259z"/><path clip-path="url(#a)" d="m689.753 316.774v3.982q-1.806-.996-3.635-1.482-1.805-.509-3.657-.509-4.143 0-6.435 2.639-2.292 2.616-2.292 7.361 0 4.745 2.292 7.384 2.292 2.616 6.435 2.616 1.852 0 3.657-.486 1.829-.51 3.635-1.505v3.935q-1.783.834-3.704 1.25-1.898.417-4.051.417-5.856 0-9.305-3.681-3.449-3.68-3.449-9.93 0-6.343 3.472-9.977 3.495-3.634 9.56-3.634 1.967 0 3.842.417 1.875.393 3.635 1.203z"/><path d="m294.993 376.265h143.565" style="stroke:#c271d2;stroke-linecap:round;stroke-linejoin:round;stroke-width:4;fill:none;clip-path:url(#a)"/><path clip-path="url(#a)" d="m490.356 361.647v4.93q-2.361-2.199-5.047-3.287-2.662-1.088-5.671-1.088-5.926 0-9.074 3.634-3.148 3.612-3.148 10.463 0 6.829 3.148 10.463 3.148 3.611 9.074 3.611 3.009 0 5.671-1.088 2.686-1.088 5.047-3.287v4.885q-2.454 1.666-5.209 2.5-2.731.833-5.787.833-7.847 0-12.361-4.792-4.514-4.814-4.514-13.125 0-8.333 4.514-13.125 4.514-4.814 12.361-4.814 3.102 0 5.834.833 2.754.81 5.162 2.454z"/><path clip-path="url(#a)" d="m496.953 383.313v-15.694h4.259v15.532q0 3.681 1.435 5.533 1.435 1.828 4.306 1.828 3.449 0 5.44-2.199 2.013-2.199 2.013-5.995v-14.699h4.26v25.926h-4.26v-3.982q-1.55 2.361-3.611 3.519-2.037 1.134-4.745 1.134-4.468 0-6.782-2.778-2.315-2.778-2.315-8.125"/><path clip-path="url(#a)" d="m546.05 380.605q0-4.699-1.945-7.361-1.921-2.685-5.301-2.685-3.379 0-5.324 2.685-1.921 2.662-1.921 7.361 0 4.699 1.921 7.384 1.945 2.662 5.324 2.662 3.38 0 5.301-2.662 1.945-2.685 1.945-7.384m-14.491-9.051q1.343-2.315 3.38-3.426 2.06-1.134 4.907-1.134 4.722 0 7.662 3.75 2.963 3.75 2.963 9.861 0 6.111-2.963 9.861-2.94 3.75-7.662 3.75-2.847 0-4.907-1.111-2.037-1.134-3.38-3.449v3.889h-4.282v-36.019h4.282z"/><path clip-path="url(#a)" d="m557.531 367.619h4.259v25.926h-4.259zm0-10.093h4.259v5.394h-4.259z"/><path clip-path="url(#a)" d="m589.36 368.614v3.982q-1.806-.996-3.635-1.482-1.805-.509-3.657-.509-4.143 0-6.435 2.639-2.292 2.616-2.292 7.361 0 4.745 2.292 7.384 2.292 2.616 6.435 2.616 1.852 0 3.657-.486 1.829-.51 3.635-1.505v3.935q-1.783.834-3.704 1.25-1.898.417-4.051.417-5.856 0-9.305-3.681-3.449-3.68-3.449-9.93 0-6.343 3.472-9.977 3.495-3.634 9.56-3.634 1.968 0 3.842.417 1.875.393 3.635 1.203z"/></svg>