<svg height="400" viewBox="0 0 2400 1600" width="600" xmlns="http://www.w3.org/2000/svg" xmlns:xlink="http://www.w3.org/1999/xlink"><clipPath id="a"><path d="m0 0h2400v1600h-2400z"/></clipPath><clipPath id="b"><path d="m262 123h2091v1301h-2091z"/></clipPath><path clip-path="url(#a)" d="m0 1600h2400v-1600h-2400z" fill="#fff" fill-rule="evenodd"/><path clip-path="url(#a)" d="m262.551 1423.18h2090.209v-1299.708h-2090.209z" fill="#fff" fill-rule="evenodd"/><g stroke="#000"><path d="m540.807 1423.18v-1299.708" style="stroke-linecap:round;stroke-linejoin:round;stroke-width:2;stroke-opacity:.1;fill:none;clip-path:url(#b)"/><path d="m759.906 1423.18v-1299.708" style="stroke-linecap:round;stroke-linejoin:round;stroke-width:2;stroke-opacity:.1;fill:none;clip-path:url(#b)"/><path d="m979.005 1423.18v-1299.708" style="stroke-linecap:round;stroke-linejoin:round;stroke-width:2;stroke-opacity:.1;fill:none;clip-path:url(#b)"/><path d="m1198.1 1423.18v-1299.708" style="stroke-linecap:round;stroke-linejoin:round;stroke-width:2;stroke-opacity:.1;fill:none;clip-path:url(#b)"/><path d="m1417.2 1423.18v-1299.708" style="stroke-linecap:round;stroke-linejoin:round;stroke-width:2;stroke-opacity:.1;fill:none;clip-path:url(#b)"/><path d="m1636.3 1423.18v-1299.708" style="stroke-linecap:round;stroke-linejoin:round;stroke-width:2;stroke-opacity:.1;fill:none;clip-path:url(#b)"/><path d="m1855.4 1423.18v-1299.708" style="stroke-linecap:round;stroke-linejoin:round;stroke-width:2;stroke-opacity:.1;fill:none;clip-path:url(#b)"/><path d="m2074.5 1423.18v-1299.708" style="stroke-linecap:round;stroke-linejoin:round;stroke-width:2;stroke-opacity:.1;fill:none;clip-path:url(#b)"/><path d="m2293.6 1423.18v-1299.708" style="stroke-linecap:round;stroke-linejoin:round;stroke-width:2;stroke-opacity:.1;fill:none;clip-path:url(#b)"/><path clip-path="url(#a)" d="m262.551 1423.18h2090.209" fill="none" stroke-linecap="round" stroke-linejoin="round" stroke-width="4"/><path clip-path="url(#a)" d="m540.807 1423.18v-18.9" fill="none" stroke-linecap="round" stroke-linejoin="round" stroke-width="4"/><path clip-path="url(#a)" d="m759.906 1423.18v-18.9" fill="none" stroke-linecap="round" stroke-linejoin="round" stroke-width="4"/><path clip-path="url(#a)" d="m979.005 1423.18v-18.9" fill="none" stroke-linecap="round" stroke-linejoin="round" stroke-width="4"/><path clip-path="url(#a)" d="m1198.1 1423.18v-18.9" fill="none" stroke-linecap="round" stroke-linejoin="round" stroke-width="4"/><path clip-path="url(#a)" d="m1417.2 1423.18v-18.9" fill="none" stroke-linecap="round" stroke-linejoin="round" stroke-width="4"/><path clip-path="url(#a)" d="m1636.3 1423.18v-18.9" fill="none" stroke-linecap="round" stroke-linejoin="round" stroke-width="4"/><path clip-path="url(#a)" d="m1855.4 1423.18v-18.9" fill="none" stroke-linecap="round" stroke-linejoin="round" stroke-width="4"/><path clip-path="url(#a)" d="m2074.5 1423.18v-18.9" fill="none" stroke-linecap="round" stroke-linejoin="round" stroke-width="4"/><path clip-path="url(#a)" d="m2293.6 1423.18v-18.9" fill="none" stroke-linecap="round" stroke-linejoin="round" stroke-width="4"/></g><path clip-path="url(#a)" d="m531.189 1481.64h7.639v-26.36l-8.31 1.67v-4.26l8.264-1.67h4.675v30.62h7.639v3.94h-19.907z"/><path clip-path="url(#a)" d="m754.559 1481.64h16.319v3.94h-21.944v-3.94q2.662-2.75 7.245-7.38 4.607-4.65 5.787-5.99 2.246-2.53 3.125-4.26.903-1.76.903-3.45 0-2.76-1.944-4.49-1.922-1.74-5.024-1.74-2.199 0-4.652.76-2.431.77-5.209 2.32v-4.72q2.824-1.14 5.278-1.72 2.454-.58 4.491-.58 5.37 0 8.565 2.69 3.194 2.69 3.194 7.18 0 2.13-.81 4.05-.787 1.89-2.894 4.49-.578.67-3.68 3.89-3.102 3.19-8.75 8.95z"/><path clip-path="url(#a)" d="m983.253 1466.95q3.356.71 5.231 2.98 1.898 2.27 1.898 5.6 0 5.12-3.518 7.92-3.519 2.8-10 2.8-2.176 0-4.491-.44-2.292-.42-4.745-1.27v-4.52q1.944 1.14 4.259 1.72 2.315.58 4.838.58 4.398 0 6.69-1.74 2.315-1.74 2.315-5.05 0-3.05-2.153-4.76-2.13-1.74-5.949-1.74h-4.028v-3.84h4.213q3.449 0 5.278-1.37 1.828-1.39 1.828-3.98 0-2.66-1.898-4.07-1.875-1.44-5.393-1.44-1.922 0-4.121.42-2.199.41-4.838 1.29v-4.16q2.662-.74 4.977-1.11 2.338-.38 4.398-.38 5.324 0 8.426 2.44 3.102 2.4 3.102 6.52 0 2.87-1.643 4.86-1.644 1.97-4.676 2.74z"/><path clip-path="url(#a)" d="m1201.11 1455.09-11.8 18.45h11.8zm-1.22-4.07h5.88v22.52h4.93v3.89h-4.93v8.15h-4.66v-8.15h-15.6v-4.51z"/><path clip-path="url(#a)" d="m1407.48 1451.02h18.36v3.94h-14.08v8.47q1.02-.35 2.04-.51 1.02-.19 2.04-.19 5.78 0 9.16 3.17 3.38 3.18 3.38 8.59 0 5.58-3.47 8.68-3.47 3.08-9.79 3.08-2.18 0-4.44-.37-2.25-.37-4.66-1.11v-4.7q2.09 1.13 4.31 1.69 2.22.56 4.7.56 4 0 6.34-2.11 2.34-2.11 2.34-5.72 0-3.61-2.34-5.72-2.34-2.1-6.34-2.1-1.88 0-3.75.41-1.85.42-3.8 1.3z"/><path clip-path="url(#a)" d="m1636.71 1466.44q-3.15 0-5 2.15-1.83 2.15-1.83 5.9 0 3.73 1.83 5.9 1.85 2.16 5 2.16 3.15 0 4.97-2.16 1.86-2.17 1.86-5.9 0-3.75-1.86-5.9-1.82-2.15-4.97-2.15m9.28-14.66v4.26q-1.76-.83-3.57-1.27-1.78-.44-3.54-.44-4.63 0-7.08 3.12-2.43 3.13-2.78 9.45 1.37-2.01 3.43-3.08 2.06-1.09 4.53-1.09 5.21 0 8.22 3.17 3.03 3.15 3.03 8.59 0 5.33-3.14 8.54-3.15 3.22-8.38 3.22-6 0-9.17-4.58-3.17-4.61-3.17-13.34 0-8.19 3.89-13.05 3.89-4.89 10.44-4.89 1.76 0 3.54.35 1.81.35 3.75 1.04z"/><path clip-path="url(#a)" d="m1844.29 1451.02h22.22v1.99l-12.54 32.57h-4.89l11.81-30.62h-16.6z"/><path clip-path="url(#a)" d="m2074.5 1469.17q-3.33 0-5.25 1.78-1.9 1.78-1.9 4.91 0 3.12 1.9 4.91 1.92 1.78 5.25 1.78 3.33 0 5.25-1.78 1.93-1.81 1.93-4.91 0-3.13-1.93-4.91-1.89-1.78-5.25-1.78m-4.68-1.99q-3-.74-4.69-2.8-1.67-2.06-1.67-5.03 0-4.14 2.94-6.55 2.96-2.41 8.1-2.41 5.16 0 8.1 2.41 2.94 2.41 2.94 6.55 0 2.97-1.69 5.03-1.66 2.06-4.65 2.8 3.38.78 5.25 3.08 1.9 2.29 1.9 5.6 0 5.02-3.08 7.71-3.05 2.68-8.77 2.68-5.72 0-8.8-2.68-3.05-2.69-3.05-7.71 0-3.31 1.9-5.6 1.89-2.3 5.27-3.08m-1.71-7.39q0 2.69 1.67 4.19 1.69 1.51 4.72 1.51 3.01 0 4.7-1.51 1.71-1.5 1.71-4.19 0-2.68-1.71-4.19-1.69-1.5-4.7-1.5-3.03 0-4.72 1.5-1.67 1.51-1.67 4.19z"/><path clip-path="url(#a)" d="m2283.9 1484.86v-4.26q1.76.84 3.56 1.28 1.81.44 3.55.44 4.63 0 7.06-3.11 2.45-3.12 2.8-9.46-1.34 1.99-3.41 3.05-2.06 1.07-4.56 1.07-5.18 0-8.21-3.13-3.01-3.15-3.01-8.59 0-5.32 3.15-8.54 3.14-3.22 8.38-3.22 5.99 0 9.14 4.61 3.17 4.58 3.17 13.33 0 8.18-3.89 13.06-3.86 4.86-10.42 4.86-1.75 0-3.56-.35-1.81-.34-3.75-1.04m9.31-14.65q3.14 0 4.97-2.15 1.85-2.16 1.85-5.91 0-3.72-1.85-5.88-1.83-2.17-4.97-2.17-3.15 0-5 2.17-1.83 2.16-1.83 5.88 0 3.75 1.83 5.91 1.85 2.15 5 2.15z"/><path clip-path="url(#a)" d="m1189.28 1517.51q0 1.32-1.13 1.32-3.64.13-5.12 1.36-1.45 1.19-2 3.51l-9.21 36.74q-.32 1.16-.51 1.29-.2.1-.55.1-.45 0-.71-.23-.22-.22-.55-1.03l-16.42-38.84q-.13-.26-.29-.61-.16-.35-.29-.58l-8.73 34.82q-.26.99-.26 1.51 0 1.26.87 2.06.91.77 3.48.87 1.32 0 1.32.71 0 1.32-1.19 1.32-1.09 0-3.38-.1-2.29-.09-3.41-.09-1.1 0-3.32.09-2.22.1-3.29.1-.83 0-.83-.74 0-.58.22-.87.23-.32.42-.36.19-.06.48-.06 1.94-.06 3.26-.45 1.32-.39 2.06-1.13.77-.74 1.12-1.48.39-.77.68-1.9l8.82-35.43q0-.58-4.47-.58-.77 0-1.1-.03-.29-.03-.51-.19-.23-.16-.23-.52 0-.9.39-1.09.39-.23 1.51-.23h8.86q1.13 0 1.42.2.29.16.67 1.06l14.59 34.43 7.38-29.34q.19-.58.19-1.39 0-1.29-.97-2.06-.93-.8-3.51-.84-1.19 0-1.19-.74 0-.61.23-.9.26-.32.45-.35.22-.07.51-.07 1.1 0 3.35.1 2.26.1 3.38.1 1.1 0 3.32-.1 2.26-.1 3.35-.1.39 0 .58.2.23.16.26.35z"/><path clip-path="url(#a)" d="m1221.07 1543.83q0 3.51-1.55 6.98-1.54 3.45-4.02 6.03-2.45 2.54-5.67 4.15-3.22 1.58-6.44 1.58-4.61 0-7.6-3.12-2.97-3.16-2.97-8.06 0-4.57 2.55-8.92 2.58-4.38 6.7-7.08 4.12-2.71 8.44-2.71 4.54 0 7.53 3.06 3.03 3.06 3.03 8.09m-4.83-2.58q0-3.12-1.52-5.12-1.51-2-4.28-2-.8 0-1.74.26-.93.22-2.16.84-1.19.61-2.54 1.9-1.32 1.25-2.48 3.06-1.51 2.38-2.67 6.76-1.13 4.35-1.13 6.96 0 3.6 1.67 5.41 1.68 1.77 4.06 1.77 2.32 0 4.77-1.61 2.48-1.64 4.19-4.45 1.7-2.9 2.77-7.15 1.06-4.28 1.06-6.63z"/><path clip-path="url(#a)" d="m1240.02 1520.61q0 1.41-1.16 2.48-1.12 1.03-2.35 1.03-1.12 0-1.83-.68-.68-.71-.68-1.71 0-1.32 1.13-2.41 1.13-1.1 2.45-1.1 1.09 0 1.77.68.67.67.67 1.71m.58 31.78q0 .26-.29 1.29-.29 1-.99 2.54-.68 1.52-1.61 2.94-.94 1.41-2.48 2.41-1.52 1-3.26 1-2.35 0-3.89-1.55-1.52-1.54-1.52-3.86 0-1.26 1.52-5.28 4.38-11.73 4.54-12.21.74-1.83.74-3.44 0-.75-.16-1.2-.16-.48-.49-.64-.32-.19-.51-.23-.16-.03-.49-.03-1.9 0-3.67 1.93-1.77 1.94-2.99 6.25-.26.81-.42 1-.16.19-.64.19-.81-.03-.81-.67 0-.2.23-.94.22-.77.64-1.93.42-1.19 1.16-2.41.74-1.26 1.64-2.36.94-1.09 2.26-1.8 1.32-.71 2.8-.71 2.41 0 3.89 1.58 1.52 1.55 1.52 3.83 0 1.26-.87 3.48-1.06 2.9-1.45 3.83l-2.58 6.93q-.93 2.51-1.22 3.28-.26.74-.48 1.65-.2.87-.2 1.67 0 1.13.36 1.64.38.52 1.22.52 2.32 0 4.03-2.29 1.7-2.32 2.7-5.86.03-.1.07-.26.25-.8.51-.9.13-.03.39-.03.8 0 .8.64z"/><path clip-path="url(#a)" d="m1271.83 1538.35q0 1.8-.9 2.77-.9.93-2.13.93-.99 0-1.54-.58-.52-.58-.52-1.35 0-1.13.9-2.03.94-.9 2.29-.93-.45-1.19-1.64-1.9-1.19-.74-2.26-.94-1.03-.19-2.06-.19-2.03 0-3.57.65-1.55.64-2.32 1.64-.77.96-1.13 1.9-.35.93-.35 1.74 0 .71.16 1.29.19.54.64.96.45.39.78.65.35.25 1.12.48.78.22 1.1.32.32.07 1.22.26 1.87.39 2.71.61.84.19 1.93.74 1.13.55 1.96 1.42 2.03 2.03 2.03 4.83 0 1.03-.35 2.29-.32 1.25-1.26 2.83-.93 1.58-2.35 2.83-1.41 1.26-3.86 2.13-2.42.87-5.45.87-4.21 0-6.82-1.77-2.61-1.81-2.61-4.64 0-2.06 1.13-3.19 1.12-1.16 2.57-1.16 1.1 0 1.77.61.68.58.68 1.68 0 1.48-1.19 2.61-1.19 1.13-2.96.9 1.51 3.48 7.5 3.48 2.25 0 3.99-.58 1.77-.61 2.74-1.45 1-.87 1.64-1.93.65-1.07.84-1.87.23-.81.23-1.42 0-1.06-.42-1.87-.42-.8-1-1.25-.55-.49-1.61-.87-1.03-.42-1.77-.58-.74-.16-2.06-.42-.62-.13-1-.19-.39-.1-1.19-.36-.78-.29-1.32-.58-.52-.29-1.2-.8-.67-.52-1.09-1.13-.42-.61-.71-1.51-.29-.91-.29-1.97 0-.96.29-2.12.32-1.16 1.13-2.52.83-1.35 2.03-2.44 1.19-1.1 3.18-1.81 2.03-.74 4.51-.74 3.61 0 5.74 1.68 2.12 1.64 2.12 3.99z"/><path clip-path="url(#a)" d="m1303 1554.2q.25.29.25.58 0 .29-.64 1.12-.61.84-1.93 1.97-1.32 1.12-3.03 2.19-1.71 1.06-4.22 1.77-2.51.74-5.15.74-4.74 0-7.57-3.38-2.8-3.38-2.8-8.57 0-3.32 1.09-6.25 1.1-2.96 2.87-5.05 1.8-2.1 4.06-3.61 2.28-1.55 4.67-2.29 2.38-.74 4.6-.74 3.25 0 5.15 1.64 1.9 1.65 1.9 3.97 0 .54-.16 1.22-.13.68-.58 1.74-.41 1.06-1.51 2.12-1.09 1.04-2.7 1.71-3.58 1.52-10.09 1.52h-3.51q-1.03 4.15-1.03 6.86 0 1.06.2 2.15.19 1.07.71 2.42.54 1.35 1.77 2.22 1.25.84 3.06.84.58 0 1.19-.03.64-.04 2.25-.39 1.64-.35 3.09-.97 1.45-.61 3.29-1.93 1.87-1.35 3.35-3.19.51-.67.87-.67.29 0 .55.29m-2.94-15.91q0-1.78-1.32-2.97-1.28-1.19-3.54-1.19-.71 0-1.58.16-.87.16-2.32.84-1.41.68-2.67 1.8-1.25 1.1-2.51 3.26-1.26 2.12-2 4.96h2.71q.93 0 1.61 0 .67-.04 2.16-.16 1.51-.13 2.6-.36 1.1-.26 2.48-.77 1.39-.52 2.26-1.19.9-.71 1.51-1.84.61-1.13.61-2.54z"/><path clip-path="url(#a)" d="m1365.61 1545.53q0 .2-.26.94l-5.22 14.23q-.29.84-.58 1-.29.13-1.48.13h-30.53q-.74 0-1.03-.03-.29-.04-.52-.2-.22-.16-.22-.51 0-.65.22-.94.26-.29.55-.32.29-.03 1-.03 1.61 0 2.58-.1.96-.09 1.58-.22.64-.16.96-.61.36-.46.52-.84.16-.42.38-1.35l8.83-35.43q.26-1.06.26-1.22 0-.62-.39-.78-.36-.19-1.39-.29l-2.51-.13q-.77 0-1.09-.03-.29-.03-.52-.19-.22-.16-.22-.52 0-.61.22-.9.26-.32.45-.35.23-.07.58-.07l8.76.2 9.76-.2q1.06 0 1.06.81 0 .9-.45 1.09-.45.16-2.06.16-3.09 0-4.51.33-1.38.32-1.77.87-.35.51-.71 1.9l-8.92 35.62q-.32 1.19-.32 1.51 0 .35.16.48.19.1.71.16.58.1 1.45.1h6.18q1.87 0 3.51-.29 1.64-.29 2.9-.71 1.29-.42 2.45-1.19 1.16-.77 1.96-1.45.84-.71 1.65-1.8.83-1.13 1.32-1.9.51-.81 1.09-2.1.58-1.32.87-2.06.32-.77.81-2.09.29-.68.38-.87.1-.19.26-.35.19-.17.48-.17.39 0 .58.23.23.22.23.48z"/><path clip-path="url(#a)" d="m1395.32 1554.2q.26.29.26.58 0 .29-.64 1.12-.61.84-1.93 1.97-1.33 1.12-3.03 2.19-1.71 1.06-4.22 1.77-2.51.74-5.15.74-4.74 0-7.57-3.38-2.8-3.38-2.8-8.57 0-3.32 1.09-6.25 1.1-2.96 2.87-5.05 1.8-2.1 4.05-3.61 2.29-1.55 4.67-2.29 2.39-.74 4.61-.74 3.25 0 5.15 1.64 1.9 1.65 1.9 3.97 0 .54-.16 1.22-.13.68-.58 1.74-.42 1.06-1.51 2.12-1.1 1.04-2.71 1.71-3.57 1.52-10.08 1.52h-3.51q-1.03 4.15-1.03 6.86 0 1.06.2 2.15.19 1.07.7 2.42.55 1.35 1.78 2.22 1.25.84 3.05.84.58 0 1.2-.03.64-.04 2.25-.39 1.64-.35 3.09-.97 1.45-.61 3.29-1.93 1.87-1.35 3.35-3.19.51-.67.87-.67.29 0 .54.29m-2.93-15.91q0-1.78-1.32-2.97-1.29-1.19-3.54-1.19-.71 0-1.58.16-.87.16-2.32.84-1.41.68-2.67 1.8-1.26 1.1-2.51 3.26-1.26 2.12-2 4.96h2.71q.93 0 1.61 0 .67-.04 2.15-.16 1.52-.13 2.61-.36 1.1-.26 2.48-.77 1.39-.52 2.26-1.19.9-.71 1.51-1.84.61-1.13.61-2.54z"/><path clip-path="url(#a)" d="m1427.05 1537.29q0 .84-.23 2.48-.22 1.64-.77 4.02-.55 2.39-1.35 4.9-.77 2.51-2 5.02-1.22 2.48-2.67 4.45-1.45 1.96-3.48 3.19-2.03 1.22-4.31 1.22-1.07 0-2.1-.16-1.03-.16-2.32-.68-1.29-.51-2.22-1.35-.93-.87-1.58-2.42-.64-1.54-.64-3.57 0-2.09.77-4.9.81-2.83 3-8.63 1.12-2.99 1.12-4.63 0-.75-.16-1.2-.16-.48-.48-.64-.32-.19-.52-.23-.16-.03-.48-.03-1.77 0-3.57 1.84-1.81 1.83-3.1 6.34-.25.81-.41 1-.16.19-.65.19-.8-.03-.8-.67 0-.2.22-.94.23-.77.65-1.93.42-1.19 1.16-2.41.74-1.26 1.64-2.36.93-1.09 2.25-1.8 1.32-.71 2.8-.71 2.42 0 3.9 1.58 1.52 1.55 1.52 3.83 0 1.26-.81 3.29-1.35 3.67-1.96 5.44-.62 1.77-1.26 4.28-.61 2.52-.61 4.26 0 2.64 1.22 4.18 1.23 1.55 3.67 1.55 2.19 0 4.16-1.58 1.99-1.61 3.31-3.9 1.33-2.32 2.32-4.89 1-2.61 1.45-4.58.49-1.99.49-2.93 0-3.25-2.23-5.37-.61-.62-.83-1-.23-.39-.23-1 0-1.13 1-2.13 1.03-1.03 2.22-1.03 1.1 0 2 1.1.9 1.09.9 3.51z"/><path clip-path="url(#a)" d="m1456.75 1554.2q.26.29.26.58 0 .29-.65 1.12-.61.84-1.93 1.97-1.32 1.12-3.03 2.19-1.7 1.06-4.21 1.77-2.52.74-5.16.74-4.73 0-7.57-3.38-2.8-3.38-2.8-8.57 0-3.32 1.1-6.25 1.09-2.96 2.86-5.05 1.81-2.1 4.06-3.61 2.29-1.55 4.67-2.29 2.38-.74 4.61-.74 3.25 0 5.15 1.64 1.9 1.65 1.9 3.97 0 .54-.16 1.22-.13.68-.58 1.74-.42 1.06-1.51 2.12-1.1 1.04-2.71 1.71-3.57 1.52-10.08 1.52h-3.51q-1.03 4.15-1.03 6.86 0 1.06.19 2.15.19 1.07.71 2.42.55 1.35 1.77 2.22 1.26.84 3.06.84.58 0 1.19-.03.65-.04 2.26-.39 1.64-.35 3.09-.97 1.45-.61 3.28-1.93 1.87-1.35 3.35-3.19.52-.67.87-.67.29 0 .55.29m-2.93-15.91q0-1.78-1.32-2.97-1.29-1.19-3.54-1.19-.71 0-1.58.16-.87.16-2.32.84-1.42.68-2.67 1.8-1.26 1.1-2.52 3.26-1.25 2.12-1.99 4.96h2.7q.94 0 1.61 0 .68-.04 2.16-.16 1.51-.13 2.61-.36 1.09-.26 2.48-.77 1.38-.52 2.25-1.19.91-.71 1.52-1.84.61-1.13.61-2.54z"/><path clip-path="url(#a)" d="m1476.2 1516.77-9.5 38.13q-.39 1.52-.39 3.16 0 3.03 2 3.03.93 0 1.71-.61.77-.65 1.35-1.9.61-1.29 1-2.52.42-1.22.93-3.12.16-.74.32-.97.16-.22.61-.22.81 0 .81.64-.81 3.96-2 6.48-1.74 3.7-4.96 3.7-2.41 0-4.22-1.68-1.77-1.7-1.77-4.41 0-1.03.33-2.25l8.3-32.98.23-1.29q0-.35-.13-.55-.13-.19-.9-.38-.74-.2-2.22-.2-.61 0-.9-.03-.26-.03-.52-.19-.23-.16-.23-.52 0-.58.23-.9.26-.32.45-.39.19-.06.58-.09.55-.03 2.38-.19 1.84-.2 3.42-.33 1.58-.13 2.25-.13.39 0 .58.2.23.16.26.35z"/><path d="m262.551 1348.12h2090.209" style="stroke:#000;stroke-linecap:round;stroke-linejoin:round;stroke-width:2;stroke-opacity:.1;fill:none;clip-path:url(#b)"/><path d="m262.551 1118.61h2090.209" style="stroke:#000;stroke-linecap:round;stroke-linejoin:round;stroke-width:2;stroke-opacity:.1;fill:none;clip-path:url(#b)"/><path d="m262.551 889.099h2090.209" style="stroke:#000;stroke-linecap:round;stroke-linejoin:round;stroke-width:2;stroke-opacity:.1;fill:none;clip-path:url(#b)"/><path d="m262.551 659.589h2090.209" style="stroke:#000;stroke-linecap:round;stroke-linejoin:round;stroke-width:2;stroke-opacity:.1;fill:none;clip-path:url(#b)"/><path d="m262.551 430.079h2090.209" style="stroke:#000;stroke-linecap:round;stroke-linejoin:round;stroke-width:2;stroke-opacity:.1;fill:none;clip-path:url(#b)"/><path d="m262.551 200.569h2090.209" style="stroke:#000;stroke-linecap:round;stroke-linejoin:round;stroke-width:2;stroke-opacity:.1;fill:none;clip-path:url(#b)"/><path d="m262.551 1423.18v-1299.708" style="stroke:#000;stroke-linecap:round;stroke-linejoin:round;stroke-width:4;fill:none;clip-path:url(#a)"/><path d="m262.551 1348.12h18.898" style="stroke:#000;stroke-linecap:round;stroke-linejoin:round;stroke-width:4;fill:none;clip-path:url(#a)"/><path d="m262.551 1118.61h18.898" style="stroke:#000;stroke-linecap:round;stroke-linejoin:round;stroke-width:4;fill:none;clip-path:url(#a)"/><path d="m262.551 889.099h18.898" style="stroke:#000;stroke-linecap:round;stroke-linejoin:round;stroke-width:4;fill:none;clip-path:url(#a)"/><path d="m262.551 659.589h18.898" style="stroke:#000;stroke-linecap:round;stroke-linejoin:round;stroke-width:4;fill:none;clip-path:url(#a)"/><path d="m262.551 430.079h18.898" style="stroke:#000;stroke-linecap:round;stroke-linejoin:round;stroke-width:4;fill:none;clip-path:url(#a)"/><path d="m262.551 200.569h18.898" style="stroke:#000;stroke-linecap:round;stroke-linejoin:round;stroke-width:4;fill:none;clip-path:url(#a)"/><path clip-path="url(#a)" d="m144.329 1330.84h18.357v3.93h-14.074v8.48q1.018-.35 2.037-.51 1.018-.19 2.037-.19 5.787 0 9.166 3.17 3.38 3.17 3.38 8.59 0 5.58-3.472 8.68-3.472 3.08-9.792 3.08-2.176 0-4.444-.37-2.245-.37-4.653-1.11v-4.7q2.083 1.13 4.306 1.69 2.222.55 4.699.55 4.004 0 6.342-2.1 2.338-2.11 2.338-5.72 0-3.61-2.338-5.72-2.338-2.1-6.342-2.1-1.875 0-3.75.41-1.852.42-3.797 1.3z"/><path clip-path="url(#a)" d="m184.445 1333.92q-3.611 0-5.44 3.56-1.805 3.54-1.805 10.67 0 7.11 1.805 10.67 1.829 3.55 5.44 3.55 3.634 0 5.44-3.55 1.828-3.56 1.828-10.67 0-7.13-1.828-10.67-1.806-3.56-5.44-3.56m0-3.71q5.81 0 8.866 4.61 3.078 4.58 3.078 13.33 0 8.73-3.078 13.34-3.056 4.58-8.866 4.58-5.81 0-8.889-4.58-3.055-4.61-3.055-13.34 0-8.75 3.055-13.33 3.079-4.61 8.889-4.61z"/><path clip-path="url(#a)" d="m214.607 1333.92q-3.611 0-5.44 3.56-1.805 3.54-1.805 10.67 0 7.11 1.805 10.67 1.829 3.55 5.44 3.55 3.634 0 5.44-3.55 1.828-3.56 1.828-10.67 0-7.13-1.828-10.67-1.806-3.56-5.44-3.56m0-3.71q5.81 0 8.866 4.61 3.078 4.58 3.078 13.33 0 8.73-3.078 13.34-3.056 4.58-8.866 4.58-5.81 0-8.889-4.58-3.056-4.61-3.056-13.34 0-8.75 3.056-13.33 3.079-4.61 8.889-4.61z"/><path clip-path="url(#a)" d="m154.862 1116.75q-3.148 0-5 2.15-1.829 2.15-1.829 5.9 0 3.73 1.829 5.9 1.852 2.16 5 2.16 3.148 0 4.977-2.16 1.851-2.17 1.851-5.9 0-3.75-1.851-5.9-1.829-2.15-4.977-2.15m9.282-14.66v4.26q-1.759-.83-3.565-1.27-1.782-.44-3.541-.44-4.63 0-7.084 3.12-2.43 3.13-2.777 9.45 1.365-2.02 3.426-3.08 2.06-1.09 4.537-1.09 5.208 0 8.217 3.17 3.033 3.15 3.033 8.59 0 5.32-3.149 8.54-3.148 3.22-8.379 3.22-5.996 0-9.167-4.58-3.171-4.61-3.171-13.34 0-8.19 3.889-13.05 3.889-4.89 10.44-4.89 1.759 0 3.541.35 1.806.35 3.75 1.04z"/><path clip-path="url(#a)" d="m184.445 1104.41q-3.611 0-5.44 3.56-1.805 3.54-1.805 10.67 0 7.11 1.805 10.67 1.829 3.55 5.44 3.55 3.634 0 5.44-3.55 1.828-3.56 1.828-10.67 0-7.13-1.828-10.67-1.806-3.56-5.44-3.56m0-3.71q5.81 0 8.866 4.61 3.078 4.58 3.078 13.33 0 8.73-3.078 13.34-3.056 4.58-8.866 4.58-5.81 0-8.889-4.58-3.055-4.61-3.055-13.34 0-8.75 3.055-13.33 3.079-4.61 8.889-4.61z"/><path clip-path="url(#a)" d="m214.607 1104.41q-3.611 0-5.44 3.56-1.805 3.54-1.805 10.67 0 7.11 1.805 10.67 1.829 3.55 5.44 3.55 3.634 0 5.44-3.55 1.828-3.56 1.828-10.67 0-7.13-1.828-10.67-1.806-3.56-5.44-3.56m0-3.71q5.81 0 8.866 4.61 3.078 4.58 3.078 13.33 0 8.73-3.078 13.34-3.056 4.58-8.866 4.58-5.81 0-8.889-4.58-3.056-4.61-3.056-13.34 0-8.75 3.056-13.33 3.079-4.61 8.889-4.61z"/><path clip-path="url(#a)" d="m143.103 871.819h22.222v1.99l-12.547 32.57h-4.884l11.806-30.625h-16.597z"/><path clip-path="url(#a)" d="m184.445 874.897q-3.611 0-5.44 3.565-1.805 3.542-1.805 10.671 0 7.107 1.805 10.672 1.829 3.541 5.44 3.541 3.634 0 5.44-3.541 1.828-3.565 1.828-10.672 0-7.129-1.828-10.671-1.806-3.565-5.44-3.565m0-3.703q5.81 0 8.866 4.606 3.078 4.584 3.078 13.333 0 8.727-3.078 13.334-3.056 4.583-8.866 4.583-5.81 0-8.889-4.583-3.055-4.607-3.055-13.334 0-8.749 3.055-13.333 3.079-4.606 8.889-4.606z"/><path clip-path="url(#a)" d="m214.607 874.897q-3.611 0-5.44 3.565-1.805 3.542-1.805 10.671 0 7.107 1.805 10.672 1.829 3.541 5.44 3.541 3.634 0 5.44-3.541 1.828-3.565 1.828-10.672 0-7.129-1.828-10.671-1.806-3.565-5.44-3.565m0-3.703q5.81 0 8.866 4.606 3.078 4.584 3.078 13.333 0 8.727-3.078 13.334-3.056 4.583-8.866 4.583-5.81 0-8.889-4.583-3.056-4.607-3.056-13.334 0-8.749 3.056-13.333 3.079-4.606 8.889-4.606z"/><path clip-path="url(#a)" d="m154.283 660.457q-3.333 0-5.255 1.782-1.898 1.783-1.898 4.908 0 3.125 1.898 4.907 1.922 1.782 5.255 1.782 3.333 0 5.255-1.782 1.921-1.806 1.921-4.907 0-3.125-1.921-4.908-1.898-1.782-5.255-1.782m-4.676-1.991q-3.009-.741-4.699-2.801-1.667-2.06-1.667-5.023 0-4.143 2.94-6.551 2.963-2.407 8.102-2.407 5.162 0 8.102 2.407 2.94 2.408 2.94 6.551 0 2.963-1.69 5.023-1.667 2.06-4.653 2.801 3.38.787 5.255 3.079 1.898 2.291 1.898 5.602 0 5.023-3.079 7.708-3.055 2.685-8.773 2.685-5.717 0-8.796-2.685-3.056-2.685-3.056-7.708 0-3.311 1.898-5.602 1.899-2.292 5.278-3.079m-1.713-7.384q0 2.685 1.667 4.19 1.69 1.504 4.722 1.504 3.009 0 4.699-1.504 1.713-1.505 1.713-4.19 0-2.685-1.713-4.19-1.69-1.504-4.699-1.504-3.032 0-4.722 1.504-1.667 1.505-1.667 4.19z"/><path clip-path="url(#a)" d="m184.445 645.388q-3.611 0-5.44 3.564-1.805 3.542-1.805 10.672 0 7.106 1.805 10.671 1.829 3.541 5.44 3.541 3.634 0 5.44-3.541 1.828-3.565 1.828-10.671 0-7.13-1.828-10.672-1.806-3.564-5.44-3.564m0-3.704q5.81 0 8.866 4.606 3.078 4.584 3.078 13.334 0 8.726-3.078 13.333-3.056 4.583-8.866 4.583-5.81 0-8.889-4.583-3.055-4.607-3.055-13.333 0-8.75 3.055-13.334 3.079-4.606 8.889-4.606z"/><path clip-path="url(#a)" d="m214.607 645.388q-3.611 0-5.44 3.564-1.805 3.542-1.805 10.672 0 7.106 1.805 10.671 1.829 3.541 5.44 3.541 3.634 0 5.44-3.541 1.828-3.565 1.828-10.671 0-7.13-1.828-10.672-1.806-3.564-5.44-3.564m0-3.704q5.81 0 8.866 4.606 3.078 4.584 3.078 13.334 0 8.726-3.078 13.333-3.056 4.583-8.866 4.583-5.81 0-8.889-4.583-3.056-4.607-3.056-13.333 0-8.75 3.056-13.334 3.079-4.606 8.889-4.606z"/><path clip-path="url(#a)" d="m144.422 446.641v-4.259q1.759.833 3.565 1.273 1.805.44 3.541.44 4.63 0 7.061-3.102 2.453-3.125 2.801-9.467-1.343 1.99-3.403 3.055-2.06 1.065-4.56 1.065-5.186 0-8.218-3.125-3.009-3.148-3.009-8.588 0-5.324 3.148-8.542 3.148-3.217 8.38-3.217 5.995 0 9.143 4.606 3.171 4.584 3.171 13.334 0 8.171-3.889 13.055-3.865 4.861-10.416 4.861-1.759 0-3.565-.347-1.806-.347-3.75-1.042m9.306-14.652q3.148 0 4.976-2.153 1.852-2.153 1.852-5.903 0-3.727-1.852-5.879-1.828-2.176-4.976-2.176-3.149 0-5 2.176-1.829 2.152-1.829 5.879 0 3.75 1.829 5.903 1.851 2.153 5 2.153z"/><path clip-path="url(#a)" d="m184.445 415.878q-3.611 0-5.44 3.564-1.805 3.542-1.805 10.672 0 7.106 1.805 10.671 1.829 3.542 5.44 3.542 3.634 0 5.44-3.542 1.828-3.565 1.828-10.671 0-7.13-1.828-10.672-1.806-3.564-5.44-3.564m0-3.704q5.81 0 8.866 4.606 3.078 4.584 3.078 13.334 0 8.726-3.078 13.333-3.056 4.583-8.866 4.583-5.81 0-8.889-4.583-3.055-4.607-3.055-13.333 0-8.75 3.055-13.334 3.079-4.606 8.889-4.606z"/><path clip-path="url(#a)" d="m214.607 415.878q-3.611 0-5.44 3.564-1.805 3.542-1.805 10.672 0 7.106 1.805 10.671 1.829 3.542 5.44 3.542 3.634 0 5.44-3.542 1.828-3.565 1.828-10.671 0-7.13-1.828-10.672-1.806-3.564-5.44-3.564m0-3.704q5.81 0 8.866 4.606 3.078 4.584 3.078 13.334 0 8.726-3.078 13.333-3.056 4.583-8.866 4.583-5.81 0-8.889-4.583-3.056-4.607-3.056-13.333 0-8.75 3.056-13.334 3.079-4.606 8.889-4.606z"/><path clip-path="url(#a)" d="m114.931 213.914h7.639v-26.366l-8.31 1.667v-4.259l8.264-1.667h4.676v30.625h7.639v3.935h-19.908z"/><path clip-path="url(#a)" d="m154.283 186.368q-3.611 0-5.44 3.564-1.805 3.542-1.805 10.672 0 7.106 1.805 10.671 1.829 3.542 5.44 3.542 3.634 0 5.44-3.542 1.829-3.565 1.829-10.671 0-7.13-1.829-10.672-1.806-3.564-5.44-3.564m0-3.704q5.81 0 8.866 4.606 3.078 4.584 3.078 13.334 0 8.727-3.078 13.333-3.056 4.583-8.866 4.583-5.81 0-8.889-4.583-3.055-4.606-3.055-13.333 0-8.75 3.055-13.334 3.079-4.606 8.889-4.606z"/><path clip-path="url(#a)" d="m184.445 186.368q-3.611 0-5.44 3.564-1.805 3.542-1.805 10.672 0 7.106 1.805 10.671 1.829 3.542 5.44 3.542 3.634 0 5.44-3.542 1.828-3.565 1.828-10.671 0-7.13-1.828-10.672-1.806-3.564-5.44-3.564m0-3.704q5.81 0 8.866 4.606 3.078 4.584 3.078 13.334 0 8.727-3.078 13.333-3.056 4.583-8.866 4.583-5.81 0-8.889-4.583-3.055-4.606-3.055-13.333 0-8.75 3.055-13.334 3.079-4.606 8.889-4.606z"/><path clip-path="url(#a)" d="m214.607 186.368q-3.611 0-5.44 3.564-1.805 3.542-1.805 10.672 0 7.106 1.805 10.671 1.829 3.542 5.44 3.542 3.634 0 5.44-3.542 1.828-3.565 1.828-10.671 0-7.13-1.828-10.672-1.806-3.564-5.44-3.564m0-3.704q5.81 0 8.866 4.606 3.078 4.584 3.078 13.334 0 8.727-3.078 13.333-3.056 4.583-8.866 4.583-5.81 0-8.889-4.583-3.056-4.606-3.056-13.333 0-8.75 3.056-13.334 3.079-4.606 8.889-4.606z"/><path clip-path="url(#a)" d="m65.1152 980.875q.6119 0 .934.258.2898.225.3543.451.0322.193.0322.483 0 .837-.0967 3.735-.0966 2.899-.0966 3.736 0 1.353.0966 4.123.0967 2.769.0967 4.122 0 .902-.7408.902-.4831 0-.7407-.097-.2899-.096-.3865-.354-.1288-.29-.1288-.451-.0322-.193-.0322-.676 0-.644-.0644-1.321-.0966-.676-.2899-1.513-.1932-.838-.6763-1.353-.4831-.548-1.1594-.548-.2899 0-2.6731.226-2.3832.225-5.1529.515-2.8019.29-3.1884.322v16.555q2.6087 1.51 4.4122 2.58 1.8035 1.06 2.4154 1.44.6119.39.9984.62.3865.22.6119.35 1.7069.93 2.4477.93 2.0611 0 2.3188-3.09 0-1.06.7729-1.06.5797 0 .9018.26.2898.26.3221.48.0322.19.0322.52 0 1.06-.0967 3.28-.0966 2.22-.0966 3.32 0 .93.0966 2.86.0967 1.94.0967 2.81 0 .38-.2255.61-.2254.22-.5153.22-.4509 0-.7085-.06-.2577-.1-.3865-.35-.1288-.26-.1288-.39-.0322-.13-.0644-.58-.161-2.45-1.3205-4.35-1.1916-1.93-4.2511-3.77l-38.5182-22.927q-.3865-.226-.5797-.387-.1933-.161-.3543-.483-.161-.354-.161-.869 0-.805.2576-.966.2255-.161 1.3205-.258l41.2235-4.026q.8695-.096 1.2238-.161.322-.096.6763-.515.3221-.451.4187-1.256.0644-.837.0644-2.383 0-.58.0322-.805 0-.226.161-.451.1611-.258.5153-.258m-15.9741 12.753-21.7389 2.094 21.7389 13.008z"/><path clip-path="url(#a)" d="m21.3797 962.758 38.1317 9.501q1.5137.386 3.1562.386 3.0273 0 3.0273-1.997 0-.934-.6119-1.707-.6441-.772-1.9001-1.352-1.2883-.612-2.5121-.999-1.2238-.418-3.124-.934-.7407-.161-.9661-.322-.2255-.161-.2255-.611 0-.806.6441-.806 3.9614.806 6.4734 1.997 3.7037 1.739 3.7037 4.96 0 2.415-1.6747 4.219-1.7069 1.771-4.4122 1.771-1.0306 0-2.2544-.322l-32.9788-8.309-1.2883-.225q-.3542 0-.5475.128-.1932.129-.3864.902-.1933.741-.1933 2.222 0 .612-.0322.902-.0322.258-.1932.515-.161.226-.5153.226-.5797 0-.9018-.226-.322-.257-.3864-.451-.0644-.193-.0967-.579-.0322-.548-.1932-2.383-.1932-1.836-.322-3.414-.1289-1.578-.1289-2.255 0-.386.1933-.579.161-.226.3542-.258z"/><path clip-path="url(#a)" d="m25.2122 941.09q1.417 0 2.4798 1.16 1.0306 1.127 1.0306 2.351 0 1.127-.6763 1.836-.7086.676-1.7069.676-1.3205 0-2.4155-1.127-1.095-1.128-1.095-2.448 0-1.095.6763-1.771.6764-.677 1.707-.677m31.7871-.579q.2577 0 1.2883.29.9984.289 2.5442.998 1.5137.676 2.9308 1.61 1.417.934 2.4154 2.48.9984 1.514.9984 3.253 0 2.351-1.5459 3.897-1.5459 1.513-3.8647 1.513-1.256 0-5.2818-1.513-11.7229-4.38-12.206-4.541-1.8357-.741-3.446-.741-.7407 0-1.1916.161-.4831.161-.6441.483-.1933.322-.2255.515-.0322.161-.0322.483 0 1.901 1.9324 3.672 1.9323 1.771 6.2479 2.995.8052.258.9984.419.1932.161.1932.644-.0322.805-.6763.805-.1932 0-.934-.225-.7729-.226-1.9323-.645-1.1916-.418-2.4155-1.159-1.256-.741-2.351-1.642-1.095-.934-1.8035-2.255-.7085-1.32-.7085-2.802 0-2.415 1.578-3.897 1.5459-1.513 3.8325-1.513 1.2561 0 3.4783.869 2.8985 1.063 3.8325 1.449l6.9242 2.577q2.5121.934 3.285 1.224.7408.257 1.6425.483.8696.193 1.6747.193 1.1272 0 1.6425-.354.5153-.387.5153-1.224 0-2.319-2.2866-4.026-2.3188-1.707-5.8615-2.705-.0966-.032-.2576-.064-.8052-.258-.9018-.516-.0322-.129-.0322-.386 0-.805.6441-.805z"/><path clip-path="url(#a)" d="m40.3811 905.932q.0322 0 1.1916.193l29.2752 7.343q1.5458.387 3.0917 1.482 1.5781 1.063 2.9308 2.77 1.3848 1.674 2.2222 4.251.8695 2.544.8695 5.475 0 4.67-.9984 6.731-.9661 2.029-3.0273 2.029-1.8035 0-2.8341-1.128-.9984-1.127-.9984-2.415 0-1.224.7085-1.868.7085-.644 1.6103-.644.9984 0 1.9968.676 1.0306.677 1.417 2.029.6764-2.158.6764-5.281 0-6.603-6.9887-9.437-.0966-.064-.1288-.064l-8.7278-2.19-.0644.096q.6441.548 1.3848 1.417.7085.838 1.5781 2.641.8696 1.804.8696 3.575 0 3.704-2.8342 6.248-2.8663 2.512-7.6005 2.512-3.4461 0-6.8921-1.385-3.4782-1.417-6.0225-3.607-2.5765-2.222-4.1868-5.056-1.6102-2.866-1.6102-5.636 0-1.932 1.1594-3.575 1.1272-1.642 2.9951-2.544-1.5459-.161-2.19-1.031-.6441-.902-.6441-1.674 0-.87.4831-1.385.4509-.548 1.2882-.548m4.0257 5.411q-.1932 0-.7085.129-.5475.128-1.417.515-.8696.354-1.6425.902-.773.547-1.3205 1.546-.5797.966-.5797 2.19 0 1.996 1.6747 3.993 1.6425 1.997 4.1868 3.382 2.4476 1.288 7.1819 2.512 4.7343 1.191 7.1497 1.191 2.3832 0 4.219-1.03 1.8357-1.031 1.8357-3.253 0-2.577-2.3832-5.346-2.4799-2.867-4.6055-3.35l-12.5925-3.188q-.7729-.193-.9984-.193z"/><path clip-path="url(#a)" d="m56.9993 865.1q.2577 0 1.2561.29.9984.29 2.5442.998 1.5459.677 2.963 1.611 1.3848.934 2.4154 2.48.9984 1.513.9984 3.252 0 2.319-1.5459 3.865-1.5459 1.546-3.8647 1.546-1.2882 0-3.0595-.676-11.4331-4.284-15.3622-4.284-4.6055 0-4.6055 3.575 0 1.771.6763 3.446.6442 1.643 1.5459 2.77.9018 1.127 2.1578 2.158 1.2238.998 2.0612 1.513.8051.483 1.6103.87l3.285.837q.9017.193 4.4122 1.127l5.9581 1.45q4.4444 1.03 4.8631 1.256.9017.322 1.3848 1.03.4831.709.4831 1.417 0 .806-.4831 1.353-.4831.548-1.3204.548-.1289 0-.6119-.097-.4831-.097-1.1595-.258-.6763-.161-1.0628-.225l-15.2333-3.833q-2.7697-.708-3.6393-.869-.9018-.193-1.9001-.193-3.0274 0-3.0274 2.061 0 1.674 1.9968 2.769 1.9967 1.095 5.8614 2.029 1.0628.29 1.2883.483.2254.162.2254.645-.0322.805-.6763.805-.161 0-1.2238-.258-1.0628-.258-2.5765-.741-1.5459-.515-2.5765-.998-.7729-.419-1.1272-.644-.3864-.258-1.1272-.87-.7729-.644-1.1272-1.481-.3864-.87-.3864-1.933 0-2.383 1.5458-4.122 1.5137-1.739 4.1868-1.964-5.7326-4.284-5.7326-10.274 0-3.543 1.8679-5.572 1.8679-2.029 5.1851-2.029.773 0 1.7714.161.9661.129 2.19.451 1.2238.29 2.1578.548.9339.257 2.4476.773 1.4815.515 2.1256.74.6441.226 2.1578.773 1.4814.516 1.6425.58 2.9951 1.192 4.702 1.192 1.1272 0 1.6425-.355.5153-.386.5153-1.223 0-2.255-2.2222-3.93-2.2544-1.706-5.9259-2.801-.8051-.258-.9983-.387-.1933-.161-.1933-.612 0-.773.6441-.773z"/><path clip-path="url(#a)" d="m56.9993 807.372q.2577 0 1.2561.29.9984.29 2.5442.998 1.5459.677 2.963 1.643 1.3848.934 2.4154 2.48.9984 1.513.9984 3.252 0 2.319-1.5459 3.865-1.5459 1.546-3.8647 1.546-1.256 0-3.6393-.87-10.8855-4.09-14.7824-4.09-4.6055 0-4.6055 3.575 0 2.029.8374 3.865.8373 1.836 1.9967 3.027 1.1594 1.192 2.4799 2.126 1.3204.934 2.19 1.352.8695.387 1.256.483l15.9097 3.962q1.3527.322 1.9968.547.6441.226 1.1916.838.5797.612.5797 1.578 0 .805-.4831 1.385-.4831.547-1.3204.547-.1289 0-.8052-.161-.6763-.161-1.6103-.386-.9339-.226-1.4814-.322-4.38-1.16-4.992-1.321l-7.6649-1.836q-3.8003-.998-5.475-.998-4.6055 0-4.6055 3.575 0 1.771.6763 3.446.6442 1.642 1.5459 2.77.9018 1.127 2.1578 2.157 1.2238.999 2.0612 1.514.8051.483 1.6103.87l3.285.837q.9017.193 4.4122 1.127l5.9581 1.449q4.4444 1.031 4.8631 1.256.9017.322 1.3848 1.031.4831.709.4831 1.417 0 .805-.4831 1.353-.4831.547-1.3204.547-.1289 0-.6119-.096-.4831-.097-1.1595-.258-.6763-.161-1.0628-.226l-15.2333-3.832q-2.7697-.709-3.6393-.87-.9018-.193-1.9001-.193-3.0274 0-3.0274 2.061 0 1.675 1.9968 2.77 1.9967 1.095 5.8614 2.029 1.0628.29 1.2883.483.2254.161.2254.644-.0322.805-.6763.805-.161 0-1.1916-.257-1.0306-.258-2.5765-.741-1.5781-.515-2.6087-1.063-.6763-.322-1.1272-.612-.4508-.29-1.1594-.869-.7085-.58-1.095-1.45-.3864-.869-.3864-1.932 0-2.351 1.5136-4.09 1.5137-1.771 4.219-1.997-5.7326-4.283-5.7326-10.273 0-3.382 1.7069-5.411 1.6425-1.9 4.6698-2.126-6.3767-4.444-6.3767-10.756 0-3.64 1.9001-5.604 1.8679-1.965 5.1529-1.965 1.7069 0 4.9597.87 3.2206.869 4.8309 1.449 1.6103.58 4.7021 1.707 2.9629 1.192 4.702 1.192 1.1272 0 1.6425-.387.5153-.386.5153-1.224 0-1.288-.7407-2.415-.773-1.127-2.029-1.932-1.2882-.838-2.5765-1.385-1.3204-.548-2.8019-.967-.8051-.257-.9983-.386-.1933-.161-.1933-.612 0-.805.6441-.805z"/><path clip-path="url(#a)" d="m58.8029 777.916q.2898-.258.5797-.258.2898 0 1.1272.644.8373.612 1.9645 1.932 1.1272 1.321 2.19 3.028 1.0628 1.707 1.7714 4.219.7407 2.512.7407 5.153 0 4.734-3.3816 7.568-3.3816 2.802-8.5668 2.802-3.3172 0-6.2479-1.095-2.963-1.095-5.0563-2.866-2.0934-1.804-3.6071-4.058-1.5459-2.287-2.2866-4.67-.7407-2.383-.7407-4.606 0-3.252 1.6425-5.153 1.6425-1.9 3.9613-1.9.5475 0 1.2238.161.6763.129 1.7391.58 1.0628.419 2.1256 1.514 1.0306 1.095 1.7069 2.705 1.5137 3.575 1.5137 10.08v3.511q4.1545 1.03 6.8598 1.03 1.0628 0 2.1578-.193 1.0628-.193 2.4155-.708 1.3526-.548 2.2222-1.772.8373-1.256.8373-3.059 0-.58-.0322-1.192-.0322-.644-.3865-2.254-.3542-1.643-.9661-3.092-.6119-1.449-1.9324-3.285-1.3526-1.868-3.1884-3.349-.6763-.516-.6763-.87 0-.29.2899-.547m-15.9097 2.93q-1.7713 0-2.963 1.321-1.1916 1.288-1.1916 3.542 0 .709.161 1.578.1611.87.8374 2.319.6763 1.417 1.8035 2.673 1.095 1.256 3.2528 2.512 2.1256 1.256 4.9597 1.997v-2.705q0-.934 0-1.61-.0322-.677-.161-2.158-.1288-1.514-.3543-2.609-.2576-1.095-.7729-2.48-.5153-1.385-1.1916-2.254-.7086-.902-1.8358-1.514-1.1272-.612-2.5442-.612z"/><path clip-path="url(#a)" d="m56.9993 738.144q.2577 0 1.2561.29.9984.29 2.5442.998 1.5459.677 2.963 1.611 1.3848.934 2.4154 2.48.9984 1.513.9984 3.252 0 2.319-1.5459 3.865-1.5459 1.546-3.8647 1.546-1.2882 0-3.0595-.676-11.4331-4.284-15.3622-4.284-4.6055 0-4.6055 3.575 0 1.771.6763 3.446.6442 1.643 1.5459 2.77.9018 1.127 2.1578 2.158 1.2238.998 2.0612 1.513.8051.483 1.6103.87l3.285.837q.9017.193 4.4122 1.127l5.9581 1.45q4.4444 1.03 4.8631 1.256.9017.322 1.3848 1.03.4831.709.4831 1.417 0 .806-.4831 1.353-.4831.548-1.3204.548-.1289 0-.6119-.097-.4831-.097-1.1595-.258-.6763-.161-1.0628-.225l-15.2333-3.833q-2.7697-.708-3.6393-.869-.9018-.193-1.9001-.193-3.0274 0-3.0274 2.061 0 1.674 1.9968 2.769 1.9967 1.095 5.8614 2.029 1.0628.29 1.2883.483.2254.161.2254.645-.0322.805-.6763.805-.161 0-1.2238-.258-1.0628-.258-2.5765-.741-1.5459-.515-2.5765-.998-.7729-.419-1.1272-.644-.3864-.258-1.1272-.87-.7729-.644-1.1272-1.481-.3864-.87-.3864-1.933 0-2.383 1.5458-4.122 1.5137-1.739 4.1868-1.964-5.7326-4.284-5.7326-10.274 0-3.543 1.8679-5.572 1.8679-2.029 5.1851-2.029.773 0 1.7714.161.9661.129 2.19.451 1.2238.29 2.1578.548.9339.257 2.4476.773 1.4815.515 2.1256.74.6441.226 2.1578.773 1.4814.516 1.6425.58 2.9951 1.192 4.702 1.192 1.1272 0 1.6425-.355.5153-.386.5153-1.223 0-2.255-2.2222-3.93-2.2544-1.706-5.9259-2.801-.8051-.258-.9983-.387-.1933-.161-.1933-.612 0-.773.6441-.773z"/><path clip-path="url(#a)" d="m38.7386 714.2q.9018 0 1.1272.419.1933.418.1933 1.578v6.183l19.4523 4.895q1.7069.387 3.1562.387 1.6103 0 2.3188-.483.7085-.515.7085-1.578 0-2.094-1.9001-4.348-1.9002-2.287-6.5378-4.219-.6119-.258-.7407-.386-.1611-.161-.1611-.58 0-.805.6441-.805.2255 0 1.2561.451 1.0306.418 2.5442 1.352 1.5137.902 2.9308 2.094 1.417 1.159 2.4476 2.93.9984 1.772.9984 3.672 0 2.673-1.7069 4.38-1.7069 1.674-4.38 1.674-.8696 0-3.6393-.676-2.8019-.676-17.3911-4.348v5.83q0 .805-.0322 1.127-.0323.29-.1933.515-.1932.193-.5797.193-.6119 0-.8695-.257-.2899-.258-.3221-.58-.0644-.354-.0644-1.159v-6.184l-10.4669-2.576q-1.0306-.258-1.6103-.902-.6119-.676-.6763-1.063-.0967-.386-.0967-.676 0-.87.4831-1.385.4509-.515 1.2883-.515.4508 0 11.0788 2.705v-5.797q0-.741.0322-1.031.0322-.322.1932-.579.1611-.258.5153-.258z"/><path clip-path="url(#a)" d="m23.3764 645.628 11.4009 1.32q1.0306.097 1.3526.258.2899.161.2899.676 0 .387-.2254.612-.2577.193-.5475.193-.1611 0-.5798-.032-.4186-.032-.6119-.032-1.9967-.29-3.5104-.29-2.8019 0-4.3156.837-1.5459.838-2.2544 2.996-.7407 2.157-.7407 6.215v9.276q0 2.125.3864 2.64.3865.484 2.19.934l15.8775 3.962v-6.216q0-2.319-.2898-3.704-.2899-1.417-1.095-2.351-.8374-.966-1.9646-1.481-1.1272-.548-3.1562-1.095-.6763-.161-.9339-.322-.2577-.193-.2577-.612 0-.322.2255-.548.1932-.225.4831-.225l15.4266 3.768q.7729.193 1.0628.387.2576.193.2576.579 0 .419-.2254.644-.2255.226-.4831.226-.2577 0-.7408-.193-2.0933-.484-3.2205-.484-.6442 0-.9662.065-.3221.032-.773.322-.4831.258-.7085.837-.2254.58-.3865 1.675-.1932 1.095-.1932 2.737v6.506l18.0031 4.509q1.1916.322 1.5137.322.3542 0 .483-.161.0967-.193.1611-.709.0966-.579.0966-1.449v-9.629q0-2.126-.1932-3.833-.1933-1.707-.6764-3.124-.4831-1.449-1.0306-2.544-.5475-1.095-1.5458-2.126-1.0306-1.03-1.9324-1.739-.934-.741-2.512-1.61-1.5781-.87-2.8664-1.482-1.3204-.612-3.446-1.545-.7729-.258-.7729-.87 0-.354.1932-.548.161-.193.3221-.225h.1932q.6119.193.934.322l14.235 6.055q.8051.354.9661.644.1611.29.1611 1.417v34.235q0 .773-.0322 1.095-.0323.29-.1933.515-.1932.226-.5797.226-.6119 0-.8695-.258-.2899-.258-.3221-.548-.0322-.289-.0322-1.03 0-1.611-.0966-2.577-.0966-.966-.2255-1.578-.161-.644-.6119-.966-.4509-.354-.8373-.515-.4187-.161-1.3527-.387l-34.8789-8.695q-1.1916-.322-1.5781-.322-.4187 0-.6763.289-.2577.258-.3543.967-.1288.708-.1288 1.288-.0322.547-.0322 1.739 0 .773-.0322 1.095-.0322.29-.1933.515-.161.226-.5153.226-.9017 0-1.095-.387-.2254-.418-.2254-1.578v-33.301q0-1.32.2898-1.61.2577-.322 1.5137-.193z"/><path clip-path="url(#a)" d="m41.5727 616.019q1.7069 0 2.8019 1.127 1.095 1.095 1.095 2.512 0 1.224-.7085 1.868-.7085.645-1.6103.645-1.2882 0-2.351-.999-1.0628-.998-1.2882-2.448-.773 1.063-.773 2.77 0 2.802 2.1578 5.282.9984 1.095 2.8341 2.287 1.8036 1.191 2.5765 1.417l8.599 2.093q.9661.193 5.6038 1.385 4.6054 1.159 4.7987 1.256.9017.322 1.3848 1.03.4831.709.4831 1.418 0 .805-.4831 1.352-.4831.548-1.3204.548-.1289 0-.6119-.097-.4831-.097-1.1595-.258-.6763-.161-1.0628-.225l-15.2333-3.833q-2.7697-.708-3.6393-.869-.9018-.193-1.9001-.193-1.7391 0-2.3833.547-.6441.548-.6441 1.514 0 1.675 1.9968 2.77 1.9967 1.095 5.8614 2.029 1.0628.289 1.2883.483.2254.161.2254.644-.0322.805-.6763.805-.161 0-1.1916-.258-1.0628-.257-2.6087-.74-1.5781-.516-2.5765-1.063-.6763-.322-1.1272-.612-.4508-.29-1.1594-.87-.7085-.579-1.095-1.449-.3864-.87-.3864-1.932 0-2.319 1.417-3.962 1.4171-1.674 3.6393-2.061-1.1594-.805-2.1578-1.803-1.0306-.999-1.9646-2.835-.9339-1.835-.9339-3.8 0-2.447 1.256-3.961 1.2238-1.514 3.0273-1.514z"/><path clip-path="url(#a)" d="m41.5727 585.215q1.7069 0 2.8019 1.127 1.095 1.095 1.095 2.512 0 1.224-.7085 1.868-.7085.644-1.6103.644-1.2882 0-2.351-.998-1.0628-.999-1.2882-2.448-.773 1.063-.773 2.77 0 2.802 2.1578 5.282.9984 1.095 2.8341 2.286 1.8036 1.192 2.5765 1.417l8.599 2.094q.9661.193 5.6038 1.385 4.6054 1.159 4.7987 1.256.9017.322 1.3848 1.03.4831.709.4831 1.417 0 .805-.4831 1.353-.4831.547-1.3204.547-.1289 0-.6119-.096-.4831-.097-1.1595-.258-.6763-.161-1.0628-.225l-15.2333-3.833q-2.7697-.708-3.6393-.869-.9018-.194-1.9001-.194-1.7391 0-2.3833.548-.6441.547-.6441 1.514 0 1.674 1.9968 2.769 1.9967 1.095 5.8614 2.029 1.0628.29 1.2883.483.2254.161.2254.644-.0322.806-.6763.806-.161 0-1.1916-.258-1.0628-.258-2.6087-.741-1.5781-.515-2.5765-1.063-.6763-.322-1.1272-.612-.4508-.289-1.1594-.869-.7085-.58-1.095-1.449-.3864-.87-.3864-1.933 0-2.319 1.417-3.961 1.4171-1.675 3.6393-2.061-1.1594-.805-2.1578-1.804-1.0306-.998-1.9646-2.834-.9339-1.836-.9339-3.8 0-2.448 1.256-3.961 1.2238-1.514 3.0273-1.514z"/><path clip-path="url(#a)" d="m48.4326 552.081q3.5104 0 6.9887 1.546 3.446 1.545 6.0224 4.025 2.5443 2.448 4.1546 5.669 1.5781 3.22 1.5781 6.441 0 4.605-3.124 7.6-3.1562 2.963-8.0514 2.963-4.5733 0-8.9211-2.544-4.38-2.576-7.0853-6.699-2.7052-4.122-2.7052-8.438 0-4.541 3.0595-7.536 3.0596-3.027 8.0837-3.027m-2.5765 4.831q-3.124 0-5.1207 1.513-1.9968 1.514-1.9968 4.284 0 .805.2577 1.739.2254.934.8373 2.158.6119 1.191 1.9002 2.544 1.256 1.32 3.0595 2.48 2.3833 1.513 6.7632 2.673 4.3478 1.127 6.9565 1.127 3.6071 0 5.4106-1.675 1.7713-1.674 1.7713-4.058 0-2.318-1.6103-4.766-1.6425-2.48-4.4444-4.187-2.8985-1.707-7.1497-2.77-4.2834-1.062-6.6344-1.062z"/><path clip-path="url(#a)" d="m41.5727 523.11q1.7069 0 2.8019 1.128 1.095 1.095 1.095 2.512 0 1.223-.7085 1.868-.7085.644-1.6103.644-1.2882 0-2.351-.999-1.0628-.998-1.2882-2.447-.773 1.062-.773 2.769 0 2.802 2.1578 5.282.9984 1.095 2.8341 2.287 1.8036 1.191 2.5765 1.417l8.599 2.093q.9661.193 5.6038 1.385 4.6054 1.159 4.7987 1.256.9017.322 1.3848 1.031.4831.708.4831 1.417 0 .805-.4831 1.352-.4831.548-1.3204.548-.1289 0-.6119-.097-.4831-.096-1.1595-.257-.6763-.161-1.0628-.226l-15.2333-3.832q-2.7697-.709-3.6393-.87-.9018-.193-1.9001-.193-1.7391 0-2.3833.547-.6441.548-.6441 1.514 0 1.675 1.9968 2.77 1.9967 1.095 5.8614 2.029 1.0628.29 1.2883.483.2254.161.2254.644-.0322.805-.6763.805-.161 0-1.1916-.258-1.0628-.257-2.6087-.74-1.5781-.516-2.5765-1.063-.6763-.322-1.1272-.612-.4508-.29-1.1594-.87-.7085-.579-1.095-1.449-.3864-.869-.3864-1.932 0-2.319 1.417-3.962 1.4171-1.674 3.6393-2.061-1.1594-.805-2.1578-1.803-1.0306-.999-1.9646-2.834-.9339-1.836-.9339-3.801 0-2.447 1.256-3.961 1.2238-1.514 3.0273-1.514z"/><path clip-path="url(#a)" d="m846.166 19.9496-1.68 14.5103q-.123 1.3116-.328 1.7215-.205.3689-.861.3689-.492 0-.779-.2869-.246-.3279-.246-.6968 0-.205.041-.7378.041-.5329.041-.7788.369-2.5414.369-4.4679 0-3.566-1.066-5.4925-1.065-1.9675-3.812-2.8693-2.746-.9427-7.911-.9427h-11.805q-2.705 0-3.361.4918-.614.4919-1.188 2.7873l-5.042 20.2077h7.911q2.951 0 4.714-.3689 1.803-.3689 2.992-1.3936 1.23-1.0657 1.885-2.5004.697-1.4346 1.394-4.0169.205-.8608.41-1.1887.246-.3279.779-.3279.41 0 .697.2869.286.2459.286.6148l-4.795 19.6339q-.246.9838-.492 1.3527-.246.3279-.738.3279-.533 0-.82-.287-.287-.2869-.287-.6148 0-.3279.246-.9427.615-2.6644.615-4.099 0-.8198-.082-1.2297-.041-.4098-.41-.9837-.328-.6148-1.065-.9018-.738-.2869-2.132-.4918-1.394-.246-3.484-.246h-8.28l-5.738 22.913q-.41 1.5166-.41 1.9265 0 .4509.205.6149.246.1229.901.2049.738.123 1.845.123h12.256q2.705 0 4.878-.2459 2.172-.246 3.975-.8608 1.845-.6149 3.239-1.3117 1.393-.6968 2.705-1.9675 1.312-1.3116 2.213-2.4593.943-1.1887 2.05-3.1972 1.107-2.0085 1.885-3.648.779-1.6806 1.968-4.3859.328-.9837 1.107-.9837.45 0 .696.2459.246.205.287.4099v.2459q-.246.7788-.41 1.1887l-7.706 18.1173q-.451 1.0247-.819 1.2297-.369.2049-1.804.2049h-43.572q-.983 0-1.393-.041-.369-.041-.656-.2459-.287-.2459-.287-.7378 0-.7788.328-1.1067.328-.3689.697-.4099.369-.041 1.311-.041 2.05 0 3.28-.123 1.229-.1229 2.008-.2869.82-.205 1.23-.7788.451-.5739.656-1.0657.205-.5329.491-1.7216l11.068-44.3914q.409-1.5166.409-2.0084 0-.5329-.368-.8608-.328-.3279-1.23-.4509-.902-.1639-1.64-.1639-.697-.041-2.213-.041-.984 0-1.394-.041-.369-.041-.656-.246-.287-.2049-.287-.6558 0-1.1477.492-1.3936.533-.287 2.009-.287h42.383q1.68 0 2.049.369.41.3279.246 1.9264z"/><path clip-path="url(#a)" d="m883.847 43.1086q0 2.1724-1.435 3.5661-1.394 1.3936-3.197 1.3936-1.558 0-2.377-.9018-.82-.9017-.82-2.0494 0-1.6396 1.27-2.9923 1.271-1.3526 3.116-1.6395-1.353-.9838-3.525-.9838-3.567 0-6.723 2.7463-1.393 1.2707-2.91 3.6071-1.517 2.2954-1.803 3.2791l-2.665 10.9442q-.246 1.2296-1.762 7.1321-1.476 5.8615-1.599 6.1074-.41 1.1477-1.312 1.7625-.901.6149-1.803.6149-1.025 0-1.722-.6149-.696-.6148-.696-1.6805 0-.164.122-.7788.123-.6149.328-1.4756.205-.8608.287-1.3527l4.878-19.3879q.902-3.5251 1.107-4.6318.246-1.1477.246-2.4184 0-2.2134-.697-3.0332-.697-.8198-1.927-.8198-2.131 0-3.525 2.5414-1.393 2.5413-2.582 7.46-.369 1.3527-.615 1.6396-.205.2869-.82.2869-1.024-.041-1.024-.8608 0-.2049.328-1.5166.327-1.3526.942-3.3201.656-2.0085 1.353-3.2791.41-.8608.779-1.4347.369-.5738 1.106-1.4756.738-.9017 1.845-1.3936 1.107-.4919 2.459-.4919 2.952 0 5.042 1.8035 2.131 1.8036 2.623 4.6318 1.025-1.4756 2.296-2.7462 1.27-1.3117 3.607-2.5004 2.336-1.1887 4.837-1.1887 3.115 0 5.041 1.5986 1.927 1.5576 1.927 3.853z"/><path clip-path="url(#a)" d="m923.13 43.1086q0 2.1724-1.435 3.5661-1.393 1.3936-3.197 1.3936-1.558 0-2.377-.9018-.82-.9017-.82-2.0494 0-1.6396 1.271-2.9923 1.27-1.3526 3.115-1.6395-1.353-.9838-3.525-.9838-3.566 0-6.723 2.7463-1.393 1.2707-2.91 3.6071-1.516 2.2954-1.803 3.2791l-2.665 10.9442q-.246 1.2296-1.762 7.1321-1.476 5.8615-1.599 6.1074-.41 1.1477-1.311 1.7625-.902.6149-1.804.6149-1.025 0-1.722-.6149-.696-.6148-.696-1.6805 0-.164.123-.7788.123-.6149.328-1.4756.204-.8608.286-1.3527l4.878-19.3879q.902-3.5251 1.107-4.6318.246-1.1477.246-2.4184 0-2.2134-.697-3.0332-.697-.8198-1.927-.8198-2.131 0-3.525 2.5414-1.393 2.5413-2.582 7.46-.369 1.3527-.615 1.6396-.205.2869-.82.2869-1.024-.041-1.024-.8608 0-.2049.328-1.5166.328-1.3526.942-3.3201.656-2.0085 1.353-3.2791.41-.8608.779-1.4347.369-.5738 1.107-1.4756.737-.9017 1.844-1.3936 1.107-.4919 2.459-.4919 2.952 0 5.042 1.8035 2.132 1.8036 2.623 4.6318 1.025-1.4756 2.296-2.7462 1.27-1.3117 3.607-2.5004 2.336-1.1887 4.837-1.1887 3.115 0 5.041 1.5986 1.927 1.5576 1.927 3.853z"/><path clip-path="url(#a)" d="m965.355 51.8393q0 4.4678-1.967 8.8947-1.968 4.3858-5.124 7.665-3.115 3.2381-7.214 5.2876-4.099 2.0085-8.198 2.0085-5.861 0-9.673-3.976-3.771-4.0169-3.771-10.2473 0-5.8205 3.238-11.354 3.279-5.5746 8.526-9.0177 5.246-3.4431 10.739-3.4431 5.779 0 9.591 3.894 3.853 3.894 3.853 10.2883m-6.148-3.2791q0-3.976-1.926-6.5173-1.927-2.5414-5.452-2.5414-1.025 0-2.213.3279-1.189.287-2.747 1.0658-1.516.7788-3.238 2.4183-1.68 1.5986-3.156 3.894-1.927 3.0332-3.402 8.6078-1.435 5.5335-1.435 8.8537 0 4.5907 2.132 6.8861 2.131 2.2545 5.164 2.2545 2.952 0 6.067-2.0495 3.156-2.0905 5.328-5.6565 2.173-3.6891 3.525-9.0996 1.353-5.4516 1.353-8.4438z"/><path clip-path="url(#a)" d="m1002.22 43.1086q0 2.1724-1.43 3.5661-1.394 1.3936-3.197 1.3936-1.558 0-2.377-.9018-.82-.9017-.82-2.0494 0-1.6396 1.27-2.9923 1.271-1.3526 3.116-1.6395-1.353-.9838-3.525-.9838-3.567 0-6.723 2.7463-1.393 1.2707-2.91 3.6071-1.517 2.2954-1.803 3.2791l-2.665 10.9442q-.246 1.2296-1.762 7.1321-1.476 5.8615-1.599 6.1074-.41 1.1477-1.312 1.7625-.901.6149-1.803.6149-1.025 0-1.722-.6149-.696-.6148-.696-1.6805 0-.164.123-.7788.123-.6149.327-1.4756.205-.8608.287-1.3527l4.878-19.3879q.902-3.5251 1.107-4.6318.246-1.1477.246-2.4184 0-2.2134-.697-3.0332-.697-.8198-1.927-.8198-2.131 0-3.525 2.5414-1.393 2.5413-2.582 7.46-.369 1.3527-.615 1.6396-.205.2869-.82.2869-1.024-.041-1.024-.8608 0-.2049.328-1.5166.328-1.3526.942-3.3201.656-2.0085 1.353-3.2791.41-.8608.779-1.4347.369-.5738 1.106-1.4756.738-.9017 1.845-1.3936 1.107-.4919 2.459-.4919 2.952 0 5.042 1.8035 2.131 1.8036 2.623 4.6318 1.025-1.4756 2.296-2.7462 1.27-1.3117 3.607-2.5004 2.336-1.1887 4.837-1.1887 3.115 0 5.043 1.5986 1.92 1.5576 1.92 3.853z"/><path clip-path="url(#a)" d="m1091.84 38.6408q0 6.7632-2.91 13.4035-2.87 6.5992-7.54 11.5999-4.63 4.9597-10.91 8.0339-6.27 3.0742-12.66 3.0742h-27.79q-.99 0-1.4-.041-.37-.041-.65-.2459-.29-.2459-.29-.7378 0-.7788.33-1.1067.33-.3689.7-.4099.36-.041 1.31-.041 2.05 0 3.28-.123 1.23-.1229 2.01-.2869.81-.205 1.22-.7788.46-.5739.66-1.0657.21-.5329.49-1.7216l11.23-45.0882q.33-1.3526.33-1.5576 0-.6968-.41-.9427-.37-.2869-1.43-.4099-2.05-.164-3.61-.164-1.02 0-1.43-.041-.37-.041-.7-.2459-.29-.2459-.29-.7378 0-.7788.33-1.1067.37-.3689.78-.4099.41-.082 1.39-.082h28.2q6.11 0 10.66 2.8693 4.55 2.8282 6.8 7.624 2.3 4.7547 2.3 10.7392m-7.34-3.0742q0-7.829-4.26-11.682-4.22-3.853-10.9-3.853h-8.98q-2.66 0-3.32.4919-.66.4509-1.23 2.7053l-11.52 46.0719q-.41 1.5166-.41 1.9265 0 .4509.21.6149.24.1229.9.2049.74.123 1.84.123h9.47q3.65 0 6.97-.9838 3.36-1.0247 5.78-2.6233 2.42-1.6395 3.98-3.0332 1.55-1.4346 2.66-2.8692 2.5-3.2382 4.34-7.4601 1.89-4.2219 2.75-8.0749.9-3.8939 1.31-6.7632.41-2.9102.41-4.7957z"/><path clip-path="url(#a)" d="m1130.45 65.0379q.33.3689.33.7378 0 .3689-.82 1.4346-.78 1.0657-2.46 2.5003-1.68 1.4347-3.86 2.7873-2.17 1.3526-5.37 2.2544-3.19.9428-6.55.9428-6.03 0-9.64-4.3039-3.56-4.3039-3.56-10.9032 0-4.2219 1.39-7.9519 1.39-3.771 3.65-6.4353 2.29-2.6643 5.16-4.5908 2.91-1.9675 5.95-2.9102 3.03-.9428 5.86-.9428 4.14 0 6.56 2.0905 2.42 2.0904 2.42 5.0417 0 .6968-.21 1.5575-.16.8608-.74 2.2135-.53 1.3526-1.92 2.7053-1.4 1.3116-3.45 2.1724-4.55 1.9265-12.83 1.9265h-4.46q-1.32 5.2876-1.32 8.7307 0 1.3526.25 2.7463.25 1.3526.9 3.0742.7 1.7215 2.26 2.8282 1.59 1.0658 3.89 1.0658.74 0 1.52-.041.82-.041 2.87-.4919 2.09-.4509 3.93-1.2297 1.85-.7788 4.18-2.4593 2.38-1.7216 4.26-4.058.66-.8607 1.11-.8607.37 0 .7.3689m-3.73-20.2487q0-2.2545-1.68-3.7711-1.64-1.5166-4.51-1.5166-.9 0-2.01.205-1.11.2049-2.95 1.0657-1.8.8608-3.4 2.2954-1.6 1.3936-3.2 4.1399-1.6 2.7053-2.54 6.3124h3.44q1.19 0 2.05 0 .86-.041 2.75-.205 1.92-.1639 3.32-.4509 1.39-.3279 3.15-.9837 1.77-.6558 2.87-1.5166 1.15-.9018 1.93-2.3364.78-1.4346.78-3.2381z"/><path clip-path="url(#a)" d="m1174.38 51.0605q0 5.9844-3.03 11.7639-2.99 5.7795-7.7 9.3456-4.72 3.5251-9.51 3.5251-2.87 0-4.8-1.5576-1.89-1.5986-2.91-3.853-.78 2.7873-2.46 9.4685-1.68 6.6813-1.68 7.3371 0 .3689.08.5328.08.164.45.3689.37.246 1.27.328.91.1229 2.42.1229.78 0 1.07 0 .33.041.61.246.33.2049.33.6558 0 1.6806-1.52 1.6806-1.35 0-4.14-.123-2.78-.123-4.18-.123-1.19 0-3.56.123-2.38.123-3.49.123-1.1 0-1.1-.9838 0-.5738.16-.9427.12-.328.45-.4919.33-.123.62-.164.24 0 .73 0 1.89 0 2.71-.3279.82-.2869 1.11-.9017.32-.5739.69-2.2135l9.43-37.3822q.57-2.5003.57-4.2629 0-2.2134-.69-3.0332-.7-.8198-1.93-.8198-2.13 0-3.52 2.5414-1.4 2.5413-2.59 7.46-.37 1.3527-.61 1.6396-.21.2869-.82.2869-1.03-.041-1.03-.8608 0-.2049.33-1.5166.33-1.3526.94-3.3201.66-2.0085 1.36-3.2791.41-.8608.78-1.4347.36-.5738 1.1-1.4756.78-.9017 1.89-1.3936 1.1-.4919 2.46-.4919 2.62 0 4.79 1.5576 2.18 1.5576 2.75 4.7138 2.34-2.7463 5.2-4.5088 2.87-1.7626 5.78-1.7626 4.84 0 8 3.771 3.19 3.7301 3.19 9.6325m-6.06-3.689q0-3.73-1.44-5.7795-1.39-2.0905-3.93-2.0905-3.16 0-6.81 3.1972-3.6 3.0332-4.34 5.8615l-4.14 16.4367-.25 1.3526q0 .2459.13.9838.16.6968.61 1.8445.49 1.1477 1.15 2.1724.7.9837 1.93 1.7216 1.27.7378 2.82.7378 2.5 0 5.21-2.2135 2.75-2.2134 4.8-6.3943 1.27-2.7053 2.74-8.5258 1.52-5.8614 1.52-9.3045z"/><path clip-path="url(#a)" d="m1210.99 65.0379q.33.3689.33.7378 0 .3689-.82 1.4346-.78 1.0657-2.46 2.5003-1.68 1.4347-3.85 2.7873-2.18 1.3526-5.37 2.2544-3.2.9428-6.56.9428-6.03 0-9.63-4.3039-3.57-4.3039-3.57-10.9032 0-4.2219 1.39-7.9519 1.4-3.771 3.65-6.4353 2.3-2.6643 5.17-4.5908 2.91-1.9675 5.94-2.9102 3.03-.9428 5.86-.9428 4.14 0 6.56 2.0905 2.42 2.0904 2.42 5.0417 0 .6968-.21 1.5575-.16.8608-.74 2.2135-.53 1.3526-1.92 2.7053-1.4 1.3116-3.44 2.1724-4.55 1.9265-12.83 1.9265h-4.47q-1.31 5.2876-1.31 8.7307 0 1.3526.24 2.7463.25 1.3526.9 3.0742.7 1.7215 2.26 2.8282 1.6 1.0658 3.89 1.0658.74 0 1.52-.041.82-.041 2.87-.4919 2.09-.4509 3.93-1.2297 1.85-.7788 4.18-2.4593 2.38-1.7216 4.27-4.058.65-.8607 1.1-.8607.37 0 .7.3689m-3.73-20.2487q0-2.2545-1.68-3.7711-1.64-1.5166-4.51-1.5166-.9 0-2.01.205-1.1.2049-2.95 1.0657-1.8.8608-3.4 2.2954-1.6 1.3936-3.2 4.1399-1.6 2.7053-2.54 6.3124h3.44q1.19 0 2.05 0 .86-.041 2.75-.205 1.93-.1639 3.32-.4509 1.39-.3279 3.16-.9837 1.76-.6558 2.87-1.5166 1.14-.9018 1.92-2.3364.78-1.4346.78-3.2381z"/><path clip-path="url(#a)" d="m1261.61 62.7425q0 .3279-.37 1.5985-.37 1.2707-1.27 3.2382-.86 1.9675-2.05 3.771-1.19 1.7625-3.16 3.0742-1.93 1.2707-4.14 1.2707-2.95 0-4.92-1.9675-1.96-1.9675-1.96-4.9187 0-1.6396.86-3.894 5.45-14.5512 5.45-19.5519 0-5.8615-4.55-5.8615-2.26 0-4.39.8608-2.09.8198-3.52 1.9675-1.44 1.1477-2.75 2.7463-1.27 1.5576-1.93 2.6233-.61 1.0247-1.1 2.0495l-1.07 4.1809q-.24 1.1477-1.43 5.6155l-1.85 7.583q-1.31 5.6565-1.6 6.1894-.41 1.1477-1.31 1.7625-.9.6149-1.8.6149-1.03 0-1.72-.6149-.7-.6148-.7-1.6805 0-.164.12-.7788.13-.6149.33-1.4756.21-.8608.29-1.3527l4.88-19.3879q.9-3.5251 1.1-4.6318.25-1.1477.25-2.4184 0-3.853-2.62-3.853-2.14 0-3.53 2.5414-1.39 2.5413-2.58 7.46-.37 1.3527-.62 1.6396-.2.2869-.82.2869-1.02-.041-1.02-.8608 0-.2049.33-1.5576.32-1.3526.94-3.2791.65-1.9675 1.27-3.2791.53-.9838.82-1.4347.33-.4918 1.11-1.4346.82-.9837 1.88-1.4346 1.11-.4919 2.46-.4919 3.03 0 5.25 1.9675 2.21 1.9265 2.5 5.3286 5.45-7.2961 13.07-7.2961 4.51 0 7.09 2.3774 2.59 2.3774 2.59 6.5993 0 .9837-.21 2.2544-.16 1.2297-.57 2.7872-.37 1.5576-.7 2.7463-.33 1.1887-.98 3.1152-.66 1.8855-.95 2.7053-.28.8198-.98 2.7463-.65 1.8855-.74 2.0904-1.51 3.812-1.51 5.9845 0 1.4346.45 2.0904.49.6559 1.56.6559 2.86 0 5-2.8283 2.17-2.8693 3.56-7.542.33-1.0248.49-1.2707.21-.2459.78-.2459.99 0 .99.8198z"/><path clip-path="url(#a)" d="m1307.94 17.4083-12.09 48.5313q-.49 2.1724-.49 4.017 0 3.853 2.5 3.853 1.23 0 2.21-.7788.98-.7788 1.76-2.4184.78-1.6396 1.27-3.1562.5-1.5576 1.15-4.0169.21-.9838.37-1.2297.21-.2869.78-.2869 1.02 0 1.02.8198-1.1 5.2876-2.54 8.3208-2.29 4.6318-6.19 4.6318-2.95 0-5.04-1.8036-2.09-1.8035-2.58-4.5088-5.37 6.3124-10.94 6.3124-4.92 0-8.04-3.7301-3.11-3.771-3.11-9.7144 0-5.9845 2.95-11.723 2.99-5.7384 7.7-9.3045 4.72-3.5661 9.55-3.5661 5.13 0 7.75 5.3696l5.04-19.9208.25-1.6395q0-.4919-.21-.7379-.16-.2869-1.14-.4918-.95-.205-2.83-.205-.78 0-1.15-.041-.33-.041-.61-.2459-.29-.2459-.29-.7378 0-1.4346 1.19-1.5986 7.87-.9018 10.65-.9018.5 0 .78.246.29.2049.29.4509zm-13.03 29.4713q0-.3689-.29-1.3936-.29-1.0248-.94-2.4594-.66-1.4346-2.09-2.4593-1.4-1.0658-3.28-1.0658-2.54 0-5.21 2.1725-2.62 2.1724-4.55 5.8614-1.47 2.9513-3.07 9.1406-1.56 6.1894-1.56 9.2636 0 1.8855.41 3.5661.45 1.6396 1.72 2.9922 1.27 1.3117 3.24 1.3117 4.79 0 9.51-5.9435.9-1.0247 1.11-1.4346.24-.4509.57-1.6806l4.18-16.4367q.25-1.2297.25-1.4346z"/><path clip-path="url(#a)" d="m1343.44 65.0379q.32.3689.32.7378 0 .3689-.81 1.4346-.78 1.0657-2.46 2.5003-1.68 1.4347-3.86 2.7873-2.17 1.3526-5.37 2.2544-3.19.9428-6.56.9428-6.02 0-9.63-4.3039-3.56-4.3039-3.56-10.9032 0-4.2219 1.39-7.9519 1.39-3.771 3.65-6.4353 2.29-2.6643 5.16-4.5908 2.91-1.9675 5.95-2.9102 3.03-.9428 5.86-.9428 4.14 0 6.56 2.0905 2.41 2.0904 2.41 5.0417 0 .6968-.2 1.5575-.16.8608-.74 2.2135-.53 1.3526-1.93 2.7053-1.39 1.3116-3.44 2.1724-4.55 1.9265-12.83 1.9265h-4.47q-1.31 5.2876-1.31 8.7307 0 1.3526.25 2.7463.24 1.3526.9 3.0742.7 1.7215 2.25 2.8282 1.6 1.0658 3.9 1.0658.74 0 1.52-.041.82-.041 2.86-.4919 2.1-.4509 3.94-1.2297 1.84-.7788 4.18-2.4593 2.38-1.7216 4.26-4.058.66-.8607 1.11-.8607.37 0 .7.3689m-3.73-20.2487q0-2.2545-1.68-3.7711-1.64-1.5166-4.51-1.5166-.9 0-2.01.205-1.11.2049-2.95 1.0657-1.81.8608-3.4 2.2954-1.6 1.3936-3.2 4.1399-1.6 2.7053-2.54 6.3124h3.44q1.19 0 2.05 0 .86-.041 2.75-.205 1.92-.1639 3.32-.4509 1.39-.3279 3.15-.9837 1.76-.6558 2.87-1.5166 1.15-.9018 1.93-2.3364.78-1.4346.78-3.2381z"/><path clip-path="url(#a)" d="m1394.05 62.7425q0 .3279-.37 1.5985-.36 1.2707-1.27 3.2382-.86 1.9675-2.05 3.771-1.18 1.7625-3.15 3.0742-1.93 1.2707-4.14 1.2707-2.95 0-4.92-1.9675-1.97-1.9675-1.97-4.9187 0-1.6396.86-3.894 5.45-14.5512 5.45-19.5519 0-5.8615-4.55-5.8615-2.25 0-4.38.8608-2.09.8198-3.53 1.9675-1.43 1.1477-2.74 2.7463-1.27 1.5576-1.93 2.6233-.61 1.0247-1.11 2.0495l-1.06 4.1809q-.25 1.1477-1.44 5.6155l-1.84 7.583q-1.31 5.6565-1.6 6.1894-.41 1.1477-1.31 1.7625-.9.6149-1.8.6149-1.03 0-1.73-.6149-.69-.6148-.69-1.6805 0-.164.12-.7788.12-.6149.33-1.4756.2-.8608.28-1.3527l4.88-19.3879q.9-3.5251 1.11-4.6318.25-1.1477.25-2.4184 0-3.853-2.63-3.853-2.13 0-3.52 2.5414-1.4 2.5413-2.59 7.46-.36 1.3527-.61 1.6396-.21.2869-.82.2869-1.03-.041-1.03-.8608 0-.2049.33-1.5576.33-1.3526.95-3.2791.65-1.9675 1.27-3.2791.53-.9838.82-1.4347.32-.4918 1.1-1.4346.82-.9837 1.89-1.4346 1.1-.4919 2.46-.4919 3.03 0 5.24 1.9675 2.22 1.9265 2.5 5.3286 5.46-7.2961 13.08-7.2961 4.51 0 7.09 2.3774 2.58 2.3774 2.58 6.5993 0 .9837-.2 2.2544-.17 1.2297-.58 2.7872-.36 1.5576-.69 2.7463-.33 1.1887-.99 3.1152-.65 1.8855-.94 2.7053-.29.8198-.98 2.7463-.66 1.8855-.74 2.0904-1.52 3.812-1.52 5.9845 0 1.4346.45 2.0904.5.6559 1.56.6559 2.87 0 5-2.8283 2.17-2.8693 3.57-7.542.33-1.0248.49-1.2707.21-.2459.78-.2459.98 0 .98.8198z"/><path clip-path="url(#a)" d="m1432.76 65.0379q.33.3689.33.7378 0 .3689-.82 1.4346-.78 1.0657-2.46 2.5003-1.68 1.4347-3.85 2.7873-2.17 1.3526-5.37 2.2544-3.2.9428-6.56.9428-6.27 0-9.96-4.14-3.65-4.1399-3.65-10.0833 0-5.7795 3.24-11.3131 3.24-5.5745 8.49-9.0176 5.24-3.4841 10.78-3.4841 4.38 0 7.13 2.0495 2.74 2.0494 2.74 5.1646 0 2.4184-1.39 3.894-1.39 1.4756-3.28 1.4756-1.31 0-2.21-.7378-.9-.7788-.9-2.2134 0-1.8445 1.51-3.2791.58-.5739 1.23-.8198.7-.287 1.11-.287.41-.0409 1.35-.0409-.86-1.5986-2.91-2.4594-2.01-.9018-4.3-.9018-3.4 0-6.64 2.3774-3.24 2.3364-5.21 6.0254-1.97 3.6071-3.24 8.7308-1.27 5.0826-1.27 8.0339 0 4.0579 1.89 6.5992 1.88 2.5414 5.66 2.5414.73 0 1.51-.041.82-.041 2.87-.4919 2.09-.4509 3.94-1.2297 1.84-.7788 4.18-2.4593 2.37-1.7216 4.26-4.058.66-.8607 1.11-.8607.37 0 .69.3689z"/><path clip-path="url(#a)" d="m1473.11 40.8542q0 .5738-.37 1.9265l-8.03 32.0536q-1.77 7.1321-7.5 12.1328-5.7 5.0007-12.18 5.0007-3.89 0-6.39-2.0904-2.5-2.0495-2.5-5.2057 0-2.7873 1.47-4.1399 1.48-1.3117 3.24-1.3117.58 0 1.19.164.61.164 1.27.8608.66.6968.66 1.8855 0 1.9265-1.68 3.4431-.82.6968-1.6.8608-.74.1639-2.01.1639.49 1.1477 1.39 1.9265.9.7788 1.93 1.0657 1.02.3279 1.68.4099.7.123 1.35.123 5.25 0 9.27-5.2876 1.18-1.5986 2.05-3.1972.9-1.5576 1.55-3.4841.66-1.8855.95-2.9102.32-1.0247.9-3.3611-3.81 3.812-8.49 3.812-1.96 0-3.73-.5329-1.72-.5329-3.24-1.6396-1.51-1.1477-2.41-3.1561-.86-2.0085-.86-4.6728 0-2.8283 1.1-6.6813 1.11-3.853 3.77-10.9441 1.44-3.976 1.44-5.9025 0-.9427-.21-1.5166-.2-.6148-.61-.8198-.41-.2459-.66-.2869-.2-.041-.61-.041-2.42 0-4.68 2.4594-2.25 2.4593-3.81 7.9519-.33 1.0247-.53 1.2707-.21.2459-.82.2459-1.03-.041-1.03-.8608 0-.3279.37-1.5985.37-1.3117 1.23-3.2382.91-1.9675 2.13-3.73 1.23-1.8035 3.16-3.0742 1.97-1.2707 4.22-1.2707 3.08 0 4.96 2.0085 1.93 1.9675 1.93 4.8777 0 1.1887-.33 2.2544-.29 1.0248-1.35 3.771-4.31 11.0671-4.31 16.4777 0 1.3117.21 2.4184.25 1.0657.78 2.1314.53 1.0248 1.6 1.6396 1.1.5739 2.62.5739 1.93 0 3.73-.9018 1.84-.9428 2.99-2.2134 1.19-1.2707 1.89-2.3364.74-1.1067.9-1.6806l3.77-15.084 1.68-6.7223q.78-3.648 1.15-4.5498.49-.8608 1.35-1.3116.86-.4509 1.6-.4509 1.03 0 1.72.6148.74.6149.74 1.6806z"/><path clip-path="url(#a)" d="m1533.22 51.8393q0 4.4678-1.97 8.8947-1.96 4.3858-5.12 7.665-3.11 3.2381-7.21 5.2876-4.1 2.0085-8.2 2.0085-5.86 0-9.68-3.976-3.77-4.0169-3.77-10.2473 0-5.8205 3.24-11.354 3.28-5.5746 8.53-9.0177 5.24-3.4431 10.74-3.4431 5.78 0 9.59 3.894 3.85 3.894 3.85 10.2883m-6.15-3.2791q0-3.976-1.92-6.5173-1.93-2.5414-5.45-2.5414-1.03 0-2.22.3279-1.19.287-2.74 1.0658-1.52.7788-3.24 2.4183-1.68 1.5986-3.16 3.894-1.93 3.0332-3.4 8.6078-1.44 5.5335-1.44 8.8537 0 4.5907 2.14 6.8861 2.13 2.2545 5.16 2.2545 2.95 0 6.07-2.0495 3.15-2.0905 5.33-5.6565 2.17-3.6891 3.52-9.0996 1.35-5.4516 1.35-8.4438z"/><path clip-path="url(#a)" d="m1581.4 62.7425q0 .3279-.37 1.5985-.36 1.2707-1.27 3.2382-.86 1.9675-2.05 3.771-1.18 1.7625-3.15 3.0742-1.93 1.2707-4.14 1.2707-2.95 0-4.92-1.9675-1.97-1.9675-1.97-4.9187 0-1.6396.86-3.894 5.45-14.5512 5.45-19.5519 0-5.8615-4.54-5.8615-2.26 0-4.39.8608-2.09.8198-3.53 1.9675-1.43 1.1477-2.74 2.7463-1.27 1.5576-1.93 2.6233-.61 1.0247-1.11 2.0495l-1.06 4.1809q-.25 1.1477-1.44 5.6155l-1.84 7.583q-1.31 5.6565-1.6 6.1894-.41 1.1477-1.31 1.7625-.9.6149-1.8.6149-1.03 0-1.73-.6149-.69-.6148-.69-1.6805 0-.164.12-.7788.12-.6149.33-1.4756.2-.8608.29-1.3527l4.87-19.3879q.9-3.5251 1.11-4.6318.25-1.1477.25-2.4184 0-3.853-2.63-3.853-2.13 0-3.52 2.5414-1.4 2.5413-2.58 7.46-.37 1.3527-.62 1.6396-.2.2869-.82.2869-1.02-.041-1.02-.8608 0-.2049.32-1.5576.33-1.3526.95-3.2791.65-1.9675 1.27-3.2791.53-.9838.82-1.4347.32-.4918 1.1-1.4346.82-.9837 1.89-1.4346 1.11-.4919 2.46-.4919 3.03 0 5.25 1.9675 2.21 1.9265 2.5 5.3286 5.45-7.2961 13.07-7.2961 4.51 0 7.09 2.3774 2.58 2.3774 2.58 6.5993 0 .9837-.2 2.2544-.16 1.2297-.57 2.7872-.37 1.5576-.7 2.7463-.33 1.1887-.98 3.1152-.66 1.8855-.95 2.7053-.28.8198-.98 2.7463-.66 1.8855-.74 2.0904-1.52 3.812-1.52 5.9845 0 1.4346.46 2.0904.49.6559 1.55.6559 2.87 0 5-2.8283 2.18-2.8693 3.57-7.542.33-1.0248.49-1.2707.21-.2459.78-.2459.98 0 .98.8198z"/><path clip-path="url(#a)" d="m1678.6 18.3511q0 1.6805-1.43 1.6805-4.63.164-6.52 1.7216-1.84 1.5166-2.54 4.4678l-11.72 46.7688q-.41 1.4756-.66 1.6395-.24.123-.69.123-.58 0-.91-.2869-.28-.2869-.69-1.3117l-20.91-49.433q-.16-.328-.37-.7788-.2-.4509-.37-.7378l-11.1 44.3094q-.33 1.2706-.33 1.9265 0 1.5985 1.11 2.6233 1.14.9837 4.42 1.1067 1.68 0 1.68.9018 0 1.6805-1.51 1.6805-1.4 0-4.31-.123-2.91-.1229-4.34-.1229-1.4 0-4.22.1229-2.83.123-4.19.123-1.06 0-1.06-.9427 0-.7378.29-1.1068.28-.4098.53-.4508.24-.082.61-.082 2.46-.082 4.14-.5739 1.68-.4918 2.63-1.4346.98-.9427 1.43-1.8855.49-.9837.86-2.4184l11.23-45.0882q0-.7378-5.69-.7378-.99 0-1.4-.041-.37-.041-.65-.2459-.29-.2049-.29-.6558 0-1.1477.49-1.3937.49-.2869 1.93-.2869h11.27q1.43 0 1.8.2459.37.205.86 1.3527l18.57 43.8175 9.39-37.3412q.24-.7378.24-1.7625 0-1.6396-1.23-2.6234-1.18-1.0247-4.46-1.0657-1.52 0-1.52-.9427 0-.7788.29-1.1477.33-.4099.57-.4509.29-.082.66-.082 1.39 0 4.26.123 2.87.1229 4.3.1229 1.4 0 4.23-.1229 2.87-.123 4.26-.123.49 0 .74.2459.28.205.32.4509z"/><path clip-path="url(#a)" d="m1718.95 51.8393q0 4.4678-1.97 8.8947-1.97 4.3858-5.12 7.665-3.12 3.2381-7.22 5.2876-4.1 2.0085-8.19 2.0085-5.87 0-9.68-3.976-3.77-4.0169-3.77-10.2473 0-5.8205 3.24-11.354 3.28-5.5746 8.52-9.0177 5.25-3.4431 10.74-3.4431 5.78 0 9.6 3.894 3.85 3.894 3.85 10.2883m-6.15-3.2791q0-3.976-1.93-6.5173-1.92-2.5414-5.45-2.5414-1.02 0-2.21.3279-1.19.287-2.75 1.0658-1.51.7788-3.24 2.4183-1.68 1.5986-3.15 3.894-1.93 3.0332-3.4 8.6078-1.44 5.5335-1.44 8.8537 0 4.5907 2.13 6.8861 2.13 2.2545 5.17 2.2545 2.95 0 6.06-2.0495 3.16-2.0905 5.33-5.6565 2.17-3.6891 3.53-9.0996 1.35-5.4516 1.35-8.4438z"/><path clip-path="url(#a)" d="m1743.07 22.286q0 1.8036-1.48 3.1562-1.43 1.3117-2.99 1.3117-1.43 0-2.33-.8608-.87-.9018-.87-2.1724 0-1.6806 1.44-3.0742 1.43-1.3937 3.11-1.3937 1.4 0 2.26.8608.86.8608.86 2.1724m.74 40.4565q0 .3279-.37 1.6395-.37 1.2707-1.27 3.2382-.86 1.9265-2.05 3.73-1.19 1.8035-3.16 3.0742-1.92 1.2707-4.14 1.2707-2.99 0-4.96-1.9675-1.92-1.9675-1.92-4.9187 0-1.5986 1.92-6.7223 5.58-14.9201 5.78-15.5349.95-2.3364.95-4.3859 0-.9427-.21-1.5166-.2-.6148-.61-.8198-.41-.2459-.66-.2869-.21-.041-.62-.041-2.41 0-4.67 2.4594-2.25 2.4593-3.81 7.9519-.33 1.0247-.53 1.2707-.21.2459-.82.2459-1.03-.041-1.03-.8608 0-.2459.29-1.1887.29-.9837.82-2.4593.53-1.5166 1.47-3.0742.95-1.5986 2.1-2.9922 1.18-1.3937 2.86-2.2954 1.69-.9018 3.57-.9018 3.07 0 4.96 2.0085 1.93 1.9675 1.93 4.8777 0 1.5986-1.11 4.4269-1.35 3.689-1.84 4.8777l-3.28 8.8127q-1.19 3.1971-1.56 4.1809-.33.9427-.62 2.0904-.24 1.1067-.24 2.1315 0 1.4346.45 2.0904.49.6559 1.56.6559 2.95 0 5.12-2.9103 2.17-2.9512 3.44-7.46.04-.123.09-.3279.32-1.0248.65-1.1477.17-.041.49-.041 1.03 0 1.03.8198z"/><path clip-path="url(#a)" d="m1783.55 44.8711q0 2.2954-1.15 3.5251-1.14 1.1887-2.7 1.1887-1.27 0-1.97-.7378-.66-.7378-.66-1.7216 0-1.4346 1.15-2.5823 1.19-1.1477 2.91-1.1887-.57-1.5166-2.09-2.4183-1.51-.9428-2.87-1.1887-1.31-.246-2.62-.246-2.58 0-4.55.8198-1.97.8198-2.95 2.0905-.98 1.2297-1.44 2.4183-.45 1.1887-.45 2.2135 0 .9017.21 1.6395.24.6968.82 1.2297.57.4919.98.8198.45.3279 1.44.6148.98.287 1.39.4099.41.082 1.56.3279 2.37.4919 3.44.7788 1.07.246 2.46.9428 1.43.6968 2.5 1.8035 2.58 2.5823 2.58 6.1484 0 1.3117-.45 2.9103-.41 1.5985-1.6 3.607-1.19 2.0085-2.99 3.6071-1.8 1.5985-4.92 2.7053-3.07 1.1067-6.92 1.1067-5.37 0-8.69-2.2544-3.32-2.2954-3.32-5.9025 0-2.6233 1.43-4.0579 1.43-1.4757 3.28-1.4757 1.39 0 2.25.7788.86.7379.86 2.1315 0 1.8855-1.51 3.3201-1.52 1.4346-3.77 1.1477 1.92 4.4269 9.55 4.4269 2.87 0 5.08-.7378 2.25-.7788 3.48-1.8446 1.27-1.1067 2.09-2.4593.82-1.3527 1.07-2.3774.29-1.0247.29-1.8035 0-1.3527-.54-2.3774-.53-1.0247-1.27-1.5986-.69-.6148-2.05-1.1067-1.31-.5329-2.25-.7378-.94-.205-2.62-.5329-.78-.1639-1.27-.2459-.5-.123-1.52-.4509-.98-.3689-1.68-.7378-.66-.3689-1.52-1.0247-.86-.6559-1.39-1.4346-.53-.7788-.9-1.9265-.37-1.1477-.37-2.5004 0-1.2297.37-2.7053.41-1.4756 1.43-3.1971 1.07-1.7216 2.58-3.1152 1.52-1.3937 4.06-2.2954 2.58-.9428 5.74-.9428 4.59 0 7.3 2.1315 2.7 2.0904 2.7 5.0826z"/><path clip-path="url(#a)" d="m1823.21 65.0379q.33.3689.33.7378 0 .3689-.82 1.4346-.78 1.0657-2.46 2.5003-1.68 1.4347-3.85 2.7873-2.17 1.3526-5.37 2.2544-3.2.9428-6.56.9428-6.03 0-9.63-4.3039-3.57-4.3039-3.57-10.9032 0-4.2219 1.4-7.9519 1.39-3.771 3.64-6.4353 2.3-2.6643 5.17-4.5908 2.91-1.9675 5.94-2.9102 3.03-.9428 5.86-.9428 4.14 0 6.56 2.0905 2.42 2.0904 2.42 5.0417 0 .6968-.21 1.5575-.16.8608-.73 2.2135-.54 1.3526-1.93 2.7053-1.39 1.3116-3.44 2.1724-4.55 1.9265-12.83 1.9265h-4.47q-1.31 5.2876-1.31 8.7307 0 1.3526.24 2.7463.25 1.3526.91 3.0742.69 1.7215 2.25 2.8282 1.6 1.0658 3.89 1.0658.74 0 1.52-.041.82-.041 2.87-.4919 2.09-.4509 3.93-1.2297 1.85-.7788 4.19-2.4593 2.37-1.7216 4.26-4.058.65-.8607 1.11-.8607.36 0 .69.3689m-3.73-20.2487q0-2.2545-1.68-3.7711-1.64-1.5166-4.51-1.5166-.9 0-2.01.205-1.1.2049-2.95 1.0657-1.8.8608-3.4 2.2954-1.6 1.3936-3.2 4.1399-1.59 2.7053-2.54 6.3124h3.45q1.18 0 2.04 0 .87-.041 2.75-.205 1.93-.1639 3.32-.4509 1.4-.3279 3.16-.9837 1.76-.6558 2.87-1.5166 1.14-.9018 1.92-2.3364.78-1.4346.78-3.2381z"/><path d="m321.708 1235.33 219.099 20.63 219.099-207.2 219.099 337.64 219.095-648.26 219.1 43.27 219.1 166.039 219.1-299.364 219.1-487.829 219.1 729.963" style="stroke:#009af9;stroke-linecap:round;stroke-linejoin:round;stroke-width:4;fill:none;clip-path:url(#b)"/><circle clip-path="url(#b)" cx="321.708" cy="1235.33" fill="#009af9" fill-rule="evenodd" r="7.2" stroke="#000" stroke-width="3.2"/><circle clip-path="url(#b)" cx="540.807" cy="1255.96" fill="#009af9" fill-rule="evenodd" r="7.2" stroke="#000" stroke-width="3.2"/><circle clip-path="url(#b)" cx="759.906" cy="1048.76" fill="#009af9" fill-rule="evenodd" r="7.2" stroke="#000" stroke-width="3.2"/><circle clip-path="url(#b)" cx="979.005" cy="1386.4" fill="#009af9" fill-rule="evenodd" r="7.2" stroke="#000" stroke-width="3.2"/><circle clip-path="url(#b)" cx="1198.1" cy="738.14" fill="#009af9" fill-rule="evenodd" r="7.2" stroke="#000" stroke-width="3.2"/><circle clip-path="url(#b)" cx="1417.2" cy="781.41" fill="#009af9" fill-rule="evenodd" r="7.2" stroke="#000" stroke-width="3.2"/><circle clip-path="url(#b)" cx="1636.3" cy="947.449" fill="#009af9" fill-rule="evenodd" r="7.2" stroke="#000" stroke-width="3.2"/><circle clip-path="url(#b)" cx="1855.4" cy="648.085" fill="#009af9" fill-rule="evenodd" r="7.2" stroke="#000" stroke-width="3.2"/><circle clip-path="url(#b)" cx="2074.5" cy="160.256" fill="#009af9" fill-rule="evenodd" r="7.2" stroke="#000" stroke-width="3.2"/><circle clip-path="url(#b)" cx="2293.6" cy="890.219" fill="#009af9" fill-rule="evenodd" r="7.2" stroke="#000" stroke-width="3.2"/><path d="m321.708 1292.46 19.719-7.66 19.719-7.67 19.719-7.66 19.719-7.67 19.719-7.66 19.718-7.67 19.719-7.66 19.719-7.67 19.719-7.66 19.719-7.67 19.719-7.67 19.719-7.66 19.719-7.67 19.719-7.66 19.719-7.67 19.719-7.66 19.718-7.67 19.719-7.66 19.719-7.67 19.719-7.66 19.719-7.67 19.719-7.66 19.719-7.67 19.719-7.66 19.719-7.67 19.719-7.66 19.719-7.67 19.718-7.66 19.719-7.67 19.719-7.66 19.719-7.67 19.719-7.66 19.719-7.67 19.719-7.67 19.719-7.66 19.72-7.67 19.72-7.66 19.72-7.67 19.72-7.661 19.71-7.666 19.72-7.665 19.72-7.665 19.72-7.665 19.72-7.665 19.72-7.666 19.72-7.665 19.72-7.665 19.72-7.665 19.71-7.665 19.72-7.666 19.72-7.665 19.72-7.665 19.72-7.665 19.72-7.666 19.72-7.665 19.72-7.665 19.72-7.665 19.71-7.665 19.72-7.666 19.72-7.665 19.72-7.665 19.72-7.665 19.72-7.666 19.72-7.665 19.72-7.665 19.72-7.665 19.72-7.665 19.71-7.666 19.72-7.665 19.72-7.665 19.72-7.665 19.72-7.666 19.72-7.665 19.72-7.665 19.72-7.665 19.72-7.665 19.71-7.666 19.72-7.665 19.72-7.665 19.72-7.665 19.72-7.666 19.72-7.665 19.72-7.665 19.72-7.665 19.72-7.665 19.71-7.666 19.72-7.665 19.72-7.665 19.72-7.665 19.72-7.666 19.72-7.665 19.72-7.665 19.72-7.665 19.72-7.665 19.71-7.666 19.72-7.665 19.72-7.665 19.72-7.665 19.72-7.666 19.72-7.665" style="stroke:#e26f46;stroke-linecap:round;stroke-linejoin:round;stroke-width:4;fill:none;clip-path:url(#b)"/><path d="m321.708 1329.24 19.719-10.12 19.719-10.07 19.719-10.03 19.719-9.97 19.719-9.93 19.718-9.87 19.719-9.83 19.719-9.77 19.719-9.73 19.719-9.67 19.719-9.63 19.719-9.58 19.719-9.52 19.719-9.48 19.719-9.43 19.719-9.38 19.718-9.33 19.719-9.28 19.719-9.22 19.719-9.18 19.719-9.13 19.719-9.08 19.719-9.04 19.719-8.98 19.719-8.93 19.719-8.88 19.719-8.83 19.718-8.78 19.719-8.74 19.719-8.68 19.719-8.63 19.719-8.59 19.719-8.53 19.719-8.49 19.719-8.43 19.72-8.386 19.72-8.335 19.72-8.286 19.72-8.236 19.71-8.187 19.72-8.137 19.72-8.087 19.72-8.038 19.72-7.988 19.72-7.938 19.72-7.889 19.72-7.839 19.72-7.789 19.71-7.74 19.72-7.69 19.72-7.64 19.72-7.591 19.72-7.541 19.72-7.491 19.72-7.442 19.72-7.392 19.72-7.343 19.71-7.293 19.72-7.243 19.72-7.193 19.72-7.144 19.72-7.094 19.72-7.045 19.72-6.995 19.72-6.945 19.72-6.896 19.72-6.846 19.71-6.796 19.72-6.747 19.72-6.697 19.72-6.647 19.72-6.598 19.72-6.548 19.72-6.498 19.72-6.449 19.72-6.399 19.71-6.349 19.72-6.3 19.72-6.25 19.72-6.201 19.72-6.151 19.72-6.101 19.72-6.051 19.72-6.002 19.72-5.952 19.71-5.903 19.72-5.853 19.72-5.803 19.72-5.754 19.72-5.703 19.72-5.655 19.72-5.604 19.72-5.555 19.72-5.506 19.71-5.455 19.72-5.406 19.72-5.357 19.72-5.306 19.72-5.258 19.72-5.207" style="stroke:#3da44d;stroke-linecap:round;stroke-linejoin:round;stroke-width:4;fill:none;clip-path:url(#b)"/><path d="m321.708 1192.39 19.719 11.82 19.719 10.7 19.719 9.62 19.719 8.54 19.719 7.51 19.718 6.48 19.719 5.49 19.719 4.52 19.719 3.57 19.719 2.65 19.719 1.74 19.719.87 19.719.01 19.719-.81 19.719-1.62 19.719-2.4 19.718-3.16 19.719-3.89 19.719-4.61 19.719-5.29 19.719-5.95 19.719-6.59 19.719-7.21 19.719-7.8 19.719-8.37 19.719-8.91 19.719-9.43 19.718-9.93 19.719-10.4 19.719-10.86 19.719-11.27 19.719-11.68 19.719-12.06 19.719-12.41 19.719-12.74 19.72-13.04 19.72-13.33 19.72-13.59 19.72-13.83 19.71-14.04 19.72-14.22 19.72-14.39 19.72-14.527 19.72-14.646 19.72-14.738 19.72-14.808 19.72-14.853 19.72-14.874 19.71-14.872 19.72-14.847 19.72-14.797 19.72-14.723 19.72-14.626 19.72-14.505 19.72-14.361 19.72-14.192 19.72-14 19.71-13.784 19.72-13.545 19.72-13.281 19.72-12.993 19.72-12.683 19.72-12.348 19.72-11.99 19.72-11.608 19.72-11.201 19.72-10.772 19.71-10.318 19.72-9.841 19.72-9.341 19.72-8.815 19.72-8.267 19.72-7.695 19.72-7.098 19.72-6.479 19.72-5.836 19.71-5.168 19.72-4.477 19.72-3.763 19.72-3.024 19.72-2.261 19.72-1.476 19.72-.666 19.72.168 19.72 1.024 19.71 1.906 19.72 2.811 19.72 3.739 19.72 4.692 19.72 5.667 19.72 6.668 19.72 7.691 19.72 8.738 19.72 9.809 19.71 10.904 19.72 12.023 19.72 13.165 19.72 14.331 19.72 15.521 19.72 16.735" style="stroke:#c271d2;stroke-linecap:round;stroke-linejoin:round;stroke-width:4;fill:none;clip-path:url(#b)"/><path d="m321.708 1318.43 19.918-9.56 19.918-9.52 19.918-9.48 19.918-9.44 19.918-9.4 19.919-9.35 19.918-9.32 19.918-9.27 19.918-9.23 19.918-9.19 19.918-9.15 19.918-9.11 19.918-9.08 19.918-9.03 19.918-8.99 19.918-8.95 19.919-8.91 19.918-8.88 19.918-8.83 19.918-8.79 19.918-8.76 19.918-8.72 19.918-8.68 19.918-8.64 19.918-8.6 19.918-8.57 19.918-8.53 19.919-8.49 19.918-8.45 19.918-8.42 19.918-8.37 19.918-8.35 19.918-8.3 19.918-8.27 19.917-8.23 19.92-8.198 19.92-8.16 19.92-8.124 19.91-8.088 19.92-8.053 19.92-8.017 19.92-7.982 19.92-7.947 19.91-7.912 19.92-7.877 19.92-7.842 19.92-7.808 19.92-7.773 19.91-7.74 19.92-7.705 19.92-7.671 19.92-7.638 19.92-7.604 19.91-7.571 19.92-7.537 19.92-7.504 19.92-7.471 19.92-7.438 19.92-7.406 19.91-7.372 19.92-7.341 19.92-7.308 19.92-7.276 19.92-7.244 19.91-7.212 19.92-7.18 19.92-7.149 19.92-7.117 19.92-7.086 19.91-7.055 19.92-7.024 19.92-6.993 19.92-6.962 19.92-6.931 19.91-6.901 19.92-6.871 19.92-6.84 19.92-6.81 19.92-6.78 19.92-6.751 19.91-6.721 19.92-6.691 19.92-6.661 19.92-6.633 19.92-6.603 19.91-6.574 19.92-6.545 19.92-6.517 19.92-6.488 19.92-6.459 19.91-6.431 19.92-6.402 19.92-6.375 19.92-6.346 19.92-6.318 19.91-6.291 19.92-6.263 19.92-6.235 19.92-6.208" style="stroke:#ac8d18;stroke-linecap:round;stroke-linejoin:round;stroke-width:4;fill:none;clip-path:url(#b)"/><path d="m321.708 1318.43 19.918-9.56 19.918-9.52 19.918-9.48 19.918-9.44 19.918-9.4 19.919-9.35 19.918-9.32 19.918-9.27 19.918-9.23 19.918-9.19 19.918-9.15 19.918-9.11 19.918-9.08 19.918-9.03 19.918-8.99 19.918-8.95 19.919-8.91 19.918-8.88 19.918-8.83 19.918-8.79 19.918-8.76 19.918-8.72 19.918-8.68 19.918-8.64 19.918-8.6 19.918-8.57 19.918-8.53 19.919-8.49 19.918-8.45 19.918-8.42 19.918-8.37 19.918-8.35 19.918-8.3 19.918-8.27 19.917-8.23 19.92-8.198 19.92-8.16 19.92-8.124 19.91-8.088 19.92-8.053 19.92-8.017 19.92-7.982 19.92-7.947 19.91-7.912 19.92-7.877 19.92-7.842 19.92-7.808 19.92-7.773 19.91-7.74 19.92-7.705 19.92-7.671 19.92-7.638 19.92-7.604 19.91-7.571 19.92-7.537 19.92-7.504 19.92-7.471 19.92-7.438 19.92-7.406 19.91-7.372 19.92-7.341 19.92-7.308 19.92-7.276 19.92-7.244 19.91-7.212 19.92-7.18 19.92-7.149 19.92-7.117 19.92-7.086 19.91-7.055 19.92-7.024 19.92-6.993 19.92-6.962 19.92-6.931 19.91-6.901 19.92-6.871 19.92-6.84 19.92-6.81 19.92-6.78 19.92-6.751 19.91-6.721 19.92-6.691 19.92-6.661 19.92-6.633 19.92-6.603 19.91-6.574 19.92-6.545 19.92-6.517 19.92-6.488 19.92-6.459 19.91-6.431 19.92-6.402 19.92-6.375 19.92-6.346 19.92-6.318 19.91-6.291 19.92-6.263 19.92-6.235 19.92-6.208" style="stroke:#00a9ad;stroke-linecap:round;stroke-linejoin:round;stroke-width:4;fill:none;clip-path:url(#b)"/><path clip-path="url(#a)" d="m332.225 529.676h685.895v-362.88h-685.895z" fill="#fff" fill-rule="evenodd"/><path d="m332.225 529.676h685.895v-362.88h-685.895z" style="stroke:#000;stroke-linecap:round;stroke-linejoin:round;stroke-width:4;fill:none;clip-path:url(#a)"/><path d="m355.449 218.636h139.347" style="stroke:#009af9;stroke-linecap:round;stroke-linejoin:round;stroke-width:4;fill:none;clip-path:url(#a)"/><circle clip-path="url(#a)" cx="425.123" cy="218.636" fill="#009af9" fill-rule="evenodd" r="18.432" stroke="#000" stroke-width="8.192"/><path clip-path="url(#a)" d="m518.021 201.356h21.851v3.935h-17.175v10.231h16.458v3.935h-16.458v12.524h17.592v3.935h-22.268z"/><path clip-path="url(#a)" d="m562.812 213.971q-.717-.416-1.574-.601-.833-.209-1.852-.209-3.611 0-5.555 2.361-1.922 2.338-1.922 6.736v13.658h-4.282v-25.926h4.282v4.028q1.343-2.361 3.496-3.496 2.153-1.157 5.231-1.157.44 0 .972.069.533.047 1.181.162z"/><path clip-path="url(#a)" d="m581.469 213.971q-.717-.416-1.574-.601-.833-.209-1.851-.209-3.612 0-5.556 2.361-1.921 2.338-1.921 6.736v13.658h-4.283v-25.926h4.283v4.028q1.342-2.361 3.495-3.496 2.153-1.157 5.232-1.157.439 0 .972.069.532.047 1.18.162z"/><path clip-path="url(#a)" d="m594.942 212.976q-3.426 0-5.417 2.685-1.991 2.662-1.991 7.315 0 4.653 1.968 7.338 1.991 2.662 5.44 2.662 3.402 0 5.393-2.685 1.991-2.685 1.991-7.315 0-4.606-1.991-7.292-1.991-2.708-5.393-2.708m0-3.611q5.555 0 8.726 3.611 3.172 3.611 3.172 10 0 6.366-3.172 10-3.171 3.611-8.726 3.611-5.579 0-8.75-3.611-3.149-3.634-3.149-10 0-6.389 3.149-10 3.171-3.611 8.75-3.611z"/><path clip-path="url(#a)" d="m628.923 213.971q-.718-.416-1.574-.601-.834-.209-1.852-.209-3.611 0-5.556 2.361-1.921 2.338-1.921 6.736v13.658h-4.282v-25.926h4.282v4.028q1.343-2.361 3.495-3.496 2.153-1.157 5.232-1.157.44 0 .972.069.533.047 1.181.162z"/><path d="m355.449 270.476h139.347" style="stroke:#e26f46;stroke-linecap:round;stroke-linejoin:round;stroke-width:4;fill:none;clip-path:url(#a)"/><path clip-path="url(#a)" d="m518.021 253.196h4.676v30.625h16.828v3.935h-21.504z"/><path clip-path="url(#a)" d="m544.247 261.83h4.26v25.926h-4.26zm0-10.093h4.26v5.394h-4.26z"/><path clip-path="url(#a)" d="m578.969 272.108v15.648h-4.259v-15.509q0-3.681-1.435-5.51-1.435-1.828-4.306-1.828-3.449 0-5.439 2.199-1.991 2.199-1.991 5.995v14.653h-4.282v-25.926h4.282v4.028q1.528-2.338 3.588-3.496 2.083-1.157 4.792-1.157 4.467 0 6.759 2.778 2.291 2.754 2.291 8.125z"/><path clip-path="url(#a)" d="m609.641 273.728v2.083h-19.584q.278 4.398 2.639 6.713 2.384 2.292 6.621 2.292 2.453 0 4.745-.602 2.315-.602 4.583-1.805v4.027q-2.291.972-4.699 1.482-2.407.509-4.884.509-6.204 0-9.838-3.611-3.611-3.611-3.611-9.769 0-6.365 3.426-10.092 3.449-3.75 9.282-3.75 5.232 0 8.264 3.38 3.056 3.356 3.056 9.143m-4.26-1.25q-.046-3.495-1.967-5.579-1.898-2.083-5.047-2.083-3.564 0-5.717 2.014-2.13 2.014-2.454 5.671z"/><path clip-path="url(#a)" d="m628.414 274.723q-5.162 0-7.153 1.181-1.991 1.18-1.991 4.028 0 2.268 1.482 3.611 1.504 1.319 4.074 1.319 3.541 0 5.671-2.5 2.153-2.523 2.153-6.69v-.949zm8.495-1.759v14.792h-4.259v-3.935q-1.459 2.361-3.635 3.495-2.175 1.111-5.324 1.111-3.981 0-6.342-2.222-2.338-2.246-2.338-5.996 0-4.375 2.917-6.597 2.939-2.222 8.75-2.222h5.972v-.417q0-2.939-1.945-4.537-1.921-1.62-5.416-1.62-2.223 0-4.329.532-2.107.533-4.051 1.598v-3.936q2.338-.902 4.537-1.342 2.199-.463 4.282-.463 5.625 0 8.403 2.917 2.778 2.916 2.778 8.842z"/><path clip-path="url(#a)" d="m660.705 265.811q-.717-.416-1.574-.601-.833-.209-1.852-.209-3.611 0-5.555 2.361-1.922 2.338-1.922 6.736v13.658h-4.282v-25.926h4.282v4.028q1.343-2.361 3.496-3.496 2.153-1.157 5.231-1.157.44 0 .972.069.533.047 1.181.162z"/><path d="m355.449 322.316h139.347" style="stroke:#3da44d;stroke-linecap:round;stroke-linejoin:round;stroke-width:4;fill:none;clip-path:url(#a)"/><path clip-path="url(#a)" d="m534.039 308.207q-5.092 0-8.102 3.796-2.986 3.797-2.986 10.347 0 6.528 2.986 10.324 3.01 3.797 8.102 3.797 5.093 0 8.056-3.797 2.986-3.796 2.986-10.324 0-6.55-2.986-10.347-2.963-3.796-8.056-3.796m6.551 30.764 6.157 6.736h-5.648l-5.115-5.533q-.764.047-1.181.07-.394.023-.764.023-7.292 0-11.666-4.861-4.352-4.884-4.352-13.056 0-8.194 4.352-13.055 4.374-4.884 11.666-4.884 7.269 0 11.62 4.884 4.352 4.861 4.352 13.055 0 6.019-2.43 10.301-2.408 4.283-6.991 6.32z"/><path clip-path="url(#a)" d="m556.701 329.364v-15.694h4.259v15.532q0 3.681 1.435 5.533 1.436 1.828 4.306 1.828 3.449 0 5.44-2.199 2.014-2.199 2.014-5.995v-14.699h4.259v25.926h-4.259v-3.982q-1.551 2.361-3.611 3.519-2.037 1.134-4.746 1.134-4.467 0-6.782-2.778-2.315-2.778-2.315-8.125"/><path clip-path="url(#a)" d="m598.969 326.563q-5.162 0-7.152 1.181-1.991 1.18-1.991 4.028 0 2.268 1.481 3.611 1.505 1.319 4.074 1.319 3.542 0 5.672-2.5 2.152-2.523 2.152-6.69v-.949zm8.496-1.759v14.792h-4.26v-3.935q-1.458 2.361-3.634 3.495-2.176 1.111-5.324 1.111-3.981 0-6.342-2.222-2.338-2.246-2.338-5.996 0-4.375 2.916-6.597 2.94-2.222 8.75-2.222h5.972v-.417q0-2.939-1.944-4.537-1.921-1.62-5.417-1.62-2.222 0-4.328.532-2.107.533-4.051 1.598v-3.936q2.338-.902 4.537-1.342 2.199-.463 4.282-.463 5.625 0 8.403 2.917 2.778 2.916 2.778 8.842z"/><path clip-path="url(#a)" d="m633.298 317.605v-14.028h4.259v36.019h-4.259v-3.889q-1.343 2.315-3.403 3.449-2.037 1.111-4.907 1.111-4.699 0-7.662-3.75-2.94-3.75-2.94-9.861 0-6.111 2.94-9.861 2.963-3.75 7.662-3.75 2.87 0 4.907 1.134 2.06 1.111 3.403 3.426m-14.514 9.051q0 4.699 1.921 7.384 1.945 2.662 5.324 2.662 3.38 0 5.324-2.662 1.945-2.685 1.945-7.384 0-4.699-1.945-7.361-1.944-2.685-5.324-2.685-3.379 0-5.324 2.685-1.921 2.662-1.921 7.361z"/><path clip-path="url(#a)" d="m661.353 317.651q-.717-.416-1.574-.601-.833-.209-1.852-.209-3.611 0-5.555 2.361-1.921 2.338-1.921 6.736v13.658h-4.283v-25.926h4.283v4.028q1.342-2.361 3.495-3.496 2.153-1.157 5.231-1.157.44 0 .973.069.532.047 1.18.162z"/><path clip-path="url(#a)" d="m677.603 326.563q-5.162 0-7.153 1.181-1.99 1.18-1.99 4.028 0 2.268 1.481 3.611 1.505 1.319 4.074 1.319 3.542 0 5.671-2.5 2.153-2.523 2.153-6.69v-.949zm8.495-1.759v14.792h-4.259v-3.935q-1.458 2.361-3.634 3.495-2.176 1.111-5.324 1.111-3.981 0-6.343-2.222-2.338-2.246-2.338-5.996 0-4.375 2.917-6.597 2.94-2.222 8.75-2.222h5.972v-.417q0-2.939-1.944-4.537-1.921-1.62-5.417-1.62-2.222 0-4.329.532-2.106.533-4.05 1.598v-3.936q2.338-.902 4.537-1.342 2.199-.463 4.282-.463 5.625 0 8.403 2.917 2.777 2.916 2.777 8.842z"/><path clip-path="url(#a)" d="m699.085 306.309v7.361h8.773v3.31h-8.773v14.074q0 3.171.856 4.074.88.903 3.542.903h4.375v3.565h-4.375q-4.931 0-6.806-1.829-1.875-1.852-1.875-6.713v-14.074h-3.125v-3.31h3.125v-7.361z"/><path clip-path="url(#a)" d="m713.459 313.67h4.26v25.926h-4.26zm0-10.093h4.26v5.394h-4.26z"/><path clip-path="url(#a)" d="m745.288 314.665v3.982q-1.806-.996-3.634-1.482-1.806-.509-3.658-.509-4.143 0-6.435 2.639-2.291 2.616-2.291 7.361 0 4.745 2.291 7.384 2.292 2.616 6.435 2.616 1.852 0 3.658-.486 1.828-.509 3.634-1.505v3.935q-1.782.834-3.704 1.25-1.898.417-4.051.417-5.856 0-9.305-3.681-3.449-3.68-3.449-9.93 0-6.343 3.472-9.977 3.495-3.634 9.56-3.634 1.968 0 3.843.417 1.875.393 3.634 1.203z"/><path d="m355.449 374.156h139.347" style="stroke:#c271d2;stroke-linecap:round;stroke-linejoin:round;stroke-width:4;fill:none;clip-path:url(#a)"/><path clip-path="url(#a)" d="m545.891 359.538v4.93q-2.361-2.199-5.046-3.287-2.662-1.088-5.672-1.088-5.926 0-9.074 3.635-3.148 3.611-3.148 10.462 0 6.829 3.148 10.463 3.148 3.611 9.074 3.611 3.01 0 5.672-1.088 2.685-1.087 5.046-3.287v4.885q-2.454 1.666-5.208 2.5-2.732.833-5.787.833-7.848 0-12.361-4.792-4.514-4.814-4.514-13.125 0-8.333 4.514-13.124 4.513-4.815 12.361-4.815 3.101 0 5.833.833 2.755.81 5.162 2.454z"/><path clip-path="url(#a)" d="m552.488 381.204v-15.694h4.259v15.532q0 3.681 1.436 5.533 1.435 1.828 4.305 1.828 3.449 0 5.44-2.199 2.014-2.199 2.014-5.995v-14.699h4.259v25.926h-4.259v-3.982q-1.551 2.361-3.611 3.519-2.037 1.134-4.746 1.134-4.467 0-6.782-2.778-2.315-2.778-2.315-8.125"/><path clip-path="url(#a)" d="m601.585 378.496q0-4.699-1.944-7.361-1.922-2.685-5.301-2.685-3.38 0-5.324 2.685-1.922 2.662-1.922 7.361 0 4.699 1.922 7.384 1.944 2.662 5.324 2.662 3.379 0 5.301-2.662 1.944-2.685 1.944-7.384m-14.491-9.051q1.343-2.315 3.38-3.426 2.06-1.134 4.907-1.134 4.723 0 7.662 3.75 2.963 3.75 2.963 9.861 0 6.111-2.963 9.861-2.939 3.75-7.662 3.75-2.847 0-4.907-1.111-2.037-1.134-3.38-3.449v3.889h-4.282v-36.019h4.282z"/><path clip-path="url(#a)" d="m613.066 365.51h4.26v25.926h-4.26zm0-10.093h4.26v5.394h-4.26z"/><path clip-path="url(#a)" d="m644.895 366.505v3.982q-1.806-.996-3.634-1.482-1.806-.509-3.658-.509-4.143 0-6.435 2.639-2.291 2.616-2.291 7.361 0 4.745 2.291 7.384 2.292 2.616 6.435 2.616 1.852 0 3.658-.486 1.828-.509 3.634-1.505v3.935q-1.782.834-3.704 1.25-1.898.417-4.051.417-5.856 0-9.305-3.681-3.449-3.68-3.449-9.93 0-6.343 3.472-9.977 3.495-3.634 9.56-3.634 1.968 0 3.843.417 1.875.393 3.634 1.203z"/><path d="m355.449 425.996h139.347" style="stroke:#ac8d18;stroke-linecap:round;stroke-linejoin:round;stroke-width:4;fill:none;clip-path:url(#a)"/><path clip-path="url(#a)" d="m518.021 408.716h21.851v3.935h-17.175v10.231h16.458v3.935h-16.458v12.524h17.592v3.935h-22.268z"/><path clip-path="url(#a)" d="m569.34 417.35-9.375 12.616 9.861 13.31h-5.023l-7.546-10.185-7.547 10.185h-5.023l10.07-13.565-9.213-12.361h5.023l6.875 9.236 6.875-9.236z"/><path clip-path="url(#a)" d="m579.965 439.387v13.75h-4.283v-35.787h4.283v3.935q1.342-2.315 3.379-3.426 2.061-1.134 4.908-1.134 4.722 0 7.662 3.75 2.963 3.75 2.963 9.861 0 6.111-2.963 9.861-2.94 3.75-7.662 3.75-2.847 0-4.908-1.111-2.037-1.134-3.379-3.449m14.49-9.051q0-4.699-1.944-7.361-1.921-2.685-5.301-2.685-3.379 0-5.324 2.685-1.921 2.662-1.921 7.361 0 4.699 1.921 7.384 1.945 2.662 5.324 2.662 3.38 0 5.301-2.662 1.944-2.685 1.944-7.384z"/><path clip-path="url(#a)" d="m615.983 420.336q-3.426 0-5.417 2.685-1.99 2.662-1.99 7.315 0 4.653 1.967 7.338 1.991 2.662 5.44 2.662 3.403 0 5.394-2.685 1.99-2.685 1.99-7.315 0-4.606-1.99-7.292-1.991-2.708-5.394-2.708m0-3.611q5.556 0 8.727 3.611 3.171 3.611 3.171 10 0 6.366-3.171 10-3.171 3.611-8.727 3.611-5.579 0-8.75-3.611-3.148-3.634-3.148-10 0-6.389 3.148-10 3.171-3.611 8.75-3.611z"/><path clip-path="url(#a)" d="m656.492 427.628v15.648h-4.259v-15.509q0-3.681-1.435-5.51-1.435-1.828-4.306-1.828-3.449 0-5.44 2.199-1.99 2.199-1.99 5.995v14.653h-4.283v-25.926h4.283v4.028q1.527-2.338 3.588-3.496 2.083-1.157 4.791-1.157 4.468 0 6.76 2.778 2.291 2.754 2.291 8.125z"/><path clip-path="url(#a)" d="m687.163 429.248v2.083h-19.583q.278 4.398 2.639 6.713 2.384 2.292 6.62 2.292 2.454 0 4.746-.602 2.314-.602 4.583-1.805v4.027q-2.292.972-4.699 1.482-2.408.509-4.884.509-6.204 0-9.838-3.611-3.611-3.611-3.611-9.769 0-6.365 3.426-10.092 3.449-3.75 9.282-3.75 5.231 0 8.264 3.38 3.055 3.356 3.055 9.143m-4.259-1.25q-.046-3.495-1.968-5.579-1.898-2.083-5.046-2.083-3.565 0-5.717 2.014-2.13 2.014-2.454 5.671z"/><path clip-path="url(#a)" d="m715.705 427.628v15.648h-4.259v-15.509q0-3.681-1.436-5.51-1.435-1.828-4.305-1.828-3.449 0-5.44 2.199-1.991 2.199-1.991 5.995v14.653h-4.282v-25.926h4.282v4.028q1.528-2.338 3.588-3.496 2.084-1.157 4.792-1.157 4.468 0 6.759 2.778 2.292 2.754 2.292 8.125z"/><path clip-path="url(#a)" d="m728.413 409.989v7.361h8.773v3.31h-8.773v14.074q0 3.171.857 4.074.879.903 3.541.903h4.375v3.565h-4.375q-4.93 0-6.805-1.829-1.875-1.852-1.875-6.713v-14.074h-3.125v-3.31h3.125v-7.361z"/><path clip-path="url(#a)" d="m742.788 417.35h4.259v25.926h-4.259zm0-10.093h4.259v5.394h-4.259z"/><path clip-path="url(#a)" d="m767.742 430.243q-5.162 0-7.153 1.181-1.991 1.18-1.991 4.028 0 2.268 1.482 3.611 1.504 1.319 4.074 1.319 3.541 0 5.671-2.5 2.153-2.523 2.153-6.69v-.949zm8.495-1.759v14.792h-4.259v-3.935q-1.459 2.361-3.635 3.495-2.175 1.111-5.324 1.111-3.981 0-6.342-2.222-2.338-2.246-2.338-5.996 0-4.375 2.917-6.597 2.939-2.222 8.749-2.222h5.973v-.417q0-2.939-1.945-4.537-1.921-1.62-5.416-1.62-2.223 0-4.329.532-2.107.533-4.051 1.598v-3.936q2.338-.902 4.537-1.342 2.199-.463 4.282-.463 5.625 0 8.403 2.917 2.778 2.916 2.778 8.842z"/><path clip-path="url(#a)" d="m785.01 407.257h4.259v36.019h-4.259z"/><path d="m355.449 477.836h139.347" style="stroke:#00a9ad;stroke-linecap:round;stroke-linejoin:round;stroke-width:4;fill:none;clip-path:url(#a)"/><path clip-path="url(#a)" d="m534.409 478.912q1.505.509 2.917 2.176 1.435 1.667 2.87 4.583l4.746 9.445h-5.023l-4.422-8.866q-1.713-3.472-3.333-4.606-1.597-1.135-4.375-1.135h-5.092v14.607h-4.676v-34.56h10.555q5.926 0 8.843 2.477 2.916 2.476 2.916 7.476 0 3.264-1.527 5.417-1.505 2.153-4.399 2.986m-11.712-14.514v12.269h5.879q3.38 0 5.093-1.551 1.736-1.574 1.736-4.607 0-3.032-1.736-4.56-1.713-1.551-5.093-1.551z"/><path clip-path="url(#a)" d="m570.821 481.088v2.083h-19.583q.278 4.398 2.639 6.713 2.384 2.292 6.62 2.292 2.454 0 4.746-.602 2.314-.602 4.583-1.805v4.027q-2.292.972-4.699 1.482-2.407.509-4.884.509-6.204 0-9.838-3.611-3.611-3.611-3.611-9.769 0-6.365 3.426-10.092 3.449-3.75 9.282-3.75 5.231 0 8.264 3.38 3.055 3.356 3.055 9.143m-4.259-1.25q-.046-3.495-1.967-5.579-1.899-2.083-5.047-2.083-3.565 0-5.717 2.014-2.13 2.014-2.454 5.671z"/><path clip-path="url(#a)" d="m574.756 469.19h4.514l8.102 21.759 8.102-21.759h4.514l-9.722 25.926h-5.787z"/><path clip-path="url(#a)" d="m628.043 481.088v2.083h-19.583q.278 4.398 2.639 6.713 2.384 2.292 6.62 2.292 2.454 0 4.746-.602 2.314-.602 4.583-1.805v4.027q-2.292.972-4.699 1.482-2.408.509-4.884.509-6.204 0-9.838-3.611-3.611-3.611-3.611-9.769 0-6.365 3.426-10.092 3.449-3.75 9.282-3.75 5.231 0 8.264 3.38 3.055 3.356 3.055 9.143m-4.259-1.25q-.046-3.495-1.968-5.579-1.898-2.083-5.046-2.083-3.565 0-5.717 2.014-2.13 2.014-2.454 5.671z"/><path clip-path="url(#a)" d="m650.057 473.171q-.718-.416-1.574-.601-.833-.209-1.852-.209-3.611 0-5.555 2.361-1.922 2.338-1.922 6.736v13.658h-4.282v-25.926h4.282v4.028q1.343-2.361 3.496-3.496 2.152-1.157 5.231-1.157.44 0 .972.069.533.047 1.181.162z"/><path clip-path="url(#a)" d="m671.052 469.954v4.028q-1.805-.926-3.75-1.389-1.944-.463-4.027-.463-3.172 0-4.769.972-1.574.972-1.574 2.917 0 1.481 1.134 2.338 1.134.833 4.56 1.597l1.459.324q4.537.972 6.435 2.754 1.921 1.76 1.921 4.931 0 3.611-2.87 5.718-2.847 2.106-7.847 2.106-2.084 0-4.352-.417-2.246-.393-4.746-1.203v-4.398q2.362 1.226 4.653 1.851 2.292.602 4.537.602 3.009 0 4.63-1.018 1.62-1.042 1.62-2.917 0-1.736-1.18-2.662-1.158-.926-5.116-1.782l-1.482-.348q-3.958-.833-5.717-2.546-1.759-1.736-1.759-4.745 0-3.658 2.592-5.648 2.593-1.991 7.361-1.991 2.361 0 4.445.347 2.083.347 3.842 1.042z"/><path clip-path="url(#a)" d="m701.399 481.088v2.083h-19.583q.278 4.398 2.639 6.713 2.384 2.292 6.62 2.292 2.454 0 4.746-.602 2.314-.602 4.583-1.805v4.027q-2.292.972-4.699 1.482-2.407.509-4.884.509-6.204 0-9.838-3.611-3.611-3.611-3.611-9.769 0-6.365 3.426-10.092 3.449-3.75 9.282-3.75 5.231 0 8.264 3.38 3.055 3.356 3.055 9.143m-4.259-1.25q-.046-3.495-1.967-5.579-1.899-2.083-5.047-2.083-3.565 0-5.717 2.014-2.13 2.014-2.454 5.671z"/><path clip-path="url(#a)" d="m723.645 460.556h21.851v3.935h-17.176v10.231h16.459v3.935h-16.459v12.524h17.593v3.935h-22.268z"/><path clip-path="url(#a)" d="m774.964 469.19-9.375 12.616 9.861 13.31h-5.023l-7.547-10.185-7.546 10.185h-5.023l10.069-13.565-9.212-12.361h5.023l6.875 9.236 6.875-9.236z"/><path clip-path="url(#a)" d="m785.589 491.227v13.75h-4.283v-35.787h4.283v3.935q1.342-2.315 3.379-3.426 2.06-1.134 4.908-1.134 4.722 0 7.662 3.75 2.963 3.75 2.963 9.861 0 6.111-2.963 9.861-2.94 3.75-7.662 3.75-2.848 0-4.908-1.111-2.037-1.134-3.379-3.449m14.49-9.051q0-4.699-1.944-7.361-1.921-2.685-5.301-2.685-3.38 0-5.324 2.685-1.921 2.662-1.921 7.361 0 4.699 1.921 7.384 1.944 2.662 5.324 2.662 3.38 0 5.301-2.662 1.944-2.685 1.944-7.384z"/><path clip-path="url(#a)" d="m821.607 472.176q-3.426 0-5.417 2.685-1.99 2.662-1.99 7.315 0 4.653 1.967 7.338 1.991 2.662 5.44 2.662 3.403 0 5.394-2.685 1.99-2.685 1.99-7.315 0-4.606-1.99-7.292-1.991-2.708-5.394-2.708m0-3.611q5.556 0 8.727 3.611 3.171 3.611 3.171 10 0 6.366-3.171 10-3.171 3.611-8.727 3.611-5.579 0-8.75-3.611-3.148-3.634-3.148-10 0-6.389 3.148-10 3.171-3.611 8.75-3.611z"/><path clip-path="url(#a)" d="m862.116 479.468v15.648h-4.259v-15.509q0-3.681-1.435-5.51-1.436-1.828-4.306-1.828-3.449 0-5.44 2.199-1.99 2.199-1.99 5.995v14.653h-4.283v-25.926h4.283v4.028q1.527-2.338 3.588-3.496 2.083-1.157 4.791-1.157 4.468 0 6.759 2.778 2.292 2.754 2.292 8.125z"/><path clip-path="url(#a)" d="m892.787 481.088v2.083h-19.583q.278 4.398 2.639 6.713 2.384 2.292 6.62 2.292 2.454 0 4.746-.602 2.314-.602 4.583-1.805v4.027q-2.292.972-4.699 1.482-2.408.509-4.884.509-6.204 0-9.838-3.611-3.611-3.611-3.611-9.769 0-6.365 3.425-10.092 3.45-3.75 9.283-3.75 5.231 0 8.264 3.38 3.055 3.356 3.055 9.143m-4.259-1.25q-.046-3.495-1.968-5.579-1.898-2.083-5.046-2.083-3.565 0-5.717 2.014-2.13 2.014-2.454 5.671z"/><path clip-path="url(#a)" d="m921.329 479.468v15.648h-4.26v-15.509q0-3.681-1.435-5.51-1.435-1.828-4.305-1.828-3.449 0-5.44 2.199-1.991 2.199-1.991 5.995v14.653h-4.282v-25.926h4.282v4.028q1.528-2.338 3.588-3.496 2.084-1.157 4.792-1.157 4.467 0 6.759 2.778 2.292 2.754 2.292 8.125z"/><path clip-path="url(#a)" d="m934.037 461.829v7.361h8.773v3.31h-8.773v14.074q0 3.171.856 4.074.88.903 3.542.903h4.375v3.565h-4.375q-4.93 0-6.805-1.829-1.875-1.852-1.875-6.713v-14.074h-3.125v-3.31h3.125v-7.361z"/><path clip-path="url(#a)" d="m948.412 469.19h4.259v25.926h-4.259zm0-10.093h4.259v5.394h-4.259z"/><path clip-path="url(#a)" d="m973.365 482.083q-5.162 0-7.152 1.181-1.991 1.18-1.991 4.028 0 2.268 1.481 3.611 1.505 1.319 4.075 1.319 3.541 0 5.671-2.5 2.153-2.523 2.153-6.69v-.949zm8.496-1.759v14.792h-4.259v-3.935q-1.459 2.361-3.635 3.495-2.176 1.111-5.324 1.111-3.981 0-6.342-2.222-2.338-2.246-2.338-5.996 0-4.375 2.916-6.597 2.94-2.222 8.75-2.222h5.973v-.417q0-2.939-1.945-4.537-1.921-1.62-5.417-1.62-2.222 0-4.328.532-2.107.533-4.051 1.598v-3.936q2.338-.902 4.537-1.342 2.199-.463 4.282-.463 5.625 0 8.403 2.917 2.778 2.916 2.778 8.842z"/><path clip-path="url(#a)" d="m990.634 459.097h4.259v36.019h-4.259z"/></svg>